<svg id="Layer_1" data-name="Layer 1" xmlns="http://www.w3.org/2000/svg" viewBox="0 0 820.33 820.33"><defs><style>.cls-1{fill:#5a7936;}.cls-2{fill:none;}.cls-3{font-size:73px;}.cls-3,.cls-5{fill:#405229;}.cls-3,.cls-4,.cls-7{font-family:Delicious-Heavy, Delicious Heavy;}.cls-4{font-size:102.73px;fill:#415228;}.cls-6{fill:#648561;}.cls-7{font-size:218.43px;fill:#fff;stroke:#415228;stroke-miterlimit:10;stroke-width:6px;}.cls-8{letter-spacing:-0.02em;}.cls-9{letter-spacing:0em;}</style></defs><title>Artboard 1 copy 48</title><path class="cls-1" d="M634.36,563.69c-16.52-20.13-46.56-70.6-57.85-86.64-13.32-18.94-28-28.1-28-23.92s20.21,35.54,26,48.08-1,23-14.43,10.46-93.34-93-109.69-109.75-25-28.22-36.57-24,4.81,44.95,10.59,58.15,16.35,21.29,36.55,26.51,19.25,15.68,22.14,25.09,14.43,35.53,27.91,38.67,28.86,19.86,32.71,41.81-10.59,17.76-16.37,0-26.93-22-41.37-29.27-6.73-29.27-21.16-42.85-20.21-14.64-37.53-8.36-25,8.36-35.6-15.68,1-46-12.51-59.58-10.59-24-13.47-46-26-51.22-53.88-73.17-54.84,38.68-54.84,38.68c-6.84,17.72,37.52,13.58,57.73,21.94s1,28.22,16.35,40.77,23.09,25.08,1,40.76-16.36,31.35,11.54,41.68,53.88,29.39,48.11,54.47-92.38-24-115.47-38.67,1,36.58,19.25,59.58,34.64,10.45,50,27.17,27.91,57.49,67.36,59.08,60.62-38.18,82.74-30.86c20.92,6.92,33.25,24.09,63.76,29.48q8.69-5.67,16.91-12l.33-.25.77-.61,2.05-1.64c1.19-1,2.38-1.93,3.55-2.91q3.78-3.13,7.45-6.41,7.83-7,15.13-14.52a260.81,260.81,0,0,0,25.69-30.72Q632.79,566,634.36,563.69Z"/><circle class="cls-2" cx="410.16" cy="410.17" r="284.17"/><text class="cls-3" transform="matrix(0.99, -0.15, 0.15, 0.99, 348.52, 102.05)">T</text><text class="cls-3" transform="translate(375.04 98.08) rotate(-4.89)">i</text><text class="cls-3" transform="translate(391.65 96.56) rotate(-1.35)">t</text><text class="cls-3" transform="matrix(1, 0.04, -0.04, 1, 413.24, 96.1)">l</text><text class="cls-3" transform="matrix(0.99, 0.12, -0.12, 0.99, 429.54, 96.33)">e</text><text class="cls-4" transform="translate(316.73 787.36)">TYPE</text><path class="cls-5" d="M652.38,238.9a300.87,300.87,0,0,0-141-107.64c-57.87-21.25-122.76-23.4-182-6.62A296.87,296.87,0,0,0,156,563.3C186.69,614,232.79,655.55,286.85,680a300.62,300.62,0,0,0,183.07,20.78c58.65-11.83,113.3-42.29,154.6-85.53,41.45-43.39,69.61-99.37,78.64-158.78a313.57,313.57,0,0,0,3.67-46.3C706.68,349.18,687.87,288.61,652.38,238.9ZM631.17,568.27A260.81,260.81,0,0,1,605.48,599q-7.29,7.53-15.13,14.52-3.66,3.27-7.45,6.41c-1.17,1-2.36,2-3.55,2.91l-2.05,1.64-.77.61-.33.25q-8.22,6.3-16.91,12c-30.51-5.39-42.84-22.56-63.76-29.48-22.12-7.32-43.29,32.45-82.74,30.86s-52-42.35-67.36-59.08-31.75-4.18-50-27.17-42.34-74.21-19.25-59.58,109.69,63.76,115.47,38.67-20.2-44.15-48.11-54.47-33.68-26-11.54-41.68,14.42-28.22-1-40.76,3.85-32.4-16.35-40.77-64.57-4.22-57.73-21.94c0,0,26.93-60.63,54.84-38.68s51,51.22,53.88,73.17,0,32.39,13.47,46S381,447.91,391.62,472s18.28,21.95,35.6,15.68,23.1-5.23,37.53,8.36,6.73,35.54,21.16,42.85,35.6,11.5,41.37,29.27,20.21,21.94,16.37,0-19.25-38.68-32.71-41.81S485.91,497,483,487.63s-1.93-19.87-22.14-25.09S430.11,449.23,424.34,436s-22.14-54-10.59-58.15,20.21,7.32,36.57,24S546.53,499.12,560,511.67s20.2,2.09,14.43-10.46-26-43.9-26-48.08,14.73,5,28,23.92c11.29,16,41.33,66.51,57.85,86.64Q632.78,566,631.17,568.27ZM657,523.73q-2.3-.86-4.58-1.75c-42.34-16.87-72.17-73-97.19-93.93s-52.91,2.09-52.91,2.09-40.42-44.94-65.44-70-44.26-5.23-44.26-5.23-56.77-60.62-74.09-79.43-31.75-9.41-69.28,22c-13.58,11.35-58.45,65.72-110.16,130.47a268.65,268.65,0,0,1,7.12-82.09,261.84,261.84,0,0,1,31.44-76.14,265.41,265.41,0,0,1,23.22-32.73A285.73,285.73,0,0,1,230,206.82a244.57,244.57,0,0,1,31.86-24.31,283.73,283.73,0,0,1,37-20.32c50.32-22.9,110.7-29.49,165.07-18.4a271.55,271.55,0,0,1,142.45,78.49q7.26,7.56,14,15.65c4.52,5.46,7.2,9,11.59,15.2a284.29,284.29,0,0,1,21.63,36.17A243.91,243.91,0,0,1,668.87,327a282.72,282.72,0,0,1,10,42.17,286.73,286.73,0,0,1,3,41A272.23,272.23,0,0,1,657,523.73Z"/><path class="cls-6" d="M652.59,532.76c.48-1,1-1.9,1.42-2.85C653.55,530.86,653.07,531.81,652.59,532.76Z"/><path class="cls-6" d="M654.87,528.15c.59-1.22,1.17-2.44,1.73-3.66C656,525.71,655.46,526.93,654.87,528.15Z"/><path class="cls-6" d="M249.21,297.41c37.53-31.36,52-40.77,69.28-22s74.09,79.43,74.09,79.43,19.24-19.86,44.26,5.23,65.44,70,65.44,70,27.89-23,52.91-2.09S610,505.11,652.38,522q2.28.9,4.58,1.75a272.23,272.23,0,0,0,24.87-113.56,286.73,286.73,0,0,0-3-41,282.72,282.72,0,0,0-10-42.17,243.91,243.91,0,0,0-15.31-37.68,284.29,284.29,0,0,0-21.63-36.17c-4.39-6.24-7.07-9.74-11.59-15.2s-9.11-10.61-14-15.65a271.55,271.55,0,0,0-142.45-78.49c-54.37-11.09-114.75-4.5-165.07,18.4a283.73,283.73,0,0,0-37,20.32A244.57,244.57,0,0,0,230,206.82a285.73,285.73,0,0,0-29.15,30.1,265.41,265.41,0,0,0-23.22,32.73,261.84,261.84,0,0,0-31.44,76.14,268.65,268.65,0,0,0-7.12,82.09C190.76,363.13,235.63,308.76,249.21,297.41Z"/><path class="cls-6" d="M649.54,538.63h0c.73-1.34,1.43-2.7,2.13-4C651,535.93,650.27,537.29,649.54,538.63Z"/><path class="cls-6" d="M168.79,535c-.69-1.3-1.36-2.61-2-3.93C167.43,532.35,168.1,533.66,168.79,535Z"/><path class="cls-6" d="M170.71,538.58l0,0h0Z"/><path class="cls-1" d="M433.22,485.63c.92-.28,1.8-.52,2.66-.73C435,485.11,434.14,485.35,433.22,485.63Z"/><path class="cls-1" d="M415.84,491.2c.83-.17,1.69-.39,2.57-.63C417.53,490.81,416.67,491,415.84,491.2Z"/><path class="cls-1" d="M418.41,490.57c1.33-.37,2.72-.81,4.19-1.31C421.13,489.76,419.74,490.2,418.41,490.57Z"/><path class="cls-1" d="M437.14,484.62a30.66,30.66,0,0,1,3.55-.57A30.66,30.66,0,0,0,437.14,484.62Z"/><path class="cls-1" d="M457.41,489.63c.74.57,1.51,1.18,2.29,1.84C458.92,490.81,458.15,490.2,457.41,489.63Z"/><path class="cls-1" d="M449.09,484.92a19.57,19.57,0,0,0-8.4-.87A19.57,19.57,0,0,1,449.09,484.92Z"/><path class="cls-1" d="M328.45,521.63c1.59.76,3.19,1.51,4.78,2.25C331.64,523.14,330,522.39,328.45,521.63Z"/><path class="cls-1" d="M468.25,500c.1.13.18.27.27.4C468.43,500.27,468.35,500.13,468.25,500Z"/><path class="cls-1" d="M342.74,528.1c1.57.66,3.13,1.31,4.67,1.93C345.87,529.41,344.31,528.76,342.74,528.1Z"/><path class="cls-1" d="M305.29,509.78l4.44,2.38Z"/><path class="cls-1" d="M411.14,491.76a23.64,23.64,0,0,0,4.7-.56A23.64,23.64,0,0,1,411.14,491.76Z"/><path class="cls-1" d="M401.08,487.5a14.88,14.88,0,0,0,4.81,3.29A14.88,14.88,0,0,1,401.08,487.5Z"/><path class="cls-1" d="M405.89,490.79a13.42,13.42,0,0,0,5.25,1A13.42,13.42,0,0,1,405.89,490.79Z"/><path class="cls-1" d="M520.24,530.44l.52.34Z"/><path class="cls-1" d="M522,531.62l-.47-.34Z"/><path class="cls-1" d="M270.09,490.29l.21,0Z"/><path class="cls-1" d="M522.71,532.18l.41.32Z"/><path class="cls-1" d="M517.73,529l.59.32Z"/><path class="cls-1" d="M519,529.66l.56.34Z"/><path class="cls-1" d="M523.92,533.14l.33.27Z"/><path class="cls-1" d="M467.2,498.62l.32.42Z"/><path class="cls-1" d="M525.13,534.16l.14.13Z"/><path class="cls-1" d="M470.82,504.35l.08.18Z"/><path class="cls-1" d="M466,497.28l.34.39Z"/><path class="cls-1" d="M470.05,502.87c.05.09.09.18.14.26C470.14,503.05,470.1,503,470.05,502.87Z"/><path class="cls-1" d="M469.2,501.42l.2.34Z"/><path class="cls-1" d="M471.5,505.86l0,.05Z"/><path class="cls-1" d="M270.71,490.37l.21,0Z"/><path class="cls-1" d="M353.15,337q-1.57-2.39-3.31-4.79Q351.58,334.6,353.15,337Z"/><path class="cls-1" d="M324.4,377.68c0,.48,0,1,0,1.44C324.38,378.64,324.39,378.16,324.4,377.68Z"/><path class="cls-1" d="M324.72,369.15c0,.46,0,.93,0,1.39C324.72,370.08,324.72,369.61,324.72,369.15Z"/><path class="cls-1" d="M324.71,370.54c-.06,2.33-.25,4.74-.31,7.14C324.46,375.28,324.65,372.87,324.71,370.54Z"/><path class="cls-1" d="M368.17,391.18c-.29-1.8-.51-3.67-.7-5.64C367.66,387.51,367.88,389.38,368.17,391.18Z"/><path class="cls-1" d="M367.33,384c-.45-5.06-.79-10.79-1.69-17.65-1.18-8.92-5.68-19-12.49-29.4,6.81,10.36,11.31,20.48,12.49,29.4C366.54,373.25,366.88,379,367.33,384Z"/><path class="cls-1" d="M516.47,528.3l.62.31Z"/><path class="cls-1" d="M370.77,537.5a113.06,113.06,0,0,1-14.32-4.07A113.06,113.06,0,0,0,370.77,537.5Z"/><path class="cls-1" d="M573.91,516.3c1.66-1.24,2.57-3.53,2.6-6.4C576.48,512.77,575.57,515.06,573.91,516.3Z"/><path class="cls-1" d="M370.77,537.5c11.2,2.26,19.22,1.08,20.85-6a31.33,31.33,0,0,0,.81-6.89,31.33,31.33,0,0,1-.81,6.89C390,538.58,382,539.76,370.77,537.5Z"/><path class="cls-1" d="M292.63,289.55c6.1-2.08,12.59-1.47,19.13,3.67a204.07,204.07,0,0,1,36.32,36.58,204.07,204.07,0,0,0-36.32-36.58C305.22,288.08,298.73,287.47,292.63,289.55Z"/><path class="cls-1" d="M292.63,289.55a28.19,28.19,0,0,0-4.79,2.21A28.19,28.19,0,0,1,292.63,289.55Z"/><path class="cls-1" d="M345.73,416.33c-.08,4.23-2.13,8.63-6.82,13.3C343.6,425,345.65,420.56,345.73,416.33Z"/><path class="cls-1" d="M368.17,391.18c.15.9.31,1.78.5,2.65C368.48,393,368.32,392.08,368.17,391.18Z"/><path class="cls-1" d="M273.94,491.58l.33.17Z"/><path class="cls-1" d="M268.07,490.73a.57.57,0,0,1,.13-.08A.57.57,0,0,0,268.07,490.73Z"/><path class="cls-1" d="M273.09,491.17l.3.14Z"/><path class="cls-1" d="M274.89,492.09l.29.17Z"/><path class="cls-1" d="M271.51,490.57l.08,0Z"/><path class="cls-1" d="M272.31,490.84l.23.09Z"/><path class="cls-1" d="M269,490.33l.14,0Z"/><path class="cls-1" d="M268.52,490.49l.07,0Z"/><path class="cls-1" d="M278.91,298.78c.7-.7,1.41-1.37,2.14-2C280.32,297.41,279.61,298.08,278.91,298.78Z"/><path class="cls-1" d="M267.73,491l.12-.11Z"/><path class="cls-1" d="M275.83,302c.66-.75,1.34-1.49,2-2.2C277.17,300.55,276.49,301.29,275.83,302Z"/><path class="cls-1" d="M269.53,490.28h0Z"/><path class="cls-1" d="M282.14,295.81c.74-.62,1.48-1.21,2.24-1.77C283.62,294.6,282.88,295.19,282.14,295.81Z"/><path class="cls-1" d="M347.41,530c2.31.93,4.6,1.8,6.83,2.61C352,531.83,349.72,531,347.41,530Z"/><path class="cls-1" d="M267.51,500.18c0,.1.05.2.08.31C267.56,500.38,267.53,500.28,267.51,500.18Z"/><path class="cls-1" d="M267.24,499.06a1,1,0,0,1,0,.17A1,1,0,0,0,267.24,499.06Z"/><path class="cls-1" d="M267.77,501.17c0,.13.07.26.11.39C267.84,501.43,267.8,501.3,267.77,501.17Z"/><path class="cls-1" d="M266.77,496.3a2.7,2.7,0,0,0,0,.28A2.7,2.7,0,0,1,266.77,496.3Z"/><path class="cls-1" d="M268.06,502.21c0,.13.08.27.13.4C268.14,502.48,268.1,502.34,268.06,502.21Z"/><path class="cls-1" d="M267,498l.06.31Z"/><path class="cls-1" d="M515.2,527.72l.66.29Z"/><path class="cls-1" d="M269.7,507.05l.18.48Z"/><path class="cls-1" d="M270.16,508.25l.18.49Z"/><path class="cls-1" d="M270.65,509.51l.18.45Z"/><path class="cls-1" d="M268.4,503.3l.12.39Z"/><path class="cls-1" d="M266.7,495.52a1.36,1.36,0,0,0,0,.2A1.36,1.36,0,0,1,266.7,495.52Z"/><path class="cls-1" d="M269.27,505.89l.16.43Z"/><path class="cls-1" d="M268.83,504.62l.06.17Z"/><path class="cls-1" d="M279.2,527.36c-.11-.2-.22-.4-.32-.6C279,527,279.09,527.16,279.2,527.36Z"/><path class="cls-1" d="M282.53,533.26l-.31-.53Z"/><path class="cls-1" d="M284.17,536c-.13-.2-.25-.4-.37-.61C283.92,535.6,284,535.8,284.17,536Z"/><path class="cls-1" d="M283.37,534.67l-.36-.61Z"/><path class="cls-1" d="M276.76,522.75l-.3-.59Z"/><path class="cls-1" d="M285.78,538.62l-.32-.51Z"/><path class="cls-1" d="M529.6,538.63a60.68,60.68,0,0,1,14,29.48c3.84,21.94-10.59,17.76-16.37,0s-26.93-22-41.37-29.27c-.13-.06-.24-.14-.36-.21H285.78a152.6,152.6,0,0,0,9.62,13.8c18.28,23,34.64,10.45,50,27.17s27.91,57.49,67.36,59.08,60.62-38.18,82.74-30.86c20.92,6.92,33.25,24.09,63.76,29.48q8.69-5.67,16.91-12l.33-.25.77-.61,2.05-1.64c1.19-1,2.38-1.93,3.55-2.91q3.78-3.13,7.45-6.41,7.83-7,15.13-14.52a260.81,260.81,0,0,0,25.69-30.72q1.62-2.28,3.19-4.58c-5-6.14-11.34-15.11-18-25.06Z"/><path class="cls-1" d="M285,537.32l-.36-.58Z"/><path class="cls-1" d="M278.4,525.87l-.25-.46Z"/><path class="cls-1" d="M277.46,524.11l-.27-.54Z"/><path class="cls-1" d="M281.49,531.45c-.11-.18-.21-.36-.31-.54C281.28,531.09,281.38,531.27,281.49,531.45Z"/><path class="cls-1" d="M271.28,511.05l.15.35Z"/><path class="cls-1" d="M280,528.74l-.34-.62Z"/><path class="cls-1" d="M280.72,530.11l-.34-.62Z"/><path class="cls-1" d="M266.88,497.12c0,.11,0,.21.05.32C266.91,497.33,266.9,497.23,266.88,497.12Z"/><path class="cls-1" d="M581.41,484.32l.23.36Z"/><path class="cls-1" d="M583,486.78l.16.24Z"/><path class="cls-1" d="M584.53,489.13l.17.26Z"/><path class="cls-1" d="M578.72,480.26l.17.25Z"/><path class="cls-1" d="M614.8,536.25c.09.14.19.28.28.43C615,536.53,614.89,536.39,614.8,536.25Z"/><path class="cls-1" d="M580.06,482.27l.28.43Z"/><path class="cls-1" d="M510.94,526.3c.4.09.81.2,1.22.32C511.75,526.5,511.34,526.39,510.94,526.3Z"/><path class="cls-1" d="M512.58,526.75l.81.26Z"/><path class="cls-1" d="M577.51,478.49l.27.39Z"/><path class="cls-1" d="M513.91,527.21c.24.09.48.17.71.27C514.39,527.38,514.15,527.3,513.91,527.21Z"/><path class="cls-1" d="M571.27,517.3a5.24,5.24,0,0,0,2.06-.63A5.24,5.24,0,0,1,571.27,517.3Z"/><path class="cls-1" d="M566.83,516.43a10.83,10.83,0,0,0,2.81.83A10.83,10.83,0,0,1,566.83,516.43Z"/><path class="cls-1" d="M563.61,514.6a20.88,20.88,0,0,0,2.19,1.34A20.88,20.88,0,0,1,563.61,514.6Z"/><path class="cls-1" d="M273.63,516.35l.23.5Z"/><path class="cls-1" d="M274.44,518.07l.23.48Z"/><path class="cls-1" d="M271.86,512.41c.07.17.15.33.22.5C272,512.74,271.93,512.58,271.86,512.41Z"/><path class="cls-1" d="M266.67,494.64v0Z"/><path class="cls-1" d="M272.42,513.68l.24.56Z"/><path class="cls-1" d="M275.77,520.8l.3.59Z"/><path class="cls-1" d="M273,515c.08.19.17.38.26.56C273.17,515.36,273.08,515.17,273,515Z"/><path class="cls-1" d="M275.11,519.45c.09.19.18.38.28.57C275.29,519.83,275.2,519.64,275.11,519.45Z"/><path class="cls-1" d="M267,492.3l0-.11Z"/><path class="cls-1" d="M267.2,491.74l.06-.1Z"/><path class="cls-1" d="M266.68,494.12c0-.08,0-.15,0-.23C266.69,494,266.68,494,266.68,494.12Z"/><path class="cls-1" d="M267.44,491.35a1.47,1.47,0,0,1,.1-.13A1.47,1.47,0,0,0,267.44,491.35Z"/><path class="cls-1" d="M266.73,493.48l0-.22Z"/><path class="cls-1" d="M266.82,492.89a1.62,1.62,0,0,0,0-.19A1.62,1.62,0,0,1,266.82,492.89Z"/><text class="cls-7" transform="translate(100.14 675.48)">SHO<tspan class="cls-8" x="334.2" y="0">R</tspan><tspan class="cls-9" x="440.57" y="0">TN</tspan></text></svg>