<svg id="Layer_1" data-name="Layer 1" xmlns="http://www.w3.org/2000/svg" xmlns:xlink="http://www.w3.org/1999/xlink" viewBox="0 0 820.33 820.33"><defs><style>.cls-1{fill:none;}.cls-2{clip-path:url(#clip-path);}.cls-3{fill:#5a7936;}.cls-4{font-size:73px;}.cls-4,.cls-7{fill:#405229;}.cls-4,.cls-5,.cls-8{font-family:Delicious-Heavy, Delicious Heavy;}.cls-5{font-size:102.73px;fill:#415228;}.cls-6{fill:#648561;}.cls-8{font-size:218.43px;fill:#fff;stroke:#415228;stroke-miterlimit:10;stroke-width:6px;}.cls-9{letter-spacing:-0.02em;}.cls-10{letter-spacing:0em;}</style><clipPath id="clip-path"><circle class="cls-1" cx="410.16" cy="410.17" r="284.17"/></clipPath></defs><title>Artboard 1 copy 57</title><g class="cls-2"><path class="cls-3" d="M425.55,430.07c8.16-14.21-18.77-74.89-26.11-89.09s-4.89-36.16-9.79-50.36,0-58.11-10.6-50.36-22.84,29.7-30.19,56.82-42.42,85.22-46.5,109.75c0,0,31,46.48,43.24,51.64s27.73,3.88,35.89,20.67S409.23,525.62,419,523s14.69-24.53,6.53-46.49-20.4-34.86-19.58-56.82S417.39,444.28,425.55,430.07Z"/></g><text class="cls-4" transform="matrix(0.99, -0.15, 0.15, 0.99, 348.52, 102.05)">T</text><text class="cls-4" transform="translate(375.04 98.08) rotate(-4.89)">i</text><text class="cls-4" transform="translate(391.65 96.56) rotate(-1.35)">t</text><text class="cls-4" transform="matrix(1, 0.04, -0.04, 1, 413.24, 96.1)">l</text><text class="cls-4" transform="matrix(0.99, 0.12, -0.12, 0.99, 429.54, 96.33)">e</text><text class="cls-5" transform="translate(316.73 787.36)">TYPE</text><path class="cls-3" d="M212.62,595.35c17.13,19.36,40.79,14.19,57.93,6.44S307.26,607,307.26,607A120.44,120.44,0,0,0,294.2,572.1c-9.79-16.78,0-47.78,0-60.69s-14.68-19.37-25.29-40,6.53-37.45,4.9-51.66S245.26,372,245.26,372c-4.29-5.59-32.38,84.67-77.66,160.67q4.38,8.61,9.33,16.91,5.41,9,11.47,17.65c4.4,6.26,7.07,9.74,11.59,15.2q3.34,4,6.81,7.93A29.72,29.72,0,0,1,212.62,595.35Z"/><path class="cls-3" d="M573.21,516.57c-20.4-12.9-10.61-40-13.05-59.38s-8.16-31-11.43-20.8-20.39,53.84-20.39,53.84,9,32.81,20.39,52.17c9.1,15.42,32.16,36.57,59.3,53.92,4.52-4.79,8.72-9.56,12.68-14.38C608.72,554.48,588.46,526.24,573.21,516.57Z"/><path class="cls-6" d="M678.84,369.15a282.72,282.72,0,0,0-10-42.17,243.91,243.91,0,0,0-15.31-37.68,284.29,284.29,0,0,0-21.63-36.17c-4.39-6.24-7.07-9.74-11.59-15.2s-9.11-10.61-14-15.65a271.55,271.55,0,0,0-142.45-78.49c-54.37-11.09-114.75-4.5-165.07,18.4a283.73,283.73,0,0,0-37,20.32A244.57,244.57,0,0,0,230,206.82a285.73,285.73,0,0,0-29.15,30.1,265.41,265.41,0,0,0-23.22,32.73,261.84,261.84,0,0,0-31.44,76.14,269.45,269.45,0,0,0-6.85,86.09,250.51,250.51,0,0,0,6.53,41.34q2.4,10,5.56,19.88c16-22.72,33-53.84,45.71-78.53,21.21-41.32,31.82-94.26,40-95.55s49.76,60.69,49.76,60.69,23.66-47.77,31.82-73.6,21.21-50.36,27.73-56.82,9.8-23.24,17.14-42.61,12.23-32.27,30.18-6.44,13,69.72,22.85,82.63,28.55,64.56,40.78,78.76,19.59,47.78,29.37,64.56,30.19,45.2,30.19,45.2,19.58-49.07,24.47-62,13.06-28.41,27.74-12.92,26.92,36.17,41.61,51.66,9.78,42.61,22.84,65.85c6,10.7,12,17,18,20.72a272,272,0,0,0,30.23-124.55A286.73,286.73,0,0,0,678.84,369.15Z"/><path class="cls-7" d="M652.38,238.9a300.87,300.87,0,0,0-141-107.64c-57.87-21.25-122.76-23.4-182-6.62A296.87,296.87,0,0,0,156,563.3C186.69,614,232.79,655.55,286.85,680a300.62,300.62,0,0,0,183.07,20.78c58.65-11.83,113.3-42.29,154.6-85.53,41.45-43.39,69.61-99.37,78.64-158.78a313.57,313.57,0,0,0,3.67-46.3C706.68,349.18,687.87,288.61,652.38,238.9ZM270.55,601.79c-17.14,7.75-40.8,12.92-57.93-6.44a30.2,30.2,0,0,0-5.77-5q-3.49-3.92-6.86-8c-4.52-5.46-7.19-8.94-11.59-15.2q-6.06-8.61-11.47-17.65-5-8.29-9.33-16.91c45.28-76,73.37-166.26,77.66-160.67,0,0,26.92,33.56,28.55,47.76s-15.5,31-4.9,51.66,25.29,27.12,25.29,40-9.79,43.91,0,60.69A120.44,120.44,0,0,1,307.26,607S287.68,594.05,270.55,601.79ZM419,523c-9.79,2.58-29.37-27.12-37.53-43.9s-23.65-15.49-35.89-20.67-43.24-51.64-43.24-51.64c4.08-24.53,39.16-82.64,46.5-109.75s19.58-49.07,30.19-56.82,5.71,36.15,10.6,50.36,2.45,36.15,9.79,50.36,34.27,74.88,26.11,89.09S406.78,397.8,406,419.73s11.42,34.87,19.58,56.82S428.81,520.45,419,523Zm27.74,156.45.32,0ZM608,596.32c-27.14-17.35-50.2-38.5-59.29-53.92-11.42-19.36-20.4-52.17-20.4-52.17s17.13-43.63,20.4-53.84,9,1.43,11.42,20.8-7.35,46.48,13.05,59.38c15.25,9.66,35.51,37.9,47.49,65.36C616.75,586.75,612.55,591.53,608,596.32Zm43.57-61.6c-6-3.71-12-10-18-20.72-13.06-23.24-8.16-50.35-22.84-65.85S583.82,412,569.13,396.49s-22.84,0-27.74,12.92-24.47,62-24.47,62-20.4-28.41-30.19-45.2-17.13-50.35-29.37-64.56-31-65.86-40.78-78.76-4.9-56.82-22.85-82.63-22.84-12.92-30.18,6.44-10.61,36.17-17.14,42.61-19.57,31-27.73,56.82-31.82,73.6-31.82,73.6-41.6-62-49.76-60.69-18.77,54.23-40,95.55c-12.67,24.69-29.7,55.81-45.71,78.53q-3.15-9.83-5.56-19.88a250.51,250.51,0,0,1-6.53-41.34,269.45,269.45,0,0,1,6.85-86.09,261.84,261.84,0,0,1,31.44-76.14,265.41,265.41,0,0,1,23.22-32.73A285.73,285.73,0,0,1,230,206.82a244.57,244.57,0,0,1,31.86-24.31,283.73,283.73,0,0,1,37-20.32c50.32-22.9,110.7-29.49,165.07-18.4a271.55,271.55,0,0,1,142.45,78.49q7.26,7.56,14,15.65c4.52,5.46,7.2,9,11.59,15.2a284.29,284.29,0,0,1,21.63,36.17A243.91,243.91,0,0,1,668.87,327a282.72,282.72,0,0,1,10,42.17,286.73,286.73,0,0,1,3,41A272,272,0,0,1,651.6,534.72Z"/><text class="cls-8" transform="translate(100.14 675.48)">SHO<tspan class="cls-9" x="334.2" y="0">R</tspan><tspan class="cls-10" x="440.57" y="0">TN</tspan></text></svg>