<svg id="Layer_1" data-name="Layer 1" xmlns="http://www.w3.org/2000/svg" xmlns:xlink="http://www.w3.org/1999/xlink" viewBox="0 0 256 256"><defs><style>.cls-1{fill:none;}.cls-2{fill:#d5eaef;}.cls-3{fill:#3f4e51;}.cls-4{clip-path:url(#clip-path);}.cls-5{fill:#ae9590;}.cls-6{fill:#4b5c61;}.cls-7,.cls-8{fill:#d5c3b5;}.cls-7{opacity:0.14;}.cls-9{fill:#b0a5a0;}.cls-10{fill:#9b928f;}.cls-11{fill:#e5c6ac;}.cls-12{fill:#798169;}.cls-13{fill:#616b49;}.cls-14{fill:#b7a088;}.cls-15{fill:#bcafa7;}</style><clipPath id="clip-path"><circle class="cls-1" cx="128" cy="128" r="120.74"/></clipPath></defs><circle class="cls-2" cx="128" cy="128" r="120.74"/><path class="cls-3" d="M128,7.26A120.74,120.74,0,1,1,7.26,128,120.74,120.74,0,0,1,128,7.26M128,0A128,128,0,0,0,78.17,245.94,128,128,0,0,0,177.83,10.06,127.35,127.35,0,0,0,128,0Z"/><g class="cls-4"><polygon class="cls-5" points="102.3 134.97 118.84 129.56 124.8 132.27 130.14 129.56 136.59 129.56 141.45 126.68 148.38 126.68 153.24 130.82 157.66 127.97 164.34 130.82 168.48 128.29 173.26 127.97 179.94 130.82 185.84 126.68 192.42 126.68 210.11 134.97 195.53 164.25 147.69 180.48 93.39 166.48 102.3 134.97"/><polygon class="cls-6" points="-90.22 194.8 -85.77 149.29 130.14 143.09 141.1 143.09 176.47 143.09 150.34 163.29 57.43 192.57 -6.85 202.43 -61.9 208.48 -94.04 203.71 -90.22 194.8"/><polygon class="cls-7" points="-93.09 175.86 -78.76 174.9 -73.5 175.38 -70.16 174.15 -62.83 172.86 -52.64 171.35 -45.64 169.96 -40.88 169.96 -39.59 171.78 -32.9 170.71 -26.53 170.71 -22.07 170.6 -14.43 168.78 -1.38 167.6 9.77 166.31 21.55 164.59 37.16 161.59 44.49 161.59 51.49 159.66 56.29 159.66 63.59 158.04 72.5 156.97 81.42 154.72 91.61 152.57 101.16 150.64 109.44 148.49 118.36 147.42 125.69 146.56 127.91 145.49 116.45 144.2 96.07 143.56 81.42 144.2 61.15 143.56 33.02 142.59 5.28 142.59 -27.49 141.52 -59.97 140.98 -83.85 139.91 -101.26 139.91 -93.09 175.86"/><polygon class="cls-8" points="-90.7 53.03 -76.38 55.9 -71.12 54.46 -67.79 58.12 -60.47 61.94 -50.29 66.4 -43.29 70.53 -38.53 70.53 -37.24 65.13 -30.56 68.31 -24.2 68.31 -19.74 68.63 -12.1 74.03 0.94 77.53 12.08 81.35 23.86 86.44 39.45 95.36 46.78 95.36 53.77 101.08 58.57 101.08 65.86 105.86 74.77 109.04 83.68 115.72 93.86 122.08 103.41 127.81 111.68 134.18 120.59 137.36 127.92 139.91 130.14 143.09 118.68 146.91 98.32 148.81 83.68 146.91 63.42 148.81 35.31 151.68 7.59 151.68 -25.15 154.86 -57.61 156.45 -81.47 159.64 -98.87 159.64 -90.7 53.03"/><path class="cls-9" d="M128.39,146.75S150,141,156.71,139.9s21-8.75,26.73-8.43,29.94-5.77,39.15-4.79,50.9-30.85,50.9-30.85l39.46-27,2.87,47.74-12.41,55.37-107.56,8.59-19.38-23.27-12-8Z"/><path class="cls-10" d="M145.57,148.66s21.63-5.73,28.32-6.85,21-8.75,26.73-8.43,17.68-.81,26.89.16,56.64-36.28,56.64-36.28L329,47.62l4,70.81-12.41,55.36L213,182.39l-19.37-23.27-12-8Z"/><path class="cls-11" d="M-84.5,195.11s16.87-5.4,23.87-2.86,18.23-2,22.8-.68,20.8-.25,20.8-.25,9.86-12.75,15-8.3,22.91-6.36,31.82-3.18S56.79,172.2,67,173.16s18.78-6.68,26.42-6.68,10.85-7.32,17.2-6.84a77.41,77.41,0,0,0,19.55-1.74c4-1,4.93-1.93,12.25-3.83s13.05-4.78,17.18-5.1,17,2.55,23.14,0,21.1.64,28.1-1.59,18.6-4.77,22.19-4.29,11.22-7.16,20.13-7.48,13.36-3.82,21.64-4.77,13.68-4.46,18.77-4.14,21.3,0,21.3,0l9.25,145.44L176.47,307.71-12.26,297.58l-77.65-1.91L-123,233.3l11.46-31.5Z"/><path class="cls-12" d="M176.25,170.64a2.65,2.65,0,0,1,1.46,2.67c-.15,2.09-2,4.06-4.45,4.83-1.3.4-2.72.5-4,.91s-2.14,1-3.24,1.43a5.86,5.86,0,0,1-3.57.46,4.9,4.9,0,0,1-1.89-1,4.6,4.6,0,0,1-2-3.68c.15-1.69,1.79-3.05,3.46-4.12a12.43,12.43,0,0,1,4.62-2c2-.35,3.65.13,5.57.34C173.55,170.57,175,170,176.25,170.64Z"/><path class="cls-13" d="M189.78,166.48a2.64,2.64,0,0,1,1.45,2.67c-.14,2.1-1.95,4.06-4.45,4.83-1.29.4-2.71.5-4,.91s-2.14,1-3.24,1.43a5.9,5.9,0,0,1-3.58.46,5,5,0,0,1-1.89-1,4.57,4.57,0,0,1-2-3.68c.15-1.69,1.79-3.05,3.45-4.12a12.71,12.71,0,0,1,4.63-2c2-.35,3.65.13,5.56.34C187.07,166.41,188.48,165.88,189.78,166.48Z"/><path class="cls-12" d="M189.78,164.56a2.64,2.64,0,0,1,1.45,2.67c-.14,2.1-1.95,4.06-4.45,4.83-1.29.4-2.71.5-4,.91s-2.14,1-3.24,1.43a5.9,5.9,0,0,1-3.58.46,4.84,4.84,0,0,1-1.89-1,4.57,4.57,0,0,1-2-3.68c.15-1.69,1.79-3,3.45-4.12a12.71,12.71,0,0,1,4.63-2c2-.35,3.65.13,5.56.34C187.07,164.49,188.48,164,189.78,164.56Z"/><path class="cls-12" d="M172.56,163.92a2.64,2.64,0,0,1,1.46,2.67c-.14,2.1-2,4.06-4.45,4.83-1.29.4-2.72.5-4,.91s-2.14,1-3.24,1.43a5.86,5.86,0,0,1-3.57.46,4.77,4.77,0,0,1-1.89-1,4.58,4.58,0,0,1-2-3.68c.15-1.68,1.79-3,3.46-4.12a12.59,12.59,0,0,1,4.62-2c2-.35,3.66.13,5.57.34C169.86,163.85,171.26,163.32,172.56,163.92Z"/><path class="cls-12" d="M27.37,187a2.64,2.64,0,0,1,1.46,2.68c-.14,2.09-2,4-4.45,4.83-1.29.4-2.72.49-4,.9s-2.14,1-3.24,1.43a5.86,5.86,0,0,1-3.57.46,4.88,4.88,0,0,1-1.89-1,4.62,4.62,0,0,1-2-3.69c.15-1.68,1.79-3,3.46-4.12a12.59,12.59,0,0,1,4.62-2c2-.35,3.66.13,5.57.34C24.67,186.93,26.07,186.4,27.37,187Z"/><path class="cls-12" d="M151.47,179.48a14.21,14.21,0,0,1-2.45.19,9.21,9.21,0,0,1-3.11.25,5.62,5.62,0,0,1-1.77-1.08,7.79,7.79,0,0,0-6.77-.81c-.78.28-1.47.68-2.27.9a3,3,0,0,1-2.42-.21,1.44,1.44,0,0,1,.09-2.29,5.79,5.79,0,0,1,2.9-1.06c.84-.13,1.81-.28,2.2-.87a2.7,2.7,0,0,1,.33-.5,1.49,1.49,0,0,1,.49-.24l1.51-.56a5.1,5.1,0,0,1,3.52-.36c1.28.54,1.57,1.74,3.06,2.1,1.18.28,2.32-.1,3.48,0C152.89,175.31,154.53,178.63,151.47,179.48Z"/><path class="cls-13" d="M173.12,189.45a15.32,15.32,0,0,1-2.46.19,9.13,9.13,0,0,1-3.1.25,5.55,5.55,0,0,1-1.78-1.08A7.77,7.77,0,0,0,159,188c-.78.28-1.48.68-2.28.91a3,3,0,0,1-2.41-.22,1.43,1.43,0,0,1,.09-2.29,5.79,5.79,0,0,1,2.9-1.06c.83-.13,1.81-.27,2.2-.86a2.06,2.06,0,0,1,.33-.5,1.29,1.29,0,0,1,.48-.25l1.52-.55a5,5,0,0,1,3.51-.36c1.29.54,1.58,1.74,3.07,2.09,1.17.29,2.32-.1,3.48,0C174.54,185.27,176.18,188.59,173.12,189.45Z"/><path class="cls-12" d="M172.3,187.85a15.32,15.32,0,0,1-2.46.19,9.13,9.13,0,0,1-3.1.25,5.66,5.66,0,0,1-1.78-1.08,7.77,7.77,0,0,0-6.76-.82c-.78.28-1.48.68-2.28.91a3,3,0,0,1-2.41-.22,1.43,1.43,0,0,1,.09-2.29,5.79,5.79,0,0,1,2.9-1.06c.83-.13,1.81-.27,2.2-.86a2.06,2.06,0,0,1,.33-.5,1.29,1.29,0,0,1,.48-.25l1.52-.55a5,5,0,0,1,3.51-.36c1.29.54,1.58,1.74,3.07,2.1,1.18.28,2.32-.11,3.48,0C173.72,183.67,175.36,187,172.3,187.85Z"/><path class="cls-13" d="M206.32,217.92a15.32,15.32,0,0,1-2.46.19,9.13,9.13,0,0,1-3.1.25,5.66,5.66,0,0,1-1.78-1.08,7.77,7.77,0,0,0-6.76-.81c-.78.27-1.48.67-2.28.9a3,3,0,0,1-2.41-.22,1.44,1.44,0,0,1,.09-2.29,5.79,5.79,0,0,1,2.9-1.06c.83-.13,1.81-.27,2.2-.86a2.06,2.06,0,0,1,.33-.5,1.57,1.57,0,0,1,.48-.25l1.52-.55a5,5,0,0,1,3.51-.36c1.29.54,1.58,1.74,3.07,2.1,1.18.28,2.32-.11,3.48,0C207.74,213.74,209.38,217.07,206.32,217.92Z"/><path class="cls-12" d="M166,163.71c.37.46.63,1.09,1.31,1.18a1.63,1.63,0,0,0,1.36-.6,4,4,0,0,0,1.09-2,.49.49,0,0,0,0-.36.88.88,0,0,0-.6-.26A16.87,16.87,0,0,1,164.2,160a7.19,7.19,0,0,0-1.29-.59,5.73,5.73,0,0,0-1.71-.2c-2.32,0-8.74.88-4.51,3.21a6.52,6.52,0,0,0,4.39.52C162.85,162.69,164.82,162.25,166,163.71Z"/><path class="cls-12" d="M186,161.35a1.39,1.39,0,0,0,.6-.37,1.07,1.07,0,0,0,.14-.52,2.13,2.13,0,0,0-.38-1.69,2.75,2.75,0,0,0-1.64-.68c-1.77-.23-3.52.35-5.28.64a16.9,16.9,0,0,1-4.55.16,4.15,4.15,0,0,0-1.45,0c-.46.13-.84.53-.66.89a1.19,1.19,0,0,0,.42.38l1.29.85a4.25,4.25,0,0,0,.94.51,6.12,6.12,0,0,0,1.56.23c1.49.1,2.94.55,4.41.56A12.87,12.87,0,0,0,186,161.35Z"/><path class="cls-12" d="M193.4,162a8.82,8.82,0,0,0,2.28.31,4.69,4.69,0,0,0,1.86-.56,1.48,1.48,0,0,0,.39-.26,1.42,1.42,0,0,0,.29-.65,3.41,3.41,0,0,1,1.22-1.7,13.92,13.92,0,0,0-4.33-.19l-2.49.14a8.47,8.47,0,0,0-1.43.17c-1.06.25-2,.92-3.12.79a3.4,3.4,0,0,0,0,1.33c.35.43.44.27,1.08.31A32.6,32.6,0,0,1,193.4,162Z"/><path class="cls-13" d="M194,168.42a2.1,2.1,0,0,1,.66-.14,1.16,1.16,0,0,1,1.08.83,6.78,6.78,0,0,1,.08,1.27,3.26,3.26,0,0,0,2.68,2.59c.92.21,1.92.13,2.82.4a5.57,5.57,0,0,1,2.76,2.3,1.91,1.91,0,0,1,.46.92c.06.75-.91,1.32-1.84,1.5-1.87.37-3.9-.19-5.73.26-2.14.53-3.44,2.31-5.54,2.94a11.7,11.7,0,0,1-4.93,0l-4.08-.58a18,18,0,0,0-3.88-.26c.11-2.23,2.2-4.08,4.35-5.57s4.55-2.89,5.69-4.94a1.91,1.91,0,0,1,2.25-1.25A5.47,5.47,0,0,0,194,168.42Z"/><path class="cls-12" d="M192,168.1a2.1,2.1,0,0,1,.66-.14,1.16,1.16,0,0,1,1.08.83,6.78,6.78,0,0,1,.08,1.27,3.26,3.26,0,0,0,2.68,2.59c.92.21,1.92.13,2.82.4a5.57,5.57,0,0,1,2.76,2.3,1.83,1.83,0,0,1,.46.92c.06.75-.91,1.32-1.84,1.5-1.87.37-3.9-.19-5.73.26-2.14.53-3.44,2.31-5.54,2.94a11.7,11.7,0,0,1-4.93,0l-4.08-.58a18,18,0,0,0-3.88-.26c.11-2.23,2.2-4.08,4.35-5.57s4.55-2.89,5.69-4.94a1.91,1.91,0,0,1,2.25-1.25A5.47,5.47,0,0,0,192,168.1Z"/><path class="cls-12" d="M98.53,161.38a2.23,2.23,0,0,1,.67-.14,1.16,1.16,0,0,1,1.07.83,5.48,5.48,0,0,1,.08,1.28,3.28,3.28,0,0,0,2.69,2.58c.92.21,1.92.14,2.81.4a5.61,5.61,0,0,1,2.77,2.3,2,2,0,0,1,.46.92c0,.75-.91,1.32-1.85,1.5-1.86.37-3.89-.19-5.72.26-2.14.54-3.45,2.31-5.54,2.94a11.59,11.59,0,0,1-4.94,0L87,173.69a16.86,16.86,0,0,0-3.88-.26c.1-2.24,2.2-4.09,4.34-5.58s4.56-2.89,5.7-4.94a1.9,1.9,0,0,1,2.24-1.25A5.38,5.38,0,0,0,98.53,161.38Z"/><path class="cls-13" d="M200.06,163a3.83,3.83,0,0,0-1.38,1.81c-.24,1.09.71,2.1,1.49,3s1.43,2.17.65,3.09a6.37,6.37,0,0,0-.61.67c-.52.86.67,1.79,1.82,2.12s2.53.48,3.23,1.27c.42.49.49,1.14,1,1.58.7.63,1.94.61,3,.54l7.23-.5c1.27-.08,2.7-.24,3.43-1.06a3.19,3.19,0,0,0,.46-2.38,2.22,2.22,0,0,1,1-2.21,13.86,13.86,0,0,1,2.39-.51A4.67,4.67,0,0,0,226,168.7a7.42,7.42,0,0,0,1.31-2,2.21,2.21,0,0,0-.28-2.21,6.82,6.82,0,0,1-.72-.82,3.88,3.88,0,0,1-.28-1,4.14,4.14,0,0,0-2.29-2.41,14.94,14.94,0,0,0-3.65-1.14,45.58,45.58,0,0,0-13.48-1.22c-1.82.16-1.57.91-2.61,1.83C202.74,160.81,201.36,161.9,200.06,163Z"/><path class="cls-12" d="M198,162.08a3.79,3.79,0,0,0-1.39,1.81c-.24,1.09.71,2.1,1.49,3s1.43,2.17.65,3.09a6.37,6.37,0,0,0-.61.67c-.52.86.67,1.79,1.82,2.12s2.53.48,3.23,1.27c.42.49.49,1.14,1,1.58.7.63,1.94.61,3,.54l7.23-.49c1.27-.09,2.7-.25,3.43-1.07a3.19,3.19,0,0,0,.46-2.38,2.22,2.22,0,0,1,1-2.21,14.07,14.07,0,0,1,2.39-.51,4.62,4.62,0,0,0,2.25-1.78,7.42,7.42,0,0,0,1.31-2.05,2.21,2.21,0,0,0-.28-2.21,7.83,7.83,0,0,1-.72-.82,3.88,3.88,0,0,1-.28-1,4.11,4.11,0,0,0-2.29-2.41,14.94,14.94,0,0,0-3.65-1.14,45.25,45.25,0,0,0-13.48-1.21c-1.82.15-1.57.9-2.61,1.82C200.69,159.85,199.31,160.94,198,162.08Z"/><path class="cls-13" d="M195.15,179.35a3.76,3.76,0,0,0-1.39,1.82c-.23,1.09.71,2.09,1.49,3s1.43,2.16.65,3.09a7.45,7.45,0,0,0-.61.66c-.52.87.67,1.79,1.82,2.12s2.54.48,3.23,1.28c.42.48.49,1.13,1,1.58.7.63,1.94.6,3,.53l7.23-.49c1.27-.09,2.7-.25,3.43-1.06a3.23,3.23,0,0,0,.46-2.39,2.23,2.23,0,0,1,1-2.21,14,14,0,0,1,2.4-.5,4.66,4.66,0,0,0,2.24-1.79,7.81,7.81,0,0,0,1.32-2,2.25,2.25,0,0,0-.29-2.22,7.74,7.74,0,0,1-.72-.81,4.07,4.07,0,0,1-.28-1,4.14,4.14,0,0,0-2.29-2.41,15.93,15.93,0,0,0-3.64-1.14,45.67,45.67,0,0,0-13.49-1.21c-1.82.16-1.57.9-2.61,1.83C197.82,177.13,196.44,178.21,195.15,179.35Z"/><path class="cls-12" d="M193.92,178.07a3.81,3.81,0,0,0-1.39,1.82c-.23,1.09.71,2.09,1.49,3s1.43,2.16.65,3.09a7.45,7.45,0,0,0-.61.66c-.52.87.67,1.79,1.82,2.12s2.54.48,3.23,1.28c.42.48.49,1.13,1,1.58.7.63,1.94.6,3,.53l7.23-.49c1.27-.09,2.7-.24,3.43-1.06a3.23,3.23,0,0,0,.46-2.39,2.23,2.23,0,0,1,1-2.21,14,14,0,0,1,2.4-.5,4.66,4.66,0,0,0,2.24-1.79,7.81,7.81,0,0,0,1.32-2,2.25,2.25,0,0,0-.29-2.22,7.74,7.74,0,0,1-.72-.81,4.07,4.07,0,0,1-.28-1,4.09,4.09,0,0,0-2.29-2.4,15.47,15.47,0,0,0-3.64-1.15,45.67,45.67,0,0,0-13.49-1.21c-1.82.16-1.57.9-2.61,1.83C196.59,175.85,195.21,176.93,193.92,178.07Z"/><path class="cls-13" d="M179.14,190a3.93,3.93,0,0,0-1.4,1.86c-.24,1.12.72,2.14,1.51,3.09s1.45,2.22.66,3.16a7.78,7.78,0,0,0-.62.68c-.53.89.67,1.84,1.85,2.17s2.57.5,3.27,1.31c.43.5.51,1.16,1,1.61.72.65,2,.63,3.06.55l7.34-.5c1.29-.09,2.75-.25,3.48-1.09a3.31,3.31,0,0,0,.48-2.44,2.25,2.25,0,0,1,1-2.26,13.42,13.42,0,0,1,2.43-.52,4.63,4.63,0,0,0,2.28-1.83,7.58,7.58,0,0,0,1.34-2.09,2.3,2.3,0,0,0-.29-2.27,6.29,6.29,0,0,1-.73-.83,3.74,3.74,0,0,1-.29-1,4.21,4.21,0,0,0-2.32-2.46,15.45,15.45,0,0,0-3.71-1.17,45.67,45.67,0,0,0-13.69-1.24c-1.85.16-1.6.92-2.66,1.87C181.86,187.76,180.46,188.86,179.14,190Z"/><path class="cls-12" d="M177.09,189.07a3.93,3.93,0,0,0-1.4,1.86c-.24,1.12.72,2.14,1.51,3.09s1.45,2.22.66,3.16a7.78,7.78,0,0,0-.62.68c-.53.89.68,1.84,1.85,2.17s2.57.5,3.27,1.31c.43.5.51,1.16,1,1.61.72.65,2,.63,3.06.55l7.34-.5c1.29-.09,2.75-.25,3.48-1.09a3.31,3.31,0,0,0,.48-2.44,2.25,2.25,0,0,1,1-2.26,13.42,13.42,0,0,1,2.43-.52,4.67,4.67,0,0,0,2.28-1.82,7.78,7.78,0,0,0,1.34-2.1,2.3,2.3,0,0,0-.29-2.27,7.11,7.11,0,0,1-.73-.83,3.74,3.74,0,0,1-.29-1,4.21,4.21,0,0,0-2.32-2.46,15.45,15.45,0,0,0-3.71-1.17,45.67,45.67,0,0,0-13.69-1.24c-1.85.16-1.6.92-2.66,1.87C179.81,186.8,178.41,187.9,177.09,189.07Z"/><path class="cls-12" d="M101.16,203.76a5.4,5.4,0,0,0-2.32-1.08A6.8,6.8,0,0,0,95,203.85c-1.19.6-2.78,1.11-4,.51-.3-.15-.54-.36-.85-.48a2.39,2.39,0,0,0-2.72,1.42c-.42.9-.62,2-1.63,2.52a20.32,20.32,0,0,0-2,.77,2.29,2.29,0,0,0-.68,2.35l.63,5.64a3.12,3.12,0,0,0,1.36,2.68,6.39,6.39,0,0,0,3,.36,3.75,3.75,0,0,1,2.84.79c.45.54.35,1.26.64,1.87A4.73,4.73,0,0,0,93.91,224a11.23,11.23,0,0,0,2.62,1,4.37,4.37,0,0,0,2.84-.22,10.41,10.41,0,0,1,1-.56,8,8,0,0,1,1.3-.22,5.1,5.1,0,0,0,3.09-1.78,9.07,9.07,0,0,0,1.46-2.85,22.29,22.29,0,0,0,1.55-10.53c-.2-1.41-1.15-1.22-2.33-2C104,205.85,102.62,204.77,101.16,203.76Z"/><path class="cls-12" d="M73.58,200.56a5.49,5.49,0,0,0-2.33-1.08c-1.4-.18-2.68.56-3.87,1.16s-2.77,1.12-4,.51a6.36,6.36,0,0,0-.85-.47,2.39,2.39,0,0,0-2.72,1.42c-.42.9-.61,2-1.63,2.51a21.14,21.14,0,0,0-2,.78,2.29,2.29,0,0,0-.69,2.35l.63,5.64a3.09,3.09,0,0,0,1.36,2.67,6.31,6.31,0,0,0,3.06.37,3.7,3.7,0,0,1,2.83.79c.46.54.36,1.26.65,1.86a4.66,4.66,0,0,0,2.28,1.76,12.39,12.39,0,0,0,2.62,1,4.42,4.42,0,0,0,2.84-.22,8.7,8.7,0,0,1,1-.56,7.06,7.06,0,0,1,1.3-.22,5,5,0,0,0,3.09-1.79,8.82,8.82,0,0,0,1.46-2.84,22.21,22.21,0,0,0,1.56-10.53c-.2-1.42-1.16-1.22-2.34-2C76.42,202.65,75,201.57,73.58,200.56Z"/><path class="cls-12" d="M59.89,188.07a5.49,5.49,0,0,0-2.38-1.1c-1.43-.18-2.75.57-4,1.18s-2.84,1.14-4,.52a9.17,9.17,0,0,0-.87-.48,2.44,2.44,0,0,0-2.78,1.44c-.43.91-.63,2-1.67,2.55-.64.34-1.49.4-2.07.79a2.33,2.33,0,0,0-.71,2.39l.65,5.73a3.17,3.17,0,0,0,1.39,2.72,6.58,6.58,0,0,0,3.13.37,3.77,3.77,0,0,1,2.9.8c.46.55.36,1.27.66,1.89a4.77,4.77,0,0,0,2.34,1.78,12.22,12.22,0,0,0,2.68,1,4.51,4.51,0,0,0,2.91-.22,9.78,9.78,0,0,1,1.06-.57,6.6,6.6,0,0,1,1.33-.22,5.22,5.22,0,0,0,3.16-1.82,9.07,9.07,0,0,0,1.5-2.89,22.49,22.49,0,0,0,1.59-10.69c-.21-1.44-1.18-1.24-2.4-2.07C62.81,190.19,61.39,189.1,59.89,188.07Z"/><path class="cls-12" d="M158.45,151a7.26,7.26,0,0,0-3.56.7c-.91.51-1.55,1.36-2.63,1.58a1.13,1.13,0,0,0-.34.11.38.38,0,0,0-.1.51c.31.63,1.35.8,2.21.73a8.19,8.19,0,0,1,2.56-.09,9.18,9.18,0,0,1,1.93,1,9.08,9.08,0,0,0,2.94.65,1.74,1.74,0,0,0,.72,0,1.09,1.09,0,0,0,.48-.33,3.14,3.14,0,0,0,.32-4C162.1,150.64,160,151,158.45,151Z"/><path class="cls-12" d="M105.46,160.86a7.26,7.26,0,0,0-3.56.7c-.91.51-1.55,1.36-2.63,1.59a.9.9,0,0,0-.34.1.39.39,0,0,0-.1.51c.31.63,1.35.8,2.21.73a8.2,8.2,0,0,1,2.56-.09,9.43,9.43,0,0,1,1.93,1,9.2,9.2,0,0,0,2.94.65,1.93,1.93,0,0,0,.72,0,1.2,1.2,0,0,0,.48-.34,3.14,3.14,0,0,0,.32-4C109.11,160.5,107,160.86,105.46,160.86Z"/><path class="cls-12" d="M191.13,209.5a7.22,7.22,0,0,0-3.56.7c-.91.51-1.55,1.35-2.63,1.58a1.3,1.3,0,0,0-.35.11.37.37,0,0,0-.09.51c.3.62,1.35.8,2.2.73a8.25,8.25,0,0,1,2.57-.09,9.43,9.43,0,0,1,1.93,1,8.82,8.82,0,0,0,2.94.64,1.74,1.74,0,0,0,.72,0,1.18,1.18,0,0,0,.48-.33,3.16,3.16,0,0,0,.32-4C194.78,209.14,192.66,209.5,191.13,209.5Z"/><path class="cls-12" d="M221.89,212.16a14.06,14.06,0,0,1-2.45.19,9.13,9.13,0,0,1-3.1.25,5.55,5.55,0,0,1-1.78-1.08,7.79,7.79,0,0,0-6.77-.81c-.77.27-1.47.68-2.27.9a3,3,0,0,1-2.41-.21,1.43,1.43,0,0,1,.09-2.29,5.76,5.76,0,0,1,2.89-1.07c.84-.12,1.81-.27,2.21-.86a2,2,0,0,1,.32-.5,1.74,1.74,0,0,1,.49-.25l1.51-.55a5.06,5.06,0,0,1,3.52-.36c1.29.54,1.58,1.74,3.07,2.1,1.17.28,2.32-.11,3.48,0C223.31,208,225,211.31,221.89,212.16Z"/><path class="cls-12" d="M206.7,203.74a7.26,7.26,0,0,0-3.56.7c-.91.51-1.55,1.36-2.63,1.58a1.23,1.23,0,0,0-.34.11.39.39,0,0,0-.1.51c.31.63,1.35.8,2.21.73a8.2,8.2,0,0,1,2.56-.09,9,9,0,0,1,1.93,1,9.2,9.2,0,0,0,2.94.65,1.74,1.74,0,0,0,.72,0,1.09,1.09,0,0,0,.48-.33,3.14,3.14,0,0,0,.32-4C210.35,203.38,208.23,203.74,206.7,203.74Z"/><path class="cls-14" d="M119.16,276.58s9.55-24.4,9.23-41-6.68-36-12.73-38.24-13-6.36-13-12.73-.31-12.13,6.84-15.61,14.17-8.85,20.69-11.1,21.61-7.28,21.61-7.28l-11,9s-19.68,11.61-14.91,20.84S152.57,205,157,211s18.2,40.29,19.44,46.4,12.38,23.92,12.38,23.92Z"/><path class="cls-15" d="M89.09,134.18S65.93,124,62,124.63s-29.91-8.91-29.91-8.91S5.4,97.58-7.33,97.26s-52.5-17.5-52.5-17.5l-31.83-15-7.21,94.83h17.4l23.86-3.19,32.46-1.59,32.74-3.18H35.31l28.11-2.87,20.26-1.9,14.64,1.9,9.19-.86h0Z"/><path class="cls-12" d="M77.75,184a3.93,3.93,0,0,0-1.4,1.86c-.24,1.12.72,2.14,1.51,3.09s1.46,2.22.66,3.16a7.64,7.64,0,0,0-.61.68c-.54.89.67,1.83,1.84,2.17s2.58.49,3.28,1.31c.43.5.5,1.16,1,1.61.72.65,2,.62,3.06.55l7.35-.5c1.28-.09,2.74-.25,3.48-1.09a3.3,3.3,0,0,0,.47-2.44,2.25,2.25,0,0,1,1-2.26,13.07,13.07,0,0,1,2.43-.52,4.72,4.72,0,0,0,2.28-1.83,7.94,7.94,0,0,0,1.33-2.09,2.3,2.3,0,0,0-.29-2.27,7.11,7.11,0,0,1-.73-.83,3.41,3.41,0,0,1-.28-1,4.2,4.2,0,0,0-2.33-2.46,15.37,15.37,0,0,0-3.7-1.17,45.74,45.74,0,0,0-13.7-1.24c-1.84.16-1.59.92-2.65,1.87C80.47,181.71,79.07,182.81,77.75,184Z"/></g></svg>