<svg id="Layer_1" data-name="Layer 1" xmlns="http://www.w3.org/2000/svg" viewBox="0 0 256 256"><defs><style>.cls-1{fill:#137f2a;}.cls-2{fill:#0f5e1e;}.cls-3{fill:#074f4a;}.cls-4{fill:#7b4e2d;}.cls-5{fill:#595854;}.cls-6{fill:#b9bab4;}.cls-7{fill:#e88440;}.cls-8{fill:#010d14;}.cls-9{fill:#241f12;}.cls-10{fill:#9b592c;}.cls-11{fill:#64686b;}.cls-12{fill:#bdc3c6;}.cls-13{fill:#acada6;}</style></defs><circle class="cls-1" cx="128" cy="128" r="120.74"/><path class="cls-2" d="M81,169C79,157,51,76,45,49a21.07,21.07,0,0,1,.09-8.76A120.73,120.73,0,0,0,128,248.74c1.07,0,2.13,0,3.2,0,1.14-6.32,2.22-11.68,3.29-15.42C141,210.57,83,181,81,169Z"/><path class="cls-2" d="M248.74,128A120.79,120.79,0,0,0,162.12,12.16c-11.63,7.68-24.22,18-15.64,28.42C160,57,186,75.44,186,86.72s1,46.52,0,57.9-47,33.78-39.51,54.58c4.14,11.45,9.33,29.62,14.5,45A120.79,120.79,0,0,0,248.74,128Z"/><path class="cls-3" d="M128,7.26A120.74,120.74,0,1,1,7.26,128,120.74,120.74,0,0,1,128,7.26M128,0A128,128,0,0,0,78.17,245.94,128,128,0,0,0,177.83,10.06,127.35,127.35,0,0,0,128,0Z"/><polygon class="cls-4" points="114.84 151.06 109.51 157.06 109.51 163.41 103.92 163.41 98.85 170.38 93.52 177.71 93.52 192.82 93.52 211.33 104.18 226.94 101.85 237.34 99.18 251.34 167.14 251.34 165.81 222.69 162.48 195.37 155.81 186.04 149.82 182.04 143.82 170.72 137.16 162.06 131.83 156.06 125.83 162.06 114.84 151.06"/><path class="cls-5" d="M116.6,148.53l-10.09,8.86s-9.33,6.67-9.33,8a6.84,6.84,0,0,0,.67,2.66l4.66-4.66s-8,11.33-6.66,12,3.72,2,4.53,0,4.74-10.57,5.77-11.95-3.64,7.29-2.3,7.29,4-3.33,5.33-6,4-5.33,6-6,.86-3.17,1.43-4.25,8.57-7.08,6.57-7.75S116.6,148.53,116.6,148.53Z"/><path class="cls-6" d="M109.51,85.1s-22.65-11.32-32-10c-8.39,1.2-17.85,8.32-22.1,13.62a17.24,17.24,0,0,0-1.22,1.7c-3.33,5.33,5.33,16,5.33,16l14,12s6.66,26.65,33.31,29.31,40.65.67,50.64-6,21.32-16.66,27.32-16.66,7.81-13.63,15.9-13.14,23.71,0,23.71,0S194.46,89.43,171.8,89.43,122.5,76.77,109.51,85.1Z"/><path class="cls-7" d="M44.55,105.42,55.43,88.73s5,16,9.73,16.69S44.55,105.42,44.55,105.42Z"/><path class="cls-5" d="M144.49,144.73l-16.66,18.66s-13.32-4.66-14.66-1.33-2.66,4-2.66,4l5.33-1.33s6.94.67,8.13,1.33-10.8,7.33-10.8,7.33-2.66,6-1.33,7.33l2,2v-2.66s9.33-10,11.33-10.66-3.34,6-2,8a13.53,13.53,0,0,0,3.33,3.33l-.67-5.33s2.67-7.33,4.67-6.66,6,3.33,3.33,6.66,0,2.67,0,2.67l4-5.33s0-9.33-4-8,20.65-18.65,20.65-18.65S151.82,140.07,144.49,144.73Z"/><ellipse class="cls-8" cx="70.03" cy="92.1" rx="4.16" ry="3.33" transform="translate(-18.52 17.64) rotate(-12.69)"/><ellipse class="cls-9" cx="141.82" cy="120.42" rx="7.33" ry="5.66"/><ellipse class="cls-9" cx="157.48" cy="109.75" rx="9.66" ry="4.33"/><ellipse class="cls-9" cx="171.8" cy="101.09" rx="8.66" ry="3"/><ellipse class="cls-9" cx="160.81" cy="120.75" rx="6.33" ry="2"/><path class="cls-10" d="M45,105l16-2s1.18,2,2.09,2Z"/><path class="cls-11" d="M66.11,93.4a4.38,4.38,0,0,1,3.19-2.55c2.07-.47,4,.4,4.65,1.94a2.68,2.68,0,0,0,.14-1.61c-.4-1.79-2.55-2.84-4.79-2.33S65.57,91.22,66,93A2.24,2.24,0,0,0,66.11,93.4Z"/><ellipse class="cls-12" cx="69.58" cy="92.48" rx="1.49" ry="1.35" transform="translate(-18.62 17.55) rotate(-12.69)"/><path class="cls-13" d="M151,139c-3,1-28-12-34.47-16.25s-10.9-21.66-10.9-21.66c-.29,6.59-24,14.15-32.79,16.73l.69.6s6.66,26.65,33.31,29.31,40.65.67,50.64-6c1.43-1,2.9-2,4.37-3C157.67,138.52,152.65,138.45,151,139Z"/></svg>