<svg id="Layer_1" data-name="Layer 1" xmlns="http://www.w3.org/2000/svg" xmlns:xlink="http://www.w3.org/1999/xlink" viewBox="0 0 256 256"><defs><style>.cls-1{fill:none;}.cls-2{fill:#90c9e0;}.cls-3{fill:#365863;}.cls-4{clip-path:url(#clip-path);}.cls-5{fill:#b5dce8;}.cls-6{fill:#7c6458;}.cls-7{fill:#c39f8a;}.cls-8{fill:#798169;}.cls-9{fill:#616b49;}.cls-10{fill:#937d74;}.cls-11{fill:#a89791;}.cls-12{fill:#535c55;}.cls-13{fill:#54473c;}</style><clipPath id="clip-path"><circle class="cls-1" cx="128" cy="128" r="120.74"/></clipPath></defs><circle class="cls-2" cx="128" cy="128" r="120.74"/><path class="cls-3" d="M128,7.26A120.74,120.74,0,1,1,7.26,128,120.74,120.74,0,0,1,128,7.26M128,0A128,128,0,0,0,78.17,245.94,128,128,0,0,0,177.83,10.06,127.35,127.35,0,0,0,128,0Z"/><g class="cls-4"><path class="cls-5" d="M-2,79c19-6,69,0,78,0s75-9,96-5,70.48-2.52,71.74-3.26,58.55,51.2,58.55,51.2L235,217,42,205l-71-67Z"/><rect class="cls-6" x="-16.24" y="127.7" width="264.75" height="128.35"/><path class="cls-7" d="M50.11,266.58s53.94-77.18,61.38-81.68,29.71-16.9,31-22.17,4.67-20.46,3.43-22.32-3.72-2.48-3.72-3.72,5.58-9.92,5.58-9.92h.79s-5.75,8.68-5.13,9.3,5.29,3,5.13,4.29-1.07,9.24,0,10.53,4.17,4.4,4.17,7.5-2.48,11.16-3.72,12.4-13,9.92-13.64,14.88-13,19.84-13,27.9-16.59,53-16.59,53Z"/><path class="cls-8" d="M58.5,161.28c-1.7,1-2.31,3.21-2.2,5.18A10.92,10.92,0,0,0,63,175.82c2,.78,4.11,1,6.06,1.76,1.74.72,3.25,1.89,4.9,2.77a7.13,7.13,0,0,0,5.41.89,7.14,7.14,0,0,0,2.86-2,9.75,9.75,0,0,0,3-7.14c-.22-3.26-2.7-5.9-5.22-8a17.43,17.43,0,0,0-7-3.91c-3-.67-5.52.25-8.42.66C62.59,161.14,60.47,160.12,58.5,161.28Z"/><path class="cls-9" d="M38,153.22c-1.7,1-2.31,3.21-2.2,5.18a10.92,10.92,0,0,0,6.72,9.36c2,.78,4.11,1,6.06,1.76a55,55,0,0,1,4.9,2.77,7.13,7.13,0,0,0,5.41.89,7.14,7.14,0,0,0,2.86-2,9.75,9.75,0,0,0,3-7.14c-.22-3.26-2.7-5.9-5.22-8a17.43,17.43,0,0,0-7-3.91c-3-.67-5.52.25-8.42.66C42.13,153.08,40,152.06,38,153.22Z"/><path class="cls-8" d="M38,149.5c-1.7,1-2.31,3.21-2.2,5.18A10.92,10.92,0,0,0,42.56,164c2,.78,4.11,1,6.06,1.76a55,55,0,0,1,4.9,2.77,7.13,7.13,0,0,0,5.41.89,7.14,7.14,0,0,0,2.86-2,9.75,9.75,0,0,0,3-7.14c-.22-3.26-2.7-5.9-5.22-8a17.43,17.43,0,0,0-7-3.91c-3-.67-5.52.25-8.42.66C42.13,149.36,40,148.34,38,149.5Z"/><path class="cls-8" d="M64.08,148.26c-1.7,1-2.31,3.21-2.2,5.18a10.92,10.92,0,0,0,6.72,9.36c2,.78,4.11,1,6.06,1.76a55,55,0,0,1,4.9,2.77,7.13,7.13,0,0,0,5.41.89,7.14,7.14,0,0,0,2.86-2,9.8,9.8,0,0,0,3-7.14c-.23-3.26-2.71-5.9-5.23-8a17.43,17.43,0,0,0-7-3.91c-3-.67-5.52.25-8.42.66C68.17,148.12,66.05,147.1,64.08,148.26Z"/><path class="cls-8" d="M133.52,210.26c-1.7,1-2.3,3.21-2.2,5.18a10.9,10.9,0,0,0,6.73,9.36c1.95.78,4.11,1,6.06,1.76,1.73.72,3.24,1.89,4.9,2.77a6,6,0,0,0,8.26-1.11,9.83,9.83,0,0,0,3-7.14c-.23-3.27-2.71-5.91-5.23-8a17.39,17.39,0,0,0-7-3.91c-3-.67-5.53.25-8.42.66C137.61,210.13,135.49,209.1,133.52,210.26Z"/><path class="cls-8" d="M195,171.43a.46.46,0,0,0-.38.09.41.41,0,0,0-.07.22c-.18,1.21-.3,2.6.51,3.51,1.13,1.27,3.58,1,4.25,2.59a1.56,1.56,0,0,0,.31.6.93.93,0,0,0,.52.21,3.88,3.88,0,0,0,3.3-1.08c1.22-1.24,1.6-3.28,3.13-4.09.19-.1.41-.2.48-.4a.62.62,0,0,0,0-.33,3.11,3.11,0,0,0-3.29-2.22c-1.36.17-2.43,1.19-3.79,1.36S196.52,171.56,195,171.43Z"/><path class="cls-8" d="M108.5,161.15a17.49,17.49,0,0,0,3.71.37c1.58.2,3.18,1,4.69.48a8.3,8.3,0,0,0,2.69-2.09,9.62,9.62,0,0,1,10.24-1.58c1.17.54,2.23,1.32,3.44,1.75a3.63,3.63,0,0,0,3.65-.41c1.21-1.11,1-3.22-.14-4.44a7.73,7.73,0,0,0-4.38-2.06c-1.27-.25-2.74-.53-3.34-1.67a4.21,4.21,0,0,0-.49-1,2.26,2.26,0,0,0-.73-.48l-2.3-1.07c-1.68-.79-3.68-1.58-5.31-.7-2,1.05-2.39,3.38-4.64,4.07-1.78.54-3.51-.2-5.26.07C106.35,153.05,103.87,159.5,108.5,161.15Z"/><path class="cls-9" d="M63.24,197.73a17.49,17.49,0,0,0,3.71.37c1.58.2,3.18,1,4.69.49a8.47,8.47,0,0,0,2.69-2.1,9.62,9.62,0,0,1,10.24-1.57c1.17.53,2.22,1.31,3.44,1.74a3.61,3.61,0,0,0,3.64-.41c1.22-1.11,1-3.22-.13-4.44a7.76,7.76,0,0,0-4.38-2.06c-1.27-.24-2.74-.53-3.34-1.67a4.65,4.65,0,0,0-.49-1,2.26,2.26,0,0,0-.73-.48l-2.3-1.07c-1.68-.79-3.68-1.57-5.31-.7-2,1-2.39,3.38-4.64,4.07-1.78.54-3.51-.2-5.27.08C61.09,189.64,58.61,196.08,63.24,197.73Z"/><path class="cls-8" d="M64.48,194.63a17.49,17.49,0,0,0,3.71.37c1.58.2,3.18,1,4.69.49a8.47,8.47,0,0,0,2.69-2.1,9.62,9.62,0,0,1,10.24-1.57c1.17.53,2.22,1.31,3.44,1.74a3.61,3.61,0,0,0,3.64-.41c1.22-1.11,1-3.22-.13-4.44a7.76,7.76,0,0,0-4.38-2.06c-1.27-.24-2.74-.53-3.34-1.67a4.65,4.65,0,0,0-.49-1,2.26,2.26,0,0,0-.73-.48l-2.3-1.07c-1.68-.79-3.68-1.58-5.31-.7-1.95,1.05-2.39,3.38-4.64,4.07-1.78.54-3.51-.2-5.27.08C62.33,186.54,59.85,193,64.48,194.63Z"/><path class="cls-9" d="M13,252.91a17.49,17.49,0,0,0,3.71.37c1.58.2,3.18,1,4.69.49a8.55,8.55,0,0,0,2.69-2.09,9.62,9.62,0,0,1,10.24-1.58c1.17.54,2.22,1.31,3.43,1.75a3.65,3.65,0,0,0,3.65-.42c1.21-1.11,1-3.21-.13-4.44a7.69,7.69,0,0,0-4.38-2.05c-1.27-.25-2.74-.53-3.34-1.68a4.9,4.9,0,0,0-.49-1,2.2,2.2,0,0,0-.74-.48l-2.29-1.07c-1.68-.79-3.68-1.57-5.32-.69-1.94,1-2.38,3.37-4.64,4.06-1.77.55-3.5-.2-5.26.08C10.87,244.82,8.39,251.26,13,252.91Z"/><path class="cls-8" d="M74.05,147.85c-.55.89-1,2.11-2,2.29A2.33,2.33,0,0,1,70,149a8.53,8.53,0,0,1-1.64-3.89,1.12,1.12,0,0,1,0-.7,1.29,1.29,0,0,1,.91-.49,22,22,0,0,0,7.4-3.17,10.84,10.84,0,0,1,1.94-1.14,7.36,7.36,0,0,1,2.6-.39c3.5,0,13.22,1.71,6.82,6.22-2.07,1.46-4.24,1.52-6.64,1C78.77,145.88,75.8,145,74.05,147.85Z"/><path class="cls-8" d="M43.72,143.28a2.12,2.12,0,0,1-.91-.73,2.2,2.2,0,0,1-.21-1,5.1,5.1,0,0,1,.58-3.28A3.74,3.74,0,0,1,45.65,137c2.68-.44,5.33.67,8,1.24a20.65,20.65,0,0,0,6.88.32,4.8,4.8,0,0,1,2.2,0,1.44,1.44,0,0,1,1,1.72,2.19,2.19,0,0,1-.64.75l-1.95,1.63a6,6,0,0,1-1.42,1,7,7,0,0,1-2.37.45c-2.24.19-4.44,1.07-6.67,1.08A15.84,15.84,0,0,1,43.72,143.28Z"/><path class="cls-8" d="M32.56,144.57a10.58,10.58,0,0,1-3.45.61,6.08,6.08,0,0,1-2.82-1.09,2.14,2.14,0,0,1-.58-.5,3.26,3.26,0,0,1-.44-1.27A6.74,6.74,0,0,0,23.41,139a16.8,16.8,0,0,1,6.56-.38l3.77.29a9.71,9.71,0,0,1,2.15.32c1.61.48,3.07,1.78,4.74,1.54a8.35,8.35,0,0,1,.06,2.58c-.53.83-.66.51-1.63.6C36.84,144.18,34.77,144,32.56,144.57Z"/><path class="cls-9" d="M31.59,157a2.71,2.71,0,0,0-1-.27A1.92,1.92,0,0,0,29,158.32a16.76,16.76,0,0,0-.12,2.46,5.79,5.79,0,0,1-4.06,5c-1.39.4-2.91.26-4.26.77-1.94.75-3.13,2.67-4.18,4.46a4.13,4.13,0,0,0-.7,1.78c-.08,1.45,1.38,2.56,2.79,2.91,2.82.71,5.89-.37,8.66.51,3.24,1,5.22,4.46,8.39,5.69,2.35.91,5,.47,7.46,0l6.16-1.12a21.15,21.15,0,0,1,5.87-.5c-.16-4.33-3.32-7.92-6.57-10.8s-6.89-5.61-8.62-9.58c-.75-1.74-1.4-2.73-3.39-2.42A6.51,6.51,0,0,1,31.59,157Z"/><path class="cls-8" d="M34.69,156.35a2.71,2.71,0,0,0-1-.27,1.92,1.92,0,0,0-1.63,1.62,16.76,16.76,0,0,0-.12,2.46,5.79,5.79,0,0,1-4.06,5c-1.39.4-2.91.26-4.26.77-1.94.75-3.13,2.67-4.18,4.46a4.13,4.13,0,0,0-.7,1.78c-.08,1.45,1.38,2.56,2.79,2.91,2.82.71,5.89-.37,8.66.51,3.24,1,5.22,4.46,8.39,5.69,2.35.91,5,.47,7.46,0l6.16-1.12a21.15,21.15,0,0,1,5.87-.5c-.16-4.33-3.32-7.92-6.57-10.8s-6.89-5.61-8.62-9.58c-.75-1.74-1.4-2.73-3.39-2.42A6.51,6.51,0,0,1,34.69,156.35Z"/><path class="cls-8" d="M182.5,139.58c-1.7,1-2.3,3.21-2.2,5.18a10.94,10.94,0,0,0,6.73,9.36c2,.78,4.11,1,6.06,1.76,1.74.71,3.24,1.89,4.9,2.77a6,6,0,0,0,8.27-1.12,9.79,9.79,0,0,0,3-7.14c-.22-3.26-2.7-5.9-5.23-8a17.21,17.21,0,0,0-7-3.91c-3-.67-5.53.25-8.42.66C186.59,139.44,184.47,138.42,182.5,139.58Z"/><path class="cls-8" d="M176.06,143.33a2.71,2.71,0,0,0-1-.27,1.91,1.91,0,0,0-1.63,1.62,14.39,14.39,0,0,0-.12,2.46,5.8,5.8,0,0,1-4.06,5c-1.39.4-2.91.26-4.27.77-1.94.75-3.13,2.67-4.18,4.46a4.24,4.24,0,0,0-.69,1.78c-.09,1.45,1.37,2.55,2.79,2.91,2.82.71,5.89-.37,8.66.51,3.24,1,5.21,4.46,8.38,5.69,2.35.91,5,.47,7.46,0l6.16-1.12a21.22,21.22,0,0,1,5.88-.5c-.16-4.33-3.33-7.92-6.57-10.8s-6.9-5.61-8.62-9.59c-.75-1.73-1.4-2.72-3.39-2.41A6.55,6.55,0,0,1,176.06,143.33Z"/><path class="cls-10" d="M-39.74,126.77s22.26-7.75,33.43-9.61,13-6.82,24.18-6.82,27.28-1.86,34.1-2.48,14.88-1.86,20.46-1.24,32.43-1.6,36.68-2.35,31.07-.49,37.18,0,9.86,11,16.67,11,7.43-2.46,19.21-4.94,22.32,1.24,27.28,1.86,9.48,2.45,13.42,3.08.85-.6,12.63-3.08,23.56,3.72,24.18,4.34-1,22-1,22Z"/><path class="cls-11" d="M-6.31,117.16c11.16-1.86,5.58-3.1,16.74-3.1s29.14,1.24,36,.62,20.46-8.68,26-8.06,28.62,8.81,32.86,8.06,34.89-10.9,41-10.41,13.57,17.21,20.38,17.23,16.12-3.1,27.9-5.58,17.36,1.24,22.33,1.86,12.79,2.46,16.74,3.1-9.92-6.2,1.86-8.68,23.56,3.72,24.18,4.34a.24.24,0,0,1,0,.07c.13-3.1.17-5.45,0-5.65-.62-.62-12.4-6.82-24.18-4.34s-8.68,3.72-12.63,3.08-8.45-2.46-13.42-3.08-15.5-4.34-27.28-1.86-12.4,5-19.21,4.94-10.55-10.52-16.67-11-40.47,4.07-44.72,4.83S78,101.66,72.43,101s-13.64.62-20.46,1.24-22.94,2.48-34.1,2.48-13,5-24.18,6.82-33.43,9.61-33.43,9.61l15.35.6A163.87,163.87,0,0,1-6.31,117.16Z"/><path class="cls-12" d="M-21.2,140.1s4.34-4.34,13-5.58,97.65-1.41,108.35-1.63,80.44-2.12,86.49-1.18,51.31,1.57,56.89,1.57,26.66,1.24,30.38,1.24-52.46,1.89-57.54,1.25-28.65-2.49-31.75-1.87-45.26-.62-50.22.62-46.18,1.86-47.27,2.17-41.67-2.14-47.11-.92-37.43,0-41.9.92S-21.2,140.1-21.2,140.1Z"/><path class="cls-9" d="M22.47,146.54a7.54,7.54,0,0,1,2.1,3.52c.36,2.12-1.08,4.06-2.26,5.86s-2.16,4.19-1,6a12.52,12.52,0,0,1,.92,1.28c.8,1.69-1,3.47-2.75,4.11s-3.83.94-4.88,2.48c-.64.94-.75,2.19-1.5,3.05-1.06,1.22-2.94,1.18-4.55,1l-10.94-1c-1.92-.17-4.09-.48-5.18-2.06-.91-1.31-.75-3-.71-4.62s-.2-3.41-1.53-4.29c-1.05-.69-2.44-.54-3.62-1-1.54-.57-2.52-2.06-3.39-3.46a15.33,15.33,0,0,1-2-4,5.3,5.3,0,0,1,.43-4.29,13.88,13.88,0,0,0,1.09-1.58,8.64,8.64,0,0,0,.42-2,7.55,7.55,0,0,1,3.46-4.66,19.66,19.66,0,0,1,5.52-2.22c6.64-1.85,13.56-3.1,20.4-2.35,2.75.3,2.38,1.75,4,3.54C18.43,142.24,20.52,144.33,22.47,146.54Z"/><path class="cls-8" d="M25.57,144.68a7.54,7.54,0,0,1,2.1,3.52c.36,2.12-1.08,4.06-2.26,5.86s-2.16,4.19-1,6a12.52,12.52,0,0,1,.92,1.28c.8,1.69-1,3.47-2.75,4.11s-3.83.94-4.88,2.48c-.64.94-.75,2.19-1.5,3.05-1.06,1.22-2.94,1.18-4.55,1L.73,171.06c-1.92-.17-4.09-.48-5.18-2.06-.91-1.31-.75-3-.71-4.62s-.2-3.41-1.53-4.29c-1-.69-2.44-.54-3.62-1-1.54-.57-2.52-2.06-3.39-3.46a15.33,15.33,0,0,1-2-4,5.3,5.3,0,0,1,.43-4.29,13.88,13.88,0,0,0,1.09-1.58,8.64,8.64,0,0,0,.42-2,7.55,7.55,0,0,1,3.46-4.66A19.66,19.66,0,0,1-4.77,137c6.64-1.85,13.56-3.1,20.4-2.35,2.75.3,2.38,1.75,3.95,3.54C21.53,140.38,23.62,142.47,25.57,144.68Z"/><path class="cls-9" d="M29.91,178.16a7.54,7.54,0,0,1,2.1,3.52c.36,2.12-1.08,4.06-2.26,5.86s-2.16,4.19-1,6a11.62,11.62,0,0,1,.92,1.29c.8,1.68-1,3.47-2.75,4.1s-3.83.94-4.88,2.48c-.64.94-.75,2.19-1.5,3-1.06,1.23-2.94,1.18-4.55,1l-10.94-1c-1.92-.17-4.09-.47-5.18-2.06-.91-1.3-.75-3-.71-4.62s-.2-3.41-1.53-4.28c-1-.7-2.44-.55-3.62-1-1.54-.57-2.52-2.06-3.39-3.45a15.55,15.55,0,0,1-2-4,5.3,5.3,0,0,1,.43-4.29,13.88,13.88,0,0,0,1.09-1.58,8.55,8.55,0,0,0,.42-2,7.54,7.54,0,0,1,3.46-4.67,20,20,0,0,1,5.52-2.22c6.64-1.85,13.56-3.1,20.4-2.35,2.75.31,2.38,1.75,4,3.54C25.87,173.86,28,176,29.91,178.16Z"/><path class="cls-8" d="M31.77,175.68a7.54,7.54,0,0,1,2.1,3.52c.36,2.12-1.08,4.06-2.26,5.86s-2.16,4.19-1,6a11.62,11.62,0,0,1,.92,1.29c.8,1.68-1,3.47-2.75,4.1s-3.83.94-4.88,2.48c-.64.94-.75,2.19-1.5,3.05-1.06,1.23-2.94,1.18-4.55,1l-10.94-.95c-1.92-.17-4.09-.47-5.18-2.06-.91-1.3-.75-3-.71-4.62S.84,192-.49,191.1c-1-.7-2.44-.55-3.62-1-1.54-.57-2.52-2.06-3.39-3.45a15.55,15.55,0,0,1-2-4,5.3,5.3,0,0,1,.43-4.29A13.88,13.88,0,0,0-8,176.82a8.55,8.55,0,0,0,.42-2,7.54,7.54,0,0,1,3.46-4.67A20,20,0,0,1,1.43,168c6.64-1.85,13.56-3.1,20.4-2.35,2.75.31,2.38,1.75,4,3.54C27.73,171.38,29.82,173.47,31.77,175.68Z"/><path class="cls-9" d="M54.12,198.86a7.61,7.61,0,0,1,2.13,3.61c.36,2.16-1.09,4.15-2.29,6s-2.2,4.29-1,6.13a12.16,12.16,0,0,1,.94,1.32c.8,1.72-1,3.55-2.8,4.2s-3.89,1-5,2.53c-.65,1-.76,2.25-1.52,3.13-1.09,1.25-3,1.21-4.63,1.06l-11.11-1c-1.95-.17-4.15-.49-5.26-2.11-.92-1.34-.76-3.1-.72-4.73s-.21-3.49-1.55-4.38c-1.07-.71-2.48-.56-3.68-1-1.56-.59-2.56-2.11-3.45-3.54a16,16,0,0,1-2-4.05,5.52,5.52,0,0,1,.44-4.4A13.54,13.54,0,0,0,13.76,200a9.11,9.11,0,0,0,.43-2,7.7,7.7,0,0,1,3.51-4.78A19.72,19.72,0,0,1,23.31,191c6.74-1.9,13.76-3.18,20.72-2.41,2.79.31,2.41,1.79,4,3.62C50,194.46,52.14,196.6,54.12,198.86Z"/><path class="cls-8" d="M57.22,197a7.61,7.61,0,0,1,2.13,3.61c.36,2.16-1.09,4.15-2.29,6s-2.2,4.29-1,6.13a12.16,12.16,0,0,1,.94,1.32c.81,1.72-1,3.55-2.8,4.2s-3.89,1-5,2.53c-.65,1-.76,2.25-1.52,3.13-1.09,1.25-3,1.21-4.63,1.06L32,224c-1.95-.17-4.15-.49-5.26-2.11-.92-1.34-.76-3.1-.72-4.73s-.21-3.49-1.55-4.38c-1.07-.71-2.48-.56-3.68-1-1.56-.59-2.56-2.11-3.45-3.54a16,16,0,0,1-2-4,5.52,5.52,0,0,1,.44-4.4,13.54,13.54,0,0,0,1.11-1.61,9.11,9.11,0,0,0,.43-2,7.7,7.7,0,0,1,3.51-4.78,20,20,0,0,1,5.61-2.27c6.74-1.89,13.76-3.17,20.72-2.4,2.79.31,2.41,1.79,4,3.62C53.12,192.6,55.24,194.74,57.22,197Z"/><path class="cls-8" d="M172.08,225.48a7.52,7.52,0,0,1,3.52-2.09c2.12-.36,4.06,1.07,5.86,2.25s4.19,2.16,6,1a12.62,12.62,0,0,1,1.28-.93c1.68-.79,3.47,1,4.11,2.75s.94,3.84,2.47,4.88c.95.64,2.2.75,3.06,1.5,1.22,1.07,1.18,2.94,1,4.56l-.95,10.94c-.17,1.91-.48,4.09-2.06,5.18-1.31.9-3,.74-4.62.71s-3.41.2-4.29,1.52c-.69,1.05-.54,2.44-1,3.62-.57,1.54-2.06,2.53-3.46,3.4a15.65,15.65,0,0,1-4,2,5.3,5.3,0,0,1-4.29-.44,13.79,13.79,0,0,0-1.58-1.08,8.65,8.65,0,0,0-2-.43,7.56,7.56,0,0,1-4.67-3.46,19.94,19.94,0,0,1-2.21-5.52c-1.85-6.63-3.1-13.55-2.35-20.4.3-2.75,1.75-2.37,3.54-3.95C167.77,229.52,169.87,227.44,172.08,225.48Z"/><path class="cls-8" d="M203.7,218a7.52,7.52,0,0,1,3.52-2.09c2.12-.36,4.06,1.07,5.86,2.25s4.19,2.16,6,1a12.62,12.62,0,0,1,1.28-.93c1.69-.79,3.47,1,4.11,2.75s.94,3.84,2.48,4.88c.94.64,2.19.75,3.05,1.5,1.22,1.07,1.18,2.94,1,4.56l-.95,10.93c-.17,1.92-.48,4.1-2.06,5.19-1.31.9-3,.74-4.62.7s-3.41.21-4.29,1.53c-.69,1-.54,2.44-1,3.62-.57,1.54-2.06,2.52-3.46,3.4a16,16,0,0,1-4,2,5.3,5.3,0,0,1-4.29-.44,13.79,13.79,0,0,0-1.58-1.08,8.65,8.65,0,0,0-2-.43,7.52,7.52,0,0,1-4.66-3.46,19.66,19.66,0,0,1-2.22-5.52c-1.85-6.63-3.1-13.55-2.35-20.4.3-2.75,1.75-2.37,3.54-3.95C199.4,222.08,201.49,220,203.7,218Z"/><path class="cls-8" d="M224.4,193.83a7.8,7.8,0,0,1,3.6-2.13c2.17-.36,4.16,1.1,6,2.29s4.29,2.2,6.13,1a12,12,0,0,1,1.31-.93c1.72-.81,3.56,1,4.21,2.79s.95,3.89,2.53,5c1,.66,2.25.77,3.13,1.53,1.25,1.08,1.2,3,1.06,4.62l-1,11.11c-.17,1.95-.49,4.16-2.11,5.27-1.34.91-3.11.76-4.73.72s-3.49.2-4.39,1.55c-.7,1.06-.55,2.47-1,3.67-.59,1.57-2.11,2.57-3.54,3.45a16.15,16.15,0,0,1-4,2,5.48,5.48,0,0,1-4.4-.44,14.32,14.32,0,0,0-1.61-1.1,8.58,8.58,0,0,0-2-.43,7.69,7.69,0,0,1-4.78-3.52,20,20,0,0,1-2.27-5.6c-1.89-6.74-3.17-13.77-2.4-20.72.31-2.79,1.78-2.41,3.62-4C220,197.94,222.14,195.82,224.4,193.83Z"/><path class="cls-8" d="M190.5,176.3a7.54,7.54,0,0,1,2.1,3.52c.35,2.12-1.08,4.06-2.26,5.86s-2.16,4.19-1,6a10.53,10.53,0,0,1,.93,1.29c.79,1.68-1,3.47-2.75,4.1s-3.84.94-4.88,2.48c-.64.94-.75,2.19-1.5,3.05-1.07,1.23-2.94,1.18-4.56,1l-10.93-.95c-1.92-.17-4.09-.47-5.19-2.06-.9-1.3-.74-3-.7-4.62s-.21-3.41-1.53-4.28c-1.05-.7-2.44-.55-3.62-1-1.54-.57-2.52-2.06-3.4-3.45a15.85,15.85,0,0,1-2-4,5.26,5.26,0,0,1,.43-4.29,15.3,15.3,0,0,0,1.09-1.58,9.12,9.12,0,0,0,.42-2,7.51,7.51,0,0,1,3.46-4.67,20,20,0,0,1,5.52-2.22c6.63-1.85,13.55-3.1,20.4-2.35,2.75.31,2.37,1.75,3.95,3.54C186.46,172,188.54,174.09,190.5,176.3Z"/><path class="cls-8" d="M104.2,139.25a9,9,0,0,1,5.39,1.36c1.37,1,2.34,2.62,4,3.07a1.37,1.37,0,0,1,.52.2.89.89,0,0,1,.15,1c-.47,1.21-2,1.56-3.34,1.42s-2.63-.57-3.88-.18a13.82,13.82,0,0,0-2.92,1.88,11.3,11.3,0,0,1-4.45,1.25,2.12,2.12,0,0,1-1.09,0,1.79,1.79,0,0,1-.72-.65,7.43,7.43,0,0,1-.49-7.78C98.68,138.56,101.88,139.26,104.2,139.25Z"/><path class="cls-8" d="M165.58,138a9,9,0,0,1,5.39,1.36c1.37,1,2.34,2.62,4,3.07a1.26,1.26,0,0,1,.52.2.87.87,0,0,1,.15,1c-.46,1.21-2,1.56-3.34,1.42s-2.63-.57-3.87-.18a13.64,13.64,0,0,0-2.93,1.88A11.3,11.3,0,0,1,161,148a2.08,2.08,0,0,1-1.08,0,1.75,1.75,0,0,1-.73-.65,7.41,7.41,0,0,1-.48-7.78C160.06,137.32,163.27,138,165.58,138Z"/><path class="cls-8" d="M36,236.59A9,9,0,0,1,41.38,238c1.37,1,2.35,2.63,4,3.07a1.39,1.39,0,0,1,.52.21.87.87,0,0,1,.14,1c-.46,1.22-2,1.56-3.34,1.42s-2.62-.56-3.87-.18a13.82,13.82,0,0,0-2.92,1.88,11.14,11.14,0,0,1-4.45,1.26,2.11,2.11,0,0,1-1.09,0,1.87,1.87,0,0,1-.72-.65,7.42,7.42,0,0,1-.49-7.79C30.47,235.9,33.68,236.6,36,236.59Z"/><path class="cls-8" d="M-10.55,241.75a17.62,17.62,0,0,0,3.71.37c1.58.2,3.19,1,4.7.49a8.55,8.55,0,0,0,2.69-2.09,9.62,9.62,0,0,1,10.24-1.58c1.17.54,2.22,1.31,3.43,1.75a3.65,3.65,0,0,0,3.65-.42c1.21-1.11,1-3.21-.13-4.44a7.69,7.69,0,0,0-4.38-2.05c-1.27-.25-2.74-.53-3.34-1.68a4.9,4.9,0,0,0-.49-1,2.3,2.3,0,0,0-.74-.48L6.5,229.58c-1.68-.79-3.68-1.57-5.32-.69-1.94,1-2.38,3.37-4.64,4.06-1.77.55-3.5-.2-5.26.08C-12.69,233.66-15.17,240.1-10.55,241.75Z"/><path class="cls-8" d="M12.43,225.43a9.06,9.06,0,0,1,5.39,1.36c1.37,1,2.35,2.63,4,3.07a1.39,1.39,0,0,1,.52.21.87.87,0,0,1,.14,1c-.46,1.22-2,1.56-3.34,1.42s-2.62-.57-3.87-.18a13.82,13.82,0,0,0-2.92,1.88,11.19,11.19,0,0,1-4.45,1.26,2.11,2.11,0,0,1-1.09,0,1.87,1.87,0,0,1-.72-.65A7.4,7.4,0,0,1,5.58,227C6.91,224.74,10.12,225.44,12.43,225.43Z"/><path class="cls-13" d="M196.74,192.18c-.62-9.92-5-24.8-5-27.28s-1.86-13.64-3.72-18-9.92-21.08-9.92-22.94,2.48-21.08,2.48-21.08,3.41,13.95,5.27,18.91,1.86,19.84,6.2,21.08,8.68,7.44,8.68,7.44,4.34-12.4,4.34-18.6,1.86-39.06,2.48-40.3,3.72-.62,3.72-.62v21l5.59-11.74v13.26s-5.59,4.1-5,7.82,1.24,6.2,1.24,6.2,10.55-2.48,11.17-5,4.34-12.4,4.34-12.4-1.86-13,0-12.37,6.2,9.89,6.2,9.89,8.06.62,5,3.72-6.2,1.86-6.2,1.86L228.06,120s.62,6.2-1.86,6.82-9.92,1.86-10.54,3.72-3.73,23.56-3.73,23.56l-4.41,38.13Z"/><path class="cls-9" d="M175.31,115.58q2.82-2,5.52-4.06a27.61,27.61,0,0,0-6.92-2.25,13.06,13.06,0,0,0,4.46-2.48,12.35,12.35,0,0,1-3.08-4.19l2.43.09-1.18-5.17a22.58,22.58,0,0,0,2.39,3.2l.76-7.8,3.25,5.14,1.45-4.61.21,5.88a.91.91,0,0,0,.15.56.87.87,0,0,0,.72.2,8.4,8.4,0,0,0,2.43-.49l-2.52,3.93A27.72,27.72,0,0,1,190,104.7l-2.2,2a1.82,1.82,0,0,1,2.39,1.14,2.71,2.71,0,0,1-.88,2.71c-.94.86-2.33,1.2-3.05,2.24l1.69.72c.14.06.3.13.35.28s-.19.5-.44.62C184.17,116.17,179.27,115.57,175.31,115.58Z"/><path class="cls-9" d="M201.91,109.19a25,25,0,0,0,7.45-3.14,8.15,8.15,0,0,0-3.36-3,12.44,12.44,0,0,0,3.06-1.1l-2.21-3.71,3.17.49.08-3.92,2.61,1.4q.76-2.39,1.68-4.73c.08-.22.21-.47.44-.49s.36.12.5.25l1.32,1.29a13.83,13.83,0,0,1,2.15-2.89l.07,5.19a19.76,19.76,0,0,0,3.54-2.31,13.44,13.44,0,0,1-1.89,4.19,2.65,2.65,0,0,0,1.31.15l-2,1.77,1.84,1.11-1.24,1.35,2.46,1.68a2.68,2.68,0,0,0-1.08.66l2.37,2.08a1.35,1.35,0,0,0-1.73,1.17,1.89,1.89,0,0,0,1.35,1.81l-2.77,1.07a3.63,3.63,0,0,0,.84,1.82,2.94,2.94,0,0,1-1.86.71l-.07,2.37a5.53,5.53,0,0,1-3-1.53l.52,4-2.81-2.23.75,2c-.73-2-3.15-6.4-5.1-7.34S204.21,109.18,201.91,109.19Z"/><path class="cls-9" d="M204.17,91.41l4.85-3a7.26,7.26,0,0,1-2-2.06c.44-.06.52-.64.5-1.08l-.15-2.56,2.45,2.15.62-2.77L212,86.4a11.38,11.38,0,0,1,1.64-3.1,7.75,7.75,0,0,0-.34,1.84l2.78.06a12,12,0,0,1-1.64,2.24l1.65.47q-2.51,1.47-4.86,3.17l1.66.48a15.81,15.81,0,0,1-1.73.89,5.84,5.84,0,0,1-2.58-.41A14.81,14.81,0,0,0,204.17,91.41Z"/><path class="cls-9" d="M224.76,99.6a14.18,14.18,0,0,0,2.47-1.07l-2.15-1.47,1.44-.44a.35.35,0,0,0,.25-.17.34.34,0,0,0-.08-.3l-.86-1.38a9.91,9.91,0,0,0,2.49.16,21,21,0,0,1-2-4.92l2.91,4a16.89,16.89,0,0,1,1.46-4.44A10.53,10.53,0,0,1,231.94,92a7,7,0,0,1,2-3,35.16,35.16,0,0,0-1.42,4.24,13.36,13.36,0,0,0,3.58-.8l-1.91,2.73a.42.42,0,0,0,.12.69l2.52,1.83-2.87.64c-.26.06-.59.19-.58.47a.59.59,0,0,0,.23.38l1.13,1.06c.23.22.47.54.33.82a.71.71,0,0,1-.46.28c-1.94.54-3-.34-4.62-1S226.49,100,224.76,99.6Z"/><path class="cls-9" d="M238.25,109.59a22.06,22.06,0,0,1,4.28-4.08l-1.4,3.61a3,3,0,0,0,1.65-.14,4.73,4.73,0,0,0-1.27,1c-.12.13-.24.3-.19.46a.57.57,0,0,0,.2.26l2.17,1.75a10.48,10.48,0,0,1-3,0l.62,5.85a18.45,18.45,0,0,0-2.43-3.33,10.6,10.6,0,0,1-.26,3.55l-1.45-2.74a.69.69,0,0,0-.22-.28c-.48-.32-.87.66-1.45.73l1.37-2.52a15.68,15.68,0,0,1-3.73.52,6.69,6.69,0,0,0,1.39-1.09L232.89,112a7,7,0,0,0,3.24-1,4.34,4.34,0,0,1-1.91-1c1.91-.7,1.82-3,2.95-4.31C237.45,106.12,238.55,109.21,238.25,109.59Z"/><path class="cls-9" d="M200,137.45a44.92,44.92,0,0,1,4.45-7.41l-.82,6,2.86-.83-1.16,3.92a8.83,8.83,0,0,0,3.38-1.55l-1.36,3.17,4.23,0a5.89,5.89,0,0,0-2.16,2.27,3.33,3.33,0,0,1,1.72.28,1.2,1.2,0,0,1,.62,1.48c-.31.63-1.35.86-1.31,1.57a1.31,1.31,0,0,0,.48.76l1.92,1.82c-.52.9-2.3.67-2.45,1.69a1.57,1.57,0,0,0,.42,1.09l3.3,4.46-3.65.18a20.9,20.9,0,0,0,2.14,5,14.09,14.09,0,0,1-4.28-1.72c.52,2.27,1.15,4.51,1.86,6.72l-2.69-2.78a59.1,59.1,0,0,1-1.26,10.1,36.41,36.41,0,0,1-2.42-5.23,65.91,65.91,0,0,1-1.84,11l-1.73-6.91a30.09,30.09,0,0,0-2.26,4.85l1.3-9.54-5.53,1.84a33.09,33.09,0,0,1,2.54-5.82,15.46,15.46,0,0,1-4.32,2.2l2.44-4.37a29.74,29.74,0,0,1-6-.1l4.62-3.13a21.71,21.71,0,0,1-7.32-2.59l5.46-1.82a22.7,22.7,0,0,1-6.72-3.33,25.48,25.48,0,0,0,4.1-1.15l-3.67-3.23a35.34,35.34,0,0,0,9.5-1.76,17.65,17.65,0,0,1-3.36-2.16,16.52,16.52,0,0,1,5.81.54c-1,0-3.42-4.08-3.84-4.88.83.32,1.63.74,2.46,1.06-1.5-3.32,1.73-4.29,1.88-7.42A48.28,48.28,0,0,0,200,137.45Z"/><path class="cls-8" d="M214.71,197a7.78,7.78,0,0,1,2.13,3.61c.36,2.16-1.1,4.15-2.29,6s-2.2,4.29-1,6.13a12.07,12.07,0,0,1,.93,1.32c.81,1.72-1,3.55-2.79,4.2s-3.89,1-4.95,2.53c-.65,1-.77,2.25-1.53,3.13-1.08,1.25-3,1.21-4.62,1.06l-11.11-1c-1.95-.17-4.16-.49-5.27-2.11-.91-1.34-.75-3.1-.71-4.73s-.21-3.49-1.55-4.38c-1.07-.71-2.48-.56-3.68-1-1.57-.59-2.56-2.11-3.45-3.54a16,16,0,0,1-2-4,5.48,5.48,0,0,1,.44-4.4,12.38,12.38,0,0,0,1.1-1.61,8.58,8.58,0,0,0,.43-2,7.76,7.76,0,0,1,3.52-4.78,20.09,20.09,0,0,1,5.6-2.27c6.74-1.89,13.77-3.17,20.73-2.4,2.78.31,2.41,1.79,4,3.62C210.6,192.6,212.72,194.74,214.71,197Z"/></g></svg>