<svg id="Layer_1" data-name="Layer 1" xmlns="http://www.w3.org/2000/svg" xmlns:xlink="http://www.w3.org/1999/xlink" viewBox="0 0 256 256"><defs><style>.cls-1{fill:none;}.cls-2{fill:#90c9e0;}.cls-3{fill:#365863;}.cls-4{clip-path:url(#clip-path);}.cls-5{fill:#304620;}.cls-6{fill:#3a5426;}.cls-7{fill:#667a55;}.cls-8{fill:#32756d;}.cls-9{fill:#fbcf89;}.cls-10{fill:#0e1e36;}.cls-11{fill:#f2f5f9;}.cls-12{fill:#1d252a;}.cls-13{fill:#798169;}</style><clipPath id="clip-path"><circle class="cls-1" cx="128" cy="128" r="120.74"/></clipPath></defs><circle class="cls-2" cx="128" cy="128" r="120.74"/><path class="cls-3" d="M128,7.26A120.74,120.74,0,1,1,7.26,128,120.74,120.74,0,0,1,128,7.26M128,0A128,128,0,0,0,78.17,245.94,128,128,0,0,0,177.83,10.06,127.35,127.35,0,0,0,128,0Z"/><g class="cls-4"><path class="cls-5" d="M5.55,149.73C6,142,9,119,6,109s3.18-42.76,6.09-35.38,2.16,7.48,12.53-1.07,22.26-23.24,26.32-7.9S66,66,66,66s-6.51-9.4,2.74-11.7S85,39,86,34s9.69,18.67,9.69,18.67S96,58,103,58s3.49,21.37,13.75,19.19,20.35-19.61,26.8-10.9,14.95,13,20.2,10.35S175.66,54.4,184.33,65.2,202,90,208,86s12.32-13.46,21.16-1.73S254,79,258,84s11.46,36,10.73,44-29.43,15.32-29.43,15.32Z"/><path class="cls-6" d="M5.55,170.73C6,163,9,140,6,130s3.18-42.76,6.09-35.38,2.16,7.48,12.53-1.07,26.32-7.9,26.32-7.9L59,82l15-2L84,50,95.69,73.67S96,79,103,79s20,19,20,19,14.1-19.42,20.55-10.71S155.75,94.64,161,92s22-12,22-12,13,20,19,16,28.16-5.73,37,6,15-2,19,3,11.46,36,10.73,44-29.43,15.32-29.43,15.32Z"/><path class="cls-7" d="M-10.25,144.22c19.25-.22,28,2.22,53.13,0s62.86,9.1,85.49.94S238,130,262,138s81.65,47,81.65,47L186.87,325.92,40,305-44.95,178.78Z"/><path class="cls-8" d="M81.4,153.93s-19.15.59-20.32,1.76a11.23,11.23,0,0,0-2,2.95l-1.87,5.3s-5.6,0-6.19,1.77,1.18,14.73,1.77,14.73,4.71-10.9,9.13-10,8.54,13.84,10.9,14.43,16.2-.59,21.21-1.47S163.46,185,163.46,185s1.91-10.47,11.34-10.17,14,10.17,14,10.17h37.56l2.77-3.25-1.92-23.13"/><path class="cls-9" d="M188.68,166a2,2,0,0,0-1.54.38,1.33,1.33,0,0,0,.24,1.82,3.93,3.93,0,0,0,1.89.75c3.38.68,6.82,1.36,10.24.94,2.67-.32,5.25-1.31,7.94-1.43s5.15.61,7.72.92,5.4.18,7.47-1.39c-1.64-2.45-5.11-2.61-8.06-2.51a94.32,94.32,0,0,0-12.71.84C197.65,167,193,166,188.68,166Z"/><path class="cls-9" d="M152.07,163.83c-.63.8-1.87.47-2.87.26a7.45,7.45,0,0,0-5.57,1.09,1.51,1.51,0,0,0,.59,1.66,4,4,0,0,0,1.76.64,26.2,26.2,0,0,0,6.85.3c2.76-.24,5.47-.91,8.24-1.07a45.12,45.12,0,0,1,6.36.27L180,168.14a1.27,1.27,0,0,0-.09-1.69,3.36,3.36,0,0,0-1.63-.87,28.72,28.72,0,0,0-6.95-1.17l10.71-1.63c-.65-1.7-2.91-1.95-4.73-1.93L165,161C161.13,161.06,154.51,160.72,152.07,163.83Z"/><path class="cls-9" d="M109.07,163.07a12.8,12.8,0,0,0,7.63,1.66,30.34,30.34,0,0,0-9.38,1.74c-.52.19-1.14.65-.88,1.13a14.51,14.51,0,0,0,6,.73c8.84-.17,17.69-.33,26.5-1.2l-14.13-2c4-.45,8-.69,12-1.38-3.29-2.06-7.48-2.18-11.22-2.08-2.78.08-5.55.2-8.31.44-1.42.12-2.84.26-4.26.43C112.2,162.64,109.65,163.41,109.07,163.07Z"/><path class="cls-9" d="M76.93,158.8a1.49,1.49,0,0,1-.57.57,2.39,2.39,0,0,1-1.19,0,2.42,2.42,0,0,0-2.41,2.84,6.73,6.73,0,0,0-4.13.46,9.37,9.37,0,0,1-.95.59,4.85,4.85,0,0,1-2.4.15,13.88,13.88,0,0,0-5.28.64,2.56,2.56,0,0,1-.5-3.36c1-2,2.41-3.95,4.48-4.77s4.6-.32,6.93-.49c1.24-.08,2.47-.38,3.72-.39.74,0,3.17.09,3.62.83C78.83,156.8,77.5,158,76.93,158.8Z"/><circle class="cls-10" cx="175.24" cy="185.01" r="11.49"/><circle class="cls-10" cx="63.73" cy="182.51" r="9.43"/><path class="cls-11" d="M79.64,153.63s3.24-15.61,4.71-16.79,8.54-7.37,14.44-8S200.43,128,200.43,128s20.92.59,26.81,14.73v15.91H79.64Z"/><polygon class="cls-12" points="184.33 143.32 185.13 157.22 204.4 157.22 202.63 143.32 184.33 143.32"/><polygon class="cls-12" points="161.7 143.32 162.5 157.22 180.8 157.22 179.52 143.32 161.7 143.32"/><rect class="cls-12" x="140.05" y="143.32" width="18.76" height="13.9"/><polygon class="cls-12" points="119.8 144.22 119.85 155.55 136.94 156.14 136.94 143.32 119.8 144.22"/><polygon class="cls-12" points="99.25 144.22 99.25 157.22 116.75 157.22 115.94 144.22 99.25 144.22"/><path class="cls-12" d="M95.69,144.35v12.87l-13.55-.79s-1.69-11.78,1.22-12.08S95.69,144.35,95.69,144.35Z"/><path class="cls-12" d="M206.16,157.22c-2-2.85-2.37-11.66,0-13s11.21.72,13,3.08,5.27,6.18,3.08,8.84S206.16,157.22,206.16,157.22Z"/><path class="cls-13" d="M146.81,187.48c-1.7,1-2.31,3.21-2.2,5.18a10.9,10.9,0,0,0,6.72,9.36c2,.78,4.12,1,6.06,1.76,1.74.72,3.25,1.89,4.91,2.77a6,6,0,0,0,8.26-1.12,9.79,9.79,0,0,0,3-7.13c-.23-3.27-2.71-5.91-5.23-8a17.43,17.43,0,0,0-7-3.91c-3-.67-5.52.25-8.42.66C150.9,187.34,148.78,186.32,146.81,187.48Z"/><path class="cls-13" d="M101.47,202.33a2.81,2.81,0,0,0-1-.27,1.92,1.92,0,0,0-1.63,1.62,16.82,16.82,0,0,0-.12,2.47,5.79,5.79,0,0,1-4.06,5c-1.39.4-2.91.26-4.26.78-1.94.74-3.13,2.66-4.18,4.46a3.91,3.91,0,0,0-.69,1.77c-.09,1.46,1.37,2.56,2.78,2.91,2.82.71,5.9-.37,8.67.51,3.24,1,5.21,4.46,8.38,5.69,2.35.91,5,.48,7.46,0l6.16-1.11a20.78,20.78,0,0,1,5.87-.51c-.16-4.33-3.32-7.92-6.57-10.79s-6.89-5.62-8.62-9.59c-.75-1.74-1.39-2.73-3.39-2.41A6.49,6.49,0,0,1,101.47,202.33Z"/><path class="cls-13" d="M39.35,144.66a7.61,7.61,0,0,1,2.09,3.52c.36,2.12-1.08,4.06-2.26,5.86s-2.16,4.19-1,6a11.62,11.62,0,0,1,.92,1.29c.8,1.68-1,3.47-2.75,4.1s-3.83.94-4.88,2.48c-.64.94-.75,2.19-1.5,3-1.06,1.23-2.94,1.18-4.55,1L14.5,171c-1.92-.17-4.09-.47-5.18-2.06-.9-1.3-.75-3-.71-4.62s-.2-3.41-1.53-4.28c-1-.7-2.44-.55-3.61-1-1.55-.57-2.53-2.06-3.4-3.45a15.55,15.55,0,0,1-2-4,5.34,5.34,0,0,1,.43-4.29A12.71,12.71,0,0,0-.4,145.8a8.55,8.55,0,0,0,.42-2,7.54,7.54,0,0,1,3.46-4.67A20.09,20.09,0,0,1,9,137c6.64-1.85,13.56-3.1,20.41-2.35,2.74.31,2.37,1.75,3.94,3.54C35.3,140.36,37.39,142.45,39.35,144.66Z"/><path class="cls-13" d="M228.55,190.66a7.61,7.61,0,0,1,2.09,3.52c.36,2.12-1.08,4.07-2.26,5.86s-2.16,4.2-1,6a10.45,10.45,0,0,1,.92,1.29c.8,1.68-1,3.47-2.75,4.1s-3.83.94-4.88,2.48c-.64.94-.75,2.2-1.5,3.06-1.06,1.22-2.94,1.18-4.55,1l-10.94-1c-1.92-.16-4.09-.47-5.18-2.06-.9-1.3-.75-3-.71-4.62s-.2-3.41-1.53-4.28c-1.05-.7-2.44-.55-3.61-1-1.55-.58-2.53-2.07-3.4-3.46a15.55,15.55,0,0,1-2-4,5.34,5.34,0,0,1,.43-4.29,12,12,0,0,0,1.09-1.58,8.55,8.55,0,0,0,.42-2,7.54,7.54,0,0,1,3.46-4.67A19.76,19.76,0,0,1,198.2,183c6.64-1.86,13.56-3.11,20.41-2.36,2.74.31,2.37,1.75,3.94,3.54C224.5,186.36,226.59,188.46,228.55,190.66Z"/><path class="cls-13" d="M186,228a7.64,7.64,0,0,1,2.12,3.6c.37,2.16-1.09,4.15-2.29,6s-2.19,4.29-1,6.13a10.93,10.93,0,0,1,.94,1.32c.81,1.72-1,3.55-2.79,4.2s-3.9,1-5,2.53c-.65,1-.76,2.25-1.52,3.13-1.08,1.25-3,1.21-4.63,1.06l-11.11-1c-1.94-.17-4.15-.49-5.26-2.11-.92-1.33-.76-3.1-.72-4.73s-.2-3.49-1.55-4.38c-1.07-.71-2.48-.56-3.68-1-1.56-.58-2.56-2.11-3.45-3.54a16,16,0,0,1-2-4.05,5.48,5.48,0,0,1,.43-4.4,13.54,13.54,0,0,0,1.11-1.61,9.11,9.11,0,0,0,.43-2,7.74,7.74,0,0,1,3.51-4.78,20,20,0,0,1,5.61-2.26c6.74-1.9,13.77-3.18,20.72-2.41,2.79.31,2.41,1.79,4,3.62C181.89,223.58,184,225.72,186,228Z"/><path class="cls-13" d="M105,228a7.64,7.64,0,0,1,2.12,3.6c.37,2.16-1.09,4.15-2.29,6s-2.19,4.29-1,6.13a10.93,10.93,0,0,1,.94,1.32c.81,1.72-1,3.55-2.79,4.2s-3.9,1-5,2.53c-.65,1-.76,2.25-1.52,3.13-1.08,1.25-3,1.21-4.63,1.06l-11.11-1c-1.94-.17-4.15-.49-5.26-2.11-.92-1.33-.76-3.1-.72-4.73s-.2-3.49-1.55-4.38c-1.07-.71-2.48-.56-3.68-1-1.56-.58-2.56-2.11-3.45-3.54a16,16,0,0,1-2-4.05,5.48,5.48,0,0,1,.43-4.4,13.54,13.54,0,0,0,1.11-1.61,9.11,9.11,0,0,0,.43-2,7.74,7.74,0,0,1,3.51-4.78,20,20,0,0,1,5.61-2.26c6.74-1.9,13.77-3.18,20.72-2.41,2.79.31,2.41,1.79,4,3.62C100.89,223.58,103,225.72,105,228Z"/></g></svg>