<svg id="Layer_1" data-name="Layer 1" xmlns="http://www.w3.org/2000/svg" xmlns:xlink="http://www.w3.org/1999/xlink" viewBox="0 0 256 256"><defs><style>.cls-1{fill:none;}.cls-2{clip-path:url(#clip-path);}.cls-3{fill:#667a55;}.cls-4{fill:#90c9e0;}.cls-5{fill:#365863;}.cls-6{clip-path:url(#clip-path-2);}.cls-7{fill:#57a3ad;}.cls-8{fill:#4e99a9;}.cls-9{fill:#42969c;}.cls-10{fill:#40938d;}.cls-11{fill:#3e8e7c;}.cls-12{fill:#3c8967;}.cls-13{fill:#3a8351;}.cls-14{fill:#3f7c3a;}.cls-15{fill:#497624;}.cls-16{clip-path:url(#clip-path-3);}.cls-17{fill:#4b5c61;}.cls-18,.cls-19{fill:#d5c3b5;}.cls-18{opacity:0.14;}.cls-20{fill:#e5c6ac;}.cls-21{fill:#bcafa7;}</style><clipPath id="clip-path"><circle class="cls-1" cx="-215" cy="128" r="120.74"/></clipPath><clipPath id="clip-path-2"><circle class="cls-1" cx="128" cy="128" r="120.74"/></clipPath><clipPath id="clip-path-3"><circle class="cls-1" cx="429" cy="128" r="120.74"/></clipPath></defs><g class="cls-2"><path class="cls-3" d="M-353.25,144.22c19.25-.22,28,2.22,53.13,0s62.86,9.1,85.49.94S-105,130-81,138,.65,185,.65,185l-156.78,140.9L-303,305l-84.95-126.22Z"/></g><circle class="cls-4" cx="128" cy="128" r="120.74"/><path class="cls-5" d="M128,7.26A120.74,120.74,0,1,1,7.26,128,120.74,120.74,0,0,1,128,7.26M128,0A128,128,0,0,0,78.17,245.94,128,128,0,0,0,177.83,10.06,127.35,127.35,0,0,0,128,0Z"/><g class="cls-6"><path class="cls-7" d="M-21.59,73.89s5.17-1,8.27.19,28.86-1.53,32.44-.57,10.55,3.67,16,2.12S54.26,71.92,59,76.1,71.94,74.15,77,74.7s14.28,5.19,18.36,2.87,10.28-.39,13.77-.39,11.7.64,15.15-1.42,5.23-.27,10.34,0,14.4,4.9,19.83,1,9.29,4.26,15.1,3.1,12-6.59,17.43-4.65,13.17,3.49,17,.39,10.33-2.73,17.75-2.33,12.85-3.48,19.82-1.93,15.74,6.72,22.4,4.13,6.26,46.22,6.26,46.22H-41.24l19.65-47.83"/><path class="cls-8" d="M25.61,98.68S45,92.16,53.11,93.1s26-6.82,29.43-6,26.52,8.46,30.5,5.78,14.44-7,16.37-3.85,15.89,0,19.76.39,21.7,5,26.34,3.46,37.57-4.24,44.16-1.14,17.43,4.65,21.3,3.49,36.27,5.71,36.27,5.71l-4,61.69L18.63,115.33Z"/><path class="cls-9" d="M167.37,108.36S217,95.58,221.21,96.74s17.82,3.87,25.57-3.87,18.22,0,18.22,0l5.22,33L216,141.25,170.09,128.5Z"/><path class="cls-10" d="M-23.59,85.51S3,82,12.58,85.51,43.17,96.76,49.3,96.36s9.23,7,13.49,6.58S76.35,96.74,81,97.51s29.82,3.1,37.18,3.1,20.29-5,27.57-4.25,31.69,11.22,38.28,11.22,12.39,6.59,24.79,1.94,26-8.13,35.25-6.2,23.63,4.65,31.37,5-12,54.23-12,54.23L-68.91,130.05Z"/><path class="cls-11" d="M-24,106s30.75.38,38,0,41.49-1.94,44.53,0,27.35-1.6,31.66.17,23.8,7.87,29.54,11.79,15.82,11.28,15.43,19S-29,143.22-29,143.22Z"/><path class="cls-12" d="M-7.71,152.9s89.87-37.18,101.88-40.67,47.25-10.84,54.61-5.42,25.95,8.52,32.93,6.2,62.36,11.18,66.62,11.2,22.85,7.39,22.85,7.39l10.46,50.74L167.37,193.56-11.19,175.37Z"/><path class="cls-13" d="M-37.53,139.73s35.12-3.87,45.25,0,45.77,5,48.49,7.75,25.95,13.17,25.95,18.59-46.1,62.75-58.88,62.37-72.82-23.24-72.82-24S-37.53,139.73-37.53,139.73Z"/><path class="cls-14" d="M-30.17,191.25s64.56-41.84,70.82-42,51.19-13,67.07-13.75,62.75,1.17,74.37,4.65,50,7,58.49,12.4,42.61,4.64,48,12.78-11.37,79.33-11.37,79.33L26.77,255.55l-64.69-21.69Z"/><path class="cls-15" d="M-26.3,223.79s47.26-9.3,56.17-12,66.21-25,79.58-28.55,40.11-6.31,52.89-5.54,43.77,3.49,49.19,2.72,57.72,7.18,58.69,12.3-4.46,50.06-4.46,50.06l-241.7,3.48-54.62-8.13Z"/></g><g class="cls-16"><polygon class="cls-17" points="210.78 194.8 215.23 149.29 431.14 143.09 442.1 143.09 477.47 143.09 451.35 163.29 358.43 192.57 294.15 202.43 239.1 208.48 206.96 203.71 210.78 194.8"/><polygon class="cls-18" points="207.91 175.86 222.24 174.9 227.5 175.38 230.84 174.15 238.17 172.86 248.36 171.35 255.36 169.96 260.13 169.96 261.41 171.78 268.1 170.71 274.47 170.71 278.93 170.6 286.57 168.78 299.63 167.6 310.77 166.31 322.55 164.59 338.16 161.59 345.49 161.59 352.49 159.66 357.29 159.66 364.59 158.04 373.5 156.97 382.42 154.72 392.61 152.57 402.16 150.64 410.44 148.49 419.36 147.42 426.69 146.56 428.91 145.49 417.45 144.2 397.07 143.56 382.42 144.2 362.15 143.56 334.02 142.59 306.28 142.59 273.51 141.52 241.03 140.98 217.15 139.91 199.74 139.91 207.91 175.86"/><polygon class="cls-19" points="210.3 53.03 224.62 55.9 229.88 54.46 233.21 58.12 240.53 61.94 250.71 66.4 257.71 70.53 262.47 70.53 263.76 65.13 270.44 68.31 276.81 68.31 281.26 68.63 288.9 74.03 301.94 77.53 313.08 81.35 324.86 86.44 340.45 95.36 347.78 95.36 354.77 101.08 359.57 101.08 366.86 105.86 375.77 109.04 384.68 115.72 394.86 122.08 404.41 127.81 412.68 134.18 421.59 137.36 428.92 139.91 431.14 143.09 419.68 146.91 399.32 148.81 384.68 146.91 364.42 148.81 336.31 151.68 308.59 151.68 275.85 154.86 243.39 156.45 219.53 159.64 202.13 159.64 210.3 53.03"/><path class="cls-20" d="M216.5,195.11s16.87-5.4,23.87-2.86,18.23-2,22.8-.68,20.8-.25,20.8-.25,9.86-12.75,14.95-8.3,22.91-6.36,31.82-3.18,27.05-7.64,37.23-6.68,18.78-6.68,26.42-6.68,10.85-7.32,17.2-6.84a77.41,77.41,0,0,0,19.55-1.74c4-1,4.93-1.93,12.25-3.83s13.05-4.78,17.18-5.1,17,2.55,23.14,0,21.1.64,28.1-1.59,18.6-4.77,22.19-4.29,11.22-7.16,20.13-7.48,13.36-3.82,21.64-4.77,13.68-4.46,18.77-4.14,21.3,0,21.3,0l9.25,145.44L477.47,307.71,288.74,297.58l-77.65-1.91L178,233.3l11.46-31.5Z"/><path class="cls-21" d="M390.09,134.18s-23.16-10.19-27-9.55-29.91-8.91-29.91-8.91S306.4,97.58,293.67,97.26s-52.5-17.5-52.5-17.5l-31.83-15-7.21,94.83h17.4l23.86-3.19,32.46-1.59,32.74-3.18h27.72l28.11-2.87,20.26-1.9,14.64,1.9,9.19-.86h0Z"/></g></svg>