<svg id="Layer_1" data-name="Layer 1" xmlns="http://www.w3.org/2000/svg" xmlns:xlink="http://www.w3.org/1999/xlink" viewBox="0 0 256 256"><defs><style>.cls-1{fill:none;}.cls-2{fill:#90c9e0;}.cls-3{fill:#365863;}.cls-4{clip-path:url(#clip-path);}.cls-5{fill:#a7bdc6;}.cls-6{fill:#809ead;}.cls-12,.cls-7{fill:#575b18;}.cls-7,.cls-8,.cls-9{opacity:0.34;}.cls-13,.cls-8{fill:#7a5e0f;}.cls-10,.cls-11,.cls-9{fill:#3a5426;}.cls-10{opacity:0.23;}.cls-14{fill:#f2f5f9;}.cls-15{opacity:0.28;}</style><clipPath id="clip-path"><circle class="cls-1" cx="128" cy="128" r="120.74"/></clipPath></defs><circle class="cls-2" cx="128" cy="128" r="120.74"/><path class="cls-3" d="M128,7.26A120.74,120.74,0,1,1,7.26,128,120.74,120.74,0,0,1,128,7.26M128,0A128,128,0,0,0,78.17,245.94,128,128,0,0,0,177.83,10.06,127.35,127.35,0,0,0,128,0Z"/><g class="cls-4"><rect class="cls-5" x="-27" y="7" width="278" height="151.09"/><rect class="cls-6" x="-27" y="97.91" width="278" height="151.09"/><path class="cls-7" d="M69.88,98.89a5.18,5.18,0,0,1,1.82.21.73.73,0,0,1,.47,1c-.74,2.3-3.52,4.45-3.48,6.78,0,3.14,5.23,6.19,3.18,9.19a8.06,8.06,0,0,0-1,1.34c-.13.33-.11.67-.21,1-.42,1.31-2.74,2.37-3.24,3.67a5.89,5.89,0,0,1-.36,1.2A5.62,5.62,0,0,1,65,124.78l-3.25,1.7c-3.35-.24-3.91-3-7.3-2.88a8.66,8.66,0,0,1-2.69,0,1.13,1.13,0,0,1-.6-.49C49,119.83,49.41,116.29,47,113c-2-2.61-5.66-4.94-6.92-7.64s-3.73-6.23,4.32-6.49C52.79,98.64,61.45,98.9,69.88,98.89Z"/><path class="cls-8" d="M47.68,99.65a7.45,7.45,0,0,1,2.14.37,1.47,1.47,0,0,1,.9,1.06,20.27,20.27,0,0,1,.48,6.71l-.41,10.26a5.23,5.23,0,0,1-.54,2.51c-.45.81-1.33,1.62-1.1,2.45.15.51.72,1,.85,1.51s-.41,1.14-1.56,1.22l1.9.05c-1.05,1.58-3.57,3-6.84,3.73a8.58,8.58,0,0,1-1.8.26,4.52,4.52,0,0,1-3.4-1.28c-.55-.66-.65-1.39-1.25-2-1-1.13-3.44-1.89-5-2.9-2.27-1.45-2.66-3.31-3.56-5-2.13-4.08-7.37-7.73-9.48-11.81a12.26,12.26,0,0,1-1.28-5.46c0-.51-.54-1.94.27-2.33s3.92-.2,5.07-.19C31.3,98.73,39.55,99,47.68,99.65Z"/><path class="cls-8" d="M109.11,98.9c2.87-.06,6.11-.06,8.12.86s2,2.35,1.79,3.62a2.44,2.44,0,0,1-.66,1.6,11.12,11.12,0,0,0-1,.87c-.63.82.37,1.71.2,2.57-.2,1-2.12,1.94-2.13,3,0,.51.44,1,.58,1.49.36,1.24-1.07,2.42-2.45,3.5a9.9,9.9,0,0,1-6,2.41,5.4,5.4,0,0,1-2.38-.37c-.58-.29-.66-.79,0-1l-2.77-.88c-1.25-1.51.1-3.18,1.3-4.71s2.2-3.29.39-4.69a21.41,21.41,0,0,0-3.39-1.7c-2.52-1.21-5.3-3.7-4.11-5.42S105.81,99,109.11,98.9Z"/><path class="cls-7" d="M103.14,99.3a2.84,2.84,0,0,1,1,1.29c2.61,5.27,5.15,10.93.61,15.93a6.37,6.37,0,0,1-2.81,1.87c-.93.32-2.06.51-3,.79a15,15,0,0,0-4.11,2.08,12.68,12.68,0,0,1-4.41,1.93c-1.89.39-4.47.26-5.6-.52a1.68,1.68,0,0,1-.65-1.78c.3-3.19.48-6.47-1.74-9.5-1.69-2.33-4.19-4.35-3.39-6.87.48-1.52,1.08-3.78,3.34-5,2.45-1.36,6.2-1,9.64-1S100.8,97.75,103.14,99.3Z"/><path class="cls-9" d="M84.79,98.55a5.67,5.67,0,0,1,2.33.37.9.9,0,0,1,.43.72c.47,3.36-1,6.75-.16,10.1a28.05,28.05,0,0,1,1,3.68c.17,1.79-.65,3.56-1.48,5.3a7.84,7.84,0,0,1-2.47,3.36c-1.94,1.46-5.49,2.45-9.25,2.6-2.09-.68-2.2-2-3.43-3.06-.7-.58-1.78-1.06-2.52-1.63-1.75-1.34-1.43-3-2.16-4.54s-2.24-2.68-3.07-4.07a8.66,8.66,0,0,1-1-3.83c-.22-2.39-2.4-6.47,2.08-8.36S79.32,98.42,84.79,98.55Z"/><path class="cls-9" d="M15,99c3.38-.09,7.08.08,9.56,1.12a6.52,6.52,0,0,1,3.38,3c1.28,2.23,1.86,4.58,4.18,6.63,1.38,1.22,3.35,2.32,4.21,3.63a4.85,4.85,0,0,1,.58,3l-.19,9.1a9.88,9.88,0,0,1-.82,4.5,3.91,3.91,0,0,1-2.64,2,15.62,15.62,0,0,1-3.72.39c-4.46.09-8.95,0-13.36-.34a29.08,29.08,0,0,1-5-.68,18.69,18.69,0,0,1-3.28-1.27c-3.51-1.63-7-3.33-9.27-5.34-3.37-3-4-6.46-2.79-9.74,1-2.65,3.05-5.22,3.48-7.9a10.87,10.87,0,0,1,.61-3.35,9.79,9.79,0,0,1,5-4.29C6.92,98.76,12.28,99.05,15,99Z"/><path class="cls-10" d="M113.34,109.56a62.35,62.35,0,0,1,12.64-.89,21.48,21.48,0,0,0,3.59,0,18.53,18.53,0,0,0,3.67-1,46.76,46.76,0,0,1,16.31-2.24c2.06.07,4.12.27,6.17.14,2.58-.17,5-.85,7.47-1.25a60.26,60.26,0,0,1,7.88-.58,292.91,292.91,0,0,1,41.75,2c5.78.7,12.59-1.14,18.3-.27,1.27.19,2.45.55,3.68.83,4.64,1,9.8.79,14.75.54a4,4,0,0,0,1.53-.28c.69-.36.51-1,.2-1.51a19.1,19.1,0,0,0-3.44-3.7A10.59,10.59,0,0,0,241.35,98a22.15,22.15,0,0,0-5.07.51,71.1,71.1,0,0,1-9.39.57q-41,.72-82.08,1c-5.65,0-11.32.07-17-.23a51.91,51.91,0,0,0-6.83-.12c-2.26.19-4.54.79-5.76,1.91C113,103.73,115.11,107.32,113.34,109.56Z"/><path class="cls-11" d="M113.34,82.58A34.16,34.16,0,0,0,126,84.24a12,12,0,0,1,3.59.09,13,13,0,0,1,3.67,1.91,27.35,27.35,0,0,0,16.31,4.18,32.74,32.74,0,0,1,6.17-.27c2.58.31,5,1.59,7.47,2.33a32.74,32.74,0,0,0,7.88,1.07,159,159,0,0,0,41.75-3.66c5.78-1.3,12.59,2.12,18.3.51a34.52,34.52,0,0,0,3.68-1.54c4.64-1.93,9.8-1.49,14.75-1a2.43,2.43,0,0,1,1.53.51c.69.67.51,1.87.2,2.81a36.34,36.34,0,0,1-3.44,6.89c-1.59,2.69-3.55,5.65-6.49,6.06-1.71.24-3.4-.47-5.07-.94a38.5,38.5,0,0,0-9.39-1.08q-41-1.32-82.08-1.88a149.78,149.78,0,0,0-17,.42,27.43,27.43,0,0,1-6.83.22,7.93,7.93,0,0,1-5.76-3.54C113,93.44,115.11,86.76,113.34,82.58Z"/><path class="cls-12" d="M68.13,104a2.52,2.52,0,0,0,1.82-.49,2.83,2.83,0,0,0,.47-2.45c-.73-5.53-3.52-10.69-3.48-16.28,0-7.54,5.23-14.86,3.18-22.06a27.92,27.92,0,0,1-1-3.2c-.12-.8-.1-1.62-.21-2.42-.42-3.14-2.74-5.68-3.24-8.81-.15-.95-.12-1.94-.36-2.87a10,10,0,0,0-2.08-3.56L60,37.79c-3.35.58-3.92,7.1-7.3,6.91-.93-.05-2-.63-2.7,0a2.36,2.36,0,0,0-.59,1.18c-2.16,7.88-1.78,16.39-4.2,24.18-2,6.27-5.67,11.87-6.93,18.34-1.22,6.25-3.73,14.94,4.33,15.58C51.05,104.62,59.71,104,68.13,104Z"/><path class="cls-13" d="M45.94,102.18a3.76,3.76,0,0,0,2.13-.88A4.36,4.36,0,0,0,49,98.75a116.87,116.87,0,0,0,.47-16.1L49,58a28.25,28.25,0,0,0-.53-6c-.46-2-1.34-3.87-1.1-5.86.14-1.24.72-2.39.85-3.63s-.42-2.75-1.57-2.94l1.91-.12a15,15,0,0,0-6.84-9A4,4,0,0,0,40,29.88c-1.58-.06-2.84,1.48-3.39,3.07s-.65,3.34-1.26,4.91c-1,2.73-3.44,4.55-5,7-2.27,3.49-2.66,7.94-3.56,12.08-2.13,9.79-7.37,18.55-9.48,28.34A65.31,65.31,0,0,0,16,98.35c0,1.23-.53,4.66.27,5.6s3.92.46,5.07.46A140.48,140.48,0,0,0,45.94,102.18Z"/><path class="cls-13" d="M107.36,104c2.87.15,6.12.14,8.13-2.07s2-5.64,1.79-8.69a11.13,11.13,0,0,0-.66-3.83c-.31-.72-.78-1.36-1-2.11-.63-2,.37-4.09.21-6.15-.21-2.52-2.12-4.65-2.13-7.19a27.36,27.36,0,0,1,.58-3.57c.35-3-1.08-5.8-2.46-8.4s-3.22-5.54-6-5.78a2.78,2.78,0,0,0-2.38.87,2,2,0,0,0,0,2.53l-2.77,2.11c-1.25,3.64.1,7.65,1.3,11.31s2.2,7.91.39,11.27a23.94,23.94,0,0,1-3.39,4.07c-2.52,2.91-5.29,8.87-4.11,13C95.92,105.25,104.07,103.84,107.36,104Z"/><path class="cls-12" d="M101.39,103a9.44,9.44,0,0,0,1-3.11c2.6-12.65,5.14-26.23.6-38.23a10.48,10.48,0,0,0-2.81-4.5c-.93-.76-2-1.2-3-1.89a17.43,17.43,0,0,1-4.11-5c-1.19-1.83-2.52-3.68-4.41-4.62s-4.46-.64-5.59,1.24a7.71,7.71,0,0,0-.65,4.28c.29,7.66.47,15.51-1.74,22.8C79,79.6,76.5,84.45,77.29,90.51c.48,3.65,1.08,9.07,3.34,12.07,2.45,3.26,6.2,2.32,9.64,2.43S99.05,106.75,101.39,103Z"/><path class="cls-11" d="M83,104.83a2.9,2.9,0,0,0,2.33-.9,3.18,3.18,0,0,0,.43-1.71c.47-8.08-1-16.21-.15-24.25.29-3,.89-5.87,1-8.84a54.7,54.7,0,0,0-1.47-12.72,27.56,27.56,0,0,0-2.47-8.06,12.14,12.14,0,0,0-9.26-6.23C71.37,43.75,71.26,47,70,49.46c-.7,1.4-1.77,2.54-2.52,3.91-1.74,3.23-1.43,7.24-2.16,10.89-.67,3.37-2.24,6.45-3.06,9.77a45.81,45.81,0,0,0-1,9.21c-.22,5.72-2.39,15.51,2.09,20.05S77.57,105.15,83,104.83Z"/><path class="cls-11" d="M13.23,103.81c3.39.2,7.08-.21,9.57-2.69,1.86-1.85,2.74-4.57,3.37-7.22,1.28-5.35,1.86-11,4.19-15.91,1.37-2.92,3.35-5.55,4.2-8.7a26.53,26.53,0,0,0,.59-7.13L35,40.32a54.09,54.09,0,0,0-.81-10.8c-.41-1.89-1.12-3.88-2.65-4.91a7.22,7.22,0,0,0-3.71-.92,60.39,60.39,0,0,0-13.36.8,13.87,13.87,0,0,0-5,1.65,16,16,0,0,0-3.29,3c-3.5,3.92-7,8-9.26,12.82-3.38,7.12-4,15.49-2.79,23.38,1,6.36,3.05,12.53,3.47,19a59.66,59.66,0,0,0,.61,8c.62,3,2.6,8.39,5,10.3C5.17,104.33,10.53,103.64,13.23,103.81Z"/><path class="cls-14" d="M193.35,56.75c0,4.29-4.44,7.76-9.91,7.76H155c-6.16,0-11.15-3.91-11.15-8.73,0-3.81,3.11-7.05,7.45-8.25,0-.16,0-.32,0-.49,0-5.36,5.54-9.7,12.38-9.7,4.59,0,8.6,1.95,10.74,4.86a8.89,8.89,0,0,1,4.12-1c4.11,0,7.44,2.61,7.44,5.82a4.74,4.74,0,0,1-.5,2.1C189.94,49.86,193.35,53,193.35,56.75Z"/><g class="cls-15"><path class="cls-14" d="M193.35,140.49c0-2.14-4.44-3.88-9.91-3.88H155c-6.16,0-11.15,2-11.15,4.36,0,1.91,3.11,3.52,7.45,4.12a2.11,2.11,0,0,0,0,.25c0,2.68,5.54,4.85,12.38,4.85,4.59,0,8.6-1,10.74-2.44a16.48,16.48,0,0,0,4.12.5c4.11,0,7.44-1.31,7.44-2.91a1.51,1.51,0,0,0-.5-1.05C189.94,143.93,193.35,142.36,193.35,140.49Z"/></g></g></svg>