<svg id="Layer_1" data-name="Layer 1" xmlns="http://www.w3.org/2000/svg" xmlns:xlink="http://www.w3.org/1999/xlink" viewBox="0 0 256 256"><defs><style>.cls-1{fill:none;}.cls-2{fill:#809ead;}.cls-3{fill:#365863;}.cls-4{clip-path:url(#clip-path);}.cls-5{fill:#b9bab4;}.cls-6{fill:#646b7b;}.cls-7{fill:#2d5132;}.cls-8{fill:#33663c;}.cls-9{opacity:0.52;}.cls-10{fill:#4c4c4a;}.cls-11{fill:#595854;}.cls-12{fill:#3f3f3d;}.cls-13{fill:#333332;}.cls-14{fill:#7a7973;}</style><clipPath id="clip-path"><circle class="cls-1" cx="128" cy="128" r="120.74"/></clipPath></defs><circle class="cls-2" cx="128" cy="128" r="120.74"/><path class="cls-3" d="M128,7.26A120.74,120.74,0,1,1,7.26,128,120.74,120.74,0,0,1,128,7.26M128,0A128,128,0,0,0,78.17,245.94,128,128,0,0,0,177.83,10.06,127.35,127.35,0,0,0,128,0Z"/><g class="cls-4"><path class="cls-5" d="M101.72,144.44c-46.3,0-85.57-18.5-99.34-44.12,5.11-1.44,12.05-2.63,12.05-2.63.2-1.18,4.52-2,6.88-2.68s5.9-2.9,8.65-3.62,2-3.63,5.11-4.11,14.16-8,15-9.19S60.63,75,62.63,74.46s6.65-5.07,8.36-5.79-.53-2.9,0-3.58,3.41-2,5-2.22,3.93-4.59,4.66-4.74,5.17-6.14,5.79-7,12.35-9.06,13.49-9.76,7.12.46,8.15,1.41a9.32,9.32,0,0,0,5.57,2.07c1.87-.12,5.2,4.72,7.71,4.89s2.21,4.9,3.78,5.39,3.54,3.86,6.08,3.64,4.14,2.4,4.28,4.89,9.5,9.71,10.71,10.79,5.08-.35,6.86-.35,13.55,10.63,14.73,11.36,4.72.24,6.3,1,2.36,2.9,9,4.11l20,5.41C191.67,123.82,150.62,144.44,101.72,144.44Z"/><path class="cls-6" d="M167,92.72c-3.93-1.45-9.83-7.5-12.19-8.7s-10.23-5.8-13-7-6.12-7.18-8.56-6.37-6.38,7.33-9.13,8.06-6.69,6.77-9.44,7.25-8.65,3.62-9,4.35,14.15-2.42,14.15-2.42,7.08-.24,9.05,1,7.48,2.9,8.26,3.87,3.53,2.9,5.11,2.41,5.5-1.69,6.29-1.21a6.32,6.32,0,0,0,3.6,1.29c1.51-.08,1.9-2.25,4.65-2a25.6,25.6,0,0,1,6.92,2c.95.41-12.42,3.55-14.39,5.24s-3.54,3.87-3.54,4.83-2.36,2.9-5.11,3.87,0,7.25,0,7.25,4.72-7,7.08-7.73,7.08-4.84,11-5.08,7.47,2.9,7.47,2.9,10.62-4.83,13-4.83,8.26-.49,8.26-.49l-10.23-1.45,7.08-1.93-10.22-.72,4.32-1.21Z"/><path class="cls-6" d="M111.41,63.18c3.88,1.14,8.3,3.5,7.07,5s-6.82,1-7.07,2-5,.93-5.76,1.57-5.26-1.22-5.38.08-9-2.29-9-2.29,7.58-.1,9.21-1.4S107.53,62,111.41,63.18Z"/><path class="cls-6" d="M102.31,43.53s-2.55-.21-2.25,1.1a19.57,19.57,0,0,0,4.82,7.71c2.94,3,2,5.74,5,7.65s11.71,4.9,15.43,6.31,5.68,3.09,7.25,1.89c0,0,.79-2.9-1.57-3.87s-9.44-6-9.83-7-4.33-3.87-6.69-4.35-3.14-5.32-3.14-5.32C109.78,46.92,103.89,43.53,102.31,43.53Z"/><path class="cls-6" d="M84.42,68.36l-1.5,5.55L72.82,85.59l-6.29,7s-2.75,3.86,2,2.65,14.55-8,14.55-8,3.53-8.94,3.53-9.43a31.15,31.15,0,0,1,1.91-4V66.44Z"/><path class="cls-6" d="M128.66,117.49c-2.75-2.9-10.22-11.84-13.76-15.47s-5.92-8-9.25-8-13.3,6.49-17.16,5.79-6.23-9.4-9-7.71-9.44,8.7-12.19,8.94-5.11,1.94-7.08,2.18-7.87,3.14-9.83,3.14,11.38-2.06,15.32-1.15,18,2.25,25.54,4.48,26.61,5.13,30.43,6.7A14.33,14.33,0,0,0,128.66,117.49Z"/><path class="cls-7" d="M-9.29,97.76S26.85,77.46,40,81.83s61.3,31.75,81.63,25S167.82,86.4,188.84,87s58.73,20.38,77.55,20.89,76.93,7.86,98.41,0,47-25.79,65.17-21.35,3.25,150.11,3.25,150.11-444,4.3-445.84,4.3S-9.29,97.76-9.29,97.76Z"/><path class="cls-8" d="M-45,230.71S162.38,160.25,250.2,81.53s26.34,211.79,26.34,211.79L53.72,456.91Z"/><g class="cls-9"><path class="cls-7" d="M206,198.19c-2.63,1.93-3.09,6.48-3.94,7.39s-1.28,8.61-1.73,10.23c-.28,1-3.4,2.44-5.74,3.38-3.31,3.13-15.34,5.1-21.4,5.63-7.16.64-35,1-35,1A101.11,101.11,0,0,1,122.68,229c-4.07.45-9.65-1-13.91-2.41l-1.22,0-13.63-3.16,1.85-.12-9.64-4.63,3.21.47-7.45-4.52,2.59.58-4.35-4.05h.07c-2.7-2.6-4.54-4.77-5.3-5.61-2.16-2.36,1.27-2.87,1.27-2.87a45.79,45.79,0,0,0-1-5.91c-.44-1.18,1.31-2.46,2.79-3.44s6.58-.58,8.33-.22,8.33,5.1,8.26,6.25a52.46,52.46,0,0,0,.61,5.58s10.8,7.34,11.4,6.59c.4-.5,3.43-1.23,5.37-1.66-1-2.64-2.42-6.37-2.92-7.35-.8-1.55,0-5.6-2.27-6.31s-6.75-3.91-6.21-4.78,6.43-1.57,6.43-1.57,1.84,2,3.76,2.17-.12,1.84.3,2.76c.25.55,3.48,3.9,6,6.66l3.1-7.24-4.63-1.82.77-2.54,7.72-.84,3.52,3.31-2.3,5,.34,3.1,1.66,7.59s9.54-.61,16.69-1.81,23.54,1.28,23.54,1.28l3.15-.14c3.61-2.51,11.45-8.14,11.3-9.49-.19-1.75-4.09-8.57-4.09-8.57L171,185l9.54,0,3.7,2.06.19,1.71s3.24,4,5.11,6.88l1.39-1.17-.65-7.12L187,187l-.85-2.77L197,180l.89,13.31,1.75,1.26,1.23-5.93,6,3,2.68-1.52S208.65,196.26,206,198.19Zm-16.57,9.6-.49-2.34A2.83,2.83,0,0,0,189.44,207.79Z"/></g><path class="cls-10" d="M166.52,134s14.15,17.29,14.15,21.38-3.15,20.75-3.15,20.75l-6.6,9.12h9.75l3.46-5.66v-4s5.65-20.54,5.34-23.36-12.57-26.1-12.57-26.1Z"/><path class="cls-10" d="M110.56,138.72s-2.2,20.43-2.83,24.2.63,12.89-1.57,15.09-6.29,10.69-5.66,12.58,6.56,2,6.56,2,1.61-5.15,3.5-5.93-.31-4.21,0-6.42,7.86-23.91,7.86-26.11V130.89Z"/><path class="cls-11" d="M98.93,114.51s11.94-16,19.49-16,15.72,3.45,15.72,3.45,27.74-6.24,34.93-6.58S192,97.22,192,107s-7.55,25.78-4.72,30.18S197,152.55,197,152.55v27.77l-10.69,5.24-1-3.46,4.72-4.71L190,160.81l-16.22-25.24-8.49,1.26s-16,9.82-23.25,8.84-16.79,0-16.79,0l-.83,17.88v7.23l2.83,11-3.14,8.49h-7.77l-1-5.66,4.4-5.35-8.16-33.6s-6.52-1.31-7.2-2.87-10.62,18-10.62,18-.19,10.36,0,13S87.86,189,86.16,190.28s-6.72,3.45-8.3,1.57-3.45-4.4-3.14-7.23.31-13.84.31-13.84-3.45-.31-1.57-6.28S84.47,126.14,98.93,114.51Z"/><path class="cls-12" d="M75.47,186.6s5.94-.85,7.15,0,5.61,1,5.14,2.17-.55,3.6-2.39,3.81-8.8,1.68-9.25,0A41.78,41.78,0,0,1,75.47,186.6Z"/><path class="cls-13" d="M75.66,168.9c-.63,1.88.36,4.07,1.6,3.76s1.76-3.13,1-3.76S75.66,168.9,75.66,168.9Z"/><path class="cls-14" d="M107.32,106.74l-5.25,8.71-6.29,12.26L94.53,123l-3.78,11.63s-4.34,6.7-3.9,9.32-1.44,9.23-2.07,13-5.66,8.18-5.66,8.18l1.26-6-2.2.32-.92-6.68,3.12-3.7-2.32,1.19,3.88-10.39-2.5,2,6.91-12.26-3.14,1.89,9.08-13.07-1.85.18,13.2-10.69Z"/><path class="cls-14" d="M188.26,101.35s8.13,4.33,8.76,8,1.88,21.23,2.83,23.12,1.88,12.26,4.71,16,4.4,17.61,4.4,17.61l-2.83-2.83-5.66,8.49-1.86-13.34L197,161.74l-10.38-21.45Z"/></g></svg>