<svg id="Layer_1" data-name="Layer 1" xmlns="http://www.w3.org/2000/svg" viewBox="0 0 256 256"><defs><style>.cls-1{fill:#2279a4;}.cls-2{fill:#9aa8ad;}.cls-3{fill:#751919;}.cls-4{fill:#0d4156;}.cls-5{fill:#d9ecf4;}.cls-6{fill:#aa1a1a;}</style></defs><circle class="cls-1" cx="128" cy="128" r="120.74"/><rect class="cls-2" x="59" y="68" width="118" height="134" rx="16.43"/><path class="cls-3" d="M177,94V78.43C177,69.91,169.64,63,160.57,63H75.43C66.36,63,59,69.91,59,78.43V94Z"/><path class="cls-4" d="M128,7.26A120.74,120.74,0,1,1,7.26,128,120.74,120.74,0,0,1,128,7.26M128,0A128,128,0,0,0,78.17,245.94,128,128,0,0,0,177.83,10.06,127.35,127.35,0,0,0,128,0Z"/><rect class="cls-5" x="66" y="61" width="118" height="134" rx="16.43"/><path class="cls-6" d="M184,94V77.43A16.44,16.44,0,0,0,167.57,61H82.43A16.44,16.44,0,0,0,66,77.43V94Z"/><path d="M107.61,124.46V112.84h34.32v6.64q0,12.45-6.13,28.47t-14.64,26.68l-10.54-6.3a120.62,120.62,0,0,0,12.68-21.69q5.48-12,6.33-22.18Z"/><rect x="96" y="49" width="8" height="22" rx="4"/><rect x="145" y="49" width="8" height="22" rx="4"/></svg>