<svg id="Layer_1" data-name="Layer 1" xmlns="http://www.w3.org/2000/svg" xmlns:xlink="http://www.w3.org/1999/xlink" viewBox="0 0 256 256"><defs><style>.cls-1{fill:none;}.cls-2{fill:#2279a4;}.cls-3{fill:#9aa8ad;}.cls-4{fill:#751919;}.cls-5{fill:#0d4156;}.cls-6{fill:#d9ecf4;}.cls-7{fill:#aa1a1a;}.cls-8{clip-path:url(#clip-path);}.cls-9{fill:#b0a5a0;}.cls-10{fill:#9b928f;}.cls-11{fill:#e5c6ac;}</style><clipPath id="clip-path"><circle class="cls-1" cx="-183" cy="128" r="120.74"/></clipPath></defs><circle class="cls-2" cx="128" cy="128" r="120.74"/><rect class="cls-3" x="59" y="68" width="118" height="134" rx="16.43"/><path class="cls-4" d="M177,94V78.43C177,69.91,169.64,63,160.57,63H75.43C66.36,63,59,69.91,59,78.43V94Z"/><path class="cls-5" d="M128,7.26A120.74,120.74,0,1,1,7.26,128,120.74,120.74,0,0,1,128,7.26M128,0A128,128,0,0,0,78.17,245.94,128,128,0,0,0,177.83,10.06,127.35,127.35,0,0,0,128,0Z"/><rect class="cls-6" x="66" y="61" width="118" height="134" rx="16.43"/><path class="cls-7" d="M184,94V77.43A16.44,16.44,0,0,0,167.57,61H82.43A16.44,16.44,0,0,0,66,77.43V94Z"/><path d="M76.07,164.89a29.34,29.34,0,0,0,5.6-.72,30,30,0,0,0,5.72-1.9A12.19,12.19,0,0,0,92,158.7a8.27,8.27,0,0,0,1.81-5.25,4.07,4.07,0,0,0-.49-2.07,3.76,3.76,0,0,0-1.19-1.3,5.43,5.43,0,0,0-1.81-.7,13.11,13.11,0,0,0-1.93-.31q-.81-.06-2-.06a87.68,87.68,0,0,0-9,.51v-8.91l4.87-.37q7.07-3.69,9.6-6.07a3.54,3.54,0,0,0,1.24-2.56,1.51,1.51,0,0,0-.51-1.21,2,2,0,0,0-1.34-.44,18.23,18.23,0,0,0-5.19,1.36q-3.72,1.35-6.44,2.56L77,126.32a54.4,54.4,0,0,1,7.91-3.73,21.45,21.45,0,0,1,7.46-1.69,13.49,13.49,0,0,1,8.38,2.63,8.68,8.68,0,0,1,3.48,7.35,9.67,9.67,0,0,1-2.23,6.06,14.35,14.35,0,0,1-5.44,4.26,11.35,11.35,0,0,1,8.5,10.78,20.29,20.29,0,0,1-1.55,8.06,16.88,16.88,0,0,1-4.14,6,23,23,0,0,1-6.11,3.92A30.61,30.61,0,0,1,86,172.16a43.06,43.06,0,0,1-7.89.62h-2Z"/><path d="M109.67,139.59a27.73,27.73,0,0,1,1.36-8.74,26,26,0,0,1,3.61-7.16,32.22,32.22,0,0,1,5.55-5.84,51.23,51.23,0,0,1,6.7-4.76,78.89,78.89,0,0,1,7.55-3.88l4,6.87a76.11,76.11,0,0,0-8.94,6.19,29.69,29.69,0,0,0-6.24,7,15.63,15.63,0,0,1,5.08-1.44,11,11,0,0,1,9,4.26,15.68,15.68,0,0,1,3.42,10.12,30.85,30.85,0,0,1-.51,5.73,21,21,0,0,1-1.64,5.13,15,15,0,0,1-2.85,4.17A12.12,12.12,0,0,1,131.5,160a15.55,15.55,0,0,1-5.76,1,14.45,14.45,0,0,1-6.18-1.29,13.48,13.48,0,0,1-4.58-3.37,18.27,18.27,0,0,1-3-4.93,26.87,26.87,0,0,1-1.75-5.8A34.58,34.58,0,0,1,109.67,139.59Zm11.07,1.4a24.13,24.13,0,0,0,.2,2.91,25.76,25.76,0,0,0,.72,3.43,7.7,7.7,0,0,0,1.56,3.06,3.22,3.22,0,0,0,2.52,1.21q4.55,0,4.55-9.14a6.86,6.86,0,0,0-1.13-4.25c-.75-1-2-1.45-3.87-1.45a13.06,13.06,0,0,0-4.25,1.06A23.23,23.23,0,0,0,120.74,141Z"/><path d="M145.32,164.89A27.74,27.74,0,0,0,157,162.3a11.61,11.61,0,0,0,4.59-3.72,9.19,9.19,0,0,0,1.77-5.58,3.42,3.42,0,0,0-1.55-3,6.35,6.35,0,0,0-3.62-1,44.86,44.86,0,0,0-11.59,1.58L150,122h22.51v9.44H159.06l-.75,9a16.5,16.5,0,0,1,3.32-.38,13.59,13.59,0,0,1,9.2,3.21,10.82,10.82,0,0,1,3.72,8.65,18.36,18.36,0,0,1-1.53,7.53,18,18,0,0,1-4.1,5.88,25,25,0,0,1-5.95,4.11,28.61,28.61,0,0,1-7.08,2.47,34.18,34.18,0,0,1-7.47.74h-3.1Z"/><rect x="96" y="49" width="8" height="22" rx="4"/><rect x="145" y="49" width="8" height="22" rx="4"/><g class="cls-8"><path class="cls-9" d="M-182.61,146.75S-161,141-154.29,139.9s21-8.75,26.73-8.43,29.94-5.77,39.15-4.79,50.9-30.85,50.9-30.85L2,68.78l2.87,47.74L-7.59,171.89l-107.56,8.59-19.38-23.27-12-8Z"/><path class="cls-10" d="M-165.43,148.66s21.63-5.73,28.32-6.85,21-8.75,26.73-8.43,17.68-.81,26.89.16,56.64-36.28,56.64-36.28L18,47.62l4,70.81L9.59,173.79-98,182.39l-19.37-23.27-12-8Z"/><path class="cls-11" d="M-395.5,195.11s16.87-5.4,23.87-2.86,18.23-2,22.8-.68,20.8-.25,20.8-.25,9.86-12.75,14.95-8.3,22.91-6.36,31.82-3.18,27-7.64,37.23-6.68,18.78-6.68,26.42-6.68,10.85-7.32,17.2-6.84a77.41,77.41,0,0,0,19.55-1.74c4-1,4.93-1.93,12.25-3.83s13.05-4.78,17.18-5.1,17,2.55,23.14,0,21.1.64,28.1-1.59,18.6-4.77,22.19-4.29,11.22-7.16,20.13-7.48,13.36-3.82,21.64-4.77,13.68-4.46,18.77-4.14,21.3,0,21.3,0l9.25,145.44-147.62,35.59-188.73-10.13-77.65-1.91L-434,233.3l11.46-31.5Z"/></g></svg>