<svg xmlns="http://www.w3.org/2000/svg" viewBox="0 0 1203.5 712.3">
<defs>
</defs>
<path d="M1029.7,712.3c-0.4,0-0.9-0.1-1.3-0.4c-0.9-0.6-1-1.6-0.3-2.3c0.1-0.1,12.8-12.9,17.3-32.7c5.9-26.2-5-52.9-31.7-77.3
  c-29.5-27-132.3-68.7-274.9-111.5C607.9,448.9,475,418.4,408,412.3c-14.9-1.4-26.1-2.6-33.2-3.8c-8.8-1.4-11.5-2.5-11.4-4.5
  c0.2-2,2-3.5,25.9-4.6c12.7-0.6,30.4-1.1,52.6-1.3c37.7-0.4,75.9-0.2,76.2-0.2c1.1,0,112.3-1,224-3c187.7-3.5,227.6-7.1,233.5-9.2
  c-0.3-1.4-0.2-2.9-0.2-4.3c0.1-2.8,0.2-5.1-2.3-7.3c-6.3-5.4-27.8-8.1-67.6-8.6c-76.4-1-435.6-12.4-442.6-15.3
  c-2.2-0.9-19-2.9-33.9-4.6c-40.4-4.8-44.6-5.8-45.3-7.6c-4,0.3-7.5,0.6-10.2,0.9c22,4.4,101.1,14,106.2,14
  c3.5,0,404.4,18.6,425.2,25.8c2.6,0.9,2.8,2.1,2.6,2.9c-0.5,2.1-1.3,5-91.5,6.5c-41.8,0.7-84.6,0.7-96.7,0.7
  c-4.8,0-84.3,1.6-176.5,3.5c-128.8,2.6-289.2,5.9-302.8,5.9c-5.5,0-8.9,0.8-9.3,2.3c-0.9,2.9,7.5,9.9,16,13.3
  c1.8,0.7,10.1,3,21.6,6.1c60.7,16.4,222,59.9,239.2,97.6c15.7,34.5-44.8,70.9-93.4,100c-15.4,9.3-30,18-39.9,25.5
  c-40.8,30.7-182.8,53.6-243.5,63.4c-1.1,0.2-2.1-0.4-2.4-1.3c-0.2-0.9,0.5-1.7,1.6-1.9c55.1-8.9,201.5-32.6,241.5-62.6
  c10.1-7.6,24.7-16.4,40.3-25.7c47.5-28.5,106.7-64.1,92-96.3c-7-15.4-41.2-33.9-101.7-55.2C352.3,446,296.9,431,267.2,423
  c-12.5-3.4-20.1-5.4-22.1-6.2c-7-2.8-19.9-10.9-18.1-16.9c0.9-3.2,5.4-4.8,13.2-4.8c13.5,0,173.8-3.2,302.7-5.9
  c92.2-1.9,171.8-3.5,176.6-3.5c78.3,0,164.5-1.4,181.8-4.4c-15.2-2.9-90.8-8.1-214.8-14.8c-103.7-5.6-204-10.2-206.6-10.2
  c-3.2,0-32.8-3.5-58.7-6.9c-55.7-7.3-56-8.9-56.3-10.5c-0.1-0.7,0.2-1.7,1.8-2.1c3.7-1,18.8-2.2,35.3-3.2
  c18.6-1.5,46.1-2.5,50.4-2.7c1.1-0.1,2,0.6,2.1,1.5c0.1,0.9-0.8,1.6-1.9,1.7c-11.3,0.5-32.8,1.6-51.4,2.8c-3.3,0.3-6.1,0.5-8.4,0.8
  c8.4,1.4,24.5,3.3,37,4.8c19.8,2.3,32.2,3.8,35,4.9c10.5,2.3,351.6,13.9,441,15c53.1,0.7,65.5,5.5,70.4,9.6c3.7,3.1,3.5,6.6,3.4,9.6
  c-0.1,1.5-0.1,3,0.3,4.3c0.2,0.6,0,1.2-0.5,1.7c-1.8,1.9-6,6.3-234.6,10.5c-112.5,2.1-225.4,3.1-226.6,3.1
  c-51.3-0.3-132.4,0.2-148.6,3.1c4,1,14.1,2.6,38.9,4.8c67.3,6.1,200.7,36.7,331.9,76.1c143.2,43,246.6,85,276.5,112.4
  c34.8,31.9,36.9,61.2,32.6,80.2c-4.7,20.6-17.6,33.5-18.1,34C1030.9,712.1,1030.3,712.3,1029.7,712.3z M464.7,347.3
  C464.8,347.3,464.8,347.3,464.7,347.3C464.8,347.3,464.8,347.3,464.7,347.3z"/>
<path d="M429.3,326.6c-0.3,0-0.6-0.1-0.9-0.2c-1.3-0.6-127.1-57.9-141.3-63.1c-16.5-6-211.3-81.9-234.3-97.6
  c-21.6-14.8-49.2,5-49.5,5.2c-0.9,0.6-2.1,0.5-2.8-0.3c-0.7-0.8-0.5-1.9,0.3-2.6c0.3-0.2,30.4-21.8,54.4-5.3
  c22.7,15.5,216.9,91.2,233.4,97.2c14.3,5.2,136.4,60.9,141.6,63.2c1,0.5,1.4,1.5,0.9,2.4C430.7,326.2,430,326.6,429.3,326.6z"/>
<path d="M394.3,244.2c-6.4,0-20.1-2.1-51.5-11.7c-25.7-7.8-51.5-17.1-58.2-19.9c-5.7-2.4-10.1-0.3-16.1,2.5c-7,3.3-15.8,7.5-30,6
  c-12.8-1.3-22-3.8-29.3-5.8c-7.3-2-12.1-3.3-16-2.2c-1,0.3-2.2-0.2-2.5-1.2c-0.3-1,0.2-2,1.3-2.3c5.1-1.5,10.7,0,18.4,2.1
  c7.2,2,16.2,4.4,28.6,5.7c13,1.3,20.8-2.4,27.7-5.7c6.5-3.1,12.2-5.8,19.6-2.6c6.6,2.8,32.2,11.9,57.8,19.7
  c44.3,13.5,52.2,11.8,53.6,10.9c10.5-6.4,46.2-17.4,55.8-11.5c4.6,2.8,36.6,2.4,62.6-3c17.8-3.6,22.7-7.6,24-9.6
  c6.7-10.2,14.3-16.3,21.4-17.1c3.9-0.4,7.6,0.8,10.6,3.6c8.4,7.6,46.7,24,57.5,17.5c13.2-7.9,45.9-8.9,53.8,0.4
  c6.5,7.7,46.2,15.6,54.1,13.2c9.3-2.8,21.2,2.5,21.7,2.7c1,0.5,1.4,1.5,0.9,2.4c-0.5,0.9-1.7,1.3-2.7,0.8c-0.1,0-10.9-4.9-18.7-2.5
  c-9.4,2.9-50.8-5.3-58.5-14.4c-2.8-3.4-11.3-5.4-22.1-5.2c-10.6,0.2-20.9,2.4-26.3,5.6c-13.6,8.1-54.1-10.3-62.6-18
  c-2.2-2-4.6-2.9-7.3-2.6c-5.7,0.6-12.4,6.2-18.4,15.4c-3,4.5-11.9,8.3-26.6,11.3c-22.8,4.7-58.7,6.7-65.7,2.4
  c-7.6-4.6-41.2,5.3-51.4,11.5C399.2,243.4,398,244.2,394.3,244.2z"/>
<path d="M423.5,310.8c-0.8,0-1.5-0.4-1.9-1.1c-0.4-0.9,0.1-2,1.1-2.4c1.7-0.6,4.4-1.7,8-3c43.7-16.6,103.7-38.2,120.3-33.9
  c19.1,5,109.1-10,123.1-13.2c3-0.7,9.8-1.3,19.2-2.2c25.9-2.4,74.1-7,86.7-18.4c13.3-12.1,51.6-24.7,74.5-32.2
  c7.5-2.5,13.4-4.4,16.1-5.5c3.2-1.4,8-4.6,13.6-8.4c12.6-8.5,29.9-20.2,44.5-20.2c19.7,0,74.6-26.5,88.2-36.5
  c14.6-10.7,37.9-16.2,44.6-16.2c1.3,0,5.3-3.9,7.9-6.4c7.2-7,16.1-15.7,24.8-11.8c19.1,8.7,57.4,21.6,63.9,13.7
  c9.4-11.4,42.5-3.8,44-3.5c1.1,0.2,1.7,1.2,1.4,2.2c-0.3,1-1.4,1.6-2.4,1.3c-8.9-2.1-33.3-5.7-39.8,2.1
  c-11.1,13.5-68.3-12.4-68.9-12.6c-6-2.7-13.8,4.9-20.1,11c-4.5,4.4-7.8,7.6-10.8,7.6c-4.9,0-27.5,4.8-42.1,15.4
  c-14.3,10.4-69.9,37.3-90.7,37.3c-13.3,0-30,11.3-42.1,19.5c-5.7,3.9-10.7,7.2-14.3,8.8c-2.8,1.2-8.8,3.2-16.4,5.7
  c-22.6,7.4-60.3,19.8-73,31.4c-13.5,12.3-60.8,16.8-89.1,19.4c-8.9,0.8-15.9,1.5-18.7,2.1c-8.9,2-79.1,14.3-112.2,14.3
  c-5.5,0-10-0.3-13-1.1c-17.2-4.5-92.8,24.3-117.7,33.8c-3.6,1.4-6.3,2.4-8,3C424,310.7,423.7,310.8,423.5,310.8z"/>
<g>
  <path d="M672.7,168.6h-158c-12.2,0-19.8-13.2-13.7-23.7l79-137c6.1-10.5,21.3-10.5,27.4,0l79,137
    C692.4,155.4,684.8,168.6,672.7,168.6z M578.5,131.7c0,8.4,6.8,15.1,15.1,15.1s15.1-6.8,15.1-15.1s-6.8-15.1-15.1-15.1
    S578.5,123.3,578.5,131.7z M581.8,106.9c0.1,2.1,1.8,3.7,3.9,3.7h16c2.1,0,3.8-1.6,3.9-3.7l2.4-44.8c0.1-2.3-1.7-4.2-3.9-4.2h-20.9
    c-2.3,0-4.1,1.9-3.9,4.2L581.8,106.9z"/>
</g>
</svg>
