<svg xmlns="http://www.w3.org/2000/svg" viewBox="0 0 1251.1 679.8">
<style type="text/css">
  .st0{fill:none;stroke:#000000;stroke-width:4;stroke-linecap:round;stroke-miterlimit:10;}
</style>
<defs>
</defs>
<path class="st0" d="M436.2,203.8c0,0-3.9-16.8,5.2-15.5c9,1.3,284.5,1.9,290.2,7.7c5.7,5.8,13.4,21.3,10.8,26.5
  c-2.6,5.2-18,3.9-18,3.9s3.9-15.5-3.9-15.5c-7.7,0-267.9,2-270.6-3.5s-7.7-12.6-7.7-12.6"/>
<path class="st0" d="M435.4,213.2c0,0-9.2,150.6,0,148.9c9.2-1.7,19.5-3,19.5-3"/>
<path class="st0" d="M449.9,213.2l-1.4,53.1c0,0-1,3.8,1.4,4.5c2.5,0.7,220.3-4.5,220.3-4.5"/>
<line class="st0" x1="667.7" y1="216" x2="667.7" y2="262.3"/>
<line class="st0" x1="675.4" y1="216" x2="674.1" y2="328.2"/>
<path class="st0" d="M727,230.2c0,0,5.2,96.7,0,98c-5.2,1.3-278.7,14.9-278.7,14.9s-2.8-59.1,0-62.2c2.8-3.1,220.7-5.6,220.7-5.6"/>
<line class="st0" x1="665.1" y1="278.9" x2="665.1" y2="326.3"/>
<path class="st0" d="M458.8,359.1c3.9-1.3,97.8-6.7,100.5-6.6c2.7,0.1,175.4-7.6,176.7-11.5s5.6-114.6,5.6-114.6"/>
<path class="st0" d="M727,191.5c0,0-1.9-31,2.3-31s11.6,2.5,13.7,0c2.1-2.5,0,46.8,0,46.8"/>
<path class="st0" d="M724.4,346.2c0,0,0,32.2-2.6,33.5c-2.6,1.3-304.3,27.1-305.6,24.5c-1.3-2.6,12.9-250.1,9-251.4
  c-3.9-1.3-16.2-2.6-16.5,0"/>
<path class="st0" d="M408.8,160.4c0,0-15.8,245.1-13.2,249"/>
<path class="st0" d="M735.2,345c0,0,4.4,48.3,0,52.5"/>
<path class="st0" d="M378.9,418.4c6.4,1.3,5.8,1.3,14.5,0c8.7-1.3,32.4-10.3,38-9s17.2,2.3,23.6,3.1c6.4,0.8,14.9-2.2,17.1,1.9"/>
<path class="st0" d="M469.8,410.3c7.1-2.1,15.3-9.5,19.6-5.8c4.2,3.7,11.2,2.4,15.5,2.4s14.8-1.3,24.4,0s23.8,7.3,27.6,7.5"/>
<path class="st0" d="M544.6,404.4c4.4-1.5,10.7-3.6,14.6-3.2s15.4-5.3,20-3.7"/>
<path class="st0" d="M572.3,404.4c3.9-0.2,13.7-9.1,15.9-7.2c2.2,1.9,14.5,5.1,22.5,3.5s20.1,4.2,29.5,0c9.4-4.2,14.6-5.5,19.8-5.5
  s33.7,2.7,38.8,2c5.1-0.7,55.6,8.5,63.2,2.6c7.6-5.9,60.4,7,60.4,7"/>
<path class="st0" d="M369.9,427.5c9,0,18.7-1.3,23.5,0"/>
<g>
  <path d="M752.7,410.7C752.7,410.7,752.7,410.7,752.7,410.7C752.7,410.7,752.7,410.7,752.7,410.7
    C752.7,410.7,752.7,410.7,752.7,410.7 M753.7,406.6c-3.6,0-7.6,2.8-7.6,2.8c-3.2,4.5,0.5,5.4,4.1,5.4c2.6,0,5.2-0.5,5.2-0.5
    s3.8-6.2,0-7.5C754.8,406.6,754.2,406.6,753.7,406.6L753.7,406.6z"/>
</g>
<path class="st0" d="M408.8,450.2c8.7,6.9,31.5,51.6,39.5,73.8c8,22.1-13.5,148.9-16.9,153.8"/>
<path class="st0" d="M810.7,420c14.2,12.6,122.5,95.1,140.6,102.9c18,7.7,68.3,55.4,123.8,61.9c55.4,6.4,174,64.5,174,64.5"/>
<path class="st0" d="M378.9,377.5c-2.6-11.9,14.5-68.5,14.5-68.5"/>
<path class="st0" d="M454.9,242c9-9.2,31.3-26,31.3-26"/>
<path class="st0" d="M509,183.9c0,0,53.1-34.6,98.1-40.6"/>
<path class="st0" d="M614.1,146.3c-5.1,1.9-15.7,18.6-13.9,25.4c1.7,6.9,5.3,12.1,5.3,12.1"/>
<path class="st0" d="M618.7,222.8c5.2,6.1,21.9,34.5,27.1,37"/>
<path class="st0" d="M680.6,306.3c9,11.6,20.6,16.8,20.6,16.8"/>
<path d="M706.9,0c19.4,6,39.2,10.8,58,18.3c19.5,7.7,38,17.9,56.8,27.3c1.9,1,2.9,3.8,4.3,5.7c-2.3-0.3-4.9-0.1-6.7-1.1
  c-31.2-17.5-63.6-32-98.1-41.5c-17.8-4.9-35-3.4-51.5,4.4c-32.8,15.5-65.3,31.4-98,47.1c-8.8,4.3-17.7,8.6-27.9,13.6
  c7.3,2.7,13.1,4.9,19,7c9.5,3.5,19,6.8,28.4,10.5c1.8,0.7,3,2.8,4.5,4.3c-2.1,0.2-4.4,1.2-6.1,0.6c-18.2-6.4-36.3-13.2-54.4-19.8
  c-36.1-13.1-72.2-26-108.2-39.3c-31.4-11.6-61.1-8-89.5,9c-18.8,11.2-37.3,22.9-56.7,33c-10.3,5.4-22,8.1-33.3,11.5
  c-1.9,0.6-4.4-1-6.6-1.5c1.7-1.1,3.2-3,5.1-3.3c20.6-4,38.6-14,56.2-24.7c11.5-7,23.1-14.1,34.8-20.9c29.3-17.1,60-19.4,91.7-8.1
  c33.7,12,67.4,24.2,101,36.7c5.2,1.9,9.2,1.5,13.9-0.8c39.3-19.2,78.6-38.5,118.1-57.3c9.5-4.5,20-7.2,30-10.8
  C696.6,0,701.7,0,706.9,0z"/>
<path d="M1047.2,130.2c-2.6,0.1-5.6,1.1-7.8,0.1c-19.6-8.1-39.4-15.7-58.4-25.1c-26.2-12.8-52-26.4-77.4-40.8
  c-21.2-12-41.9-13.3-62.9-1.1c-34.5,20.1-68.5,40.9-103,61c-11.1,6.5-22.7,12-34.2,17.7c-1.6,0.8-4.1-0.2-6.2-0.3
  c1.4-1.5,2.5-3.5,4.1-4.5c19.9-11.3,40-22.4,59.9-33.7c26.6-15.2,52.9-31.1,79.7-45.9c22-12.1,43.4-9.6,65.5,2.2
  c38.3,20.5,77.5,39.6,116.5,58.9c7.6,3.8,16,6,24.1,8.9C1047.2,128.5,1047.2,129.4,1047.2,130.2z"/>
<path d="M141,70.1c13.6,0.6,26.7,3.6,38.7,9.5c33.7,16.9,67.2,34.3,100.7,51.7c1.3,0.7,1.9,2.7,2.9,4.2c-2,0-4.5,0.8-6.1,0
  c-25-12.9-49.8-26-74.7-38.9c-8.9-4.6-18-9-27.3-13c-23.3-10.1-46.8-10.2-69.7,1.2c-24,12-47.5,24.8-71.2,37.2
  c-2.7,1.4-5.2,3.1-8,4.1c-2.3,0.8-4.9,0.7-7.3,1.1c1.5-1.9,2.6-4.5,4.6-5.6c19.9-10.9,39.8-21.9,60.1-32.1C96,83.2,109,78,122,73.3
  C127.9,71.1,134.6,71.1,141,70.1z"/>
<path class="st0" d="M395.4,203.2c0,0-41.9-2.1-59.1,0c-17.2,2.1-115.4,2.2-121.8,4.1c-6.4,2-82-3-93.2,0s-98.1,4-111.2,0.5"/>
<path class="st0" d="M393.4,272.1c-10.3,1.2-75.8,2.3-102,6.7c-26.2,4.5-119.9,7.7-134,6.1c-14.2-1.6-117.2,16.4-122.2,11.4
  S2,297.2,2,297.2"/>
<path class="st0" d="M358.3,362.1c-9.2,1.2-119.6,5.1-147.9,9.2S55.1,383.3,27.1,388.3"/>
<path class="st0" d="M761.3,208.5c0,0,219.8-7.8,228.8-6.9c9,1,85.5-3.4,93-3.3"/>
<path class="st0" d="M765.5,289.2c3.7-1.4,184.8-11.1,191.8-12.3c9.8-1.6,56.6-0.1,62.1-1.8c8.7-2.8,61.9-0.1,63.7-2.3"/>
<path class="st0" d="M772.3,359.3c8-1.2,104.9-3.7,108.9-5.8c0,0,95.1-2.4,106.5-2.7c11.4-0.3,81.6-8.1,91.2-11.3"/>
</svg>
