<svg height="110" viewBox="0 0 615 110" width="615" xmlns="http://www.w3.org/2000/svg"><g fill="none" fill-rule="evenodd"><g fill="#222" transform="translate(126 33)"><path d="m1.54184211.77021053h7.17394736c1.12618421 0 1.59986843.47368421 1.59986843 1.5418421v13.16131577c0 .6525.1776316.8893421.8893421.8893421h13.6953947c.7105264 0 .9485527-.2368421.9485527-.8893421v-13.16131577c0-1.06815789.4736842-1.5418421 1.5406579-1.5418421h7.1739473c1.0669737 0 1.6010527.47368421 1.6010527 1.5418421v38.41697367c0 1.0669737-.534079 1.5406579-1.6010527 1.5406579h-7.1739473c-1.0669737 0-1.5406579-.4736842-1.5406579-1.5406579v-13.9926316c0-.6513158-.2380263-.8893421-.9485527-.8893421h-13.6953947c-.7117105 0-.8893421.2380263-.8893421.8893421v13.9926316c0 1.0669737-.47368422 1.5406579-1.59986843 1.5406579h-7.17394736c-1.06697369 0-1.54184211-.4736842-1.54184211-1.5406579v-38.41697367c0-1.06815789.47486842-1.5418421 1.54184211-1.5418421"/><path d="m46.5933553.77021053h7.1739473c1.1261842 0 1.5998685.47368421 1.5998685 1.5418421v38.41697367c0 1.0669737-.4736843 1.5406579-1.5998685 1.5406579h-7.1739473c-1.0669737 0-1.5418421-.4736842-1.5418421-1.5406579v-38.41697367c0-1.06815789.4748684-1.5418421 1.5418421-1.5418421"/><path d="m75.5806974 21.2832237c0-.4156579.1776315-.8301316.5932894-1.4222369l12.3903948-17.49078943c.8893421-1.30381579 1.3642105-1.59986842 2.9048684-1.59986842h8.3593421c.8301319 0 1.2457899.29605263 1.2457899.83013158 0 .2368421-.119606.53289473-.356448.8893421l-13.7546051 18.43697367 14.3478951 19.6235526c.296052.3564474.414473.7117106.414473.9497369 0 .4736842-.474868.7697368-1.303815.7697368h-8.5961846c-1.6010527 0-2.0759211-.2960526-2.9652632-1.5406579l-12.7456579-18.0828947c-.3564474-.5328947-.5340789-.9473684-.5340789-1.3630263m-9.781579-20.51289475h7.1727632c1.1273684 0 1.6010526.47368421 1.6010526 1.5418421v38.41697365c0 1.0669737-.4736842 1.5406579-1.6010526 1.5406579h-7.1727632c-1.0669737 0-1.5418421-.4736842-1.5418421-1.5406579v-38.41697365c0-1.06815789.4748684-1.5418421 1.5418421-1.5418421"/><path d="m107.708329.77021053h7.173947c1.126185 0 1.599869.47368421 1.599869 1.5418421v38.41697367c0 1.0669737-.473684 1.5406579-1.599869 1.5406579h-7.173947c-1.066974 0-1.541842-.4736842-1.541842-1.5406579v-38.41697367c0-1.06815789.474868-1.5418421 1.541842-1.5418421"/><path d="m126.795434 0c.830132 0 1.659079.59210526 3.0825 1.95513158l21.343027 20.03921052v-19.68276315c0-1.06697369.474868-1.54184211 1.540657-1.54184211h7.175132c1.065789 0 1.599868.47486842 1.599868 1.54184211v38.41697365c0 1.4826316-.415657 2.311579-1.423421 2.311579-.828947 0-1.659079-.5921053-3.0825-1.9551316l-21.343026-20.0392105v19.6827631c0 1.0669737-.473684 1.5418421-1.599868 1.5418421h-7.173948c-1.066973 0-1.541842-.4748684-1.541842-1.5418421v-38.41697365c0-1.48263158.415658-2.31157895 1.423421-2.31157895"/><path d="m199.118132 21.4023553h7.233157c1.066974 0 1.541843.4736842 1.541843 1.6010526v13.6942105c0 1.2457895-.356448 1.7786842-1.423421 2.311579-4.98079 2.4903947-10.256448 4.0310526-16.303027 4.0310526-12.51 0-21.995526-8.3581579-21.995526-21.105 0-13.22052632 9.544737-21.93513158 22.528421-21.93513158 6.166184 0 11.501053 1.95513158 15.472895 4.68355263.712894.47368421 1.008947.88934211 1.008947 1.36302632 0 .35526316-.119605.77092105-.415658 1.18539474l-3.023289 4.68355259c-.414474.5932895-.770921.8893421-1.303816.8893421-.297237 0-.711711-.118421-1.126184-.3552631-3.083685-1.7786842-6.522632-2.96407896-10.612895-2.96407896-7.351579 0-11.8575 5.15723686-11.8575 12.15355266 0 7.1739473 4.801974 12.0339473 11.561447 12.0339473 2.549606 0 4.565132-.3552631 6.283421-1.0065789.711711-.2960526.889342-.534079.889342-1.305v-8.3581579c0-1.1273684.474869-1.6010526 1.541843-1.6010526"/><path d="m254.416444 16.4183151c0-3.869626-2.598968-5.4308518-7.849945-5.4308518h-3.756627c-.689522 0-.864785.2352216-.864785.8670914v9.3558241c0 .6318698.175263.8624792.864785.8624792h3.756627c5.080326 0 7.849945-1.8471814 7.849945-5.6545429m-21.017742-14.6690651h13.571364c11.834875 0 17.837638 4.79436981 17.837638 14.6068006 0 9.8793074-6.463982 14.9550207-18.241205 14.9550207h-3.756627c-.689522 0-.864785.2352216-.864785.8693975v8.4887327c0 1.0354363-.461219 1.4989612-1.55892 1.4989612h-6.987465c-1.037743 0-1.501268-.4635249-1.501268-1.4989612v-37.41868419c0-1.03774238.463525-1.50126731 1.501268-1.50126731"/><path d="m292.896162 15.5509931c0-3.3484488-2.426011-4.5637604-7.042812-4.5637604h-4.390803c-.689522 0-.862479.2375277-.862479.8693975v7.5639889c0 .6941344.172957.9224377.862479.9224377h4.390803c4.84741 0 7.042812-1.6188781 7.042812-4.7920637m-20.844785-13.80197371h14.20554c11.375963 0 17.030505 4.50841413 17.030505 13.28310251 0 5.7721537-2.769619 9.5841274-6.980547 11.7195706l8.947646 13.5690582c.290568.4035665.403566.7494806.403566 1.0400485 0 .5165651-.463525.8071329-1.32831.8071329h-7.794598c-1.616572 0-2.366053-.4635249-3.173186-1.7295706l-6.530859-10.5088712c-.403566-.6387881-.74948-.8117451-1.496655-.8117451h-3.871932c-.689522 0-.862479.172957-.862479.8670914v10.6818282c0 1.0377424-.465831 1.5012673-1.561226 1.5012673h-6.987465c-1.035437 0-1.501268-.4635249-1.501268-1.5012673v-37.4163781c0-1.03543628.465831-1.50126731 1.501268-1.50126731"/><path d="m340.696421 22.0177424c0-7.1627285-4.905062-11.7795291-11.260658-11.7795291-6.406329 0-11.198393 4.6790651-11.198393 11.7795291 0 7.0428116 4.734411 11.6642244 11.143047 11.6642244 6.348677 0 11.316004-4.676759 11.316004-11.6642244m-11.260658-21.0177424c12.588968 0 21.651918 8.71703601 21.651918 20.9623961 0 12.2937881-9.118296 20.957784-21.764916 20.957784-12.416012 0-21.478962-8.6063435-21.478962-20.8470915 0-12.29378805 9.125215-21.0730886 21.59196-21.0730886"/><path d="m356.279622 33.4548165c.636482 0 1.501267.1752631 2.541316.1752631 2.541315 0 4.273192-1.9670983 4.273192-5.7191135v-24.66137122c0-1.03543629.463525-1.50126732 1.561226-1.50126732h6.982853c1.037743 0 1.503574.46583103 1.503574 1.50126732v25.35319942c0 8.7793006-3.581365 14.2654986-12.994841 14.2654986-1.556614 0-3.348449-.1199169-4.44615-.4104847-1.093088-.2836496-1.326004-.7494806-1.206087-1.9025277l.63187-5.6591552c.115305-1.0977008.403566-1.4413088 1.153047-1.4413088"/><path d="m384.159378 1.74994183h24.250887c1.040048 0 1.558919.46583102 1.558919 1.50126731v6.23567867c0 1.09770079-.518871 1.50126729-1.558919 1.50126729h-14.83741c-.694135 0-.869398.2352216-.869398.8693975v4.5014959c0 .6941343.175263.8647853.869398.8647853h12.932576c1.035436 0 1.501267.4612188 1.501267 1.5589197v6.1803324c0 1.0400484-.465831 1.4989612-1.501267 1.4989612h-12.932576c-.694135 0-.869398.2306094-.869398.8693975v4.7297992c0 .6387881.175263.8693975.869398.8693975h14.892756c1.040048 0 1.561226.4035665 1.561226 1.5012673v6.2356787c0 1.0354362-.521178 1.5012673-1.561226 1.5012673h-24.306233c-1.040048 0-1.501267-.4658311-1.501267-1.5012673v-37.41637816c0-1.03543629.461219-1.50126731 1.501267-1.50126731"/><path d="m452.092531 36.1612486c0 .4058726-.288262.8094391-.869397 1.3306164-4.035665 3.3484487-9.29356 5.4285457-15.12106 5.4285457-12.300706 0-21.483573-8.7769945-21.483573-20.7294806 0-12.24074797 9.238213-21.19069949 21.942486-21.19069949 5.889764 0 10.967784 2.13774931 14.897368 5.4308518.458913.40356648.689522.74948061.689522 1.09770083 0 .34130194-.110692.63186981-.40126 1.03543629l-3.348449 4.73441137c-.34822.5211773-.694134.7517867-1.097701.7517867-.34822 0-.751786-.1729571-1.153047-.4635249-2.654314-1.9048338-5.889764-3.3484488-9.641779-3.3484488-6.641552 0-11.488962 4.7367175-11.488962 11.7795291 0 6.8122022 4.792064 11.6642244 11.488962 11.6642244 3.86732 0 7.042811-1.3283103 9.757084-3.4084072.458913-.3459142.809439-.5188712 1.153047-.5188712.403567 0 .694135.2283033 1.037743.6941343l3.293102 4.7297992c.232916.3505263.345914.6941343.345914.9823961"/><path d="m465.989055 10.9883857h-9.122909c-1.040048 0-1.503573-.4589127-1.503573-1.50126728v-6.23567867c0-1.03774238.463525-1.50126731 1.503573-1.50126731h30.025346c1.040049 0 1.498962.46352493 1.498962 1.50126731v6.23567867c0 1.04235458-.458913 1.50126728-1.498962 1.50126728h-9.122908c-.636482 0-.869398.2352216-.869398.8693975v28.8100347c0 1.0354363-.456606 1.5012673-1.496655 1.5012673h-7.047424c-1.037742 0-1.496655-.465831-1.496655-1.5012673v-28.8100347c0-.6341759-.237527-.8693975-.869397-.8693975"/></g><path d="m97.204 35.8347c0-4.798-2.605-9.27-6.798-11.669l-33.404-19.113c-2.064-1.181-4.415-1.805-6.798-1.805s-4.734.624-6.798 1.805l-33.404 19.113c-4.193 2.399-6.798 6.871-6.798 11.669v38.226c0 4.798 2.605 9.27 6.798 11.669l33.404 19.113c2.064 1.181 4.415 1.805 6.798 1.805s4.734-.624 6.798-1.805l33.404-19.113c2.186-1.251 3.934-3.067 5.113-5.197 1.083-1.956 1.685-4.175 1.685-6.472z" fill="#fefefe"/><path d="m10.4461 27.7705 35.536-20.333c1.243-.711 2.631-1.067 4.018-1.067s2.775.356 4.018 1.067l35.536 20.333c2.486 1.423 4.018 4.051 4.018 6.897v12.01c-6.552-5.993-29.978-27.23-29.978-27.23-.201-.184-.469-.255-.676-.255s-.475.072-.675.255l-29.658 26.934c-.397.368-.956.366-1.354.054-.357-.281-.522-.853-.203-1.357l6.399-9.603c.23-.345.197-.899-.166-1.262l-7.495-7.222c-.152-.147-.386-.291-.713-.291-.295 0-.531.124-.681.259 0 0-16.883 15.149-21.944 19.718v-12.01c0-2.846 1.532-5.474 4.018-6.897zm89.554 6.897c0-5.105-2.771-9.862-7.232-12.414l-35.536-20.333c-2.196-1.257-4.697-1.921-7.232-1.921s-5.036.664-7.232 1.921l-35.536 20.333c-4.461 2.552-7.232 7.309-7.232 12.414v40.665c0 5.105 2.771 9.862 7.232 12.414l35.536 20.333c2.196 1.256 4.696 1.92 7.232 1.92 2.535 0 5.036-.664 7.232-1.92l35.536-20.333c2.325-1.33 4.186-3.263 5.439-5.528 1.152-2.081 1.793-4.442 1.793-6.886z" fill="#588f00"/><path d="m72.2601 55.7018c.011-.001.014-.002.014-.002.153-.005.406-.054.461-.065l2.146 34.822.582.01-2.082-35.068c.337-.126.934-.484.573-.953.171-.253.16-.485-.036-.699.343-.206.347-.449.013-.727.104-.089.149-.183.137-.279-.035-.37-.335-.544-.898-.523.052-.18.404-.637.208-.765.069-.246-.003-.359-.216-.342-.081-.024-.172.058-.272.244-.264.005-.786.043-.704.436-.395.094-.618.15-.669.174-.264.108-.374.578-.543.8-.652 1.152-2.481.861-3.588.764-1.211-.105-2.489-.227-3.612-.713.035-.569.047-1.318.087-1.884.049-.717-.082-2.66-.082-2.66.435-1.644.265-2.504.21-2.714.309.116.061-.307-.102-.59.024-.353-.15-.512-.279-.78-.361-.82-.363-1.035-1.018-1.991-.001-.006.078-.129.039-.241-.016-.174-.136-.048-.158-.237.253-2.563 1.82-1.115 1.969-2.052.033-.209-.24-.572.057-.709.359-.166-.234-.413.157-.678.287-.18-.125-.628.269-.707.53-.11.508-.414.239-.782-.142-.195-.599-.712-.52-.972.047-.155.282-.247.285-.412.001-.217-.069-.435-.069-.643.531-.019 1.088-.117 1.545-.401.476-.36.645-.789.509-1.288-.131-.327-2.337-.074-2.564-.067-.052-.061-.666-.439-.852-.551-.362-.218-.743-.342-1.165-.451-.817-.211-1.49-.133-2.272-.068-1.288.116-2.711 2.202-2.338 3.422.087.332-.03.544.007.619 0 0-.004.787.481 1.782.32.657 1.066.619.607 2.771-.309-.062.14.235-.56.586 0 0-.84.313-.853.337.021-.098-.134-.471-.414-.826-.635-.798-.088-1.948-.579-2.504-.363-.393-1.313-.631-2.415-.475-1.081.145-4.499 1.379-4.705 2.819-.443.649-.759.475-.886 3.022-.048.807.332 2.722 1.248 2.62.02.248.233.552.002.719s-.323.457-.079.744c.101.099 1.331 3.547 1.307 4.641.046 1.147.182 2.975.172 3.933-.024 2.24.554 2.7.675 2.86.242.326 1.658.563 2.363.334.026.187.08.461.327.551.004.002.015.006.033.015l.003.005c-.337 1.42.055 1.812.662 3.457-.12.307-3.156 6.445-3.156 6.445-.158.324-1.345 2.548-1.887 3.636l-.463.33s-2.537 1.046-5.849 4.46c-2.812 2.898-3.218 3.383-3.218 3.383s.174.126.132.185c-.742.445-1.328 1.225-1.328 1.225s-.325.483.403 1.386l1.202.982.269-.053s1.845 2.575 2.207 3.081l-.015.038c.533.656 1.925.921 2.164.979.198.049.757.383.93-.374.029-.124.14-.331.147-.519 0 0 .204-.749-.525-1.256 0 0-.228-.173-.58-.447-.181-.342-.419-.797-.669-1.297 0 0-.577-1.317-.387-1.48.034.087.182.177.182.177l.832-.984 1.134-.949 3.65-2.854.686-.647.07.027c.039-.069.071-.13.104-.191l3.172-2.993-.02-.022c.77-.587 1.481-1.218 1.618-1.405.079-.038 2.105-2.702 2.121-2.805.212-.363.893-1.037 1.284-2.309.089-.292.64.504.758.785.783 1.875 1.563 3.715 1.701 3.888.205.623.476 1.569.758 2.04l-.008.447s-.505 3.278.267 7.971c.655 3.984.803 4.599.803 4.599s.206-.064.227.004c-.083.861.195 1.797.195 1.797s.195.548 1.353.5l1.505-.381.118-.248s2.587.001 2.859.005c.273.005 1.949-.28 2.185-.347.196-.055.848-.038.627-.783-.036-.122-.04-.357-.127-.524 0 0-.191-.753-1.074-.836 0 0-.974-.131-2.128-.333 0 0-1.401-.32-1.419-.57.09.024.25-.041.25-.041l-.296-1.253-.087-1.477-.122-4.632-.576-4.292c.042-.787.308-1.407-.033-2.192.111-.16-1.103-5.845-3.383-10.814-.192-.418.104-.567-.404-.96-.034-.114-.066-.214-.096-.305.088-.469.03-.671.017-1.419-.002-.132.666-.435.605-.431-.04-.983-.157-1.191-.348-2.665 2.696.385 4.817-.931 7.436-1.189 0 0 .455.194 1.25.232-.194-.005-.468-.008.12.007" fill="#fefefe"/></g></svg>