<?xml version="1.0" encoding="utf-8"?>
<!-- Generator: Adobe Illustrator 24.3.0, SVG Export Plug-In . SVG Version: 6.00 Build 0)  -->
<svg version="1.1" id="Layer_1" xmlns="http://www.w3.org/2000/svg" xmlns:xlink="http://www.w3.org/1999/xlink" x="0px" y="0px"
	 viewBox="0 0 32 32" style="enable-background:new 0 0 32 32;" xml:space="preserve">
<style type="text/css">
	.st0{fill:#776D5F;}
	.st1{fill:#FFFFFF;}
</style>
<g>
	<path class="st0" d="M16,31.1c-0.9,0-1.8-0.4-2.4-1.2l-0.2-0.3V13.2H6.6c-1.2,0-2.1-0.9-2.2-2.1l0-5.6c0-1.2,0.9-2.1,2.1-2.2l6.8,0
		V2.2l0.3-0.3c0.1-0.1,0.2-0.2,0.3-0.3c0.6-0.5,1.3-0.8,2.1-0.8c0.9,0,1.8,0.4,2.3,1.1l0.3,0.3v1.1h6.8c1.2,0,2.2,0.9,2.2,2.1l0,5.6
		c0,1.2-1,2.2-2.2,2.2h-6.8v16.4l-0.2,0.3c-0.2,0.2-0.4,0.4-0.6,0.6C17.3,30.9,16.7,31.1,16,31.1z"/>
	<path class="st1" d="M16,1.9c0.6,0,1.2,0.2,1.6,0.7v1.8h7.8c0,0,0,0,0,0c0.6,0,1.2,0.5,1.2,1.1V11c0,0.6-0.5,1.2-1.2,1.2h-7.8v17.1
		c-0.1,0.1-0.2,0.3-0.4,0.4c-0.4,0.3-0.8,0.4-1.2,0.4c-0.6,0-1.2-0.3-1.6-0.8V12.2H6.6c-0.6,0-1.2-0.5-1.2-1.1V5.5
		c0-0.6,0.5-1.2,1.2-1.2h7.8V2.6c0.1-0.1,0.1-0.1,0.2-0.2C15,2.1,15.5,1.9,16,1.9 M16-0.1C16-0.1,16-0.1,16-0.1c-1,0-2,0.4-2.8,1.1
		C13.1,1,13,1.1,12.9,1.3l-0.5,0.6v0.5H6.6h0l0,0c-1.7,0-3.1,1.4-3.1,3.2l0,5.6v0l0,0c0.1,1.7,1.5,3.1,3.2,3.1l5.8,0v15.1V30
		l0.4,0.5c0.8,1,1.9,1.6,3.2,1.6c0.9,0,1.7-0.3,2.4-0.8c0.3-0.2,0.5-0.5,0.8-0.8l0.4-0.5v-0.7V14.2h5.8c1.7,0,3.2-1.4,3.2-3.2l0-5.6
		v0l0,0c-0.1-1.7-1.5-3.1-3.2-3.1l-5.8,0V1.8l-0.5-0.6C18.3,0.4,17.2-0.1,16-0.1L16-0.1L16-0.1z"/>
</g>
</svg>
