<svg id="Layer_1" data-name="Layer 1" xmlns="http://www.w3.org/2000/svg" viewBox="0 0 100 100"><defs><style>.cls-1{fill:#c9c9c9;}.cls-2{fill:#0061aa;}.cls-3{fill:#ffde6a;}</style></defs><path class="cls-1" d="M98.77,45.69A11.31,11.31,0,0,0,87.46,34.38c-.28,0-.56,0-.83,0A16.15,16.15,0,0,0,61.52,15.5c-.08-.21-.17-.43-.26-.64A23.13,23.13,0,0,0,17,24.69h0a16.16,16.16,0,0,0,0,32.31H88v0A11.29,11.29,0,0,0,98.77,45.69Z"/><path class="cls-2" d="M33.77,68.17a3,3,0,0,1-6,0c0-1.66,3-5.2,3-5.2S33.77,66.51,33.77,68.17Z"/><path class="cls-2" d="M43.77,73.17a3,3,0,0,1-6,0c0-1.66,3-5.2,3-5.2S43.77,71.51,43.77,73.17Z"/><path class="cls-2" d="M52.77,68.17a3,3,0,0,1-6,0c0-1.66,3-5.2,3-5.2S52.77,66.51,52.77,68.17Z"/><polygon class="cls-3" points="76.33 61 68.77 61 63.1 75.18 69.71 75.18 65.93 91.24 82 70.45 72.55 70.45 76.33 61"/></svg>