<svg id="Layer_1" data-name="Layer 1" xmlns="http://www.w3.org/2000/svg" viewBox="0 0 100 100"><defs><style>.cls-1{fill:#c9c9c9;}.cls-2{fill:#0061aa;}.cls-3{fill:#ffde6a;}</style></defs><path class="cls-1" d="M98.77,45.69A11.31,11.31,0,0,0,87.46,34.38c-.28,0-.56,0-.83,0A16.15,16.15,0,0,0,61.52,15.5c-.08-.21-.17-.43-.26-.64A23.13,23.13,0,0,0,17,24.69h0a16.16,16.16,0,0,0,0,32.31H88v0A11.29,11.29,0,0,0,98.77,45.69Z"/><path class="cls-2" d="M17.77,73.17a3,3,0,0,1-6,0c0-1.66,3-5.2,3-5.2S17.77,71.51,17.77,73.17Z"/><path class="cls-2" d="M36.77,73.17a3,3,0,1,1-6,0c0-1.66,3-5.2,3-5.2S36.77,71.51,36.77,73.17Z"/><path class="cls-2" d="M26.77,68.17a3,3,0,0,1-6,0c0-1.66,3-5.2,3-5.2S26.77,66.51,26.77,68.17Z"/><path class="cls-2" d="M45.65,68.06a2.94,2.94,0,0,1-5.88,0c0-1.62,2.94-5.09,2.94-5.09S45.65,66.44,45.65,68.06Z"/><path class="cls-2" d="M55.77,73.17a3,3,0,0,1-6,0c0-1.66,3-5.2,3-5.2S55.77,71.51,55.77,73.17Z"/><polygon class="cls-3" points="82.33 61 74.77 61 69.1 75.18 75.71 75.18 71.93 91.24 88 70.45 78.55 70.45 82.33 61"/></svg>