<svg id="Layer_1" data-name="Layer 1" xmlns="http://www.w3.org/2000/svg" viewBox="0 0 100 100"><defs><style>.cls-1{fill:#0061aa;}.cls-2{fill:#48484a;}.cls-3{fill:#c9c9c9;}.cls-4{fill:#ffde6a;}</style></defs><path class="cls-1" d="M18.77,68.17a3,3,0,0,1-6,0c0-1.66,3-5.2,3-5.2S18.77,66.51,18.77,68.17Z"/><path class="cls-1" d="M25.77,73.17a3,3,0,0,1-6,0c0-1.66,3-5.2,3-5.2S25.77,71.51,25.77,73.17Z"/><path class="cls-1" d="M39.77,73.17a3,3,0,0,1-6,0c0-1.66,3-5.2,3-5.2S39.77,71.51,39.77,73.17Z"/><path class="cls-1" d="M32.77,68.17a3,3,0,0,1-6,0c0-1.66,3-5.2,3-5.2S32.77,66.51,32.77,68.17Z"/><path class="cls-1" d="M46.77,68.17a3,3,0,0,1-6,0c0-1.66,3-5.2,3-5.2S46.77,66.51,46.77,68.17Z"/><path class="cls-1" d="M53.77,73.17a3,3,0,0,1-6,0c0-1.66,3-5.2,3-5.2S53.77,71.51,53.77,73.17Z"/><path class="cls-1" d="M60.77,68.17a3,3,0,0,1-6,0c0-1.66,3-5.2,3-5.2S60.77,66.51,60.77,68.17Z"/><path class="cls-2" d="M99.89,32.72a8.28,8.28,0,0,0-8.28-8.28c-.21,0-.41,0-.62,0a11.67,11.67,0,0,0,1-4.76,11.83,11.83,0,0,0-19.39-9.1c-.06-.16-.12-.31-.19-.47A16.94,16.94,0,0,0,40,17.34h0A11.83,11.83,0,0,0,40,41H92v0A8.28,8.28,0,0,0,99.89,32.72Z"/><path class="cls-3" d="M99,46.69A11.31,11.31,0,0,0,87.69,35.38c-.28,0-.55,0-.83,0A16.15,16.15,0,0,0,61.75,16.5c-.08-.21-.16-.43-.26-.64a23.13,23.13,0,0,0-44.31,9.83h0a16.16,16.16,0,0,0,0,32.31H88.23v0A11.29,11.29,0,0,0,99,46.69Z"/><polygon class="cls-4" points="82.33 61 74.77 61 69.1 75.18 75.71 75.18 71.93 91.24 88 70.45 78.55 70.45 82.33 61"/></svg>