<svg id="Layer_1" data-name="Layer 1" xmlns="http://www.w3.org/2000/svg" viewBox="0 0 100 100"><defs><style>.cls-1{fill:#0061aa;}.cls-2{fill:#48484a;}.cls-3{fill:#c9c9c9;}</style></defs><path class="cls-1" d="M24,68.17a3,3,0,0,1-6,0c0-1.66,3-5.2,3-5.2S24,66.51,24,68.17Z"/><path class="cls-1" d="M34,73.17a3,3,0,0,1-6,0c0-1.66,3-5.2,3-5.2S34,71.51,34,73.17Z"/><path class="cls-1" d="M53,73.17a3,3,0,0,1-6,0c0-1.66,3-5.2,3-5.2S53,71.51,53,73.17Z"/><path class="cls-1" d="M43,68.17a3,3,0,0,1-6,0c0-1.66,3-5.2,3-5.2S43,66.51,43,68.17Z"/><path class="cls-1" d="M62,68.17a3,3,0,0,1-6,0c0-1.66,3-5.2,3-5.2S62,66.51,62,68.17Z"/><path class="cls-1" d="M72,73.17a3,3,0,1,1-6,0c0-1.66,3-5.2,3-5.2S72,71.51,72,73.17Z"/><path class="cls-1" d="M81,68.17a3,3,0,1,1-6,0c0-1.66,3-5.2,3-5.2S81,66.51,81,68.17Z"/><path class="cls-2" d="M99.89,32.72a8.28,8.28,0,0,0-8.28-8.28c-.21,0-.41,0-.62,0a11.67,11.67,0,0,0,1-4.76,11.83,11.83,0,0,0-19.39-9.1c-.06-.16-.12-.31-.19-.47A16.94,16.94,0,0,0,40,17.34h0A11.83,11.83,0,0,0,40,41H92v0A8.28,8.28,0,0,0,99.89,32.72Z"/><path class="cls-3" d="M99,46.69A11.31,11.31,0,0,0,87.69,35.38c-.28,0-.55,0-.83,0A16.15,16.15,0,0,0,61.75,16.5c-.08-.21-.16-.43-.26-.64a23.13,23.13,0,0,0-44.31,9.83h0a16.16,16.16,0,0,0,0,32.31H88.23v0A11.29,11.29,0,0,0,99,46.69Z"/></svg>