<svg id="Layer_1" data-name="Layer 1" xmlns="http://www.w3.org/2000/svg" viewBox="0 0 100 100"><defs><style>.cls-1{fill:#c9c9c9;}.cls-2{fill:#0061aa;}</style></defs><path class="cls-1" d="M99,45.69A11.31,11.31,0,0,0,87.69,34.38c-.28,0-.55,0-.83,0A16.15,16.15,0,0,0,61.75,15.5c-.08-.21-.16-.43-.26-.64a23.13,23.13,0,0,0-44.31,9.83h0a16.16,16.16,0,0,0,0,32.31H88.23v0A11.29,11.29,0,0,0,99,45.69Z"/><path class="cls-2" d="M43,68.17a3,3,0,0,1-6,0c0-1.66,3-5.2,3-5.2S43,66.51,43,68.17Z"/><path class="cls-2" d="M53,73.17a3,3,0,0,1-6,0c0-1.66,3-5.2,3-5.2S53,71.51,53,73.17Z"/><path class="cls-2" d="M62,68.17a3,3,0,0,1-6,0c0-1.66,3-5.2,3-5.2S62,66.51,62,68.17Z"/></svg>