<svg id="Layer_1" data-name="Layer 1" xmlns="http://www.w3.org/2000/svg" viewBox="0 0 100 100"><defs><style>.cls-1{fill:#c9c9c9;}.cls-2{fill:#0061aa;}</style></defs><path class="cls-1" d="M99,45.69A11.31,11.31,0,0,0,87.69,34.38c-.28,0-.55,0-.83,0A16.15,16.15,0,0,0,61.75,15.5c-.08-.21-.16-.43-.26-.64a23.13,23.13,0,0,0-44.31,9.83h0a16.16,16.16,0,0,0,0,32.31H88.23v0A11.29,11.29,0,0,0,99,45.69Z"/><path class="cls-2" d="M71.82,73.85c1.56,3.48,1.8,6.76.54,7.32s-3.55-1.79-5.11-5.27S64.64,64,64.64,64,70.26,70.37,71.82,73.85Z"/><path class="cls-2" d="M54.82,73.85c1.56,3.48,1.8,6.76.54,7.32s-3.55-1.79-5.11-5.27S47.64,64,47.64,64,53.26,70.37,54.82,73.85Z"/><path class="cls-2" d="M36.82,73.85c1.56,3.48,1.8,6.76.54,7.32s-3.55-1.79-5.11-5.27S29.64,64,29.64,64,35.26,70.37,36.82,73.85Z"/></svg>