<svg id="Layer_1" data-name="Layer 1" xmlns="http://www.w3.org/2000/svg" viewBox="0 0 100 100"><defs><style>.cls-1{fill:#0061aa;}.cls-2{fill:#48484a;}.cls-3{fill:#c9c9c9;}</style></defs><path class="cls-1" d="M33.34,77.38,30.08,75.5,33,75a1.06,1.06,0,0,0,.78-1.21A1,1,0,0,0,32.61,73l-4.17,1.52-4-2,4-2L32.61,72a1,1,0,0,0,1.16-.75A1,1,0,0,0,33,70l-2.91-.51,3.26-1.88a1,1,0,0,0,.33-1.37,1,1,0,0,0-1.35-.39l-3.25,1.88,1-2.78a1,1,0,0,0-.65-1.28,1,1,0,0,0-1.23.63l-.77,4.38-3.54,2V66.64l3.4-2.86a1,1,0,0,0-.08-1.38,1,1,0,0,0-1.43.07l-1.89,2.27V61a1,1,0,0,0-2,0v3.76L20,62.47a1,1,0,0,0-1.43-.07,1,1,0,0,0-.08,1.38l3.4,2.86v4.1l-3.54-2-.77-4.38a1,1,0,0,0-1.23-.63A1.06,1.06,0,0,0,15.66,65l1,2.78-3.25-1.88a1,1,0,0,0-1.35.39,1,1,0,0,0,.33,1.37l3.25,1.88-2.9.51A1,1,0,0,0,12,71.22a.94.94,0,0,0,1.15.75l4.18-1.52,4,2-4,2L13.13,73a.94.94,0,0,0-1.15.75A1,1,0,0,0,12.76,75l2.9.51-3.25,1.88a1,1,0,0,0-.33,1.37,1,1,0,0,0,1.35.39l3.25-1.88-1,2.78a1,1,0,0,0,.1.81,1.09,1.09,0,0,0,.56.47,1,1,0,0,0,1.23-.63l.77-4.38,3.54-2v4.1l-3.4,2.86a1,1,0,0,0,.08,1.38A1,1,0,0,0,20,82.53l1.89-2.27V84a1,1,0,0,0,2,0V80.26l1.89,2.27a1,1,0,0,0,.75.32,1,1,0,0,0,.68-.25,1,1,0,0,0,.08-1.38l-3.4-2.86v-4.1l3.54,2,.77,4.38a1,1,0,0,0,1.23.63A1,1,0,0,0,30.08,80l-1-2.78,3.25,1.88a1,1,0,0,0,1.35-.39A1,1,0,0,0,33.34,77.38Z"/><path class="cls-1" d="M88.34,77.38,85.08,75.5,88,75a1.06,1.06,0,0,0,.78-1.21A1,1,0,0,0,87.61,73l-4.17,1.52-4-2,4-2L87.61,72a1,1,0,0,0,1.16-.75A1,1,0,0,0,88,70l-2.91-.51,3.26-1.88a1,1,0,0,0,.33-1.37,1,1,0,0,0-1.35-.39l-3.25,1.88,1-2.78a1,1,0,0,0-.65-1.28,1,1,0,0,0-1.23.63l-.77,4.38-3.54,2V66.64l3.4-2.86a1,1,0,0,0-.08-1.38,1,1,0,0,0-1.43.07l-1.89,2.27V61a1,1,0,0,0-2,0v3.76L75,62.47a1,1,0,0,0-1.43-.07,1,1,0,0,0-.08,1.38l3.4,2.86v4.1l-3.54-2-.77-4.38a1,1,0,0,0-1.23-.63A1.06,1.06,0,0,0,70.66,65l1,2.78-3.25-1.88a1,1,0,0,0-1.35.39,1,1,0,0,0,.33,1.37l3.25,1.88-2.9.51A1,1,0,0,0,67,71.22a.94.94,0,0,0,1.15.75l4.18-1.52,4,2-4,2L68.13,73a.94.94,0,0,0-1.15.75A1,1,0,0,0,67.76,75l2.9.51-3.25,1.88a1,1,0,0,0-.33,1.37,1,1,0,0,0,1.35.39l3.25-1.88-1,2.78a1,1,0,0,0,.1.81,1.09,1.09,0,0,0,.56.47,1,1,0,0,0,1.23-.63l.77-4.38,3.54-2v4.1l-3.4,2.86a1,1,0,0,0,.08,1.38A1,1,0,0,0,75,82.53l1.89-2.27V84a1,1,0,0,0,2,0V80.26l1.89,2.27a1,1,0,0,0,.75.32,1,1,0,0,0,.68-.25,1,1,0,0,0,.08-1.38l-3.4-2.86v-4.1l3.54,2,.77,4.38a1,1,0,0,0,1.23.63A1,1,0,0,0,85.08,80l-1-2.78,3.25,1.88a1,1,0,0,0,1.35-.39A1,1,0,0,0,88.34,77.38Z"/><path class="cls-1" d="M61.34,86.38,58.08,84.5,61,84a1.06,1.06,0,0,0,.78-1.21A1,1,0,0,0,60.61,82l-4.17,1.52-4-2,4-2L60.61,81a1,1,0,0,0,1.16-.75A1,1,0,0,0,61,79l-2.91-.51,3.26-1.88a1,1,0,0,0,.33-1.37,1,1,0,0,0-1.35-.39l-3.25,1.88,1-2.78a1,1,0,0,0-.65-1.28,1,1,0,0,0-1.23.63l-.77,4.38-3.54,2V75.64l3.4-2.86a1,1,0,0,0-.08-1.38,1,1,0,0,0-1.43.07l-1.89,2.27V70a1,1,0,0,0-2,0v3.76L48,71.47a1,1,0,0,0-1.43-.07,1,1,0,0,0-.08,1.38l3.4,2.86v4.1l-3.54-2-.77-4.38a1,1,0,0,0-1.23-.63A1.06,1.06,0,0,0,43.66,74l1,2.78-3.25-1.88a1,1,0,0,0-1.35.39,1,1,0,0,0,.33,1.37l3.25,1.88-2.9.51A1,1,0,0,0,40,80.22a.94.94,0,0,0,1.15.75l4.18-1.52,4,2-4,2L41.13,82a.94.94,0,0,0-1.15.75A1,1,0,0,0,40.76,84l2.9.51-3.25,1.88a1,1,0,0,0-.33,1.37,1,1,0,0,0,1.35.39l3.25-1.88-1,2.78a1,1,0,0,0,.1.81,1.09,1.09,0,0,0,.56.47,1,1,0,0,0,1.23-.63l.77-4.38,3.54-2v4.1l-3.4,2.86a1,1,0,0,0,.08,1.38A1,1,0,0,0,48,91.53l1.89-2.27V93a1,1,0,0,0,2,0V89.26l1.89,2.27a1,1,0,0,0,.75.32,1,1,0,0,0,.68-.25,1,1,0,0,0,.08-1.38l-3.4-2.86v-4.1l3.54,2,.77,4.38a1,1,0,0,0,1.23.63A1,1,0,0,0,58.08,89l-1-2.78,3.25,1.88a1,1,0,0,0,1.35-.39A1,1,0,0,0,61.34,86.38Z"/><path class="cls-2" d="M99.89,32.72a8.28,8.28,0,0,0-8.28-8.28c-.21,0-.41,0-.62,0a11.67,11.67,0,0,0,1-4.76,11.83,11.83,0,0,0-19.39-9.1c-.06-.16-.12-.31-.19-.47A16.94,16.94,0,0,0,40,17.34h0A11.83,11.83,0,0,0,40,41H92v0A8.28,8.28,0,0,0,99.89,32.72Z"/><path class="cls-3" d="M99,46.69A11.31,11.31,0,0,0,87.69,35.38c-.28,0-.55,0-.83,0A16.15,16.15,0,0,0,61.75,16.5c-.08-.21-.16-.43-.26-.64a23.13,23.13,0,0,0-44.31,9.83h0a16.16,16.16,0,0,0,0,32.31H88.23v0A11.29,11.29,0,0,0,99,46.69Z"/></svg>