<svg id="Layer_1" data-name="Layer 1" xmlns="http://www.w3.org/2000/svg" viewBox="0 0 100 100"><defs><style>.cls-1{fill:#c9c9c9;}.cls-2{fill:#0061aa;}</style></defs><path class="cls-1" d="M99,45.69A11.31,11.31,0,0,0,87.69,34.38c-.28,0-.55,0-.83,0A16.15,16.15,0,0,0,61.75,15.5c-.08-.21-.16-.43-.26-.64a23.13,23.13,0,0,0-44.31,9.83h0a16.16,16.16,0,0,0,0,32.31H88.23v0A11.29,11.29,0,0,0,99,45.69Z"/><path class="cls-2" d="M36.82,73.85C38.38,77.33,40,86,40,86s-6.19-6.62-7.75-10.1S29.64,64,29.64,64,35.26,70.37,36.82,73.85Z"/><path class="cls-2" d="M55.82,73.85C57.38,77.33,59,86,59,86s-6.19-6.62-7.75-10.1S48.64,64,48.64,64,54.26,70.37,55.82,73.85Z"/><path class="cls-2" d="M73.82,73.85C75.38,77.33,77,86,77,86s-6.19-6.62-7.75-10.1S66.64,64,66.64,64,72.26,70.37,73.82,73.85Z"/></svg>