<svg id="Layer_1" data-name="Layer 1" xmlns="http://www.w3.org/2000/svg" viewBox="0 0 100 100"><defs><style>.cls-1{fill:#c9c9c9;}</style></defs><path class="cls-1" d="M68,10c0,1.1-2.25,2-5,2H34c-2.75,0-5-.9-5-2s2.25-2,5-2H63C65.75,8,68,8.9,68,10Z"/><path class="cls-1" d="M60,18c0,1.1-2.25,2-5,2H14c-2.75,0-5-.9-5-2s2.25-2,5-2H55C57.75,16,60,16.9,60,18Z"/><path class="cls-1" d="M94,26c0,1.1-2.25,2-5,2H35c-2.75,0-5-.9-5-2s2.25-2,5-2H89C91.75,24,94,24.9,94,26Z"/><path class="cls-1" d="M68,74c0,1.1-2.25,2-5,2H34c-2.75,0-5-.9-5-2s2.25-2,5-2H63C65.75,72,68,72.9,68,74Z"/><path class="cls-1" d="M60,82c0,1.1-2.25,2-5,2H14c-2.75,0-5-.9-5-2s2.25-2,5-2H55C57.75,80,60,80.9,60,82Z"/><path class="cls-1" d="M94,90c0,1.1-2.25,2-5,2H35c-2.75,0-5-.9-5-2s2.25-2,5-2H89C91.75,88,94,88.9,94,90Z"/><path class="cls-1" d="M82,34c0,1.1-2.25,2-5,2H23c-2.75,0-5-.9-5-2s2.25-2,5-2H77C79.75,32,82,32.9,82,34Z"/><path class="cls-1" d="M75,42c0,1.1-2.25,2-5,2H19c-2.75,0-5-.9-5-2s2.25-2,5-2H70C72.75,40,75,40.9,75,42Z"/><path class="cls-1" d="M79,50c0,1.1-2.25,2-5,2H41c-2.75,0-5-.9-5-2s2.25-2,5-2H74C76.75,48,79,48.9,79,50Z"/><path class="cls-1" d="M92,58c0,1.1-2.25,2-5,2H23c-2.75,0-5-.9-5-2s2.25-2,5-2H87C89.75,56,92,56.9,92,58Z"/><path class="cls-1" d="M67,66c0,1.1-2.25,2-5,2H39c-2.75,0-5-.9-5-2s2.25-2,5-2H62C64.75,64,67,64.9,67,66Z"/></svg>