<svg id="Layer_1" data-name="Layer 1" xmlns="http://www.w3.org/2000/svg" viewBox="0 0 100 100"><defs><style>.cls-1{fill:#c9c9c9;}</style></defs><path class="cls-1" d="M54.5,99a1.42,1.42,0,0,1-.74-.2l-7-4a1.49,1.49,0,0,1,.07-2.64l5.32-2.66-5.32-2.66A1.5,1.5,0,0,1,46,85.56a1.52,1.52,0,0,1,.73-1.35L54,79.83l-8-2.92a1.5,1.5,0,0,1,.07-2.84l8.88-2.74L41,65.9A1.5,1.5,0,0,1,41.5,63h14L40,56.9A1.5,1.5,0,0,1,40.5,54H59.71L31.94,42.89A1.5,1.5,0,0,1,31,41.25,1.51,1.51,0,0,1,32.42,40L61.2,38.53,26.14,30A1.5,1.5,0,0,1,25,28.35,1.49,1.49,0,0,1,26.44,27l37.64-1.45L22.75,18.48a1.5,1.5,0,0,1,.25-3H66.62l-51.88-9a1.5,1.5,0,0,1,.26-3H91a1.5,1.5,0,0,1,0,3H32.38l51.88,9a1.5,1.5,0,0,1-.26,3H40.65L78.75,25a1.5,1.5,0,0,1-.19,3l-41.3,1.59L71.86,38a1.5,1.5,0,0,1-.28,3L39.41,42.65,68.06,54.11A1.5,1.5,0,0,1,67.5,57h-19l15.6,6.1A1.5,1.5,0,0,1,63.5,66h-14L60,70.1a1.5,1.5,0,0,1,1,1.45,1.49,1.49,0,0,1-1.06,1.38l-8.73,2.69L58,78.09a1.5,1.5,0,0,1,.26,2.7l-7.66,4.59,5.56,2.78a1.5,1.5,0,0,1,0,2.68l-5.49,2.75,4.56,2.61A1.5,1.5,0,0,1,54.5,99Z"/></svg>