<svg id="Layer_1" data-name="Layer 1" xmlns="http://www.w3.org/2000/svg" viewBox="0 0 100 100"><defs><style>.cls-1{fill:#ffde6a;}</style></defs><circle class="cls-1" cx="50" cy="50" r="18"/><path class="cls-1" d="M77.58,23.84c1.94-1.95,3.37-3.7,3.18-3.89l-.71-.71c-.19-.19-1.94,1.24-3.89,3.18L68.38,30.2c-1.94,1.95-3.21,3.85-2.82,4.24s2.29-.88,4.24-2.82Z"/><path class="cls-1" d="M77.58,23.84c1.94-1.95,3.37-3.7,3.18-3.89l-.71-.71c-.19-.19-1.94,1.24-3.89,3.18L68.38,30.2c-1.94,1.95-3.21,3.85-2.82,4.24s2.29-.88,4.24-2.82Z"/><path class="cls-1" d="M31.62,69.8c1.94-2,3.37-3.7,3.18-3.89l-.71-.71c-.19-.19-1.94,1.24-3.89,3.18l-7.78,7.78c-1.94,2-3.21,3.86-2.83,4.25s2.3-.89,4.25-2.83Z"/><path class="cls-1" d="M76.16,77.58c2,1.94,3.7,3.37,3.89,3.18l.71-.71c.19-.19-1.24-1.94-3.18-3.89L69.8,68.38c-2-1.94-3.85-3.21-4.24-2.82s.88,2.29,2.82,4.24Z"/><path class="cls-1" d="M30.2,31.62c1.95,1.94,3.7,3.37,3.89,3.18l.71-.71c.19-.19-1.24-1.94-3.18-3.89l-7.78-7.78c-1.95-1.94-3.86-3.21-4.25-2.83s.89,2.3,2.83,4.25Z"/><path class="cls-1" d="M88,51c2.75,0,5-.23,5-.5v-1c0-.27-2.25-.5-5-.5H77c-2.75,0-5,.45-5,1s2.25,1,5,1Z"/><path class="cls-1" d="M23,51c2.75,0,5-.23,5-.5v-1c0-.27-2.25-.5-5-.5H12c-2.75,0-5,.45-5,1s2.25,1,5,1Z"/><path class="cls-1" d="M49,88c0,2.75.23,5,.5,5h1c.27,0,.5-2.25.5-5V77c0-2.75-.45-5-1-5s-1,2.25-1,5Z"/><path class="cls-1" d="M49,23c0,2.75.23,5,.5,5h1c.27,0,.5-2.25.5-5V12c0-2.75-.45-5-1-5s-1,2.25-1,5Z"/></svg>