<svg id="Layer_1" data-name="Layer 1" xmlns="http://www.w3.org/2000/svg" viewBox="0 0 100 100"><defs><style>.cls-1{fill:#c9c9c9;}.cls-2{fill:#0061aa;}.cls-3{fill:#ffde6a;}</style></defs><path class="cls-1" d="M98.77,45.69A11.31,11.31,0,0,0,87.46,34.38c-.28,0-.56,0-.83,0A16.15,16.15,0,0,0,61.52,15.5c-.08-.21-.17-.43-.26-.64A23.13,23.13,0,0,0,17,24.69h0a16.16,16.16,0,0,0,0,32.31H88v0A11.29,11.29,0,0,0,98.77,45.69Z"/><path class="cls-2" d="M35.77,72.67a5.5,5.5,0,0,1-11,0c0-3,5.5-9.54,5.5-9.54S35.77,69.63,35.77,72.67Z"/><path class="cls-2" d="M51.77,81.67a5.5,5.5,0,0,1-11,0c0-3,5.5-9.54,5.5-9.54S51.77,78.63,51.77,81.67Z"/><polygon class="cls-3" points="74.33 61 66.77 61 61.1 75.18 67.71 75.18 63.93 91.24 80 70.45 70.55 70.45 74.33 61"/></svg>