<svg id="Layer_1" data-name="Layer 1" xmlns="http://www.w3.org/2000/svg" viewBox="0 0 100 100"><defs><style>.cls-1{fill:#c9c9c9;}.cls-2{fill:#ffde6a;}</style></defs><path class="cls-1" d="M98.77,45.69A11.31,11.31,0,0,0,87.46,34.38c-.28,0-.56,0-.83,0A16.15,16.15,0,0,0,61.52,15.5c-.08-.21-.17-.43-.26-.64A23.13,23.13,0,0,0,17,24.69h0a16.16,16.16,0,0,0,0,32.31H88v0A11.29,11.29,0,0,0,98.77,45.69Z"/><polygon class="cls-2" points="55.33 61 47.77 61 42.1 75.18 48.71 75.18 44.93 91.24 61 70.45 51.55 70.45 55.33 61"/></svg>