<svg id="Layer_1" data-name="Layer 1" xmlns="http://www.w3.org/2000/svg" viewBox="0 0 100 100"><defs><style>.cls-1{fill:#48484a;}.cls-2{fill:#c9c9c9;}.cls-3{fill:#ffde6a;}</style></defs><path class="cls-1" d="M99.89,32.72a8.28,8.28,0,0,0-8.28-8.28c-.21,0-.41,0-.62,0a11.67,11.67,0,0,0,1-4.76,11.83,11.83,0,0,0-19.39-9.1c-.06-.16-.12-.31-.19-.47A16.94,16.94,0,0,0,40,17.34h0A11.83,11.83,0,0,0,40,41H92v0A8.28,8.28,0,0,0,99.89,32.72Z"/><path class="cls-2" d="M99,46.69A11.31,11.31,0,0,0,87.69,35.38c-.28,0-.55,0-.83,0A16.15,16.15,0,0,0,61.75,16.5c-.08-.21-.16-.43-.26-.64a23.13,23.13,0,0,0-44.31,9.83h0a16.16,16.16,0,0,0,0,32.31H88.23v0A11.29,11.29,0,0,0,99,46.69Z"/><polygon class="cls-3" points="24.33 61 16.77 61 11.1 75.18 17.71 75.18 13.93 91.24 30 70.45 20.55 70.45 24.33 61"/><polygon class="cls-3" points="54.33 61 46.77 61 41.1 75.18 47.71 75.18 43.93 91.24 60 70.45 50.55 70.45 54.33 61"/><polygon class="cls-3" points="82.33 61 74.77 61 69.1 75.18 75.71 75.18 71.93 91.24 88 70.45 78.55 70.45 82.33 61"/></svg>