<svg id="Layer_1" data-name="Layer 1" xmlns="http://www.w3.org/2000/svg" viewBox="0 0 100 100"><defs><style>.cls-1{fill:#0061aa;}.cls-2{fill:#48484a;}.cls-3{fill:#c9c9c9;}</style></defs><path class="cls-1" d="M36.82,73.85C38.38,77.33,40,86,40,86s-6.19-6.62-7.75-10.1S29.64,64,29.64,64,35.26,70.37,36.82,73.85Z"/><path class="cls-1" d="M55.82,73.85C57.38,77.33,59,86,59,86s-6.19-6.62-7.75-10.1S48.64,64,48.64,64,54.26,70.37,55.82,73.85Z"/><path class="cls-1" d="M73.82,73.85C75.38,77.33,77,86,77,86s-6.19-6.62-7.75-10.1S66.64,64,66.64,64,72.26,70.37,73.82,73.85Z"/><path class="cls-2" d="M99.89,32.72a8.28,8.28,0,0,0-8.28-8.28c-.21,0-.41,0-.62,0a11.67,11.67,0,0,0,1-4.76,11.83,11.83,0,0,0-19.39-9.1c-.06-.16-.12-.31-.19-.47A16.94,16.94,0,0,0,40,17.34h0A11.83,11.83,0,0,0,40,41H92v0A8.28,8.28,0,0,0,99.89,32.72Z"/><path class="cls-3" d="M99,46.69A11.31,11.31,0,0,0,87.69,35.38c-.28,0-.55,0-.83,0A16.15,16.15,0,0,0,61.75,16.5c-.08-.21-.16-.43-.26-.64a23.13,23.13,0,0,0-44.31,9.83h0a16.16,16.16,0,0,0,0,32.31H88.23v0A11.29,11.29,0,0,0,99,46.69Z"/></svg>