<svg id="Layer_1" data-name="Layer 1" xmlns="http://www.w3.org/2000/svg" viewBox="0 0 100 100"><defs><style>.cls-1{fill:#0061aa;}.cls-2{fill:#c9c9c9;}</style></defs><path class="cls-1" d="M33,72.67a5.5,5.5,0,0,1-11,0c0-3,5.5-9.54,5.5-9.54S33,69.63,33,72.67Z"/><path class="cls-1" d="M60.34,78.38,57.08,76.5,60,76a1.06,1.06,0,0,0,.78-1.21A1,1,0,0,0,59.61,74l-4.17,1.52-4-2,4-2L59.61,73a1,1,0,0,0,1.16-.75A1,1,0,0,0,60,71l-2.91-.51,3.26-1.88a1,1,0,0,0,.33-1.37,1,1,0,0,0-1.35-.39l-3.25,1.88,1-2.78a1,1,0,0,0-.65-1.28,1,1,0,0,0-1.23.63l-.77,4.38-3.54,2V67.64l3.4-2.86a1,1,0,0,0-.08-1.38,1,1,0,0,0-1.43.07l-1.89,2.27V62a1,1,0,0,0-2,0v3.76L47,63.47a1,1,0,0,0-1.43-.07,1,1,0,0,0-.08,1.38l3.4,2.86v4.1l-3.54-2-.77-4.38a1,1,0,0,0-1.23-.63A1.06,1.06,0,0,0,42.66,66l1,2.78-3.25-1.88a1,1,0,0,0-1.35.39,1,1,0,0,0,.33,1.37l3.25,1.88-2.9.51A1,1,0,0,0,39,72.22a.94.94,0,0,0,1.15.75l4.18-1.52,4,2-4,2L40.13,74a.94.94,0,0,0-1.15.75A1,1,0,0,0,39.76,76l2.9.51-3.25,1.88a1,1,0,0,0-.33,1.37,1,1,0,0,0,1.35.39l3.25-1.88-1,2.78a1,1,0,0,0,.1.81,1.09,1.09,0,0,0,.56.47,1,1,0,0,0,1.23-.63l.77-4.38,3.54-2v4.1l-3.4,2.86a1,1,0,0,0,.08,1.38A1,1,0,0,0,47,83.53l1.89-2.27V85a1,1,0,0,0,2,0V81.26l1.89,2.27a1,1,0,0,0,.75.32,1,1,0,0,0,.68-.25,1,1,0,0,0,.08-1.38l-3.4-2.86v-4.1l3.54,2,.77,4.38a1,1,0,0,0,1.23.63A1,1,0,0,0,57.08,81l-1-2.78,3.25,1.88a1,1,0,0,0,1.35-.39A1,1,0,0,0,60.34,78.38Z"/><path class="cls-1" d="M77,72.67a5.5,5.5,0,1,1-11,0c0-3,5.5-9.54,5.5-9.54S77,69.63,77,72.67Z"/><path class="cls-2" d="M99,45.69A11.31,11.31,0,0,0,87.69,34.38c-.28,0-.55,0-.83,0A16.15,16.15,0,0,0,61.75,15.5c-.08-.21-.16-.43-.26-.64a23.13,23.13,0,0,0-44.31,9.83h0a16.16,16.16,0,0,0,0,32.31H88.23v0A11.29,11.29,0,0,0,99,45.69Z"/></svg>