<svg id="Layer_1" data-name="Layer 1" xmlns="http://www.w3.org/2000/svg" viewBox="0 0 100 100"><defs><style>.cls-1{fill:#c9c9c9;}</style></defs><path class="cls-1" d="M22.22,43.17a8.16,8.16,0,0,0,8.17,8.16q.3,0,.6,0A11.67,11.67,0,0,0,49.12,65c.06.15.12.31.19.46a16.71,16.71,0,0,0,32-7.1h0a11.67,11.67,0,0,0,0-23.33H30v0A8.16,8.16,0,0,0,22.22,43.17Z"/><path class="cls-1" d="M92.78,41.83a8.16,8.16,0,0,0-8.17-8.16q-.3,0-.6,0A11.67,11.67,0,0,0,65.88,20c-.06-.15-.12-.31-.19-.46a16.71,16.71,0,0,0-32,7.1h0a11.67,11.67,0,0,0,0,23.33H85v0A8.16,8.16,0,0,0,92.78,41.83Z"/><path class="cls-1" d="M12.13,62.9a5,5,0,0,0,4.95,4.95l.36,0a7.06,7.06,0,0,0,6.47,9.91,7,7,0,0,0,4.51-1.63l.12.28a10.12,10.12,0,0,0,19.38-4.3h0a7.07,7.07,0,1,0,0-14.13H16.84A4.94,4.94,0,0,0,12.13,62.9Z"/><path class="cls-1" d="M54.87,62.1a5,5,0,0,0-4.95-5l-.36,0a7.06,7.06,0,0,0-6.47-9.91,7,7,0,0,0-4.51,1.63l-.12-.28a10.12,10.12,0,0,0-19.38,4.3h0a7.07,7.07,0,1,0,0,14.13H50.16A4.94,4.94,0,0,0,54.87,62.1Z"/><path class="cls-1" d="M8.08,77.73A2.87,2.87,0,0,0,11,80.61h.21a4.1,4.1,0,0,0,3.76,5.76,4.06,4.06,0,0,0,2.63-1,1.22,1.22,0,0,0,.07.17,5.88,5.88,0,0,0,11.26-2.51h0a4.11,4.11,0,0,0,0-8.22H10.81A2.86,2.86,0,0,0,8.08,77.73Z"/><path class="cls-1" d="M32.92,77.27a2.87,2.87,0,0,0-2.87-2.88h-.21a4.1,4.1,0,0,0-3.76-5.76,4.06,4.06,0,0,0-2.63,1,1.22,1.22,0,0,0-.07-.17,5.88,5.88,0,0,0-11.26,2.51h0a4.11,4.11,0,0,0,0,8.22H30.19A2.86,2.86,0,0,0,32.92,77.27Z"/><path class="cls-1" d="M4.08,86.73A2.87,2.87,0,0,0,7,89.61h.21a4.1,4.1,0,0,0,3.76,5.76,4.06,4.06,0,0,0,2.63-1,1.22,1.22,0,0,0,.07.17,5.88,5.88,0,0,0,11.26-2.51h0a4.11,4.11,0,0,0,0-8.22H6.81A2.86,2.86,0,0,0,4.08,86.73Z"/><path class="cls-1" d="M28.92,86.27a2.87,2.87,0,0,0-2.87-2.88h-.21a4.1,4.1,0,0,0-3.76-5.76,4.06,4.06,0,0,0-2.63,1,1.22,1.22,0,0,0-.07-.17A5.88,5.88,0,0,0,8.12,80.93h0a4.11,4.11,0,0,0,0,8.22H26.19A2.86,2.86,0,0,0,28.92,86.27Z"/></svg>