<svg id="Layer_1" data-name="Layer 1" xmlns="http://www.w3.org/2000/svg" viewBox="0 0 100 100"><defs><style>.cls-1{fill:#ffde6a;}.cls-2{fill:#c9c9c9;}</style></defs><circle class="cls-1" cx="32" cy="31" r="14"/><path class="cls-1" d="M49.45,14.51c1.94-1.95,3.43-3.65,3.29-3.78l-.47-.47c-.13-.14-1.83,1.35-3.78,3.29L45.55,16.5c-1.94,1.94-3.32,3.75-3.06,4s2.07-1.12,4-3.06Z"/><path class="cls-1" d="M49.45,14.51c1.94-1.95,3.43-3.65,3.29-3.78l-.47-.47c-.13-.14-1.83,1.35-3.78,3.29L45.55,16.5c-1.94,1.94-3.32,3.75-3.06,4s2.07-1.12,4-3.06Z"/><path class="cls-1" d="M18.45,45.5c1.94-1.94,3.43-3.64,3.3-3.77l-.48-.48c-.13-.13-1.83,1.36-3.77,3.3l-2.95,2.94c-1.94,1.95-3.32,3.75-3.06,4s2.07-1.12,4-3.06Z"/><path class="cls-1" d="M17.5,17.45c1.94,1.94,3.64,3.43,3.77,3.3l.48-.48c.13-.13-1.36-1.83-3.3-3.77l-2.94-2.95c-1.95-1.94-3.75-3.32-4-3.06s1.12,2.07,3.06,4Z"/><path class="cls-1" d="M56,31.67c2.75,0,5-.15,5-.33v-.68c0-.18-2.25-.33-5-.33H51.84c-2.75,0-5,.3-5,.67s2.25.67,5,.67Z"/><path class="cls-1" d="M12.16,31.67c2.75,0,5-.15,5-.33v-.68c0-.18-2.25-.33-5-.33H8c-2.75,0-5,.3-5,.67s2.25.67,5,.67Z"/><path class="cls-1" d="M31.33,55c0,2.75.15,5,.33,5h.68c.18,0,.33-2.25.33-5V50.84c0-2.75-.3-5-.67-5s-.67,2.25-.67,5Z"/><path class="cls-1" d="M31.33,11.16c0,2.75.15,5,.33,5h.68c.18,0,.33-2.25.33-5V7c0-2.75-.3-5-.67-5s-.67,2.25-.67,5Z"/><path class="cls-2" d="M99,69.54a9.45,9.45,0,0,0-9.46-9.46c-.24,0-.47,0-.7,0A13.32,13.32,0,0,0,90,54.67,13.5,13.5,0,0,0,67.84,44.28c-.08-.18-.15-.36-.22-.54A19.36,19.36,0,0,0,30.54,52h0a13.52,13.52,0,1,0,0,27H90v0A9.45,9.45,0,0,0,99,69.54Z"/></svg>