<svg id="Layer_1" data-name="Layer 1" xmlns="http://www.w3.org/2000/svg" viewBox="0 0 100 100"><defs><style>.cls-1{fill:#ffde6a;}.cls-2{fill:#c9c9c9;}</style></defs><circle class="cls-1" cx="30.5" cy="30.5" r="12.31"/><path class="cls-1" d="M45.42,16.42a21.37,21.37,0,0,0,3.32-3.74l-.42-.42a21.37,21.37,0,0,0-3.74,3.32l-1.74,1.74c-1.94,1.94-3.35,3.72-3.11,3.95s2-1.17,4-3.11Z"/><path class="cls-1" d="M45.42,16.42a21.37,21.37,0,0,0,3.32-3.74l-.42-.42a21.37,21.37,0,0,0-3.74,3.32l-1.74,1.74c-1.94,1.94-3.35,3.72-3.11,3.95s2-1.17,4-3.11Z"/><path class="cls-1" d="M18.16,43.68c1.94-1.94,3.44-3.63,3.32-3.75l-.41-.41c-.12-.12-1.81,1.38-3.75,3.32l-1.74,1.74c-1.94,1.94-3.34,3.72-3.11,4s2-1.17,4-3.11Z"/><path class="cls-1" d="M17.32,18.16c1.94,1.94,3.63,3.44,3.75,3.32l.41-.41c.12-.12-1.38-1.81-3.32-3.75l-1.74-1.74c-1.94-1.94-3.72-3.34-4-3.11s1.17,2,3.11,4Z"/><path class="cls-1" d="M51,31.09a21.9,21.9,0,0,0,5-.29v-.6a21.9,21.9,0,0,0-5-.29H48.55c-2.75,0-5,.26-5,.59s2.25.59,5,.59Z"/><path class="cls-1" d="M12.45,31.09a21.9,21.9,0,0,0,5-.29v-.6a21.9,21.9,0,0,0-5-.29H10c-2.75,0-5,.26-5,.59s2.25.59,5,.59Z"/><path class="cls-1" d="M29.91,51a21.9,21.9,0,0,0,.29,5h.6a21.9,21.9,0,0,0,.29-5V48.55c0-2.75-.26-5-.59-5s-.59,2.25-.59,5Z"/><path class="cls-1" d="M29.91,12.45a21.9,21.9,0,0,0,.29,5h.6a21.9,21.9,0,0,0,.29-5V10c0-2.75-.26-5-.59-5s-.59,2.25-.59,5Z"/><path class="cls-2" d="M99,67.69A11.31,11.31,0,0,0,87.69,56.38c-.28,0-.55,0-.83,0A16.15,16.15,0,0,0,61.75,37.5c-.08-.21-.16-.43-.26-.64a23.13,23.13,0,0,0-44.31,9.83h0a16.16,16.16,0,0,0,0,32.31H88.23v0A11.29,11.29,0,0,0,99,67.69Z"/></svg>