<svg id="Layer_1" data-name="Layer 1" xmlns="http://www.w3.org/2000/svg" viewBox="0 0 820.33 820.33"><defs><style>.cls-1{fill:#5a7936;}.cls-2{fill:none;}.cls-3{font-size:102.73px;fill:#415228;}.cls-3,.cls-6{font-family:Delicious-Heavy, Delicious Heavy;}.cls-4{fill:#648561;}.cls-5{fill:#405229;}.cls-6{font-size:218.43px;fill:#fff;stroke:#415228;stroke-miterlimit:10;stroke-width:6px;}.cls-7{letter-spacing:-0.02em;}.cls-8{letter-spacing:0em;}</style></defs><title>Artboard 1 copy 52</title><path class="cls-1" d="M579.35,622.83c1.19-1,2.38-1.93,3.55-2.91q3.78-3.13,7.45-6.41,7.83-7,15.13-14.52a260.81,260.81,0,0,0,25.69-30.72A272.05,272.05,0,0,0,678.07,455l-34.41-21.3,21.43,61.4-117-106-65.45,43.44,49.81,110.63L383,370l-18,10.42-50.39-48.07L204.6,549l8.11-121-51-16.8-22.13,24.27a250.21,250.21,0,0,0,6.24,37.84A287.91,287.91,0,0,0,159,514.07c.82,2,2,4.73,3.49,8q2.07,4.51,4.3,9,4.72,9.45,10.16,18.52T188.4,567.2c4.4,6.26,7.07,9.74,11.59,15.2,35.75,43.19,82.8,74.13,136,89.18a264.45,264.45,0,0,0,85.42,10q10.77-.42,21.49-1.65l3.19-.38,1-.13c1.82-.26,3.62-.53,5.43-.83,3.37-.54,6.73-1.15,10.08-1.81a283.11,283.11,0,0,0,41.51-11.62A252.39,252.39,0,0,0,541,648.33a280.32,280.32,0,0,0,35.23-23l.32-.25.78-.61Z"/><circle class="cls-2" cx="410.17" cy="410.17" r="284.17"/><text class="cls-3" transform="translate(316.73 787.36)">TYPE</text><path class="cls-4" d="M139.32,431.88c-.18-2.36-.32-4.7-.44-7C139,427.18,139.14,429.52,139.32,431.88Z"/><path class="cls-4" d="M157.69,392.58l60.24,16.21L316.4,306.85l49.81,49.82,17.38-12.75,74.14,84,91.52-56.19,67.19,56.19,27.8-22.59,36.2,32q1.35-13.45,1.39-27.11a286.73,286.73,0,0,0-3-41,282.72,282.72,0,0,0-10-42.17,243.91,243.91,0,0,0-15.31-37.68,284.29,284.29,0,0,0-21.63-36.17c-4.39-6.24-7.07-9.74-11.59-15.2s-9.11-10.61-14-15.65a271.55,271.55,0,0,0-142.45-78.49c-54.37-11.09-114.75-4.5-165.07,18.4a283.73,283.73,0,0,0-37,20.32A244.57,244.57,0,0,0,230,206.82a285.73,285.73,0,0,0-29.15,30.1,265.41,265.41,0,0,0-23.22,32.73,261.84,261.84,0,0,0-31.44,76.14,266.21,266.21,0,0,0-7.6,71.36Z"/><path class="cls-4" d="M678.07,455q1.47-8.79,2.37-17.71Q679.54,446.2,678.07,455Z"/><path class="cls-4" d="M138.83,423.93c-.11-2.27-.2-4.52-.26-6.77C138.63,419.41,138.72,421.66,138.83,423.93Z"/><path class="cls-5" d="M652.38,238.9a300.87,300.87,0,0,0-141-107.64c-57.87-21.25-122.76-23.4-182-6.62A296.87,296.87,0,0,0,156,563.3C186.69,614,232.79,655.55,286.85,680a300.62,300.62,0,0,0,183.07,20.78c58.65-11.83,113.3-42.29,154.6-85.53,41.45-43.39,69.61-99.37,78.64-158.78a313.57,313.57,0,0,0,3.67-46.3C706.68,349.18,687.87,288.61,652.38,238.9ZM605.48,599q-7.29,7.53-15.13,14.52-3.66,3.27-7.45,6.41c-1.17,1-2.36,2-3.55,2.91l-2.05,1.64-.78.61-.32.25a280.32,280.32,0,0,1-35.23,23,252.39,252.39,0,0,1-36.85,16.86,283.11,283.11,0,0,1-41.51,11.62c-3.35.66-6.71,1.27-10.08,1.81-1.81.3-3.61.57-5.43.83l-1,.13-3.19.38q-10.71,1.23-21.49,1.65a264.45,264.45,0,0,1-85.42-10c-53.21-15.05-100.26-46-136-89.18-4.52-5.46-7.19-8.94-11.59-15.2q-6.06-8.61-11.47-17.65T166.77,531q-2.24-4.44-4.3-9c-1.5-3.27-2.67-6-3.49-8a287.91,287.91,0,0,1-13.13-40.85,250.21,250.21,0,0,1-6.24-37.84l22.13-24.27,51,16.8L204.6,549,314.66,332.34l50.39,48.07L383,370,532.45,543.17,482.64,432.54l65.45-43.44,117,106-21.43-61.4L678.07,455a272.05,272.05,0,0,1-46.9,113.27A260.81,260.81,0,0,1,605.48,599Zm75-161.71-36.2-32-27.8,22.59-67.19-56.19-91.52,56.19-74.14-84-17.38,12.75L316.4,306.85,217.93,408.79l-60.24-16.21-19.12,24.57a266.21,266.21,0,0,1,7.6-71.36,261.84,261.84,0,0,1,31.44-76.14,265.41,265.41,0,0,1,23.22-32.73A285.73,285.73,0,0,1,230,206.82a244.57,244.57,0,0,1,31.86-24.31,283.73,283.73,0,0,1,37-20.32c50.32-22.9,110.7-29.49,165.07-18.4a271.55,271.55,0,0,1,142.45,78.49q7.26,7.56,14,15.65c4.52,5.46,7.2,9,11.59,15.2a284.29,284.29,0,0,1,21.63,36.17A243.91,243.91,0,0,1,668.87,327a282.72,282.72,0,0,1,10,42.17,286.73,286.73,0,0,1,3,41Q681.8,423.82,680.44,437.28Z"/><text class="cls-6" transform="translate(100.14 675.48)">SHO<tspan class="cls-7" x="334.2" y="0">R</tspan><tspan class="cls-8" x="440.57" y="0">TN</tspan></text><path class="cls-2" d="M184.91,609.63A305,305,0,0,1,104,402.33C104,233.26,241.1,96.21,410.16,96.21S716.29,233.26,716.29,402.33a305,305,0,0,1-76,201.88"/></svg>