<svg id="Layer_1" data-name="Layer 1" xmlns="http://www.w3.org/2000/svg" xmlns:xlink="http://www.w3.org/1999/xlink" viewBox="0 0 820.33 820.33"><defs><style>.cls-1{fill:none;}.cls-2{clip-path:url(#clip-path);}.cls-3{fill:#648561;}.cls-4{fill:#405229;}.cls-5{font-size:102.73px;fill:#415228;}.cls-5,.cls-7{font-family:Delicious-Heavy, Delicious Heavy;}.cls-6{fill:#5a7936;}.cls-7{font-size:218.43px;fill:#fff;stroke:#415228;stroke-miterlimit:10;stroke-width:6px;}.cls-8{letter-spacing:-0.02em;}.cls-9{letter-spacing:0em;}</style><clipPath id="clip-path"><circle class="cls-1" cx="410.16" cy="410.17" r="284.17"/></clipPath></defs><title>Artboard 1 copy 51</title><g class="cls-2"><path class="cls-3" d="M507.34,383.75c6.53-11.12,0-23.24-4.35-34.36s-39.89-57.59-45-52.54-40.61,42.44-39.89,62.65-4.35,38.39,10.15,36.37,32.64-20.21,36.26-39.4c13.78,33.34,8.7,67.69-11.6,81.84s-62.37,34.35-63.09,72.75c-11.6-30.31-15.23-66.69-6.53-84.88C348.52,467.61,350,509,306.46,510.05c-6.67,9.6-13.47,19.49-19.7,28.58H431.53C456.26,469.35,501.22,394.16,507.34,383.75Z"/><path class="cls-3" d="M143.9,464.49c36.4-49.77,68.62-93.74,73.37-99.94,11.6-15.16,20.3-32.33,34.08-18.19s74,69.72,74,69.72,97.17-111.15,107.33-123.27,23.92-27.28,40.6-11.12,65.27,59.62,65.27,59.62S558.1,326.15,569,318.07s25.38-17.18,41.34,9.09c6.38,10.52,36.46,56.95,70.24,108.88q1.23-12.84,1.27-25.87a286.73,286.73,0,0,0-3-41,282.72,282.72,0,0,0-10-42.17,243.91,243.91,0,0,0-15.31-37.68,284.29,284.29,0,0,0-21.63-36.17c-4.39-6.24-7.07-9.74-11.59-15.2s-9.11-10.61-14-15.65a271.55,271.55,0,0,0-142.45-78.49c-54.37-11.09-114.75-4.5-165.07,18.4a283.73,283.73,0,0,0-37,20.32A244.57,244.57,0,0,0,230,206.82a285.73,285.73,0,0,0-29.15,30.1,265.41,265.41,0,0,0-23.22,32.73,261.84,261.84,0,0,0-31.44,76.14,269.45,269.45,0,0,0-6.85,86.09A246.73,246.73,0,0,0,143.9,464.49Z"/><path class="cls-3" d="M302.11,462.56s-19.58,2-29.73-7.07S260.77,407,236.12,411,206.39,434.31,202,447.42s-10.15,37.37-29,46.46a83,83,0,0,0-17.3,11.77c1.05,2.82,2.12,5.63,3.25,8.42.82,2,2,4.73,3.49,8q2.07,4.51,4.3,9c1.28,2.56,2.61,5.09,4,7.6h91.64C281.37,507,302.11,462.56,302.11,462.56Z"/><path class="cls-3" d="M637.15,441.34c-12.33-6.06-25.38,6.08-25.38,6.08l-4.35,40.4-32.64-29.3L529.1,466.6s25.38-45.47,12.32-45.47S503,437.34,492.84,447.42c-7.73,7.68-28.88,64.47-48.46,91.21H649.54a270.94,270.94,0,0,0,24.32-63.2C659.72,459.81,644.35,444.88,637.15,441.34Z"/><path class="cls-4" d="M442.8,594.92s31.91-34.35,41.33-53.55c10.16,30.31,0,67.7,0,67.7S453.67,617.15,442.8,594.92Z"/></g><text class="cls-5" transform="translate(316.73 787.36)">TYPE</text><path class="cls-4" d="M191.18,610.23q-.74,1.39-1.47,2.88a29.45,29.45,0,0,1,2.89-1.32Z"/><path class="cls-6" d="M637.15,441.34c-12.33-6.06-25.38,6.08-25.38,6.08l-4.35,40.4-32.64-29.3L529.1,466.6s25.38-45.47,12.32-45.47S503,437.34,492.84,447.42s-43.52,105.07-66,105.07c23.21-72.75,74-157.63,80.5-168.74s0-23.24-4.35-34.36-39.89-57.59-45-52.54-40.61,42.44-39.89,62.65-4.35,38.39,10.15,36.37,32.64-20.21,36.26-39.4c13.78,33.34,8.7,67.69-11.6,81.84s-62.37,34.35-63.09,72.75c-11.6-30.31-15.23-66.69-6.53-84.88C348.52,467.61,350,509,306.46,510.05c-21.75,31.32-45,65.68-45,65.68s39.88,29.3,66,17.17,29.74-56.58,42.79-51.53,2.18,61.64-41.34,69.72c-30.26,5.62-72.81-2.44-104.94-3.11a270.81,270.81,0,0,0,112,63.6,264.45,264.45,0,0,0,85.42,10q10.77-.42,21.49-1.65l3.19-.38,1-.13c1.82-.26,3.62-.53,5.43-.83,3.37-.54,6.73-1.15,10.08-1.81a283.11,283.11,0,0,0,41.51-11.62A252.39,252.39,0,0,0,541,648.33a280.32,280.32,0,0,0,35.23-23l.33-.25.77-.61,2.05-1.64c1.19-1,2.38-1.93,3.55-2.91q3.78-3.13,7.45-6.41,7.83-7,15.13-14.52c2.92-3,5.7-6,8.38-9-18.31-6.3-39.08-14-39.08-14s18.13-14.36,34.08-10.32c8.13,2.06,15.3,3.72,20.88,4.63l1.43-2a272.84,272.84,0,0,0,42.69-92.84C659.72,459.81,644.35,444.88,637.15,441.34Zm-153,167.73s-30.46,8.08-41.33-14.15c0,0,31.91-34.35,41.33-53.55C494.29,571.68,484.13,609.07,484.13,609.07Z"/><path class="cls-6" d="M162.47,522.07q2.07,4.51,4.3,9,4.72,9.45,10.16,18.52T188.4,567.2c4.4,6.26,7.07,9.74,11.59,15.2q3.39,4.1,6.92,8.05c11.46-9.3,23.85-11.91,37.19-25.84,20.3-21.22,58-102.05,58-102.05s-19.58,2-29.73-7.07S260.77,407,236.12,411,206.39,434.31,202,447.42s-10.15,37.37-29,46.46a83,83,0,0,0-17.3,11.77c1.05,2.82,2.12,5.63,3.25,8.42C159.8,516.11,161,518.8,162.47,522.07Z"/><path class="cls-4" d="M652.38,238.9a300.87,300.87,0,0,0-141-107.64c-57.87-21.25-122.76-23.4-182-6.62A296.87,296.87,0,0,0,156,563.3C186.69,614,232.79,655.55,286.85,680a300.62,300.62,0,0,0,183.07,20.78c58.65-11.83,113.3-42.29,154.6-85.53,41.45-43.39,69.61-99.37,78.64-158.78a313.57,313.57,0,0,0,3.67-46.3C706.68,349.18,687.87,288.61,652.38,238.9ZM200,582.4c-4.52-5.46-7.19-8.94-11.59-15.2q-6.06-8.61-11.47-17.65T166.77,531q-2.24-4.44-4.3-9c-1.5-3.27-2.67-6-3.49-8-1.13-2.79-2.19-5.6-3.23-8.43A83,83,0,0,1,173,493.88c18.85-9.09,24.65-33.34,29-46.46s9.43-32.35,34.09-36.39,26.1,35.36,36.26,44.46,29.73,7.07,29.73,7.07-37.71,80.83-58,102.05c-13.34,13.93-25.73,16.54-37.19,25.84Q203.39,586.51,200,582.4Zm429.75-12.15c-5.58-.91-12.75-2.57-20.88-4.63-16-4-34.08,10.32-34.08,10.32s20.77,7.71,39.08,14c-2.68,3-5.46,6-8.38,9q-7.29,7.53-15.13,14.52-3.66,3.27-7.45,6.41c-1.17,1-2.36,2-3.55,2.91l-2.05,1.64-.77.61-.33.25a280.32,280.32,0,0,1-35.23,23,252.39,252.39,0,0,1-36.85,16.86,283.11,283.11,0,0,1-41.51,11.62c-3.35.66-6.71,1.27-10.08,1.81-1.81.3-3.61.57-5.43.83l-1,.13-3.19.38q-10.71,1.23-21.49,1.65a264.45,264.45,0,0,1-85.42-10A270.83,270.83,0,0,1,224,608c32.13.67,74.67,8.73,104.93,3.11,43.52-8.08,54.39-64.67,41.34-69.72s-16.68,39.41-42.79,51.53-66-17.17-66-17.17,23.21-34.36,45-65.68c43.52-1,42.06-42.44,76.87-83.87-8.7,18.19-5.07,54.57,6.53,84.88.72-38.4,42.79-58.6,63.09-72.75s25.38-48.5,11.6-81.84c-3.62,19.19-21.75,37.38-36.26,39.4s-9.42-16.16-10.15-36.37S453,301.9,458,296.85s40.61,41.43,45,52.54,10.88,23.24,4.35,34.36-57.29,96-80.5,168.74c22.48,0,55.84-95,66-105.07s35.53-26.29,48.58-26.29S529.1,466.6,529.1,466.6l45.68-8.08,32.64,29.3,4.35-40.4s13.05-12.14,25.38-6.08c7.2,3.54,22.56,18.46,36.7,34.08a272.67,272.67,0,0,1-42.68,92.85M680.54,436c-33.78-51.91-63.84-98.33-70.22-108.84-16-26.27-30.46-17.17-41.34-9.09s-30.46,23.24-30.46,23.24-48.58-43.45-65.27-59.62-30.45-1-40.6,11.12S325.32,416.08,325.32,416.08s-60.19-55.57-74-69.72-22.48,3-34.08,18.19c-4.75,6.2-37,50.17-73.37,99.94a246.73,246.73,0,0,1-4.58-32.61,269.45,269.45,0,0,1,6.85-86.09,261.84,261.84,0,0,1,31.44-76.14,265.41,265.41,0,0,1,23.22-32.73A285.73,285.73,0,0,1,230,206.82a244.57,244.57,0,0,1,31.86-24.31,283.73,283.73,0,0,1,37-20.32c50.32-22.9,110.7-29.49,165.07-18.4a271.55,271.55,0,0,1,142.45,78.49q7.26,7.56,14,15.65c4.52,5.46,7.2,9,11.59,15.2a284.29,284.29,0,0,1,21.63,36.17A243.91,243.91,0,0,1,668.87,327a282.72,282.72,0,0,1,10,42.17,286.73,286.73,0,0,1,3,41C681.81,418.83,681.36,427.45,680.54,436Z"/><text class="cls-7" transform="translate(100.14 675.48)">SHO<tspan class="cls-8" x="334.2" y="0">R</tspan><tspan class="cls-9" x="440.57" y="0">TN</tspan></text><path class="cls-1" d="M184.91,609.63A305,305,0,0,1,104,402.33C104,233.26,241.1,96.21,410.16,96.21S716.29,233.26,716.29,402.33a305,305,0,0,1-76,201.88"/></svg>