<svg id="Layer_1" data-name="Layer 1" xmlns="http://www.w3.org/2000/svg" viewBox="0 0 820.33 820.33"><defs><style>.cls-1{fill:none;}.cls-2{font-size:102.73px;fill:#415228;}.cls-2,.cls-6{font-family:Delicious-Heavy, Delicious Heavy;}.cls-3{fill:#5a7936;}.cls-4{fill:#648561;}.cls-5{fill:#405229;}.cls-6{font-size:218.43px;fill:#fff;stroke:#415228;stroke-miterlimit:10;stroke-width:6px;}.cls-7{letter-spacing:-0.02em;}.cls-8{letter-spacing:0em;}</style></defs><title>Artboard 1 copy 59</title><circle class="cls-1" cx="410.16" cy="410.17" r="284.17"/><text class="cls-2" transform="translate(316.73 787.36)">TYPE</text><path class="cls-3" d="M579.35,622.83c1.19-1,2.38-1.93,3.55-2.91q3.78-3.13,7.45-6.41,7.83-7,15.13-14.52a261.79,261.79,0,0,0,25.69-30.72,273.26,273.26,0,0,0,39.12-79.75l-21.73,9.69,6.06-27-68.37-70.53-58.85,62.8,18.18,71.49-53.66-58-87.41,48.3,57.12-70.52L511,441.21,431.34,331.72,340.17,481.79l-17.79-38.57-84,94.61,10.39-59.9-40.68-33.82-57.2,47.25q3.6,11.52,8.12,22.71c.82,2,2,4.73,3.49,8q2.07,4.51,4.3,9,4.72,9.45,10.16,18.52T188.4,567.2c4.4,6.26,7.07,9.74,11.59,15.2,35.75,43.19,82.8,74.13,136,89.18a264.45,264.45,0,0,0,85.42,10q10.77-.42,21.49-1.65l3.19-.38,1-.13c1.82-.26,3.62-.53,5.43-.83,3.37-.54,6.73-1.15,10.08-1.81a283.45,283.45,0,0,0,41.51-11.62A252.39,252.39,0,0,0,541,648.33a280.32,280.32,0,0,0,35.23-23l.32-.25.78-.61Z"/><path class="cls-4" d="M268.64,448l56.26-51.21h38.94l66.64-109L535.19,421.89l54.52-47.33,86.42,90.73a275.23,275.23,0,0,0,5.7-55.12,286.73,286.73,0,0,0-3-41,282.72,282.72,0,0,0-10-42.17,243.91,243.91,0,0,0-15.31-37.68,284.29,284.29,0,0,0-21.63-36.17c-4.39-6.24-7.07-9.74-11.59-15.2s-9.11-10.61-14-15.65a271.55,271.55,0,0,0-142.45-78.49c-54.37-11.09-114.75-4.5-165.07,18.4a283.73,283.73,0,0,0-37,20.32A244.57,244.57,0,0,0,230,206.82a285.73,285.73,0,0,0-29.15,30.1,265.41,265.41,0,0,0-23.22,32.73,261.84,261.84,0,0,0-31.44,76.14,269.45,269.45,0,0,0-6.85,86.09,247.66,247.66,0,0,0,5.45,36.68l64.16-55.36Z"/><path class="cls-5" d="M652.38,238.9a300.87,300.87,0,0,0-141-107.64c-57.87-21.25-122.76-23.4-182-6.62A296.87,296.87,0,0,0,156,563.3C186.69,614,232.79,655.55,286.85,680a300.62,300.62,0,0,0,183.07,20.78c58.65-11.83,113.3-42.29,154.6-85.53,41.45-43.39,69.61-99.37,78.64-158.78a313.57,313.57,0,0,0,3.67-46.3C706.68,349.18,687.87,288.61,652.38,238.9ZM631.17,568.27A261.79,261.79,0,0,1,605.48,599q-7.29,7.53-15.13,14.52-3.66,3.27-7.45,6.41c-1.17,1-2.36,2-3.55,2.91l-2.05,1.64-.78.61-.32.25a280.32,280.32,0,0,1-35.23,23,252.39,252.39,0,0,1-36.85,16.86,283.45,283.45,0,0,1-41.51,11.62c-3.35.66-6.71,1.27-10.08,1.81-1.81.3-3.61.57-5.43.83l-1,.13-3.19.38q-10.71,1.23-21.49,1.65a264.45,264.45,0,0,1-85.42-10c-53.21-15.05-100.26-46-136-89.18-4.52-5.46-7.19-8.94-11.59-15.2-4-5.74-18.48-29.87-21.63-36.17-1.49-3-7-14.92-7.79-17q-4.51-11.19-8.12-22.71l57.2-47.25,40.68,33.82-10.39,59.9,84-94.61,17.79,38.57,91.17-150.07L511,441.21l-49.33,13.53-57.12,70.52L491.92,477l53.66,58L527.4,463.44l58.85-62.8,68.37,70.53-6.06,27,21.72-9.69A273.48,273.48,0,0,1,631.17,568.27Zm45-103-86.42-90.73-54.52,47.33L430.48,287.77l-66.64,109H324.9L268.64,448,208.93,413.2l-64.16,55.36a247.66,247.66,0,0,1-5.45-36.68,269.45,269.45,0,0,1,6.85-86.09,261.84,261.84,0,0,1,31.44-76.14,265.41,265.41,0,0,1,23.22-32.73A285.73,285.73,0,0,1,230,206.82a244.57,244.57,0,0,1,31.86-24.31,283.73,283.73,0,0,1,37-20.32c50.32-22.9,110.7-29.49,165.07-18.4a271.55,271.55,0,0,1,142.45,78.49q7.26,7.56,14,15.65c4.52,5.46,7.2,9,11.59,15.2a284.29,284.29,0,0,1,21.63,36.17A243.91,243.91,0,0,1,668.87,327a282.72,282.72,0,0,1,10,42.17,286.73,286.73,0,0,1,3,41A275.23,275.23,0,0,1,676.13,465.29Z"/><text class="cls-6" transform="translate(100.14 675.48)">SHO<tspan class="cls-7" x="334.2" y="0">R</tspan><tspan class="cls-8" x="440.57" y="0">TN</tspan></text><path class="cls-1" d="M184.91,609.63A305,305,0,0,1,104,402.33C104,233.26,241.1,96.21,410.16,96.21S716.29,233.26,716.29,402.33a305,305,0,0,1-76,201.88"/></svg>