<svg id="Layer_1" data-name="Layer 1" xmlns="http://www.w3.org/2000/svg" xmlns:xlink="http://www.w3.org/1999/xlink" viewBox="0 0 820.33 820.33"><defs><style>.cls-1{fill:none;}.cls-2{clip-path:url(#clip-path);}.cls-3{fill:#648561;}.cls-4{fill:#5a7936;}.cls-5{font-size:73px;}.cls-5,.cls-7{fill:#405229;}.cls-5,.cls-6,.cls-8{font-family:Delicious-Heavy, Delicious Heavy;}.cls-6{font-size:102.73px;fill:#415228;}.cls-8{font-size:218.43px;fill:#fff;stroke:#415228;stroke-miterlimit:10;stroke-width:6px;}.cls-9{letter-spacing:-0.02em;}.cls-10{letter-spacing:0em;}</style><clipPath id="clip-path"><circle class="cls-1" cx="410.16" cy="410.17" r="284.17"/></clipPath></defs><title>Artboard 1 copy 53</title><g class="cls-2"><polygon class="cls-3" points="571.24 503.64 517.21 584.45 634.41 542.32 639.07 479.17 673.83 428.16 630.32 429.55 571.24 503.64"/><polygon class="cls-3" points="418.83 466.23 347.27 538.16 347.35 602.87 447.45 545.94 485.89 497.68 502.09 435.33 447.45 418.97 418.83 466.23"/><path class="cls-3" d="M144.78,468.59l44.34-12.93,118.26-183h93.28L454,399.54l62.46,19.52,49.05,68,60.23-72.85h56.09c0-1.34.05-2.67.05-4a286.73,286.73,0,0,0-3-41,282.72,282.72,0,0,0-10-42.17,243.91,243.91,0,0,0-15.31-37.68,284.29,284.29,0,0,0-21.63-36.17c-4.39-6.24-7.07-9.74-11.59-15.2s-9.11-10.61-14-15.65a271.55,271.55,0,0,0-142.45-78.49c-54.37-11.09-114.75-4.5-165.07,18.4a283.73,283.73,0,0,0-37,20.32A244.57,244.57,0,0,0,230,206.82a285.73,285.73,0,0,0-29.15,30.1,265.41,265.41,0,0,0-23.22,32.73,261.84,261.84,0,0,0-31.44,76.14,269.45,269.45,0,0,0-6.85,86.09A246.77,246.77,0,0,0,144.78,468.59Z"/><path class="cls-3" d="M164.07,525.48q1.32,2.79,2.7,5.55c1.76,3.52,3.61,7,5.52,10.44l115.63-54.61,30.41-95.14,71.87-99.54H314.74Z"/><polygon class="cls-4" points="447.45 545.94 485.89 497.68 502.09 435.33 447.45 418.97 418.83 466.23 347.27 538.16 347.35 602.87 447.45 545.94"/><polygon class="cls-4" points="673.83 428.16 630.32 429.55 571.24 503.64 517.21 584.45 634.41 542.32 639.07 479.17 673.83 428.16"/></g><text class="cls-5" transform="matrix(0.99, -0.15, 0.15, 0.99, 348.52, 102.05)">T</text><text class="cls-5" transform="translate(375.04 98.08) rotate(-4.89)">i</text><text class="cls-5" transform="translate(391.65 96.56) rotate(-1.35)">t</text><text class="cls-5" transform="matrix(1, 0.04, -0.04, 1, 413.24, 96.1)">l</text><text class="cls-5" transform="matrix(0.99, 0.12, -0.12, 0.99, 429.54, 96.33)">e</text><text class="cls-6" transform="translate(316.73 787.36)">TYPE</text><path class="cls-4" d="M318.33,391.72l71.87-99.54H314.74L164.07,525.48q1.32,2.79,2.7,5.55c1.76,3.52,3.61,7,5.52,10.44l115.63-54.61Z"/><path class="cls-7" d="M652.38,238.9a300.87,300.87,0,0,0-141-107.64c-57.87-21.25-122.76-23.4-182-6.62A296.87,296.87,0,0,0,156,563.3C186.69,614,232.79,655.55,286.85,680a300.62,300.62,0,0,0,183.07,20.78c58.65-11.83,113.3-42.29,154.6-85.53,41.45-43.39,69.61-99.37,78.64-158.78a313.57,313.57,0,0,0,3.67-46.3C706.68,349.18,687.87,288.61,652.38,238.9ZM164.07,525.48l150.67-233.3H390.2l-71.87,99.54-30.41,95.14L172.29,541.47M166.77,531m180.58,71.83-.08-64.7,71.56-71.93L447.45,419l54.64,16.36-16.2,62.34-38.44,48.27Zm99.72,76.59h0Zm-.13,0-.17,0Zm192.13-200.3-4.66,63.15-117.2,42.13,54-80.81,59.08-74.09,43.51-1.39ZM576.52,625.09h0l.09-.07-.09.07Zm-.32.24.24-.18ZM681.78,414.18H625.69L565.46,487l-49.05-68L454,399.54,400.66,272.67H307.38l-118.26,183-44.34,12.93a246.77,246.77,0,0,1-5.46-36.71,269.45,269.45,0,0,1,6.85-86.09,261.84,261.84,0,0,1,31.44-76.14,265.41,265.41,0,0,1,23.22-32.73A285.73,285.73,0,0,1,230,206.82a244.57,244.57,0,0,1,31.86-24.31,283.73,283.73,0,0,1,37-20.32c50.32-22.9,110.7-29.49,165.07-18.4a271.55,271.55,0,0,1,142.45,78.49q7.26,7.56,14,15.65c4.52,5.46,7.2,9,11.59,15.2a284.29,284.29,0,0,1,21.63,36.17A243.91,243.91,0,0,1,668.87,327a282.72,282.72,0,0,1,10,42.17,286.73,286.73,0,0,1,3,41"/><text class="cls-8" transform="translate(100.14 675.48)">SHO<tspan class="cls-9" x="334.2" y="0">R</tspan><tspan class="cls-10" x="440.57" y="0">TN</tspan></text></svg>