<svg id="Layer_1" data-name="Layer 1" xmlns="http://www.w3.org/2000/svg" xmlns:xlink="http://www.w3.org/1999/xlink" viewBox="0 0 820.33 820.33"><defs><style>.cls-1{fill:none;}.cls-2{clip-path:url(#clip-path);}.cls-3{fill:#648561;}.cls-4{fill:#5a7936;}.cls-5{fill:#e4e98b;}.cls-6{font-size:73px;}.cls-6,.cls-8{fill:#405229;}.cls-6,.cls-7,.cls-9{font-family:Delicious-Heavy, Delicious Heavy;}.cls-7{font-size:102.73px;fill:#415228;}.cls-9{font-size:218.43px;fill:#fff;stroke:#415228;stroke-miterlimit:10;stroke-width:6px;}.cls-10{letter-spacing:-0.02em;}.cls-11{letter-spacing:0em;}</style><clipPath id="clip-path"><circle class="cls-1" cx="410.16" cy="410.17" r="284.17"/></clipPath></defs><title>Artboard 1 copy 50</title><g class="cls-2"><polygon class="cls-3" points="531.78 478.59 514.93 420.11 449.31 485.96 531.78 478.59"/><polygon class="cls-3" points="235.52 446.17 200.34 537.38 137.39 579.07 257.74 559.85 307.68 438.55 281.81 404.48 235.52 446.17"/><polygon class="cls-3" points="324.4 448.77 248.48 636.4 433.64 579.07 459.56 517.82 391.06 515.52 466.97 417.5 466.97 279.39 431.79 357.57 324.4 448.77"/><polygon class="cls-3" points="708.56 603.67 659.19 640.66 708.56 640.66 708.56 603.67"/><polygon class="cls-3" points="663.25 532.17 652.13 451.99 609 476.41 616.95 558.23 641.03 579.07 663.25 532.17"/><polygon class="cls-4" points="531.78 478.59 514.93 420.11 449.31 485.96 531.78 478.59"/><polygon class="cls-4" points="324.4 448.77 248.48 636.4 433.64 579.07 459.56 517.82 391.06 515.52 466.97 417.5 466.97 279.39 431.79 357.57 324.4 448.77"/><polygon class="cls-5" points="668.33 633.81 649.14 648.2 668.33 648.2 668.33 633.81"/></g><text class="cls-6" transform="matrix(0.99, -0.15, 0.15, 0.99, 348.52, 102.05)">T</text><text class="cls-6" transform="translate(375.04 98.08) rotate(-4.89)">i</text><text class="cls-6" transform="translate(391.65 96.56) rotate(-1.35)">t</text><text class="cls-6" transform="matrix(1, 0.04, -0.04, 1, 413.24, 96.1)">l</text><text class="cls-6" transform="matrix(0.99, 0.12, -0.12, 0.99, 429.54, 96.33)">e</text><text class="cls-7" transform="translate(316.73 787.36)">TYPE</text><path class="cls-4" d="M660.85,514.86,652.13,452,609,476.41l8,81.82,13.21,11.43c.34-.46.68-.92,1-1.39A274.74,274.74,0,0,0,660.85,514.86Z"/><path class="cls-4" d="M307.68,438.55l-25.87-34.07-46.29,41.69-35.18,91.21-22,14.54q4.77,7.8,10,15.28c.85,1.21,1.63,2.31,2.38,3.34l67-10.69Z"/><path class="cls-4" d="M163.44,574.91q-3-4.54-5.91-9.18"/><path class="cls-3" d="M220.16,432.29,281.81,368l38.88,46.91,94.44-84.44,51.44-91.71,83.78,101.64,48.09,113.85,61.1-28.92,20,19.57a278.2,278.2,0,0,0,2.26-34.72,286.73,286.73,0,0,0-3-41,282.72,282.72,0,0,0-10-42.17,243.91,243.91,0,0,0-15.31-37.68,284.29,284.29,0,0,0-21.63-36.17c-4.39-6.24-7.07-9.74-11.59-15.2s-9.11-10.61-14-15.65a271.55,271.55,0,0,0-142.45-78.49c-54.37-11.09-114.75-4.5-165.07,18.4a283.73,283.73,0,0,0-37,20.32A244.57,244.57,0,0,0,230,206.82a285.73,285.73,0,0,0-29.15,30.1,265.41,265.41,0,0,0-23.22,32.73,261.84,261.84,0,0,0-31.44,76.14,269.45,269.45,0,0,0-6.85,86.09,250.51,250.51,0,0,0,6.53,41.34A287.91,287.91,0,0,0,159,514.07c.82,2,2,4.73,3.49,8q1.13,2.43,2.29,4.86L180,517.82Z"/><path class="cls-8" d="M652.38,238.9a300.87,300.87,0,0,0-141-107.64c-57.87-21.25-122.76-23.4-182-6.62A296.87,296.87,0,0,0,156,563.3C186.69,614,232.79,655.55,286.85,680a300.62,300.62,0,0,0,183.07,20.78c58.65-11.83,113.3-42.29,154.6-85.53,41.45-43.39,69.61-99.37,78.64-158.78a313.57,313.57,0,0,0,3.67-46.3C706.68,349.18,687.87,288.61,652.38,238.9ZM190.78,570.54c-.75-1-1.53-2.13-2.38-3.34-3.51-5-6.84-10.09-10-15.28l22-14.54,35.18-91.21,46.29-41.69,25.87,34.07-49.94,121.3ZM256.23,634c-1.77-1.22-3.53-2.45-5.27-3.71L324.4,448.77l107.39-91.2L467,279.4V417.51l-75.91,98,68.51,2.29-25.93,61.25ZM449.31,486l65.62-65.85,16.85,58.48ZM624.6,577.08q2.86-3.68,5.56-7.42Q627.46,573.41,624.6,577.08Zm6.57-8.81c-.33.47-.67.93-1,1.39L617,558.23l-8-81.82L652.13,452l8.72,62.87A274.74,274.74,0,0,1,631.17,568.27Zm-468.7-46.2c-1.5-3.27-2.67-6-3.49-8a287.91,287.91,0,0,1-13.13-40.85,250.51,250.51,0,0,1-6.53-41.34,269.45,269.45,0,0,1,6.85-86.09,261.84,261.84,0,0,1,31.44-76.14,265.41,265.41,0,0,1,23.22-32.73A285.73,285.73,0,0,1,230,206.82a244.57,244.57,0,0,1,31.86-24.31,283.73,283.73,0,0,1,37-20.32c50.32-22.9,110.7-29.49,165.07-18.4a271.55,271.55,0,0,1,142.45,78.49q7.26,7.56,14,15.65c4.52,5.46,7.2,9,11.59,15.2a284.29,284.29,0,0,1,21.63,36.17A243.91,243.91,0,0,1,668.87,327a282.72,282.72,0,0,1,10,42.17,286.73,286.73,0,0,1,3,41,276.31,276.31,0,0,1-2.27,34.72l-20-19.57-61.1,28.92L550.35,340.39,466.57,238.75l-51.44,91.71L320.69,414.9,281.81,368l-61.65,64.3L180,517.82l-15.21,9.11"/><text class="cls-9" transform="translate(100.14 675.48)">SHO<tspan class="cls-10" x="334.2" y="0">R</tspan><tspan class="cls-11" x="440.57" y="0">TN</tspan></text></svg>