<svg id="Layer_1" data-name="Layer 1" xmlns="http://www.w3.org/2000/svg" xmlns:xlink="http://www.w3.org/1999/xlink" viewBox="0 0 820.33 820.33"><defs><style>.cls-1{fill:none;}.cls-2{clip-path:url(#clip-path);}.cls-3{fill:#5a7936;}.cls-4{fill:#4b8c40;}.cls-5{font-size:73px;}.cls-5,.cls-8{fill:#405229;}.cls-5,.cls-6,.cls-9{font-family:Delicious-Heavy, Delicious Heavy;}.cls-6{font-size:102.73px;fill:#415228;}.cls-7{fill:#648561;}.cls-9{font-size:218.43px;fill:#fff;stroke:#415228;stroke-miterlimit:10;stroke-width:6px;}.cls-10{letter-spacing:-0.02em;}.cls-11{letter-spacing:0em;}</style><clipPath id="clip-path"><circle class="cls-1" cx="410.17" cy="410.17" r="284.17"/></clipPath></defs><title>Artboard 1 copy 54</title><g class="cls-2"><path class="cls-3" d="M427.4,562.3l87.27-94L558.31,602s30.45-38.18,30.45-60.89-2-167.22-7.11-194-30.44-9.29-54.8-16.52-39.58-47.48-39.58-47.48L381.73,424.46a261.81,261.81,0,0,0,0,69.15C386.8,531.81,427.4,562.3,427.4,562.3Z"/><rect class="cls-4" x="126" y="697.99" width="552.27" height="17.34"/><path class="cls-4" d="M173.69,610.26c-1-12.39-24.36,3.09-39.58,4.12s0-43.35,0-43.35-3.47,4.61-8.11,11.58v65.7C147.78,643.3,174.46,619.65,173.69,610.26Z"/></g><text class="cls-5" transform="matrix(0.99, -0.15, 0.15, 0.99, 348.52, 102.05)">T</text><text class="cls-5" transform="translate(375.04 98.08) rotate(-4.89)">i</text><text class="cls-5" transform="translate(391.65 96.56) rotate(-1.35)">t</text><text class="cls-5" transform="matrix(1, 0.04, -0.04, 1, 413.24, 96.1)">l</text><text class="cls-5" transform="matrix(0.99, 0.12, -0.12, 0.99, 429.54, 96.33)">e</text><text class="cls-6" transform="translate(316.73 787.36)">TYPE</text><polygon class="cls-7" points="170.74 538.63 170.74 538.63 170.74 538.63 170.74 538.63"/><polygon class="cls-7" points="223.85 538.63 313.75 538.63 271.11 458.52 223.85 538.63"/><path class="cls-7" d="M674.26,473.77q1.38-5.72,2.5-11.49Q675.64,468.06,674.26,473.77Z"/><path class="cls-7" d="M194,526.65c25.36-40.26,75.09-119.74,75.09-119.74s22.33,50.58,44.65,41.29S487.27,238.67,487.27,238.67s26.39,49.54,47.7,60.89,47.7-11.35,61.9,8.26S639.5,401.75,674,444.07q2.41,3,4.87,5.83-.9,6.11-2.07,12.15a275.06,275.06,0,0,0,5-51.88,286.73,286.73,0,0,0-3-41,282.72,282.72,0,0,0-10-42.17,243.91,243.91,0,0,0-15.31-37.68,284.29,284.29,0,0,0-21.63-36.17c-4.39-6.24-7.07-9.74-11.59-15.2s-9.11-10.61-14-15.65a271.55,271.55,0,0,0-142.45-78.49c-54.37-11.09-114.75-4.5-165.07,18.4a283.73,283.73,0,0,0-37,20.32A244.57,244.57,0,0,0,230,206.82a285.73,285.73,0,0,0-29.15,30.1,265.41,265.41,0,0,0-23.22,32.73,261.84,261.84,0,0,0-31.44,76.14,269.45,269.45,0,0,0-6.85,86.09,250.51,250.51,0,0,0,6.53,41.34A287.91,287.91,0,0,0,159,514.07c.82,2,2,4.73,3.49,8,.89,1.94,1.81,3.86,2.74,5.79C178.41,526.63,189.41,527.58,194,526.65Z"/><path class="cls-7" d="M667.58,497q.57-1.68,1.11-3.39Q668.15,495.31,667.58,497Z"/><path class="cls-7" d="M671.2,485.38q.7-2.46,1.37-4.92Q671.91,482.92,671.2,485.38Z"/><path class="cls-7" d="M669.61,490.71c.34-1.11.68-2.21,1-3.32C670.29,488.5,670,489.6,669.61,490.71Z"/><path class="cls-7" d="M168.78,535c-.68-1.3-1.35-2.61-2-3.92C167.43,532.34,168.1,533.65,168.78,535Z"/><path class="cls-7" d="M624.28,416.2s11.16,63,12.17,98.06a187.1,187.1,0,0,0,2.37,24.37h10.72a271.51,271.51,0,0,0,17.66-40.54A702,702,0,0,0,624.28,416.2Z"/><path class="cls-7" d="M672.76,479.72c.43-1.6.83-3.2,1.23-4.81C673.59,476.52,673.19,478.12,672.76,479.72Z"/><path class="cls-3" d="M624.28,416.2s11.16,63,12.17,98.06a185.25,185.25,0,0,0,5.18,38.16,272.67,272.67,0,0,0,25.58-54.31A703.26,703.26,0,0,0,624.28,416.2Z"/><path class="cls-3" d="M352.3,552.45,331,571,271.11,458.52,210.22,561.74c69,11.36,73.07,63,83.22,87.52s70,17.76,83.22,7.45,34.5-7.45,34.5-7.45Z"/><path class="cls-8" d="M652.38,238.9a300.87,300.87,0,0,0-141-107.64c-57.87-21.25-122.76-23.4-182-6.62A296.87,296.87,0,0,0,156,563.3C186.69,614,232.79,655.55,286.85,680a300.62,300.62,0,0,0,183.07,20.78c58.65-11.83,113.3-42.29,154.6-85.53,41.45-43.39,69.61-99.37,78.64-158.78a313.57,313.57,0,0,0,3.67-46.3C706.68,349.18,687.87,288.61,652.38,238.9ZM376.66,656.71c-13.2,10.31-73.07,17.1-83.22-7.45s-14.21-76.16-83.22-87.52l60.89-103.22L331,571l21.31-18.58,58.86,96.81S389.85,646.39,376.66,656.71ZM558.31,602,514.67,468.33l-87.27,94s-40.6-30.49-45.67-68.69a261.81,261.81,0,0,1,0-69.15L487.27,283.05s15.23,40.25,39.58,47.48,49.73-10.32,54.8,16.52,7.11,171.34,7.11,194.05S558.31,602,558.31,602Zm83.32-49.57a185.25,185.25,0,0,1-5.18-38.16c-1-35.09-12.17-98.06-12.17-98.06a702.93,702.93,0,0,1,42.93,81.89A272.27,272.27,0,0,1,641.63,552.42ZM678.87,449.9q-2.46-2.88-4.87-5.83c-34.5-42.32-62.92-116.64-77.13-136.25s-40.59,3.1-61.9-8.26-47.7-60.89-47.7-60.89S336.06,438.91,313.73,448.2s-44.65-41.29-44.65-41.29S219.35,486.39,194,526.65c-4.58.93-15.58,0-28.78,1.21-.93-1.93-1.85-3.85-2.74-5.79-1.5-3.27-2.67-6-3.49-8a287.91,287.91,0,0,1-13.13-40.85,250.51,250.51,0,0,1-6.53-41.34,269.45,269.45,0,0,1,6.85-86.09,261.84,261.84,0,0,1,31.44-76.14,265.41,265.41,0,0,1,23.22-32.73A285.73,285.73,0,0,1,230,206.82a244.57,244.57,0,0,1,31.86-24.31,283.73,283.73,0,0,1,37-20.32c50.32-22.9,110.7-29.49,165.07-18.4a271.55,271.55,0,0,1,142.45,78.49q7.26,7.56,14,15.65c4.52,5.46,7.2,9,11.59,15.2a284.29,284.29,0,0,1,21.63,36.17A243.91,243.91,0,0,1,668.87,327a282.72,282.72,0,0,1,10,42.17,286.73,286.73,0,0,1,3,41A276.34,276.34,0,0,1,678.87,449.9Z"/><text class="cls-9" transform="translate(100.14 675.48)">SHO<tspan class="cls-10" x="334.2" y="0">R</tspan><tspan class="cls-11" x="440.57" y="0">TN</tspan></text></svg>