<svg id="Layer_1" data-name="Layer 1" xmlns="http://www.w3.org/2000/svg" xmlns:xlink="http://www.w3.org/1999/xlink" viewBox="0 0 820.33 820.33"><defs><style>.cls-1{fill:none;}.cls-2{clip-path:url(#clip-path);}.cls-3{fill:#648561;}.cls-4{fill:#5a7936;}.cls-5{font-size:73px;}.cls-5,.cls-6{fill:#405229;}.cls-5,.cls-7,.cls-8{font-family:Delicious-Heavy, Delicious Heavy;}.cls-7{font-size:102.73px;fill:#415228;}.cls-8{font-size:218.43px;fill:#fff;stroke:#415228;stroke-miterlimit:10;stroke-width:6px;}.cls-9{letter-spacing:-0.02em;}.cls-10{letter-spacing:0em;}</style><clipPath id="clip-path"><circle class="cls-1" cx="410.16" cy="410.17" r="284.17"/></clipPath></defs><title>Artboard 1 copy 49</title><g class="cls-2"><polygon class="cls-3" points="223.15 360.63 297.61 431.27 432.6 226.66 575.68 487.29 682.04 387.43 708.56 435.24 708.56 105 105 105 105 538.63 124.27 538.63 223.15 360.63"/><path class="cls-3" d="M315.08,460.5l-19.75,20.7-73.7-70.63-40.27,68.2,24.32,4.87a326.42,326.42,0,0,0,2.07,55H346.51Z"/><path class="cls-3" d="M336.35,416.65h34.19l15.2,60.9,63.82-67,49.38,49.93s-15.19-90.12-20.51-108.39-31.15,1.22-41.78-17.05-4-70.64-4-70.64Z"/><path class="cls-3" d="M708.56,477.69l-30.31-57.38s-13.68,39-29.63,64.55-60,17.05-60,17.05a201.89,201.89,0,0,0,27.32,36.72h92.64Z"/><path class="cls-4" d="M336.35,416.65h34.19l15.2,60.9,63.82-67,49.38,49.93s-15.19-90.12-20.51-108.39-31.15,1.22-41.78-17.05-4-70.64-4-70.64Z"/><path class="cls-4" d="M295.33,481.2l-73.7-70.63-40.27,68.2,24.32,4.87s-5.32,87.69,25.07,112S297.6,581.07,312,562.8s40.27-9.74,40.27-9.74L315.08,460.5Z"/><path class="cls-4" d="M648.62,484.86c-16,25.57-60,17.05-60,17.05,63.47,107.4,153.87,75.79,167.64,70.18V568l-78-147.64S664.57,459.28,648.62,484.86Z"/></g><text class="cls-5" transform="matrix(0.99, -0.15, 0.15, 0.99, 348.52, 102.05)">T</text><text class="cls-5" transform="translate(375.04 98.08) rotate(-4.89)">i</text><text class="cls-5" transform="translate(391.65 96.56) rotate(-1.35)">t</text><text class="cls-5" transform="matrix(1, 0.04, -0.04, 1, 413.24, 96.1)">l</text><text class="cls-5" transform="matrix(0.99, 0.12, -0.12, 0.99, 429.54, 96.33)">e</text><path class="cls-6" d="M652.38,238.9a300.87,300.87,0,0,0-141-107.64c-57.87-21.25-122.76-23.4-182-6.62A296.87,296.87,0,0,0,156,563.3C186.69,614,232.79,655.55,286.85,680a300.62,300.62,0,0,0,183.07,20.78c58.64-11.83,113.3-42.29,154.6-85.53,41.45-43.39,69.61-99.37,78.64-158.78a313.57,313.57,0,0,0,3.67-46.3C706.68,349.18,687.87,288.61,652.38,238.9ZM312,562.8c-14.44,18.27-50.9,57.24-81.29,32.88s-25.07-112-25.07-112l-24.32-4.87,40.27-68.2,73.7,70.63,19.75-20.7,37.23,92.56S326.47,544.53,312,562.8ZM449.56,410.57l-63.82,67-15.2-60.9H336.35L432.6,264.42s-6.59,52.37,4,70.64,36.46-1.22,41.78,17.05S498.94,460.5,498.94,460.5Zm-17-183.9-135,204.6-74.45-70.64L150.74,491q-2.73-8.79-4.89-17.75a250.51,250.51,0,0,1-6.53-41.34,269.45,269.45,0,0,1,6.85-86.09,261.84,261.84,0,0,1,31.44-76.14,265.41,265.41,0,0,1,23.22-32.73A285.73,285.73,0,0,1,230,206.82a244.57,244.57,0,0,1,31.86-24.31,283.73,283.73,0,0,1,37-20.32c50.32-22.9,110.7-29.49,165.07-18.4a271.55,271.55,0,0,1,142.45,78.49q7.26,7.56,14,15.65c4.52,5.46,7.2,9,11.59,15.2a284.29,284.29,0,0,1,21.63,36.17A243.91,243.91,0,0,1,668.87,327a282.72,282.72,0,0,1,10,42.17c.91,5.79,1.63,12.41,2.14,19.28l-105.3,98.86ZM638.16,558C621,545.9,604,528,588.6,501.91c0,0,44.06,8.52,60-17.05s29.63-64.55,29.63-64.55l3.08,5.83A271.73,271.73,0,0,1,638.16,558Z"/><text class="cls-7" transform="translate(316.73 787.36)">TYPE</text><text class="cls-8" transform="translate(100.14 675.48)">SHO<tspan class="cls-9" x="334.2" y="0">R</tspan><tspan class="cls-10" x="440.57" y="0">TN</tspan></text></svg>