<svg id="Layer_1" data-name="Layer 1" xmlns="http://www.w3.org/2000/svg" xmlns:xlink="http://www.w3.org/1999/xlink" viewBox="0 0 820.33 820.33"><defs><style>.cls-1{fill:none;}.cls-2{clip-path:url(#clip-path);}.cls-3{fill:#5a7936;}.cls-4{font-size:73px;}.cls-4,.cls-7{fill:#405229;}.cls-4,.cls-5,.cls-8{font-family:Delicious-Heavy, Delicious Heavy;}.cls-5{font-size:102.73px;fill:#415228;}.cls-6{fill:#648561;}.cls-8{font-size:218.43px;fill:#fff;stroke:#415228;stroke-miterlimit:10;stroke-width:6px;}.cls-9{letter-spacing:-0.02em;}.cls-10{letter-spacing:0em;}</style><clipPath id="clip-path"><circle class="cls-1" cx="410.17" cy="410.17" r="284.17"/></clipPath></defs><title>Artboard 1 copy 56</title><g class="cls-2"><path class="cls-3" d="M540.38,393.9c-5.73-6.29-49.4-6.29-65.72,20.32l119.09,103s-61.31-89.5-61.75-99.66S546.11,400.2,540.38,393.9Z"/></g><text class="cls-4" transform="matrix(0.99, -0.15, 0.15, 0.99, 348.52, 102.05)">T</text><text class="cls-4" transform="translate(375.04 98.08) rotate(-4.89)">i</text><text class="cls-4" transform="translate(391.65 96.56) rotate(-1.35)">t</text><text class="cls-4" transform="matrix(1, 0.04, -0.04, 1, 413.24, 96.1)">l</text><text class="cls-4" transform="matrix(0.99, 0.12, -0.12, 0.99, 429.54, 96.33)">e</text><text class="cls-5" transform="translate(316.73 787.36)">TYPE</text><path class="cls-3" d="M347.62,449.06c19.85-7.26,109.83-11.62,109.83-11.62L331.74,331.5,160.36,517.35q.91,2.1,2.11,4.72,2.07,4.51,4.3,9,4.72,9.45,10.16,18.52T188.4,567.2l.31.44c16.44-1.7,33.87-3.88,53-8.29C298.66,546.29,327.77,456.31,347.62,449.06Z"/><path class="cls-6" d="M678.84,369.15a282.72,282.72,0,0,0-10-42.17,243.91,243.91,0,0,0-15.31-37.68,284.29,284.29,0,0,0-21.63-36.17c-4.39-6.24-7.07-9.74-11.59-15.2s-9.11-10.61-14-15.65a271.55,271.55,0,0,0-142.45-78.49c-54.37-11.09-114.75-4.5-165.07,18.4a283.73,283.73,0,0,0-37,20.32A244.57,244.57,0,0,0,230,206.82a285.73,285.73,0,0,0-29.15,30.1,265.41,265.41,0,0,0-23.22,32.73,261.84,261.84,0,0,0-31.44,76.14,269.45,269.45,0,0,0-6.85,86.09,250.51,250.51,0,0,0,6.53,41.34q2.46,10.27,5.7,20.32L327.77,296.67,456.13,393.9s59.55-45,94-13.06c13.47,12.5,62,63.21,116.06,120.33a273.19,273.19,0,0,0,15.69-91A286.73,286.73,0,0,0,678.84,369.15Z"/><path class="cls-7" d="M652.38,238.9a300.87,300.87,0,0,0-141-107.64c-57.87-21.25-122.76-23.4-182-6.62A296.87,296.87,0,0,0,156,563.3C186.69,614,232.79,655.55,286.85,680a300.62,300.62,0,0,0,183.07,20.78c58.65-11.83,113.3-42.29,154.6-85.53,41.45-43.39,69.61-99.37,78.64-158.78a313.57,313.57,0,0,0,3.67-46.3C706.68,349.18,687.87,288.61,652.38,238.9ZM347.62,449.06c-19.85,7.25-49,97.23-105.86,110.29-19.18,4.41-36.61,6.59-53,8.29l-.31-.44q-6.06-8.61-11.47-17.65T166.77,531q-2.24-4.44-4.3-9-1.2-2.62-2.11-4.72L331.74,331.5,457.45,437.44S367.47,441.8,347.62,449.06Zm127-34.84c16.32-26.61,60-26.61,65.72-20.32s-8.82,13.55-8.38,23.71,61.75,99.66,61.75,99.66Zm191.48,86.95c-54.08-57.12-102.59-107.83-116.06-120.33-34.4-31.93-94,13.06-94,13.06L327.77,296.67,151.55,493.54q-3.23-10.05-5.7-20.32a250.51,250.51,0,0,1-6.53-41.34,269.45,269.45,0,0,1,6.85-86.09,261.84,261.84,0,0,1,31.44-76.14,265.41,265.41,0,0,1,23.22-32.73A285.73,285.73,0,0,1,230,206.82a244.57,244.57,0,0,1,31.86-24.31,283.73,283.73,0,0,1,37-20.32c50.32-22.9,110.7-29.49,165.07-18.4a271.55,271.55,0,0,1,142.45,78.49q7.26,7.56,14,15.65c4.52,5.46,7.2,9,11.59,15.2a284.29,284.29,0,0,1,21.63,36.17A243.91,243.91,0,0,1,668.87,327a282.72,282.72,0,0,1,10,42.17,286.73,286.73,0,0,1,3,41A273.19,273.19,0,0,1,666.14,501.17Z"/><text class="cls-8" transform="translate(100.14 675.48)">SHO<tspan class="cls-9" x="334.2" y="0">R</tspan><tspan class="cls-10" x="440.57" y="0">TN</tspan></text></svg>