<svg id="Layer_1" data-name="Layer 1" xmlns="http://www.w3.org/2000/svg" xmlns:xlink="http://www.w3.org/1999/xlink" viewBox="0 0 820.33 820.33"><defs><style>.cls-1{fill:none;}.cls-2{clip-path:url(#clip-path);}.cls-3{fill:#5a7936;}.cls-4{font-size:73px;}.cls-4,.cls-7{fill:#405229;}.cls-4,.cls-5,.cls-8{font-family:Delicious-Heavy, Delicious Heavy;}.cls-5{font-size:102.73px;fill:#415228;}.cls-6{fill:#648561;}.cls-8{font-size:218.43px;fill:#fff;stroke:#415228;stroke-miterlimit:10;stroke-width:6px;}.cls-9{letter-spacing:-0.02em;}.cls-10{letter-spacing:0em;}</style><clipPath id="clip-path"><circle class="cls-1" cx="410.16" cy="410.17" r="284.17"/></clipPath></defs><title>Artboard 1 copy 55</title><g class="cls-2"><path class="cls-3" d="M270.65,376.1c-7.09,30.72-36.25,54.27-63.83,83.95s-23.65,69.63-23.65,69.63l112.71-130Z"/></g><text class="cls-4" transform="matrix(0.99, -0.15, 0.15, 0.99, 348.52, 102.05)">T</text><text class="cls-4" transform="translate(375.05 98.08) rotate(-4.89)">i</text><text class="cls-4" transform="translate(391.65 96.56) rotate(-1.35)">t</text><text class="cls-4" transform="matrix(1, 0.04, -0.04, 1, 413.24, 96.1)">l</text><text class="cls-4" transform="matrix(0.99, 0.12, -0.12, 0.99, 429.54, 96.33)">e</text><text class="cls-5" transform="translate(316.73 787.36)">TYPE</text><path class="cls-3" d="M638.74,479c11.42,10.23,21.27,12.8,28,10.75,1.16-.35,2.31-.69,3.48-.95A270.88,270.88,0,0,0,678,455.5l-44-56.36C625.34,392.48,627.3,468.76,638.74,479Z"/><path class="cls-3" d="M387.31,312.62c7.88,9.22,14.19,61.44-9.46,164.85,29.95-19.46,92.22-65.53,117.44-42,20.63,19.25,110.29,96,142.28,123.37.66-1,1.3-2,1.94-3L423.57,264.5Z"/><path class="cls-6" d="M681.83,410.17a286.73,286.73,0,0,0-3-41,282.72,282.72,0,0,0-10-42.17,243.91,243.91,0,0,0-15.31-37.68,284.29,284.29,0,0,0-21.63-36.17c-4.39-6.24-7.07-9.74-11.59-15.2s-9.11-10.61-14-15.65a271.55,271.55,0,0,0-142.45-78.49c-54.37-11.09-114.75-4.5-165.07,18.4a283.73,283.73,0,0,0-37,20.32A244.57,244.57,0,0,0,230,206.82a285.73,285.73,0,0,0-29.15,30.1,265.41,265.41,0,0,0-23.22,32.73,261.84,261.84,0,0,0-31.44,76.14,269.45,269.45,0,0,0-6.85,86.09,250.51,250.51,0,0,0,6.53,41.34c.13.55.27,1.09.41,1.64l122-117.53L303,386,421.73,242.66,559.39,427,634,380.54l46.44,56.54Q681.79,423.73,681.83,410.17Z"/><path class="cls-7" d="M652.38,238.9a300.87,300.87,0,0,0-141-107.64c-57.87-21.25-122.76-23.4-182-6.62A296.87,296.87,0,0,0,156,563.3C186.69,614,232.79,655.55,286.85,680a300.62,300.62,0,0,0,183.07,20.78c58.65-11.83,113.3-42.29,154.6-85.53,41.45-43.39,69.61-99.37,78.64-158.78a313.57,313.57,0,0,0,3.67-46.3C706.68,349.18,687.87,288.61,652.38,238.9ZM183.17,529.68s-3.94-39.93,23.65-69.63,56.74-53.23,63.83-83.95l25.23,23.55Zm454.4,29.18c-32-27.34-121.65-104.12-142.28-123.37-25.22-23.55-87.49,22.52-117.44,42,23.65-103.41,17.34-155.63,9.46-164.85l36.26-48.12L639.51,555.83C638.87,556.84,638.23,557.85,637.57,558.86Zm32.61-70.06c-1.16.26-2.31.6-3.46.95-6.71,2.05-16.56-.52-28-10.75s-13.4-86.52-4.73-79.86l44,56.36A270.53,270.53,0,0,1,670.18,488.8Zm10.27-51.72L634,380.54,559.39,427,421.73,242.66,303,386,268.3,357.33l-122,117.53c-.14-.55-.28-1.09-.41-1.64a250.51,250.51,0,0,1-6.53-41.34,269.45,269.45,0,0,1,6.85-86.09,261.84,261.84,0,0,1,31.44-76.14,265.41,265.41,0,0,1,23.22-32.73A285.73,285.73,0,0,1,230,206.82a244.57,244.57,0,0,1,31.86-24.31,283.73,283.73,0,0,1,37-20.32c50.32-22.9,110.7-29.49,165.07-18.4a271.55,271.55,0,0,1,142.45,78.49q7.26,7.56,14,15.65c4.52,5.46,7.2,9,11.59,15.2a284.29,284.29,0,0,1,21.63,36.17A243.91,243.91,0,0,1,668.87,327a282.72,282.72,0,0,1,10,42.17,286.73,286.73,0,0,1,3,41Q681.8,423.72,680.45,437.08Z"/><text class="cls-8" transform="translate(100.14 675.48)">SHO<tspan class="cls-9" x="334.2" y="0">R</tspan><tspan class="cls-10" x="440.57" y="0">TN</tspan></text></svg>