<svg id="Layer_1" data-name="Layer 1" xmlns="http://www.w3.org/2000/svg" xmlns:xlink="http://www.w3.org/1999/xlink" viewBox="0 0 820.33 820.33"><defs><style>.cls-1{fill:none;}.cls-2{clip-path:url(#clip-path);}.cls-3{fill:#5a7936;}.cls-4{font-size:73px;}.cls-4,.cls-7{fill:#405229;}.cls-4,.cls-5,.cls-8{font-family:Delicious-Heavy, Delicious Heavy;}.cls-5{font-size:102.73px;fill:#415228;}.cls-6{fill:#648561;}.cls-8{font-size:218.43px;fill:#fff;stroke:#415228;stroke-miterlimit:10;stroke-width:6px;}.cls-9{letter-spacing:-0.02em;}.cls-10{letter-spacing:0em;}</style><clipPath id="clip-path"><circle class="cls-1" cx="410.17" cy="410.17" r="284.17"/></clipPath></defs><title>Artboard 1 copy 58</title><g class="cls-2"><path class="cls-3" d="M626.59,637.43V602.06l-19,34.34A56,56,0,0,1,626.59,637.43Z"/><path class="cls-3" d="M497,302.11c-23.28,7.58-47.52-10.82-52.38,17.32S437.85,499.14,437.85,523s29.09,63.87,29.09,63.87l52.38,37.78,38.37-136.47s54.27,2.8,59.12-37.25-39-73.73-39-73.73l2.68-116.34S520.28,294.53,497,302.11Z"/><path class="cls-3" d="M337,586.83c41.7,9.75,54.31-55.21,55.27-92S403.9,392,403.9,392,335.05,512.14,337,586.83Z"/></g><text class="cls-4" transform="matrix(0.99, -0.15, 0.15, 0.99, 348.52, 102.05)">T</text><text class="cls-4" transform="translate(375.04 98.08) rotate(-4.89)">i</text><text class="cls-4" transform="translate(391.65 96.56) rotate(-1.35)">t</text><text class="cls-4" transform="matrix(1, 0.04, -0.04, 1, 413.24, 96.1)">l</text><text class="cls-4" transform="matrix(0.99, 0.12, -0.12, 0.99, 429.54, 96.33)">e</text><text class="cls-5" transform="translate(316.73 787.36)">TYPE</text><path class="cls-3" d="M200,582.4a278.68,278.68,0,0,0,46.25,44.39c24.87-17.63,40.12-40.5,42.26-54,2.91-18.4-6.79-30.24-19.4-27.57s-36.85-4.91-40.73-28.73-5.41-32.14-12.6-27.53c-10.1,6.46-19.4,8-26.19,37.28-2.25,9.7-4.93,20.47-8,30.81q3.31,5.16,6.83,10.18C192.8,573.46,195.47,576.94,200,582.4Z"/><path class="cls-6" d="M678.84,369.15a282.72,282.72,0,0,0-10-42.17,243.91,243.91,0,0,0-15.31-37.68,284.29,284.29,0,0,0-21.63-36.17c-4.39-6.24-7.07-9.74-11.59-15.2s-9.11-10.61-14-15.65a271.55,271.55,0,0,0-142.45-78.49c-54.37-11.09-114.75-4.5-165.07,18.4a283.73,283.73,0,0,0-37,20.32A244.57,244.57,0,0,0,230,206.82a285.73,285.73,0,0,0-29.15,30.1,265.41,265.41,0,0,0-23.22,32.73,261.84,261.84,0,0,0-31.44,76.14,269.45,269.45,0,0,0-6.85,86.09,250.51,250.51,0,0,0,6.53,41.34A287.91,287.91,0,0,0,159,514.07c.81,2,2,4.69,3.46,7.92l-.05-.09c21.38-30.69,42.49-61.19,60.16-87.1,59.16,90.94,100.86,30.79,133.83-13.6s60.13-122.33,73.71-142.9,38.79,3.24,59.16-8.67,91.28-55.36,91.28-55.36S645.81,347.42,681.7,402.49A276.51,276.51,0,0,0,678.84,369.15Z"/><path class="cls-7" d="M652.38,238.9a300.87,300.87,0,0,0-141-107.64c-57.87-21.25-122.76-23.4-182-6.62A296.87,296.87,0,0,0,156,563.3C186.69,614,232.79,655.55,286.85,680a300.62,300.62,0,0,0,183.07,20.78c58.64-11.83,113.3-42.29,154.6-85.53,41.45-43.39,69.61-99.37,78.64-158.78a313.57,313.57,0,0,0,3.67-46.3C706.68,349.18,687.87,288.61,652.38,238.9ZM288.5,572.76c-2.14,13.52-17.39,36.4-42.25,54A278.27,278.27,0,0,1,200,582.4c-4.52-5.46-7.19-8.94-11.59-15.2q-3.53-5-6.83-10.18c3.08-10.34,5.76-21.11,8-30.81,6.79-29.24,16.09-30.82,26.19-37.28,7.19-4.61,8.72,3.71,12.6,27.53s28.12,31.4,40.73,28.73S291.41,554.36,288.5,572.76Zm103.76-77.95c-1,36.81-13.57,101.77-55.27,92C335.05,512.14,403.9,392,403.9,392S393.24,458,392.26,494.81Zm224.55-43.92c-4.85,40.05-59.12,37.25-59.12,37.25L519.32,624.61l-52.38-37.78S437.85,546.77,437.85,523s1.93-175.38,6.78-203.53,29.1-9.74,52.38-17.32,83.52-41.29,83.52-41.29l-2.68,116.34S621.66,410.84,616.81,450.89ZM580.53,214.27s-70.91,43.46-91.28,55.36-45.59-11.9-59.16,8.67-40.73,98.51-73.71,142.9-74.67,104.54-133.83,13.6c-17.67,25.91-38.78,56.41-60.16,87.1l.05.09c-1.48-3.23-2.65-5.9-3.46-7.92a287.91,287.91,0,0,1-13.13-40.85,250.51,250.51,0,0,1-6.53-41.34,269.45,269.45,0,0,1,6.85-86.09,261.84,261.84,0,0,1,31.44-76.14,265.41,265.41,0,0,1,23.22-32.73A285.73,285.73,0,0,1,230,206.82a244.57,244.57,0,0,1,31.86-24.31,283.73,283.73,0,0,1,37-20.32c50.32-22.9,110.7-29.49,165.07-18.4a271.55,271.55,0,0,1,142.45,78.49q7.26,7.56,14,15.65c4.52,5.46,7.2,9,11.59,15.2a284.29,284.29,0,0,1,21.63,36.17A243.91,243.91,0,0,1,668.87,327a282.72,282.72,0,0,1,10,42.17,276.51,276.51,0,0,1,2.86,33.34C645.81,347.42,580.53,214.27,580.53,214.27Z"/><text class="cls-8" transform="translate(100.14 675.48)">SHO<tspan class="cls-9" x="334.2" y="0">R</tspan><tspan class="cls-10" x="440.57" y="0">TN</tspan></text></svg>