<svg id="Layer_1" data-name="Layer 1" xmlns="http://www.w3.org/2000/svg" xmlns:xlink="http://www.w3.org/1999/xlink" viewBox="0 0 256 256"><defs><style>.cls-1{fill:none;}.cls-2{fill:#6fa1d0;}.cls-3{fill:#626b7d;}.cls-4{clip-path:url(#clip-path);}.cls-5{fill:#e6e3e8;}</style><clipPath id="clip-path"><ellipse class="cls-1" cx="128" cy="128" rx="120.84" ry="121"/></clipPath></defs><circle class="cls-2" cx="128" cy="128" r="120.74"/><path class="cls-3" d="M128,7.26A120.74,120.74,0,1,1,7.26,128,120.74,120.74,0,0,1,128,7.26M128,0A128,128,0,0,0,78.17,245.94,128,128,0,0,0,177.83,10.06,127.35,127.35,0,0,0,128,0Z"/><g class="cls-4"><path class="cls-5" d="M170.54,90.24h-9L126,123.66,77.06,34.46,38.51,84.79l-33-4.48-23.76,42.85v25.11c.27.47.54.93.82,1.39a101.37,101.37,0,0,0,187-36.56,107.62,107.62,0,0,0,1.26-15.84Q170.78,93.75,170.54,90.24Z"/><path class="cls-3" d="M77.06,34.46,126,123.66l35.55-33.42h9q.24,3.51.26,7a107.62,107.62,0,0,1-1.26,15.84,101.45,101.45,0,0,1-79.71,83.61A101.4,101.4,0,0,1-17.46,149.66c-.28-.46-.55-.92-.82-1.39V123.16L5.48,80.31l33,4.48L77.06,34.46m.63-8.3-4.23,5.53-37,48.23L6.09,75.8,3,75.38,1.5,78.1-22.25,121l-.57,1V149.5l.61,1.06.86,1.45A105.85,105.85,0,0,0,146,170.58,106.13,106.13,0,0,0,174,113.79a112.62,112.62,0,0,0,1.31-16.51h0v0c0-2.39-.1-4.85-.27-7.33l-.3-4.22h-15l-1.31,1.23-31.27,29.4L81,32.27l-3.35-6.11Z"/><path class="cls-5" d="M226.41,106.62h-9L181.86,140,135.72,40.66,86.8,120.86,37.6,139.53v25.12c.27.46.54.93.82,1.39a101.37,101.37,0,0,0,187-36.56,106.37,106.37,0,0,0,1.25-15.84Q226.67,110.12,226.41,106.62Z"/><path class="cls-3" d="M135.72,40.66,181.86,140l35.55-33.41h9q.26,3.5.26,7a106.37,106.37,0,0,1-1.25,15.84,101.48,101.48,0,0,1-79.71,83.61A101.4,101.4,0,0,1,38.42,166c-.28-.46-.55-.93-.82-1.39V139.53l49.2-18.67,48.92-80.2m.55-9.62-4.42,7.25L83.73,117.16,36,135.28l-2.94,1.11v29.48l.62,1.06.85,1.46a105.92,105.92,0,0,0,195.39-38.23,112.37,112.37,0,0,0,1.31-16.5v0c0-2.38-.1-4.85-.28-7.32l-.29-4.23h-15l-1.31,1.23-31,29.11L139.84,38.74,136.27,31Z"/><path class="cls-5" d="M273.66,115.26h-9l-35.54,33.42L184.79,58.4,134,129.5l-18.76,17.61-30.44,1.07v25.11c.27.47.55.93.82,1.39a101.38,101.38,0,0,0,187-36.56,107.72,107.72,0,0,0,1.25-15.84C273.92,119.94,273.82,117.6,273.66,115.26Z"/><path class="cls-3" d="M184.79,58.4l44.32,90.28,35.54-33.42h9c.16,2.34.26,4.68.26,7a107.72,107.72,0,0,1-1.25,15.84A101.47,101.47,0,0,1,193,221.73a101.4,101.4,0,0,1-107.29-47c-.27-.46-.55-.92-.82-1.39V148.18l30.44-1.07L134,129.5l50.75-71.1m.72-8.83-4.42,6.19-50.48,70.73-17.19,16.13-28.74,1-4.38.16v30.73l.61,1c.29.49.57,1,.86,1.46a105.92,105.92,0,0,0,195.39-38.22,111.24,111.24,0,0,0,1.3-16.51v0h0c0-2.39-.09-4.86-.27-7.33l-.3-4.23h-15L261.54,112l-31.06,29.2L188.86,56.4l-3.35-6.83Z"/><path class="cls-5" d="M320.91,137.1h-9l-35.55,33.41L218.86,79.33l-37.57,72-25.44-24.17L132.09,170v25.12c.27.46.54.93.82,1.39a101.37,101.37,0,0,0,187-36.56,107.87,107.87,0,0,0,1.26-15.85Q321.16,140.6,320.91,137.1Z"/><path class="cls-3" d="M218.86,79.33l57.49,91.18L311.9,137.1h9q.24,3.5.26,7A107.87,107.87,0,0,1,319.91,160a101.45,101.45,0,0,1-79.71,83.61,101.44,101.44,0,0,1-107.29-47c-.28-.46-.55-.93-.82-1.39V170l23.76-42.85,25.44,24.17,37.57-72m-.37-9.11-3.66,7-34.78,66.67-21.08-20-4.25-4L151.87,125,128.12,167.8l-.57,1v27.52l.61,1.06c.28.49.57,1,.86,1.45a105.68,105.68,0,0,0,90.92,51.27,108,108,0,0,0,21.15-2.1,106,106,0,0,0,83.31-87.39,112.48,112.48,0,0,0,1.31-16.5v0c0-2.39-.1-4.85-.27-7.32l-.3-4.23h-15l-1.31,1.23-31.53,29.64L222.7,76.9l-4.21-6.68Z"/><path class="cls-5" d="M116.64,174.85,86.15,71.31,40,141.33,20.33,115.72-9.2,160v25.12l.83,1.39A101.4,101.4,0,0,0,98.91,233.56C119,229.51,116.64,174.85,116.64,174.85Z"/><path class="cls-3" d="M86.15,71.31l30.49,103.54s2.32,54.66-17.73,58.71A101.4,101.4,0,0,1-8.37,186.51l-.83-1.39V160l29.53-44.28L40,141.33l46.14-70m1.59-10.68L82.35,68.8,39.72,133.5,23.93,112.94l-3.86-5-3.51,5.27L-13,157.48l-.77,1.15v27.71l.62,1.06.85,1.46A106.39,106.39,0,0,0,99.81,238c10.42-2.11,17.14-13.79,20-34.72a181.51,181.51,0,0,0,1.38-28.64l0-.56-.16-.53L90.5,70l-2.76-9.39Z"/><path class="cls-5" d="M191,176.88,142,87.68l-46.14,70L70.44,133.53-6.47,224.44s75.56,19.83,94,28.2c19.6,8.87,46.14,1.54,67.22-2.71a101.34,101.34,0,0,0,52.84-29.27C221.8,205.82,191,176.88,191,176.88Z"/><path class="cls-3" d="M142,87.68,191,176.88s30.85,28.94,16.68,43.78a101.34,101.34,0,0,1-52.84,29.27c-13.82,2.79-30,6.9-45,6.9-7.89,0-15.46-1.14-22.21-4.19-18.48-8.37-94-28.2-94-28.2l76.91-90.91L95.88,157.7l46.14-70m.36-8.8-4.15,6.3L95.08,150.67,73.57,130.23l-3.49-3.31L67,130.59-9.94,221.5-14.6,227l7,1.83c.75.19,75.4,19.83,93.32,27.94,6.82,3.09,14.7,4.6,24.08,4.6,12.84,0,26.44-2.89,38.43-5.43,2.6-.55,5.06-1.07,7.48-1.56a106,106,0,0,0,55.22-30.58,17.81,17.81,0,0,0,5-13.26c-.21-7.22-4-15.7-11.3-25.19a110.74,110.74,0,0,0-10-11.28L146,85.49l-3.62-6.61Z"/><path class="cls-5" d="M278.66,153.47h-9L242,193.5l-60-76L148,173.94l-31.35,9.56-26.8,2.89L55.77,274.93c.27.46,121.09-10.74,142.18-15a101.45,101.45,0,0,0,79.71-83.61,107.73,107.73,0,0,0,1.26-15.84Q278.91,157,278.66,153.47Z"/><path class="cls-3" d="M182.06,117.54l60,76,27.62-40h9q.24,3.51.26,7a107.73,107.73,0,0,1-1.26,15.84A101.45,101.45,0,0,1,198,259.94c-20.66,4.16-137.06,15-142,15h-.16l34.07-88.54,26.8-2.89L148,173.94l34.07-56.4m-.5-8-3.39,5.61L145,170.1,115.73,179l-26.38,2.85-2.75.29-1,2.59L51.53,273.29l-.79,2,1.1,1.89a4.59,4.59,0,0,0,4.09,2.27c3,0,35.48-2.95,65.58-6,23.75-2.38,65.38-6.72,77.33-9.13A106,106,0,0,0,282.16,177a114,114,0,0,0,1.3-16.51v0h0c0-2.39-.1-4.85-.27-7.33l-.3-4.23H267.27l-1.36,2-24.13,35-56.16-71.14-4.06-5.15Z"/></g></svg>