<svg id="Layer_1" data-name="Layer 1" xmlns="http://www.w3.org/2000/svg" viewBox="0 0 256 256"><defs><style>.cls-1{fill:#6fa1d0;}.cls-2{fill:#626b7d;}.cls-3{fill:#e6e3e8;}</style></defs><circle class="cls-1" cx="128" cy="128" r="120.74"/><path class="cls-2" d="M128,7.26A120.74,120.74,0,1,1,7.26,128,120.74,120.74,0,0,1,128,7.26M128,0A128,128,0,0,0,78.17,245.94,128,128,0,0,0,177.83,10.06,127.35,127.35,0,0,0,128,0Z"/><path class="cls-3" d="M128,248.74a120.79,120.79,0,0,0,114.67-82.87,111.64,111.64,0,0,0-13.9-4.92c-.23-2.23-5.22-3.67-8-5s-6.81-5.44-10-6.8-2.27-6.81-5.9-7.72-16.34-15-17.25-17.25-12.26-5.9-14.57-6.82-7.67-9.52-9.64-10.87.61-5.46,0-6.74-3.93-3.71-5.75-4.16-4.54-8.63-5.38-8.91-6-11.52-6.68-13.13-14.27-17-15.58-18.32-8.22.87-9.4,2.64-4.26,4.13-6.43,3.9-6,8.85-8.9,9.17S102.81,80.11,101,81s-4.08,7.26-7,6.85-4.79,4.5-5,9.17-11,18.25-12.36,20.28-5.86-.67-7.92-.67-15.64,20-17,21.34-5.44.45-7.26,1.81-2.72,5.45-10.44,7.72l-23.1,10.16A120.79,120.79,0,0,0,128,248.74Z"/><path class="cls-2" d="M52.65,151.6c4.54-2.72,11.35-14.07,14.07-16.34s11.8-10.89,15-13.16,7.07-13.49,9.89-12,7.36,13.77,10.54,15.14S109.84,138,113,138.89s10,6.81,10.44,8.17-16.34-4.54-16.34-4.54-8.17-.45-10.44,1.82-8.64,5.45-9.54,7.26-4.08,5.45-5.89,4.54S74.89,153,74,153.87s-2.42,2.56-4.16,2.42-2.2-4.23-5.38-3.78-6.88,3-8,3.78,14.34,6.66,16.61,9.84,4.08,7.26,4.08,9.08,2.73,5.44,5.9,7.26,0,13.62,0,13.62-5.44-13.17-8.17-14.53-8.17-9.08-12.71-9.53-8.62,5.45-8.62,5.45-12.26-9.08-15-9.08-9.53-.91-9.53-.91l11.8-2.72-8.17-3.64,11.8-1.36-5-2.27Z"/><path class="cls-2" d="M116.82,96.13c-4.48,2.14-9.58,6.58-8.16,9.35s7.87,2,8.16,3.84,5.75,1.73,6.65,3,6.07-2.29,6.21.14,10.39-4.29,10.39-4.29-8.76-.19-10.64-2.64S121.29,94,116.82,96.13Z"/><path class="cls-2" d="M127.32,59.23s2.94-.4,2.61,2.07a45.77,45.77,0,0,1-5.57,14.48c-3.4,5.7-2.33,10.77-5.81,14.36S105,99.34,100.74,102s-6.56,5.82-8.37,3.55c0,0-.91-5.44,1.81-7.26s10.9-11.35,11.35-13.16,5-7.27,7.72-8.17,3.63-10,3.63-10C118.7,65.59,125.5,59.23,127.32,59.23Z"/><path class="cls-2" d="M148,105.85l1.73,10.44,11.65,21.92,7.26,13.17s3.18,7.26-2.27,5-16.79-15-16.79-15-4.08-16.79-4.08-17.7-2.2-7.49-2.2-7.49V102.26Z"/><path class="cls-2" d="M96.91,198.13c3.18-5.45,11.8-22.24,15.88-29s6.83-15,10.68-15,15.35,12.2,19.81,10.88,7.19-17.66,10.37-14.48,10.89,16.34,14.07,16.79,5.9,3.63,8.17,4.09,9.07,5.9,11.34,5.9-13.13-3.87-17.68-2.16-20.82,4.22-29.48,8.41-30.72,9.63-35.12,12.59S96.91,198.13,96.91,198.13Z"/></svg>