<svg id="Layer_1" data-name="Layer 1" xmlns="http://www.w3.org/2000/svg" viewBox="0 0 256 256"><defs><style>.cls-1{fill:#232a2b;}.cls-2{fill:#30332b;}.cls-3{fill:#e6e3e8;}.cls-4{fill:#5a7936;}.cls-5{fill:#2d52a7;}</style></defs><ellipse class="cls-1" cx="128" cy="127.5" rx="120.74" ry="121.21"/><path class="cls-2" d="M128,6.29c66.68,0,120.74,54.27,120.74,121.21S194.68,248.71,128,248.71,7.26,194.44,7.26,127.5,61.32,6.29,128,6.29M128-1A127.33,127.33,0,0,0,37.49,36.64a128.71,128.71,0,0,0,0,181.72A128.24,128.24,0,0,0,245.94,77.48,128.73,128.73,0,0,0,177.83,9.1,126.85,126.85,0,0,0,128-1Z"/><polygon class="cls-3" points="62.18 95.15 60.72 90.69 56.28 89.22 60.27 87.3 62.18 83.3 63.76 87.64 68.08 89.22 63.42 90.47 62.18 95.15"/><polygon class="cls-3" points="194.72 100.16 193.26 95.71 188.82 94.24 192.81 92.31 194.72 88.31 196.3 92.65 200.62 94.24 195.96 95.48 194.72 100.16"/><polygon class="cls-3" points="148.43 71.45 146.96 67 142.53 65.53 146.51 63.6 148.43 59.6 150 63.94 154.33 65.53 149.67 66.77 148.43 71.45"/><polygon class="cls-3" points="39.94 135.7 39.04 132.96 36.31 132.06 38.76 130.87 39.94 128.41 40.91 131.08 43.57 132.06 40.71 132.82 39.94 135.7"/><polygon class="cls-3" points="99.86 76.47 98.96 73.72 96.23 72.82 98.68 71.64 99.86 69.17 100.83 71.84 103.49 72.82 100.62 73.58 99.86 76.47"/><polygon class="cls-3" points="127.09 100.16 126.19 97.42 123.46 96.51 125.91 95.33 127.09 92.87 128.06 95.54 130.72 96.51 127.86 97.28 127.09 100.16"/><polygon class="cls-3" points="34.72 152.33 36.19 156.79 40.62 158.26 36.64 160.18 34.72 164.18 33.15 159.84 28.82 158.26 33.48 157.01 34.72 152.33"/><polygon class="cls-3" points="98.27 207.93 99.73 212.38 104.17 213.85 100.19 215.78 98.27 219.77 96.69 215.44 92.37 213.85 97.03 212.6 98.27 207.93"/><polygon class="cls-3" points="146.84 226.15 148.3 230.6 152.74 232.08 148.75 234 146.84 238 145.26 233.66 140.94 232.08 145.6 230.83 146.84 226.15"/><polygon class="cls-3" points="128.68 173.29 129.58 176.03 132.31 176.94 129.86 178.13 128.68 180.59 127.71 177.92 125.05 176.94 127.92 176.17 128.68 173.29"/><polygon class="cls-3" points="40.62 196.53 41.53 199.27 44.26 200.18 41.8 201.36 40.62 203.82 39.65 201.16 36.99 200.18 39.86 199.41 40.62 196.53"/><polygon class="cls-3" points="179.06 196.53 179.97 199.27 182.69 200.18 180.24 201.36 179.06 203.82 178.09 201.16 175.43 200.18 178.3 199.41 179.06 196.53"/><polygon class="cls-3" points="179.06 106.77 180.53 111.22 184.97 112.69 180.98 114.61 179.06 118.61 177.49 114.28 173.16 112.69 177.82 111.44 179.06 106.77"/><polygon class="cls-3" points="187.23 159.17 188.7 163.62 193.13 165.09 189.15 167.02 187.23 171.02 185.66 166.68 181.33 165.09 185.99 163.85 187.23 159.17"/><polygon class="cls-3" points="91.01 155.52 91.91 158.26 94.64 159.17 92.19 160.35 91.01 162.81 90.04 160.15 87.38 159.17 90.24 158.4 91.01 155.52"/><polygon class="cls-3" points="224.91 83.07 225.81 85.81 228.54 86.72 226.09 87.9 224.91 90.36 223.94 87.69 221.28 86.72 224.14 85.95 224.91 83.07"/><polygon class="cls-3" points="81.93 113.15 82.83 115.89 85.56 116.79 83.11 117.98 81.93 120.44 80.96 117.77 78.3 116.79 81.17 116.03 81.93 113.15"/><polygon class="cls-3" points="225.65 135.73 224.48 132.19 220.96 131.02 224.12 129.49 225.65 126.31 226.9 129.76 230.34 131.02 226.63 132.01 225.65 135.73"/><polygon class="cls-3" points="187.23 46.62 188.7 51.07 193.13 52.54 189.15 54.47 187.23 58.47 185.66 54.13 181.33 52.54 185.99 51.3 187.23 46.62"/><polygon class="cls-3" points="148.65 27.93 150.12 32.39 154.55 33.86 150.57 35.78 148.65 39.78 147.07 35.44 142.75 33.86 147.41 32.61 148.65 27.93"/><polygon class="cls-3" points="73.76 48.9 75.22 53.35 79.66 54.82 75.68 56.74 73.76 60.74 72.18 56.41 67.86 54.82 72.52 53.58 73.76 48.9"/><polygon class="cls-3" points="105.99 19.28 106.89 22.02 109.62 22.92 107.17 24.11 105.99 26.57 105.01 23.9 102.36 22.92 105.22 22.16 105.99 19.28"/><polygon class="cls-3" points="34.72 86.72 35.63 89.46 38.35 90.36 35.9 91.55 34.72 94.01 33.75 91.34 31.09 90.36 33.96 89.6 34.72 86.72"/><ellipse class="cls-4" cx="130.73" cy="129.63" rx="8.15" ry="8.18"/><path class="cls-5" d="M140.2,129.83a9.48,9.48,0,1,1-9.48-9.51A9.5,9.5,0,0,1,140.2,129.83ZM137.43,128h.7a7.66,7.66,0,0,0-6.19-5.72v.83a.59.59,0,0,1-.59.6h-.92a.59.59,0,0,0-.49.26l-.31.47a.58.58,0,0,1-.35.24l-.55.14a.6.6,0,0,0-.45.58v.17a.58.58,0,0,0,.59.59h3.44a.6.6,0,0,1,.42.18l.26.26a.62.62,0,0,0,.42.18h.39a.59.59,0,0,1,.59.59.58.58,0,0,1-.41.56l-1.8.61a.59.59,0,0,1-.45,0l-.57-.29a2.15,2.15,0,0,0-.93-.22h0a2.12,2.12,0,0,0-1.26.42l-1,.8a2.07,2.07,0,0,0-.84,1.67v.54a2.09,2.09,0,0,0,.62,1.48,2.05,2.05,0,0,0,1.47.62h1a.58.58,0,0,1,.59.59v1.15a3.05,3.05,0,0,0,.32,1.35,1.06,1.06,0,0,0,1.83.12l.5-.75a5.69,5.69,0,0,1,.95-1.12.65.65,0,0,0,.19-.33l.16-.88a.53.53,0,0,1,.11-.24l.72-1a.64.64,0,0,0,.11-.36v-.43a.59.59,0,0,0-.59-.6h-.31a.58.58,0,0,1-.49-.26l-.51-.76a.6.6,0,0,1,.3-.9l.1,0a.63.63,0,0,1,.19,0,.61.61,0,0,1,.33.1l.7.46a.52.52,0,0,0,.33.1.58.58,0,0,0,.26-.06l.59-.29a.62.62,0,0,0,.33-.54v-.26A.59.59,0,0,1,137.43,128Z"/></svg>