<svg id="Layer_1" data-name="Layer 1" xmlns="http://www.w3.org/2000/svg" viewBox="0 0 256 256"><defs><style>.cls-1{fill:#2b373a;}.cls-2{fill:#30332b;}.cls-3{fill:#e6e3e8;}.cls-4{fill:#7d8597;}.cls-5{fill:#d58b1f;}.cls-6{fill:#9eb3c5;}</style></defs><circle class="cls-1" cx="128" cy="128" r="120.74"/><path class="cls-2" d="M128,7.26A120.74,120.74,0,1,1,7.26,128,120.74,120.74,0,0,1,128,7.26M128,0A128,128,0,0,0,78.17,245.94,128,128,0,0,0,177.83,10.06,127.35,127.35,0,0,0,128,0Z"/><polygon class="cls-3" points="59.46 57.19 57.99 52.76 53.56 51.29 57.54 49.37 59.46 45.39 61.04 49.71 65.36 51.29 60.7 52.53 59.46 57.19"/><polygon class="cls-3" points="192 62.18 190.53 57.75 186.1 56.28 190.08 54.37 192 50.38 193.58 54.7 197.9 56.28 193.24 57.52 192 62.18"/><polygon class="cls-3" points="145.7 33.59 144.24 29.15 139.8 27.69 143.78 25.77 145.7 21.79 147.28 26.11 151.6 27.69 146.94 28.93 145.7 33.59"/><polygon class="cls-3" points="37.22 97.59 36.32 94.86 33.59 93.96 36.04 92.78 37.22 90.33 38.19 92.99 40.85 93.96 37.98 94.72 37.22 97.59"/><polygon class="cls-3" points="97.14 38.58 96.23 35.85 93.5 34.95 95.95 33.77 97.14 31.32 98.11 33.98 100.77 34.95 97.9 35.71 97.14 38.58"/><polygon class="cls-3" points="124.37 62.18 123.47 59.45 120.74 58.55 123.19 57.37 124.37 54.92 125.34 57.58 128 58.55 125.13 59.32 124.37 62.18"/><polygon class="cls-3" points="203.57 163.18 205.04 167.61 209.47 169.08 205.49 171 203.57 174.98 202 170.66 197.67 169.08 202.33 167.84 203.57 163.18"/><polygon class="cls-3" points="218.1 120.97 219 123.69 221.73 124.6 219.28 125.78 218.1 128.23 217.13 125.57 214.47 124.6 217.34 123.83 218.1 120.97"/><polygon class="cls-3" points="221.73 71.94 222.63 74.67 225.36 75.57 222.91 76.75 221.73 79.21 220.76 76.55 218.1 75.57 220.97 74.81 221.73 71.94"/><polygon class="cls-3" points="34.72 152.74 36.19 157.17 40.62 158.64 36.64 160.56 34.72 164.54 33.15 160.22 28.82 158.64 33.48 157.4 34.72 152.74"/><polygon class="cls-3" points="98.27 208.11 99.73 212.55 104.17 214.01 100.19 215.93 98.27 219.91 96.69 215.59 92.37 214.01 97.03 212.77 98.27 208.11"/><polygon class="cls-3" points="146.84 226.27 148.3 230.7 152.74 232.17 148.75 234.09 146.84 238.07 145.26 233.75 140.94 232.17 145.6 230.93 146.84 226.27"/><polygon class="cls-3" points="128.68 173.62 129.58 176.35 132.31 177.25 129.86 178.43 128.68 180.88 127.71 178.22 125.05 177.25 127.92 176.49 128.68 173.62"/><polygon class="cls-3" points="40.62 196.77 41.53 199.5 44.26 200.4 41.8 201.58 40.62 204.03 39.65 201.37 36.99 200.4 39.86 199.63 40.62 196.77"/><polygon class="cls-3" points="179.06 196.77 179.97 199.5 182.69 200.4 180.24 201.58 179.06 204.03 178.09 201.37 175.43 200.4 178.3 199.63 179.06 196.77"/><polygon class="cls-4" points="59.29 86.36 66.27 124.51 63.33 125.04 56.35 86.9 51.89 87.72 59.29 128.16 62.22 127.62 63.75 127.34 64.26 127.25 64.8 130.18 66.2 129.92 65.67 126.99 66.69 126.8 67.84 126.59 71.15 125.98 63.75 85.55 59.29 86.36"/><polygon class="cls-4" points="79.44 85.01 86.42 123.15 83.49 123.69 76.51 85.55 72.04 86.36 79.44 126.8 82.38 126.27 83.91 125.98 84.42 125.89 84.96 128.82 86.36 128.57 85.82 125.63 86.84 125.45 87.99 125.24 91.31 124.63 83.91 84.19 79.44 85.01"/><polygon class="cls-5" points="93.39 176.9 86.41 138.76 89.35 138.22 96.33 176.36 100.79 175.55 93.39 135.11 90.46 135.65 88.93 135.93 88.42 136.02 87.88 133.09 86.47 133.34 87.01 136.28 85.99 136.46 84.84 136.67 81.53 137.28 88.93 177.72 93.39 176.9"/><polygon class="cls-5" points="73.24 176.96 66.26 138.82 69.19 138.28 76.17 176.42 80.64 175.6 73.23 135.17 70.3 135.71 68.77 135.99 68.26 136.08 67.72 133.14 66.32 133.4 66.86 136.34 65.84 136.52 64.69 136.73 61.37 137.34 68.77 177.78 73.24 176.96"/><polygon class="cls-4" points="161.94 84.38 163.36 123.13 160.38 123.24 158.96 84.49 154.43 84.66 155.93 125.74 158.91 125.63 160.47 125.57 160.99 125.55 161.09 128.53 162.52 128.48 162.41 125.5 163.45 125.46 164.62 125.42 167.98 125.3 166.48 84.22 161.94 84.38"/><polygon class="cls-4" points="181.44 84.6 182.87 123.35 179.88 123.46 178.46 84.71 173.93 84.88 175.44 125.96 178.42 125.85 179.97 125.8 180.49 125.78 180.6 128.76 182.02 128.7 181.91 125.72 182.95 125.69 184.12 125.64 187.49 125.52 185.98 84.44 181.44 84.6"/><polygon class="cls-5" points="182.67 177.07 181.25 138.32 184.23 138.21 185.65 176.96 190.18 176.79 188.68 135.71 185.7 135.82 184.14 135.88 183.62 135.9 183.51 132.92 182.09 132.97 182.2 135.95 181.16 135.99 180 136.03 176.63 136.15 178.13 177.24 182.67 177.07"/><polygon class="cls-5" points="162.19 177.82 160.77 139.07 163.75 138.96 165.17 177.71 169.71 177.54 168.2 136.46 165.22 136.57 163.67 136.63 163.15 136.65 163.04 133.67 161.61 133.72 161.72 136.7 160.69 136.74 159.52 136.78 156.15 136.9 157.66 177.99 162.19 177.82"/><path class="cls-3" d="M148.93,128.52l-2.3-8.3H103.18l-2.07,8.3H64.8v5.32H186.31v-5.32Zm-34.86-4.28h20.59l.66,4.28H113.24Z"/><rect class="cls-6" x="122.25" y="133.84" width="4.67" height="12.06"/><rect class="cls-6" x="122.25" y="112.18" width="4.67" height="8.17"/><rect class="cls-4" x="118.36" y="110.49" width="12.45" height="3.24"/></svg>