<svg id="Layer_1" data-name="Layer 1" xmlns="http://www.w3.org/2000/svg" viewBox="0 0 256 256"><defs><style>.cls-1{fill:#2b373a;}.cls-2{fill:#30332b;}.cls-3{fill:#2d52a7;}.cls-4{fill:#5a7936;}.cls-5{fill:#626b7d;}.cls-6{fill:#e6e3e8;}</style></defs><circle class="cls-1" cx="128" cy="128" r="120.74"/><path class="cls-2" d="M128,7.26A120.74,120.74,0,1,1,7.26,128,120.74,120.74,0,0,1,128,7.26M128,0A128,128,0,0,0,78.17,245.94,128,128,0,0,0,177.83,10.06,127.35,127.35,0,0,0,128,0Z"/><path class="cls-3" d="M133.44,222.42c-19.47,0-36.36,8-44.78,19.76a121.13,121.13,0,0,0,86.51-3c0-.22,0-.45,0-.67C166.12,228.79,150.8,222.42,133.44,222.42Z"/><path class="cls-4" d="M133.14,227.42l-5.76-4.19c-1.68.05-3.34.17-5,.36v1.67c0,1.77-2.54,2.91-4.71,2.12l-4.89-1.78c-9.33,2.94-16.84,8.35-21,15.08l3.26,3.51a120.42,120.42,0,0,0,16.21,3.39l6.13-1.49a4.84,4.84,0,0,1,1-.12,4,4,0,0,1,2.13.58l1.89,1.19a2,2,0,0,0,1.07.29h1.15c1.21,0,2-.92,1.45-1.71L123,241.71a.93.93,0,0,1-.17-.53,1,1,0,0,1,.49-.85l2-1.43a1.94,1.94,0,0,1,1.13-.34h1.84a2,2,0,0,0,1.15-.34L131,237a1,1,0,0,0,0-1.67l-1-.69a1,1,0,0,1,0-1.68l2.11-1.53.95-.69A2,2,0,0,0,133.14,227.42Z"/><path class="cls-4" d="M157.73,245q4.7-1.18,9.24-2.73a28.14,28.14,0,0,0-1.67-2.76l-2.64,1a4.81,4.81,0,0,0-1.88,1.21Z"/><path class="cls-5" d="M8.21,143.18l.27,1.9h0a241.44,241.44,0,0,1,58.14-20.46,298.23,298.23,0,0,1,122.81-.16,241.83,241.83,0,0,1,58.34,20.19L247,145l.26-1.9.27.51a243,243,0,0,0-58.21-20.19,299.14,299.14,0,0,0-122.76-.17A243.26,243.26,0,0,0,8.21,143.18Zm0,0A243,243,0,0,1,66.5,122.79a299.57,299.57,0,0,1,123-.17A243.6,243.6,0,0,1,248,142.73l.32.16,0,.35-.27,1.91-.09.69-.63-.32a241,241,0,0,0-58.05-20.26,297.34,297.34,0,0,0-122.53-.16,241,241,0,0,0-58.25,20h0Z"/><polygon class="cls-6" points="59.46 57.19 57.99 52.76 53.56 51.29 57.54 49.37 59.46 45.39 61.04 49.71 65.36 51.29 60.7 52.53 59.46 57.19"/><polygon class="cls-6" points="118.01 101.67 116.55 97.24 112.11 95.77 116.1 93.86 118.01 89.87 119.59 94.19 123.92 95.77 119.25 97.01 118.01 101.67"/><polygon class="cls-6" points="192 62.18 190.53 57.75 186.1 56.28 190.08 54.37 192 50.38 193.58 54.7 197.9 56.28 193.24 57.52 192 62.18"/><polygon class="cls-6" points="145.7 33.59 144.24 29.15 139.8 27.69 143.78 25.77 145.7 21.79 147.28 26.11 151.6 27.69 146.94 28.93 145.7 33.59"/><polygon class="cls-6" points="44.94 99.4 44.03 96.67 41.3 95.77 43.76 94.59 44.94 92.14 45.91 94.8 48.57 95.77 45.7 96.54 44.94 99.4"/><polygon class="cls-6" points="112.11 57.65 111.21 54.92 108.48 54.01 110.93 52.83 112.11 50.38 113.08 53.04 115.75 54.01 112.88 54.78 112.11 57.65"/><polygon class="cls-6" points="190.64 97.14 189.74 94.41 187.01 93.5 189.46 92.32 190.64 89.87 191.61 92.53 194.27 93.5 191.4 94.27 190.64 97.14"/></svg>