<svg id="Layer_1" data-name="Layer 1" xmlns="http://www.w3.org/2000/svg" xmlns:xlink="http://www.w3.org/1999/xlink" viewBox="0 0 256 256"><defs><style>.cls-1{fill:none;}.cls-2{fill:#23363d;}.cls-3{fill:#405229;}.cls-4{fill:#2d52a7;}.cls-5{fill:#5a7936;}.cls-6{fill:#e6e3e8;}.cls-7{fill:#626b7d;}.cls-8{clip-path:url(#clip-path);}.cls-9{fill:#4ba880;}.cls-10{fill:#4ba88b;}</style><clipPath id="clip-path"><circle class="cls-1" cx="128" cy="128" r="121"/></clipPath></defs><circle class="cls-2" cx="128" cy="128" r="120.74"/><path class="cls-3" d="M128,7.26A120.74,120.74,0,1,1,7.26,128,120.74,120.74,0,0,1,128,7.26M128,0A128,128,0,0,0,78.17,245.94,128,128,0,0,0,177.83,10.06,127.35,127.35,0,0,0,128,0Z"/><path class="cls-4" d="M134.42,199.48c-30.63,0-57.1,12.93-69.67,31.69a121.07,121.07,0,0,0,133.44-4.6l.21-.33c0-.69.08-1.39.11-2.09C184.57,209.26,161.07,199.48,134.42,199.48Z"/><path class="cls-5" d="M134,207.15l-8.84-6.42c-2.58.07-5.12.26-7.62.55v2.56c0,2.71-3.91,4.46-7.23,3.25l-7.5-2.72c-14.32,4.5-25.85,12.8-32.24,23.13,3.1,3.34,7.87,8.49,10.8,11.61.3.32.62.63.93.94a120.24,120.24,0,0,0,34.53,8.43c-1.45-1.34-2.91-2.43-4.28-2.43a27.84,27.84,0,0,1-9.47-1.63l-3.46-1.25a2.79,2.79,0,0,1-2.07-2.43h0a3,3,0,0,1,2.55-2.58l9.74-2.36a6.77,6.77,0,0,1,1.58-.18,6.12,6.12,0,0,1,3.28.89l2.9,1.83a3.14,3.14,0,0,0,1.64.44H121c1.85,0,3.06-1.42,2.23-2.63l-4.87-7.08a1.39,1.39,0,0,1-.26-.81,1.63,1.63,0,0,1,.75-1.3l3.1-2.19a3.09,3.09,0,0,1,1.75-.52h2.81a3,3,0,0,0,1.76-.53l2.5-1.82a1.48,1.48,0,0,0,0-2.56l-1.46-1.07a1.49,1.49,0,0,1,0-2.57l3.23-2.34,1.46-1.07A3,3,0,0,0,134,207.15Z"/><path class="cls-5" d="M183.31,225.77l-4.05,1.47a7.24,7.24,0,0,0-2.89,1.85l-6.12,6.67a4.51,4.51,0,0,0-1.25,3,4.33,4.33,0,0,0,1,2.72,120.38,120.38,0,0,0,17.45-8.11A39.3,39.3,0,0,0,183.31,225.77Z"/><path class="cls-6" d="M117.34,61.93c.61.4,10.25-2.53,10.7-2.23a1.58,1.58,0,0,1,.65,1.78,1.53,1.53,0,0,1-.39.66c-3.28,3.41-21.21,15.51-28.62,19.7-.13.07-.26.18-.38.25a19.31,19.31,0,0,1-18.51-33.9c.12-.07.28-.12.41-.19,7.53-4,19.72-6.64,24.37-7.56a1.68,1.68,0,0,1,.77,0A1.58,1.58,0,0,1,107.48,42c0,.53,0,1.2,0,1.93,8-.45,34.41-11.28,38.41-11.3a1.58,1.58,0,0,1,.47.07,1.61,1.61,0,0,1,.89,2.41C145.08,38.44,122,55.46,117.34,61.93Z"/><path class="cls-7" d="M93.26,53.16a12.68,12.68,0,1,0,8.6,15.74h0A12.69,12.69,0,0,0,93.26,53.16Z"/><g class="cls-8"><path class="cls-9" d="M238.64,98.91V70.14a2.82,2.82,0,0,0-5.55,0v20.7l-.69-.48c-.45-.31-.92-.59-1.4-.86V55.58a2.82,2.82,0,0,0-5.55,0V87.13l-.61-.19c-1.41-.42-2.83-.76-4.25-1V52.67a2.82,2.82,0,0,0-5.55,0V85.08c-1.62-.17-3.24-.28-4.86-.36V52.09a2.82,2.82,0,0,0-5.55,0V84.62c-1.22,0-2.43,0-3.65.09s-2.63.13-3.94.23c-.48,0-1,.07-1.43.12V52.38a2.82,2.82,0,0,0-5.55,0V87.76a2.19,2.19,0,0,0,1,1.76,3.44,3.44,0,0,0,2.93,1h0c1.13-.15,2.4-.28,3.61-.38s2.46-.19,3.69-.25c2.47-.12,4.94-.17,7.39-.11a57.86,57.86,0,0,1,14.19,1.84,21.85,21.85,0,0,1,5.9,2.57,10.05,10.05,0,0,1,3.69,4,8.58,8.58,0,0,1,.61,1.72v5.2c-.08.4-.16.79-.26,1.19l0,.18,0,.14-.08.28c-.09.18-.14.37-.24.54a6.65,6.65,0,0,1-.65,1.07,13.43,13.43,0,0,1-3.89,3.24V97.52a2.47,2.47,0,0,0-4.86,0v16.57c-.75.3-1.52.59-2.3.86-1.21.42-2.46.8-3.71,1.17V94.6a2.47,2.47,0,0,0-4.86,0v22.79q-2.81.66-5.66,1.23l-.36.06V95.77a2.46,2.46,0,0,0-4.85,0v23.8c-2,.34-4,.67-6,1V95.77a2.47,2.47,0,0,0-4.86,0v25.46q-3,.4-6,.77V96.93a2.47,2.47,0,0,0-4.86,0v25.64l-3,.33-3,.32V98.1a2.47,2.47,0,0,0-4.86,0v25.62l-6,.59V100.43a2.46,2.46,0,0,0-4.85,0v24.33l-6,.56V102.76a2.47,2.47,0,0,0-4.86,0v23l-.74.07-5.27.5V105.09a2.47,2.47,0,0,0-4.86,0v21.72c-2,.2-4,.4-6,.62V106.25a2.47,2.47,0,0,0-4.86,0V128l-4.17.51V109.75a2.46,2.46,0,0,0-4.85,0v19.37l-.47.07-3.7.57V113.24a2.47,2.47,0,0,0-4.86,0v17.39c-1.39.27-2.78.58-4.16.92v-16a2.47,2.47,0,0,0-4.86,0v16.31a1.81,1.81,0,0,0,.3,1c-.55.19-1.1.38-1.65.6s-1,.4-1.42.62V121.4a2.47,2.47,0,0,0-4.86,0v15.14a14.57,14.57,0,0,1-.15,2.17,4.3,4.3,0,0,0,0,2.25,6.31,6.31,0,0,0,.88,1.91c3,4.19,7.89,6.78,13,8.23a66.15,66.15,0,0,0,15.51,2.18c10.37.4,20.59-.47,30.7-.47h.23a2,2,0,0,0,.36,0l.3,0c2.22,0,4.44.09,6.62.28a34.58,34.58,0,0,1,7.16,1.26,11.37,11.37,0,0,1,5.54,3.28,7.49,7.49,0,0,1,1.41,2.58,8.59,8.59,0,0,1,.32,1.44c0,.24,0,.49.08.73a4.71,4.71,0,0,1,0,.65,5.51,5.51,0,0,1-2.05,3.25v-7a1.06,1.06,0,0,0-2.08,0v8.45a.28.28,0,0,0,0,.09c-.5.3-1,.6-1.55.87v-7.08a1.06,1.06,0,0,0-2.08,0v8.09c-.5.22-1,.44-1.53.64v-7a1.06,1.06,0,0,0-2.08,0v7.78l-1.54.53v-7.15a1.06,1.06,0,0,0-2.08,0v7.82l-1.53.46v-7.69a1.05,1.05,0,0,0-2.08,0v8.27l-1.54.41v-6.94a1.06,1.06,0,0,0-2.08,0v7.46l-1.53.37V168a1.05,1.05,0,0,0-2.08,0v7.12l-1.53.34v-6.3a1.06,1.06,0,0,0-2.09,0v6.74l-1.53.31v-6.46a1.05,1.05,0,0,0-2.08,0v6.86l-1.53.29v-6.57a1.06,1.06,0,0,0-2.09,0v6.94l-1.53.27v-6.05a1.06,1.06,0,0,0-2.08,0v6.4l-1.53.25v-6.06a1.05,1.05,0,0,0-2.08,0v6.4l-1.54.23v-5.47a1.06,1.06,0,0,0-2.08,0V179l-1.53.22v-4.85a1.06,1.06,0,0,0-2.08,0v5.15l-1.54.2V175a1.05,1.05,0,0,0-2.08,0v5s0,.06,0,.09l-1.54.2v-4.08a1.06,1.06,0,0,0-2.08,0v4.35l-1.54.19v-3.37a1.05,1.05,0,0,0-2.08,0V181c-.51.07-1,.12-1.53.18v-2.66a1.06,1.06,0,0,0-2.08,0v2.9l-1.54.18v-2.5a1.06,1.06,0,0,0-2.08,0v2.62a.5.5,0,0,0,0,.12l-1.55.17v-1.74a1.06,1.06,0,0,0-2.08,0v2l-1.54.16s0-.05,0-.08V180.8a1.06,1.06,0,0,0-2.09,0v1.46a.73.73,0,0,0,.07.29l-1.6.17V182a1.05,1.05,0,0,0-2.08,0v.87s0,0,0,.08l-1.59.16a.69.69,0,0,0,.05-.24v-.29a1.06,1.06,0,0,0-2.09,0v.29a.78.78,0,0,0,.14.42l-1.11.11-.91.09v-.33a.7.7,0,0,0-1.38,0v.29a.76.76,0,0,0,0,.16c-9.39.88-18.8,1.59-28.22,2.27Q26.69,187.94-3.92,189q30.63-.66,61.2-2.44c10.19-.62,20.37-1.28,30.54-2.15,6.56-.56,13.12-1.16,19.67-1.85a1.36,1.36,0,0,0,.3,0,1.2,1.2,0,0,0,.54-.13c3.31-.36,6.62-.73,9.93-1.15,1.3-.15,2.61-.31,3.91-.48h.08a1.41,1.41,0,0,0,.41-.07q5.39-.71,10.75-1.55c5-.79,10-1.69,15-2.77a117.13,117.13,0,0,0,13.79-3.78,1.07,1.07,0,0,0,.39-.14c.17-.06.34-.11.5-.18a36.74,36.74,0,0,0,6.89-3.25,14,14,0,0,0,3-2.41,6.35,6.35,0,0,0,1.73-3.39,5.15,5.15,0,0,0,0-1c0-.3,0-.58-.08-.87a10.53,10.53,0,0,0-.36-1.72c-.32-1.07-1.24-3.62-1.24-4V147a1.76,1.76,0,0,0-3.47,0v6.91a14.78,14.78,0,0,0-1.43-.73,1.35,1.35,0,0,0,.06-.35V141.2a1.76,1.76,0,0,0-3.47,0V152c-.47-.13-.93-.24-1.39-.34V139.74a1.76,1.76,0,0,0-3.47,0v11.33l-1.39-.16V138.58a1.76,1.76,0,0,0-3.47,0v12.06l-2.36-.1v-12a1.76,1.76,0,0,0-3.47,0v11.91c-.79,0-1.57,0-2.36,0V138.58a1.76,1.76,0,0,0-3.47,0v11.95l-2.36,0v-12a1.76,1.76,0,0,0-3.47,0v12.07l-2.36,0V138.29a1.76,1.76,0,0,0-3.47,0v12.48l-2.36,0V137.7a1.76,1.76,0,0,0-3.47,0v13.09l-2.36,0V137.12a1.76,1.76,0,0,0-3.47,0v13.52h-.23l-2.13-.13v-14a1.76,1.76,0,0,0-3.47,0v13.64c-.79-.09-1.58-.19-2.36-.31V136a1.76,1.76,0,0,0-3.47,0v13.28c-.79-.17-1.58-.37-2.36-.58v-11a1.76,1.76,0,0,0-3.47,0v9.79c-.81-.33-1.6-.69-2.36-1.09v-7a1.76,1.76,0,0,0-3.47,0V144c-.13-.11-.27-.21-.4-.33a14.65,14.65,0,0,1-1.11-1.12c-.18-.19-.34-.4-.51-.59s-.29-.38-.4-.56a2.42,2.42,0,0,1-.47-2,3.68,3.68,0,0,1,1.57-1.74,15,15,0,0,1,2.92-1.43,33.41,33.41,0,0,1,3.38-1.08c2.58-.7,5.26-1.25,8-1.71a2.94,2.94,0,0,0,.73-.13c2-.32,3.95-.61,5.93-.88,10-1.32,20.15-2.15,30.3-3s20.33-1.62,30.51-2.62,20.37-2.16,30.5-4a116,116,0,0,0,15.08-3.72,49.11,49.11,0,0,0,7.3-3,20,20,0,0,0,6.41-5,11.33,11.33,0,0,0,1.12-1.78c.17-.31.29-.64.43-1l.16-.5.08-.25.06-.21a22.75,22.75,0,0,0,.66-3.5A15.85,15.85,0,0,0,238.64,98.91Z"/><path class="cls-10" d="M207.41,49.76a2.58,2.58,0,0,1,2.77,2.33V84.72c1.62.08,3.24.19,4.86.36V52.67a2.82,2.82,0,0,1,5.55,0V85.9c1.42.28,2.84.62,4.25,1l.61.19V55.58a2.82,2.82,0,0,1,5.55,0V89.5c.48.27.95.55,1.4.86l.69.48V70.14a2.82,2.82,0,0,1,5.55,0V98.91a15.85,15.85,0,0,1,.3,4.93,22.75,22.75,0,0,1-.66,3.5l-.06.21-.08.25-.16.5c-.14.32-.26.65-.43,1a11.33,11.33,0,0,1-1.12,1.78,20,20,0,0,1-6.41,5,49.11,49.11,0,0,1-7.3,3,116,116,0,0,1-15.08,3.72c-10.13,1.87-20.32,3-30.5,4s-20.36,1.78-30.51,2.62-20.3,1.67-30.3,3c-2,.27-4,.56-5.93.88a2.94,2.94,0,0,1-.73.13c-2.72.46-5.4,1-8,1.71a33.41,33.41,0,0,0-3.38,1.08,15,15,0,0,0-2.92,1.43,3.68,3.68,0,0,0-1.57,1.74,2.42,2.42,0,0,0,.47,2c.11.18.27.37.4.56s.33.4.51.59a14.65,14.65,0,0,0,1.11,1.12c.13.12.27.22.4.33v-4.59a1.76,1.76,0,0,1,3.47,0v7c.76.4,1.55.76,2.36,1.09V137.7a1.76,1.76,0,0,1,3.47,0v11c.78.21,1.57.41,2.36.58V136a1.76,1.76,0,0,1,3.47,0v13.91c.78.12,1.57.22,2.36.31V136.54a1.76,1.76,0,0,1,3.47,0v14l2.13.13H120V137.12a1.76,1.76,0,0,1,3.47,0v13.64l2.36,0V137.7a1.76,1.76,0,0,1,3.47,0v13.09l2.36,0V138.29a1.76,1.76,0,0,1,3.47,0V150.7l2.36,0V138.58a1.76,1.76,0,0,1,3.47,0v12l2.36,0V138.58a1.76,1.76,0,0,1,3.47,0v11.91h2.36V138.58a1.76,1.76,0,0,1,3.47,0v12l2.36.1V138.58a1.76,1.76,0,0,1,3.47,0v12.33l1.39.16V139.74a1.76,1.76,0,0,1,3.47,0v11.92c.46.1.92.21,1.39.34V141.2a1.76,1.76,0,0,1,3.47,0v11.65a1.35,1.35,0,0,1-.06.35,14.78,14.78,0,0,1,1.43.73V147a1.76,1.76,0,0,1,3.47,0v8.74c0,.33.92,2.88,1.24,4a10.53,10.53,0,0,1,.36,1.72c0,.29.06.57.08.87a5.15,5.15,0,0,1,0,1,6.35,6.35,0,0,1-1.73,3.39,14,14,0,0,1-3,2.41,36.74,36.74,0,0,1-6.89,3.25c-.16.07-.33.12-.5.18a1.07,1.07,0,0,1-.39.14,117.13,117.13,0,0,1-13.79,3.78c-5,1.08-10,2-15,2.77q-5.37.84-10.75,1.55a1.41,1.41,0,0,1-.41.07h-.08c-1.3.17-2.61.33-3.91.48-3.31.42-6.62.79-9.93,1.15a1.2,1.2,0,0,1-.54.13,1.36,1.36,0,0,1-.3,0c-6.55.69-13.11,1.29-19.67,1.85-10.17.87-20.35,1.53-30.54,2.15Q26.71,188.27-3.92,189q30.61-1,61.14-3.1c9.42-.68,18.83-1.39,28.22-2.27a.76.76,0,0,1,0-.16v-.29a.7.7,0,0,1,1.38,0v.33l.91-.09,1.11-.11a.78.78,0,0,1-.14-.42v-.29a1.06,1.06,0,0,1,2.09,0v.29a.69.69,0,0,1-.05.24l1.59-.16s0,0,0-.08V182a1.05,1.05,0,0,1,2.08,0v.75l1.6-.17a.73.73,0,0,1-.07-.29V180.8a1.06,1.06,0,0,1,2.09,0v1.46s0,.05,0,.08l1.54-.16v-2a1.06,1.06,0,0,1,2.08,0V182l1.55-.17a.5.5,0,0,1,0-.12v-2.62a1.06,1.06,0,0,1,2.08,0v2.5l1.54-.18v-2.9a1.06,1.06,0,0,1,2.08,0v2.66c.51-.06,1-.11,1.53-.18v-3.64a1.05,1.05,0,0,1,2.08,0v3.37l1.54-.19v-4.35a1.06,1.06,0,0,1,2.08,0v4.08l1.54-.2s0-.06,0-.09v-5a1.05,1.05,0,0,1,2.08,0v4.76l1.54-.2v-5.15a1.06,1.06,0,0,1,2.08,0v4.85l1.53-.22v-5.79a1.06,1.06,0,0,1,2.08,0v5.47l1.54-.23v-6.4a1.05,1.05,0,0,1,2.08,0v6.06l1.53-.25v-6.4a1.06,1.06,0,0,1,2.08,0v6.05l1.53-.27v-6.94a1.06,1.06,0,0,1,2.09,0v6.57l1.53-.29v-6.86a1.05,1.05,0,0,1,2.08,0v6.46l1.53-.31v-6.74a1.06,1.06,0,0,1,2.09,0v6.3l1.53-.34V168a1.05,1.05,0,0,1,2.08,0v6.66l1.53-.37v-7.46a1.06,1.06,0,0,1,2.08,0v6.94l1.54-.41v-8.27a1.05,1.05,0,0,1,2.08,0v7.69l1.53-.46v-7.82a1.06,1.06,0,0,1,2.08,0v7.15l1.54-.53v-7.78a1.06,1.06,0,0,1,2.08,0v7c.52-.2,1-.42,1.53-.64v-8.09a1.06,1.06,0,0,1,2.08,0v7.08c.53-.27,1.05-.57,1.55-.87a.28.28,0,0,1,0-.09v-8.45a1.06,1.06,0,0,1,2.08,0v7a5.51,5.51,0,0,0,2.05-3.25,4.71,4.71,0,0,0,0-.65c0-.24,0-.49-.08-.73a8.59,8.59,0,0,0-.32-1.44,7.49,7.49,0,0,0-1.41-2.58,11.37,11.37,0,0,0-5.54-3.28,34.58,34.58,0,0,0-7.16-1.26c-2.18-.19-4.4-.26-6.62-.28l-.3,0a2,2,0,0,1-.36,0h-.23c-8.22,0-16.5.57-24.88.57-1.93,0-3.87,0-5.82-.1a66.15,66.15,0,0,1-15.51-2.18c-5.06-1.45-10-4-13-8.23a6.31,6.31,0,0,1-.88-1.91,4.3,4.3,0,0,1,0-2.25,14.57,14.57,0,0,0,.15-2.17V121.4a2.47,2.47,0,0,1,4.86,0v12.66c.47-.22.94-.43,1.42-.62s1.1-.41,1.65-.6a1.81,1.81,0,0,1-.3-1V115.57a2.47,2.47,0,0,1,4.86,0v16c1.38-.34,2.77-.65,4.16-.92V113.24a2.47,2.47,0,0,1,4.86,0v16.52l3.7-.57.47-.07V109.75a2.46,2.46,0,0,1,4.85,0v18.73l4.17-.51V106.25a2.47,2.47,0,0,1,4.86,0v21.18c2-.22,4-.42,6-.62V105.09a2.47,2.47,0,0,1,4.86,0v21.25l5.27-.5.74-.07v-23a2.47,2.47,0,0,1,4.86,0v22.56l6-.56V100.43a2.46,2.46,0,0,1,4.85,0v23.88l6-.59V98.1a2.47,2.47,0,0,1,4.86,0v25.12l3-.32,3-.33V96.93a2.47,2.47,0,0,1,4.86,0V122q3-.36,6-.77V95.77a2.47,2.47,0,0,1,4.86,0v24.77c2-.3,4-.63,6-1V95.77a2.46,2.46,0,0,1,4.85,0v22.91l.36-.06q2.85-.57,5.66-1.23V94.6a2.47,2.47,0,0,1,4.86,0v21.52c1.25-.37,2.5-.75,3.71-1.17.78-.27,1.55-.56,2.3-.86V97.52a2.47,2.47,0,0,1,4.86,0v14.25a13.43,13.43,0,0,0,3.89-3.24,6.65,6.65,0,0,0,.65-1.07c.1-.17.15-.36.24-.54l.08-.28,0-.14,0-.18c.1-.4.18-.79.26-1.19v-5.2a8.58,8.58,0,0,0-.61-1.72,10.05,10.05,0,0,0-3.69-4,21.85,21.85,0,0,0-5.9-2.57,57.86,57.86,0,0,0-14.19-1.84c-.68,0-1.37,0-2.06,0-1.77,0-3.55,0-5.33.14-1.23.06-2.46.15-3.69.25s-2.48.23-3.61.38h0l-.47,0a3.38,3.38,0,0,1-2.46-1,2.19,2.19,0,0,1-1-1.76V52.38a2.82,2.82,0,0,1,5.55,0V85.06c.47,0,.95-.08,1.43-.12,1.31-.1,2.62-.17,3.94-.23s2.43-.08,3.65-.09V52.09a2.58,2.58,0,0,1,2.78-2.33m0-3.18a5.75,5.75,0,0,0-6,5.51V81.51l-.6,0-2.06.1V52.38a6,6,0,0,0-11.92,0V87.76a5.32,5.32,0,0,0,2,4.15L189,92a5.12,5.12,0,0,0-1.73,3.22A5.61,5.61,0,0,0,182,91.71a5.49,5.49,0,0,0-5.58,4.65,5.6,5.6,0,0,0-5.29-3.48,5.44,5.44,0,0,0-5.62,5.22v.5a5.61,5.61,0,0,0-5.26-3.39,5.43,5.43,0,0,0-5.61,5.22v.5a5.62,5.62,0,0,0-5.26-3.39,5.43,5.43,0,0,0-5.61,5.22v.5a5.63,5.63,0,0,0-5.26-3.39,5.48,5.48,0,0,0-5.58,4.64A5.61,5.61,0,0,0,127.6,101a5.5,5.5,0,0,0-5.58,4.6,5.87,5.87,0,0,0-3.45-1.11,5.5,5.5,0,0,0-5.57,4.6,5.86,5.86,0,0,0-3.45-1.1,5.6,5.6,0,0,0-5.34,3.61,5.81,5.81,0,0,0-3.68-1.28,5.43,5.43,0,0,0-5.61,5.22v1a6.12,6.12,0,0,0-2-.35,5.44,5.44,0,0,0-5.62,5.23v15.14c0,.39,0,1.14-.06,1.43a7.6,7.6,0,0,0,0,3.76,9.24,9.24,0,0,0,1.31,2.89l0,0,0,.05c3.07,4.31,8.14,7.57,14.66,9.44a69.93,69.93,0,0,0,16.26,2.3c1.89.07,3.84.11,6,.11,4.27,0,8.54-.15,12.67-.29s8.17-.28,12.2-.28q.3,0,.6,0l.47,0c2.4,0,4.37.1,6.17.26a31.48,31.48,0,0,1,6.51,1.13l.65.22a4.22,4.22,0,0,0-2.57,1.65H162a4.29,4.29,0,0,0-3,1.21,4.08,4.08,0,0,0-.61,0,4.31,4.31,0,0,0-2.43.74,4.2,4.2,0,0,0-1.18-.16,4.28,4.28,0,0,0-3.48,1.75h-.14a4.32,4.32,0,0,0-3,1.2,4.08,4.08,0,0,0-.61,0,4.27,4.27,0,0,0-3,1.21,4.21,4.21,0,0,0-.62,0,4.31,4.31,0,0,0-2.43.74,4.2,4.2,0,0,0-1.18-.16,4.26,4.26,0,0,0-2.43.74,4.66,4.66,0,0,0-1.18-.16,4.29,4.29,0,0,0-3,1.21,4.07,4.07,0,0,0-.61-.05,4.27,4.27,0,0,0-2.43.75,4.2,4.2,0,0,0-1.18-.16,4.33,4.33,0,0,0-3,1.2,6,6,0,0,0-.61,0,4.27,4.27,0,0,0-3,1.21,4.17,4.17,0,0,0-.61,0,4.31,4.31,0,0,0-2.44.74,4.54,4.54,0,0,0-1.18-.16,4.27,4.27,0,0,0-3,1.21,4.07,4.07,0,0,0-.61,0,4.33,4.33,0,0,0-3,1.21,4.08,4.08,0,0,0-.61,0,4.28,4.28,0,0,0-3,1.21,4.07,4.07,0,0,0-.61-.05,4.32,4.32,0,0,0-2.44.75,4.15,4.15,0,0,0-1.18-.16,4.32,4.32,0,0,0-3,1.2,6,6,0,0,0-.61,0,4.39,4.39,0,0,0-2.44.74,4.54,4.54,0,0,0-1.18-.16,4.33,4.33,0,0,0-3,1.21,4.08,4.08,0,0,0-.61,0,4.26,4.26,0,0,0-2.43.74,4.66,4.66,0,0,0-1.18-.16,4.31,4.31,0,0,0-2.74,1,4.32,4.32,0,0,0-.88-.1,3.91,3.91,0,0,0-2.85,1.22c-9.22.84-18.4,1.53-26.26,2.09-20.59,1.41-41.13,2.46-61,3.1l.17,6.37c20-.43,40.6-1.26,61.31-2.45,11.37-.69,20.92-1.32,30.63-2.15,7.34-.63,13.49-1.21,19.33-1.82h.37a4.2,4.2,0,0,0,1.27-.19c3.74-.4,6.79-.75,9.59-1.11,1.18-.13,2.38-.28,3.67-.45a3.64,3.64,0,0,0,1-.13c3.32-.43,6.78-.93,10.59-1.52,5.69-.9,10.66-1.82,15.2-2.81a123,123,0,0,0,14-3.82,4.89,4.89,0,0,0,.76-.27h0a2.3,2.3,0,0,0,.34-.12,39.52,39.52,0,0,0,7.48-3.54h0a17.21,17.21,0,0,0,3.61-3,9.58,9.58,0,0,0,2.52-5.1,8.27,8.27,0,0,0,.07-1.51v-.24c0-.28,0-.59-.09-.93a13.11,13.11,0,0,0-.46-2.23c-.13-.43-.34-1.05-.56-1.71-.16-.5-.42-1.27-.54-1.67V147a4.79,4.79,0,0,0-4.86-4.64V141.2a4.79,4.79,0,0,0-4.92-4.64,4.91,4.91,0,0,0-1.16.13,5,5,0,0,0-3.7-1.59,5.3,5.3,0,0,0-1.39.19,5.14,5.14,0,0,0-6.38-.45,5.17,5.17,0,0,0-5.83,0,5.17,5.17,0,0,0-5.83,0,5.07,5.07,0,0,0-2.91-.9,5.16,5.16,0,0,0-2.71.76,5.08,5.08,0,0,0-2.25-1c4-.36,8-.69,11.88-1l.71-.06,5.61-.46c8.17-.66,16.62-1.35,24.95-2.16,9.77-1,20.26-2.13,30.77-4.07a119.46,119.46,0,0,0,15.5-3.82,51.45,51.45,0,0,0,7.79-3.25,23.06,23.06,0,0,0,7.42-5.88l0,0v0a14,14,0,0,0,1.42-2.24,9,9,0,0,0,.43-1l.09-.22.06-.12,0-.13.16-.49v0h0l.08-.25,0-.1,0-.09.05-.19a26,26,0,0,0,.74-4v-.07a19.17,19.17,0,0,0-.29-5.55V70.14a5.75,5.75,0,0,0-6-5.51,6.53,6.53,0,0,0-1.67.22V55.58a5.76,5.76,0,0,0-6-5.51,6.16,6.16,0,0,0-4.5,1.9,5.82,5.82,0,0,0-5.91-4.81,6.07,6.07,0,0,0-5,2.56,6,6,0,0,0-5.38-3.14ZM209,94a5,5,0,0,0-.58-1.09h.22l.61,0A4.77,4.77,0,0,0,209,94Zm-11.22-.73h.11l.92-.07a4.78,4.78,0,0,0-.54,1.25,5,5,0,0,0-.49-1.17Zm22.41,2.39V94.6a2.88,2.88,0,0,0,0-.41l.79.19a5.24,5.24,0,0,0-.77,1.31Zm-89.55,38.37,1-.09a5,5,0,0,0-.7.32l-.29-.23Z"/></g></svg>