<svg id="Layer_1" data-name="Layer 1" xmlns="http://www.w3.org/2000/svg" viewBox="0 0 256 256"><defs><style>.cls-1{fill:#232a2b;}.cls-2{fill:#30332b;}.cls-3{fill:#e6e3e8;}.cls-4,.cls-5{fill:#626b7d;}.cls-4{opacity:0.27;}</style></defs><ellipse class="cls-1" cx="128" cy="127.5" rx="120.74" ry="121.21"/><path class="cls-2" d="M128,6.29c66.68,0,120.74,54.27,120.74,121.21S194.68,248.71,128,248.71,7.26,194.44,7.26,127.5,61.32,6.29,128,6.29M128-1A127.33,127.33,0,0,0,37.49,36.64a128.71,128.71,0,0,0,0,181.72A128.24,128.24,0,0,0,245.94,77.48,128.73,128.73,0,0,0,177.83,9.1,126.85,126.85,0,0,0,128-1Z"/><polygon class="cls-3" points="203.4 68.17 201.93 63.72 197.5 62.25 201.48 60.33 203.4 56.33 204.98 60.67 209.3 62.25 204.64 63.5 203.4 68.17"/><polygon class="cls-3" points="36.81 126.05 35.91 123.31 33.18 122.4 35.64 121.22 36.81 118.75 37.79 121.42 40.45 122.4 37.58 123.17 36.81 126.05"/><polygon class="cls-3" points="101.04 212.85 102.51 217.3 106.94 218.78 102.96 220.7 101.04 224.7 99.46 220.36 95.14 218.78 99.8 217.53 101.04 212.85"/><ellipse class="cls-3" cx="126.64" cy="124.77" rx="72.62" ry="72.91"/><polygon class="cls-3" points="195 201 196.47 205.46 200.9 206.93 196.92 208.85 195 212.85 193.42 208.51 189.1 206.93 193.76 205.68 195 201"/><polygon class="cls-3" points="37.5 186.88 38.4 189.62 41.13 190.52 38.68 191.71 37.5 194.17 36.52 191.5 33.87 190.52 36.73 189.76 37.5 186.88"/><polygon class="cls-3" points="222.52 126.07 221.35 122.53 217.83 121.36 221 119.83 222.52 116.66 223.77 120.11 227.21 121.36 223.5 122.35 222.52 126.07"/><polygon class="cls-3" points="145.53 18.28 146.99 22.73 151.43 24.2 147.44 26.13 145.53 30.13 143.95 25.79 139.62 24.2 144.28 22.96 145.53 18.28"/><polygon class="cls-3" points="31.59 77.06 32.5 79.8 35.23 80.71 32.77 81.89 31.59 84.35 30.62 81.68 27.96 80.71 30.83 79.94 31.59 77.06"/><path class="cls-4" d="M126.64,51.86A72.13,72.13,0,0,0,83,66.52a73,73,0,0,0,49.13,126.6,72.1,72.1,0,0,0,43.67-14.66,73,73,0,0,0-49.12-126.6Z"/><ellipse class="cls-5" cx="95.35" cy="102.33" rx="15.64" ry="15.7"/><ellipse class="cls-5" cx="115.47" cy="140.47" rx="3.35" ry="3.36"/><ellipse class="cls-5" cx="151.92" cy="149.65" rx="7.82" ry="7.85"/><ellipse class="cls-5" cx="122.41" cy="172.47" rx="11.17" ry="11.22"/><ellipse class="cls-5" cx="81.6" cy="151.2" rx="4.47" ry="4.49"/><ellipse class="cls-5" cx="115.47" cy="61.95" rx="5.59" ry="5.61"/><ellipse class="cls-5" cx="148.98" cy="86.63" rx="7.82" ry="7.85"/><ellipse class="cls-5" cx="183.62" cy="124.77" rx="5.59" ry="5.61"/></svg>