<svg id="Layer_1" data-name="Layer 1" xmlns="http://www.w3.org/2000/svg" viewBox="0 0 256 256"><defs><style>.cls-1{fill:#bd9a70;}.cls-2{fill:#714c45;}.cls-3{fill:#93635b;}</style></defs><circle class="cls-1" cx="128" cy="128" r="120.74"/><path class="cls-2" d="M128,7.26A120.74,120.74,0,1,1,7.26,128,120.74,120.74,0,0,1,128,7.26M128,0A128,128,0,0,0,78.17,245.94,128,128,0,0,0,177.83,10.06,127.35,127.35,0,0,0,128,0Z"/><path class="cls-3" d="M128,248.74a120.74,120.74,0,0,0,120.68-117.1l-.29-.18c-12.61-7.43-41.41-40.23-46-46.22s-20.83-14.89-25.23-18.47-61,2.22-66.86,4-43.58,40.4-48.52,45.39S30.41,123,28.14,125.73c-2,2.4-13.83,7.6-20.66,9.44A120.74,120.74,0,0,0,128,248.74Z"/><path class="cls-2" d="M79.21,108.26C69,120.67,71,129.59,53.79,133.67S24.28,135,24.28,135s33.37,13.16,38.25,10.21S90.33,128,97.59,119.83s10-25,17.25-27.69S102.81,79.66,79.21,108.26Z"/><path class="cls-2" d="M122.59,73.53c-4.77,1.07-7.46,10.21,0,10.44S142.8,85.24,150,82.68s10.74-8.92,4.45-9.15S133.74,71,122.59,73.53Z"/></svg>