<svg id="Layer_1" data-name="Layer 1" xmlns="http://www.w3.org/2000/svg" xmlns:xlink="http://www.w3.org/1999/xlink" viewBox="0 0 256 256"><defs><style>.cls-1{fill:none;}.cls-2{fill:#2d5267;}.cls-3{fill:#405229;}.cls-4{fill:#2d52a7;}.cls-5{fill:#2d79a7;}.cls-6{fill:#5a7936;}.cls-7{clip-path:url(#clip-path);}.cls-8{fill:#626b7d;}</style><clipPath id="clip-path"><ellipse class="cls-1" cx="404" cy="128" rx="120.84" ry="121"/></clipPath></defs><circle class="cls-2" cx="128" cy="128" r="120.74"/><path class="cls-3" d="M128,7.26A120.74,120.74,0,1,1,7.26,128,120.74,120.74,0,0,1,128,7.26M128,0A128,128,0,0,0,78.17,245.94,128,128,0,0,0,177.83,10.06,127.35,127.35,0,0,0,128,0Z"/><path class="cls-4" d="M248.65,132.51C224,106.15,182.35,88.84,135.18,88.84c-56.53,0-105.06,24.85-126.06,60.35a120.74,120.74,0,0,0,239.53-16.68Z"/><path class="cls-5" d="M241.48,96.9S214.31,39,131.42,39C59.65,39,33.94,73.37,11.8,110.78c0,0,62.69-52.63,125.37-52.63C205.87,58.15,241.48,96.9,241.48,96.9Z"/><path class="cls-3" d="M218.21,180.44l16.14,2.94a59.47,59.47,0,0,0,1-10.27c0-12.92-4.31-25.09-11.79-35.91l-7.18,2.6a13,13,0,0,0-5.11,3.28l-10.83,11.81a7.53,7.53,0,0,0,0,10.7l9.94,10.85A14,14,0,0,0,218.21,180.44Z"/><path class="cls-3" d="M124.74,253.51a151.44,151.44,0,0,0,23.59-1.88l9.61-18.84a58.62,58.62,0,0,0,2.64-6.78A9.51,9.51,0,0,1,164,221.7l6.26-4.53c4.69-3.39,7.59-8.08,7.59-13.26h0c0-3.39-1.89-6.45-4.94-8.67l-7.57-5.51A21.56,21.56,0,0,0,152.81,186H115.89c-5.2-1.9-11.88-12.87-17.7-12.87a49.15,49.15,0,0,1-16.76-2.88L75.3,168c-2.24-.82-3.66-2.48-3.66-4.3h0c0-2.12,1.9-3.92,4.52-4.56L93.4,155a12.13,12.13,0,0,1,2.8-.32,10.92,10.92,0,0,1,5.8,1.57l5.14,3.24a5.44,5.44,0,0,0,2.89.79h3.12c3.29,0,5.43-2.52,4-4.66L108.49,143a2.49,2.49,0,0,1-.47-1.43,2.87,2.87,0,0,1,1.34-2.31l5.49-3.88a5.43,5.43,0,0,1,3.08-.91h5a5.4,5.4,0,0,0,3.13-.94l4.42-3.22a2.63,2.63,0,0,0,0-4.54l-2.59-1.89a2.64,2.64,0,0,1,0-4.55l5.72-4.15,2.59-1.88c3.46-2.52,3.46-6.59,0-9.1L120.53,92.86q-6.87.19-13.49,1v4.55c0,4.78-6.93,7.89-12.81,5.75L81,99.3c-25.36,8-45.76,22.67-57.08,41,5.49,5.92,13.94,15,19.13,20.56a54.66,54.66,0,0,0,10,8.34l.44.29a85.49,85.49,0,0,0,17.51,8.74c7.74,2.84,19,7.3,27,10.5,5.64,2.26,9.11,6.56,9.11,11.24V212.8c0,3.42,1.86,6.69,5.18,9.1,8.29,6,13.45,15.53,12.52,20.6Z"/><path class="cls-6" d="M216.39,178.63l16.14,2.93a58.41,58.41,0,0,0,1-10.27c0-12.91-4.32-25.09-11.79-35.91L214.57,138a12.88,12.88,0,0,0-5.11,3.27l-10.84,11.82a7.56,7.56,0,0,0,0,10.7l9.95,10.84A14,14,0,0,0,216.39,178.63Z"/><path class="cls-6" d="M122.92,251.7a150.13,150.13,0,0,0,23.59-1.89L156.13,231a59.89,59.89,0,0,0,2.64-6.79,9.37,9.37,0,0,1,3.41-4.3c1.83-1.34,4.1-3,6.25-4.54,4.69-3.39,7.59-8.08,7.59-13.26h0c0-3.38-1.88-6.45-4.94-8.67l-7.57-5.5A21.54,21.54,0,0,0,151,184.15H114.08c-5.21-1.89-11.88-12.86-17.7-12.86a49.45,49.45,0,0,1-16.77-2.88l-6.12-2.23c-2.24-.81-3.66-2.47-3.66-4.3h0c0-2.12,1.89-3.92,4.52-4.55l17.24-4.18a12.07,12.07,0,0,1,2.8-.33,11,11,0,0,1,5.8,1.57l5.13,3.25a5.53,5.53,0,0,0,2.9.78h3.12c3.28,0,5.42-2.51,4-4.65l-8.62-12.54a2.5,2.5,0,0,1-.47-1.44,2.88,2.88,0,0,1,1.34-2.3l5.49-3.88a5.39,5.39,0,0,1,3.09-.92h5a5.38,5.38,0,0,0,3.13-.94l4.42-3.21a2.64,2.64,0,0,0,0-4.55l-2.59-1.88a2.65,2.65,0,0,1,0-4.55l5.72-4.16,2.59-1.88c3.46-2.51,3.46-6.59,0-9.1L118.71,91q-6.85.19-13.49,1v4.54c0,4.78-6.92,7.89-12.81,5.75L79.13,97.49c-25.35,8-45.75,22.66-57.08,41,5.5,5.91,14,15,19.13,20.56a54.62,54.62,0,0,0,10,8.33l.45.29a85.94,85.94,0,0,0,17.5,8.75c7.75,2.83,19,7.3,27,10.49,5.63,2.27,9.1,6.57,9.1,11.25V211c0,3.41,1.87,6.68,5.18,9.09,8.3,6,13.46,15.53,12.52,20.61Z"/><g class="cls-7"><path class="cls-8" d="M353.06,34.46,402,123.66l35.55-33.42h9q.24,3.51.26,7a107.62,107.62,0,0,1-1.26,15.84,101.45,101.45,0,0,1-79.71,83.61,101.4,101.4,0,0,1-107.29-47.05c-.28-.46-.55-.92-.82-1.39V123.16l23.76-42.85,33,4.48,38.55-50.33m.63-8.3-4.23,5.53-37,48.23L282.09,75.8,279,75.38,277.5,78.1,253.75,121l-.57,1V149.5l.61,1.06.86,1.45A105.91,105.91,0,0,0,450,113.79a112.62,112.62,0,0,0,1.31-16.51h0v0c0-2.39-.1-4.85-.27-7.33l-.3-4.22h-15l-1.31,1.23-31.27,29.4L357,32.27l-3.35-6.11Z"/></g></svg>