<svg id="Layer_1" data-name="Layer 1" xmlns="http://www.w3.org/2000/svg" xmlns:xlink="http://www.w3.org/1999/xlink" viewBox="0 0 256 256"><defs><style>.cls-1{fill:none;}.cls-2{clip-path:url(#clip-path);}.cls-3{fill:#626b7d;}.cls-4{fill:#e6e3e8;}.cls-5{fill:#2a4754;}.cls-6{fill:#405229;}.cls-7{fill:#2d52a7;}.cls-8{fill:#5a7936;}.cls-9{fill:#714c45;}.cls-10{fill:#d8ba98;}</style><clipPath id="clip-path"><ellipse class="cls-1" cx="-148" cy="128" rx="120.84" ry="121"/></clipPath></defs><g class="cls-2"><path class="cls-3" d="M-91.21,58.4l44.32,90.28,35.54-33.42h9c.16,2.34.26,4.68.26,7a107.72,107.72,0,0,1-1.25,15.84,101.43,101.43,0,0,1-26.88,54.34A101.41,101.41,0,0,1-83,221.73a102.49,102.49,0,0,1-20.25,2,102.64,102.64,0,0,1-42.32-9.13,102,102,0,0,1-44.72-39.94c-.27-.46-.55-.92-.82-1.39V148.18l30.44-1.07L-142,129.5l50.75-71.1m.72-8.83-4.42,6.19-50.48,70.73-17.19,16.13-28.74,1-4.38.16v30.73l.61,1c.29.49.57,1,.86,1.46a106.68,106.68,0,0,0,46.74,41.73,106.44,106.44,0,0,0,44.19,9.54,107.37,107.37,0,0,0,21.15-2.11A106.06,106.06,0,0,0-26.93,195.6,106.21,106.21,0,0,0,1.16,138.81a111.24,111.24,0,0,0,1.3-16.51v0h0c0-2.39-.09-4.86-.27-7.33l-.3-4.23h-15L-14.46,112l-31.06,29.2L-87.14,56.4l-3.35-6.83Z"/><path class="cls-4" d="M44.91,137.1h-9L.35,170.51-57.14,79.33l-37.57,72-25.44-24.17L-143.91,170v25.12c.27.46.54.93.82,1.39a101.87,101.87,0,0,0,44.72,39.93,102.66,102.66,0,0,0,62.57,7.12A101.48,101.48,0,0,0,17,214.3,101.41,101.41,0,0,0,43.91,160a107.87,107.87,0,0,0,1.26-15.85Q45.15,140.6,44.91,137.1Z"/><path class="cls-3" d="M-57.14,79.33.35,170.51,35.9,137.1h9q.24,3.5.26,7A107.87,107.87,0,0,1,43.91,160,101.41,101.41,0,0,1,17,214.3,101.48,101.48,0,0,1-35.8,243.57a102.66,102.66,0,0,1-20.26,2,102.64,102.64,0,0,1-42.31-9.14,101.87,101.87,0,0,1-44.72-39.93c-.28-.46-.55-.93-.82-1.39V170l23.76-42.85,25.44,24.17,37.57-72m-.37-9.11-3.66,7-34.78,66.67-21.08-20-4.25-4-2.85,5.13-23.75,42.85-.57,1v27.52l.61,1.06c.28.49.57,1,.86,1.45a106.7,106.7,0,0,0,46.74,41.74,106.38,106.38,0,0,0,44.18,9.53A108,108,0,0,0-34.91,248a106.16,106.16,0,0,0,55.23-30.59,106.19,106.19,0,0,0,28.08-56.8,112.48,112.48,0,0,0,1.31-16.5v0c0-2.39-.1-4.85-.27-7.32l-.3-4.23h-15l-1.31,1.23L1.26,163.42-53.3,76.9l-4.21-6.68Z"/><path class="cls-4" d="M2.66,153.47h-9L-34,193.5l-60-76L-128,173.94l-31.35,9.56-26.8,2.89-34.07,88.54c.27.46,121.09-10.74,142.18-15a101.41,101.41,0,0,0,52.84-29.27A101.38,101.38,0,0,0,1.66,176.33a107.73,107.73,0,0,0,1.26-15.84Q2.91,157,2.66,153.47Z"/><path class="cls-3" d="M-93.94,117.54l60,76,27.62-40h9q.24,3.51.26,7a107.73,107.73,0,0,1-1.26,15.84,101.38,101.38,0,0,1-26.87,54.34A101.41,101.41,0,0,1-78,259.94c-20.66,4.16-137.06,15-142,15h-.16l34.07-88.54,26.8-2.89,31.35-9.56,34.07-56.4m-.5-8-3.39,5.61L-131,170.1-160.27,179l-26.38,2.85-2.75.29-1,2.59-34.07,88.54-.79,2,1.1,1.89a4.59,4.59,0,0,0,4.09,2.27c3,0,35.48-2.95,65.58-6,23.75-2.38,65.38-6.72,77.33-9.13a106,106,0,0,0,55.23-30.59A106.21,106.21,0,0,0,6.16,177a114,114,0,0,0,1.3-16.51v0h0c0-2.39-.1-4.85-.27-7.33l-.3-4.23H-8.73l-1.36,2-24.13,35-56.16-71.14-4.06-5.15Z"/></g><circle class="cls-5" cx="128" cy="128" r="120.74"/><path class="cls-6" d="M128,7.26A120.74,120.74,0,1,1,7.26,128,120.74,120.74,0,0,1,128,7.26M128,0A128,128,0,0,0,78.17,245.94,128,128,0,0,0,177.83,10.06,127.35,127.35,0,0,0,128,0Z"/><path class="cls-7" d="M136,149.68c-46.94,0-87.35,20.27-105.6,49.43a120.75,120.75,0,0,0,201.36-9.38c.07-1,.12-2.08.16-3.13C211.08,164.32,175.9,149.68,136,149.68Z"/><path class="cls-6" d="M167.91,239.63l-6.4-4.65a18.2,18.2,0,0,0-10.58-3.19H119.72c-4.4-1.6-10-10.87-15-10.87a41.73,41.73,0,0,1-14.17-2.43L85.4,216.6c-1.89-.69-3.09-2.09-3.09-3.63h0c0-1.79,1.6-3.32,3.82-3.85l14.57-3.54a10.19,10.19,0,0,1,2.37-.27,9.26,9.26,0,0,1,4.91,1.33l4.33,2.74a4.63,4.63,0,0,0,2.45.66h2.64c2.78,0,4.59-2.12,3.34-3.93l-7.28-10.6a2.17,2.17,0,0,1-.4-1.22,2.46,2.46,0,0,1,1.13-1.95l4.64-3.28a4.62,4.62,0,0,1,2.61-.77h4.21a4.54,4.54,0,0,0,2.64-.79l3.74-2.72a2.24,2.24,0,0,0,0-3.85l-2.19-1.59a2.23,2.23,0,0,1,0-3.84l4.83-3.52,2.2-1.59c2.92-2.12,2.92-5.56,0-7.69l-13.24-9.62q-5.79.16-11.4.82v3.85c0,4-5.85,6.67-10.83,4.86l-11.23-4.08c-21.43,6.74-38.68,19.16-48.25,34.63,4.64,5,11.79,12.7,16.17,17.38a46.12,46.12,0,0,0,8.45,7l.37.25a72,72,0,0,0,14.8,7.39c6.55,2.4,16.1,6.17,22.82,8.87,4.77,1.92,7.7,5.55,7.7,9.51v4.11a121.2,121.2,0,0,0,57.55-6.4A12.09,12.09,0,0,0,167.91,239.63Z"/><path class="cls-8" d="M166.37,238.1l-6.4-4.66a18.19,18.19,0,0,0-10.58-3.18H118.18c-4.4-1.6-10-10.88-15-10.88A41.69,41.69,0,0,1,89.05,217l-5.18-1.88c-1.9-.69-3.09-2.1-3.09-3.64h0c0-1.79,1.61-3.31,3.83-3.85l14.57-3.53a10.06,10.06,0,0,1,2.37-.28,9.22,9.22,0,0,1,4.9,1.33l4.34,2.74a4.63,4.63,0,0,0,2.45.67h2.64c2.77,0,4.58-2.13,3.34-3.94L111.92,194a2.13,2.13,0,0,1-.39-1.21,2.41,2.41,0,0,1,1.13-1.95l4.64-3.28a4.52,4.52,0,0,1,2.61-.77h4.2a4.57,4.57,0,0,0,2.65-.8l3.74-2.72a2.23,2.23,0,0,0,0-3.84l-2.2-1.59a2.25,2.25,0,0,1,0-3.85l4.84-3.51,2.19-1.59c2.92-2.13,2.92-5.57,0-7.69l-13.23-9.62q-5.8.15-11.4.82v3.84c0,4-5.86,6.67-10.83,4.86L88.64,157C67.21,163.74,50,176.16,40.39,191.62c4.64,5,11.78,12.7,16.17,17.38A45.7,45.7,0,0,0,65,216.05l.38.24a72.33,72.33,0,0,0,14.8,7.4c6.54,2.39,16.1,6.17,22.82,8.87,4.76,1.91,7.7,5.55,7.7,9.51v5.43a121.79,121.79,0,0,0,17.3,1.24,120.37,120.37,0,0,0,41.45-7.31A10.77,10.77,0,0,0,166.37,238.1Z"/><path class="cls-8" d="M218,208.53A56.11,56.11,0,0,0,209.2,189l-6.07,2.2a11,11,0,0,0-4.32,2.77l-9.16,10a6.39,6.39,0,0,0,0,9l8.41,9.16a10.2,10.2,0,0,0,2.78,2.09A120.52,120.52,0,0,0,218,208.53Z"/><path class="cls-9" d="M162.89,67.9c.34.67.66,1.32-11.08,10.47L135.39,89l-5.54,5.24-3.26,1.63-6.75,26.25,5.37-2.68c1.59-.79,3.07-1.12,3.28-.7s-1,1.4-2.54,2.19l-15.59,7.78-.74-1.49,2.17-1.08-10.13-20.31-6.53,3.25L91,123.55l-4.72,2.36-2.11-.6-4.28-8.59,1.09-.54-1-2,6.53-3.26-.17-.33L77.16,114l-2.63-5.28,8.21-5.33-.17-.33-6.52,3.25-1-2-1.09.55-4.28-8.59.79-2,4.71-2.36,14,5.39L95.73,94,85.6,73.67l-2.18,1.09-.74-1.49,15.6-7.78c1.58-.79,3.06-1.12,3.27-.7S100.61,66.18,99,67l-5.37,2.68,25,10.4,3.26-1.63,7.52-1.28,18.4-6.7C162.23,66.58,162.56,67.23,162.89,67.9Z"/><path class="cls-10" d="M163.8,64.72c.34.67.66,1.32-11.08,10.48L136.3,85.86l-5.54,5.24-3.26,1.63L120.75,119l5.37-2.68c1.59-.79,3.06-1.12,3.27-.7s-.94,1.4-2.53,2.19l-15.59,7.78-.75-1.49L112.7,123l-10.13-20.31L96,106l-4.12,14.43-4.72,2.35-2.11-.6-4.28-8.58L81.9,113l-1-2,6.53-3.25-.17-.33-9.2,3.35-2.63-5.29,8.21-5.33-.17-.33L77,103.1l-1-2-1.08.54-4.29-8.59.8-2,4.71-2.35,14,5.38,6.53-3.26L86.51,70.49l-2.18,1.09-.74-1.49,15.6-7.78c1.58-.79,3.06-1.12,3.27-.7s-.95,1.4-2.53,2.19l-5.38,2.68,25,10.4,3.26-1.63L130.37,74l18.4-6.7C163.14,63.4,163.47,64.05,163.8,64.72Z"/><path class="cls-9" d="M135.24,74.31S128.61,71.17,123,74a14.35,14.35,0,0,0-7.12,8.07l3,5.09s7.72-1.79,9.08-3.63,9.08-4.09,9.08-6.36A2.88,2.88,0,0,0,135.24,74.31Z"/><path class="cls-10" d="M67.72,104.22a30,30,0,0,0-2.77-3.1A11.11,11.11,0,0,0,62.07,99a2.22,2.22,0,0,0-.38-.12,1.47,1.47,0,0,0,.16-.08c.18-.15-.06,0-.2.49l-.06.17v.11c0,.08,0,.12,0,.23s0,.2,0,.3l.06.36a7.52,7.52,0,0,0,.52,1.67,39,39,0,0,0,4.59,7.21c1.8,2.38,3.72,4.72,5.56,7.23a30.54,30.54,0,0,1,2.61,4.09,9.4,9.4,0,0,1,.53,1.31,4.83,4.83,0,0,1,.19.79,3.3,3.3,0,0,1,.06,1,3.47,3.47,0,0,1-.28,1.18,3.17,3.17,0,0,1-.8,1,3.39,3.39,0,0,1-2.12.8,5.59,5.59,0,0,1-3.06-1,15.58,15.58,0,0,1-2-1.59,43.26,43.26,0,0,1-3.24-3.44c-2-2.35-3.85-4.76-5.74-7.09-1-1.15-1.9-2.3-2.9-3.3a6.58,6.58,0,0,0-1.42-1.16C54,109,54,109,54,109a.8.8,0,0,0,.35-.13c.18-.22,0,0,0,.22a10.94,10.94,0,0,0,.28,4A29.89,29.89,0,0,0,56,117.28c.54,1.39,1.13,2.76,1.73,4.17.3.7.59,1.41.86,2.16a9.58,9.58,0,0,1,.36,1.21,4.91,4.91,0,0,1,.1.74,4.26,4.26,0,0,1,0,.48,1.65,1.65,0,0,1-.25.62,1.48,1.48,0,0,1-1.22.64,2,2,0,0,1-.45,0,2.49,2.49,0,0,1-.38-.08,6.47,6.47,0,0,1-1.22-.49,11.14,11.14,0,0,1-2.06-1.32,26,26,0,0,1-3.31-3.33c-1-1.16-1.93-2.36-2.93-3.41a5.72,5.72,0,0,0-1.57-1.22,1.07,1.07,0,0,0-1.34.34,5.44,5.44,0,0,0-1.3,3.76,14.11,14.11,0,0,0,.86,4.28l.73,2.15A7.49,7.49,0,0,1,45,130.3a1.6,1.6,0,0,1-.17.71,1.28,1.28,0,0,1-.58.55,2.72,2.72,0,0,1-1.3.14,13.42,13.42,0,0,1-2.27-.51c-1.47-.43-2.9-1-4.32-1.44A18.53,18.53,0,0,0,32,128.68a6.16,6.16,0,0,0-4.22,1.07,10.89,10.89,0,0,0-2.92,3.4,11.23,11.23,0,0,1,2.82-3.53,6.42,6.42,0,0,1,4.34-1.25,18.89,18.89,0,0,1,4.48.93c1.45.44,2.89.91,4.34,1.29A13.21,13.21,0,0,0,43,131a2.05,2.05,0,0,0,.93-.11c.21-.11.28-.29.29-.61a6.94,6.94,0,0,0-.54-2.05l-.81-2.12a15.34,15.34,0,0,1-1.06-4.56,6.54,6.54,0,0,1,1.48-4.64,2.51,2.51,0,0,1,1.22-.81,2.31,2.31,0,0,1,1.52.09,7,7,0,0,1,2.07,1.45c1.13,1.11,2.09,2.27,3.11,3.37a23,23,0,0,0,3.19,3,9.34,9.34,0,0,0,1.78,1.07,5,5,0,0,0,.9.33l.18,0s.13,0,.1,0,.05,0-.06,0a.16.16,0,0,0-.08.06.22.22,0,0,0-.1.09c0,.11,0,0,0,.1a.26.26,0,0,1,0-.09,2.61,2.61,0,0,0-.08-.38,7.7,7.7,0,0,0-.32-1c-.26-.66-.57-1.34-.89-2-.63-1.36-1.29-2.74-1.9-4.16a33.63,33.63,0,0,1-1.57-4.43,13,13,0,0,1-.46-5,3.89,3.89,0,0,1,.21-.81,2.33,2.33,0,0,1,.69-1,2,2,0,0,1,1.42-.44,2.87,2.87,0,0,1,1,.27,9,9,0,0,1,2.17,1.58c1.18,1.11,2.2,2.26,3.21,3.41,2,2.3,3.92,4.64,5.93,6.83a38.7,38.7,0,0,0,3.09,3.06,11.53,11.53,0,0,0,1.59,1.19,2.41,2.41,0,0,0,1.16.45c.05,0,0,0,0,0s-.16.28-.16.22a4,4,0,0,0-.47-1.24,27,27,0,0,0-2.4-3.46c-1.83-2.32-3.83-4.6-5.76-7a42.35,42.35,0,0,1-5.39-7.92,12.59,12.59,0,0,1-.91-2.62l-.13-.76,0-.84a5.78,5.78,0,0,1,.08-.9l.08-.45.1-.37A7.42,7.42,0,0,1,58,96.35a4.57,4.57,0,0,1,1.59-1.6,4.28,4.28,0,0,1,2.34-.56,5.91,5.91,0,0,1,1.83.38A10.94,10.94,0,0,1,66.27,96a21.48,21.48,0,0,1,2,1.61,36.77,36.77,0,0,1,3.39,3.55Z"/></svg>