<svg id="Layer_1" data-name="Layer 1" xmlns="http://www.w3.org/2000/svg" viewBox="0 0 256 256"><defs><style>.cls-1{fill:#2b373a;}.cls-2{fill:#30332b;}.cls-3{fill:#e6e3e8;}.cls-4{fill:#7d8597;}.cls-5{fill:#d58b1f;}.cls-6{fill:#9eb3c5;}</style></defs><circle class="cls-1" cx="128" cy="128" r="120.74"/><path class="cls-2" d="M128,7.26A120.74,120.74,0,1,1,7.26,128,120.74,120.74,0,0,1,128,7.26M128,0A128,128,0,0,0,78.17,245.94,128,128,0,0,0,177.83,10.06,127.35,127.35,0,0,0,128,0Z"/><polygon class="cls-3" points="62.18 95.77 60.72 91.34 56.28 89.87 60.27 87.95 62.18 83.97 63.76 88.29 68.08 89.87 63.42 91.11 62.18 95.77"/><polygon class="cls-3" points="194.72 100.77 193.26 96.33 188.82 94.86 192.81 92.95 194.72 88.97 196.3 93.29 200.62 94.86 195.96 96.11 194.72 100.77"/><polygon class="cls-3" points="148.43 72.17 146.96 67.73 142.53 66.27 146.51 64.35 148.43 60.37 150 64.69 154.33 66.27 149.67 67.51 148.43 72.17"/><polygon class="cls-3" points="39.94 136.17 39.04 133.44 36.31 132.54 38.76 131.36 39.94 128.91 40.91 131.57 43.57 132.54 40.71 133.3 39.94 136.17"/><polygon class="cls-3" points="99.86 77.16 98.96 74.43 96.23 73.53 98.68 72.35 99.86 69.9 100.83 72.56 103.49 73.53 100.62 74.3 99.86 77.16"/><polygon class="cls-3" points="127.09 100.77 126.19 98.04 123.46 97.14 125.91 95.95 127.09 93.5 128.06 96.16 130.72 97.14 127.86 97.9 127.09 100.77"/><polygon class="cls-3" points="34.72 152.74 36.19 157.17 40.62 158.64 36.64 160.56 34.72 164.54 33.15 160.22 28.82 158.64 33.48 157.4 34.72 152.74"/><polygon class="cls-3" points="98.27 208.11 99.73 212.55 104.17 214.01 100.19 215.93 98.27 219.91 96.69 215.59 92.37 214.01 97.03 212.77 98.27 208.11"/><polygon class="cls-3" points="146.84 226.27 148.3 230.7 152.74 232.17 148.75 234.09 146.84 238.07 145.26 233.75 140.94 232.17 145.6 230.93 146.84 226.27"/><polygon class="cls-3" points="128.68 173.62 129.58 176.35 132.31 177.25 129.86 178.43 128.68 180.88 127.71 178.22 125.05 177.25 127.92 176.49 128.68 173.62"/><polygon class="cls-3" points="40.62 196.77 41.53 199.5 44.26 200.4 41.8 201.58 40.62 204.03 39.65 201.37 36.99 200.4 39.86 199.63 40.62 196.77"/><polygon class="cls-3" points="179.06 196.77 179.97 199.5 182.69 200.4 180.24 201.58 179.06 204.03 178.09 201.37 175.43 200.4 178.3 199.63 179.06 196.77"/><polygon class="cls-3" points="146.84 102.36 148.3 106.79 152.74 108.25 148.75 110.17 146.84 114.16 145.26 109.83 140.94 108.25 145.6 107.02 146.84 102.36"/><polygon class="cls-3" points="122.33 135.94 123.23 138.67 125.96 139.57 123.51 140.75 122.33 143.21 121.36 140.55 118.69 139.57 121.56 138.81 122.33 135.94"/><polygon class="cls-3" points="224.91 83.75 225.81 86.47 228.54 87.38 226.09 88.56 224.91 91.01 223.94 88.35 221.28 87.38 224.14 86.61 224.91 83.75"/><polygon class="cls-3" points="81.93 113.7 82.83 116.43 85.56 117.33 83.11 118.51 81.93 120.97 80.96 118.31 78.3 117.33 81.17 116.57 81.93 113.7"/><polygon class="cls-3" points="225.65 136.19 224.48 132.67 220.96 131.51 224.12 129.98 225.65 126.82 226.9 130.25 230.34 131.51 226.63 132.49 225.65 136.19"/><polygon class="cls-3" points="187.23 47.43 188.7 51.87 193.13 53.33 189.15 55.25 187.23 59.23 185.66 54.91 181.33 53.33 185.99 52.09 187.23 47.43"/><polygon class="cls-3" points="148.65 28.82 150.12 33.26 154.55 34.72 150.57 36.64 148.65 40.62 147.07 36.3 142.75 34.72 147.41 33.48 148.65 28.82"/><polygon class="cls-3" points="73.76 49.7 75.22 54.14 79.66 55.6 75.68 57.52 73.76 61.5 72.18 57.18 67.86 55.6 72.52 54.36 73.76 49.7"/><polygon class="cls-3" points="105.99 20.2 106.89 22.93 109.62 23.83 107.17 25.01 105.99 27.46 105.01 24.8 102.36 23.83 105.22 23.07 105.99 20.2"/><polygon class="cls-3" points="34.72 87.38 35.63 90.11 38.35 91.01 35.9 92.19 34.72 94.64 33.75 91.98 31.09 91.01 33.96 90.24 34.72 87.38"/><polygon class="cls-4" points="175.82 139.99 175.04 149.22 174.33 149.16 175.11 139.93 174.03 139.83 173.2 149.63 173.91 149.69 174.28 149.72 174.41 149.73 174.34 150.44 174.69 150.47 174.75 149.76 174.99 149.78 175.27 149.8 176.07 149.87 176.9 140.08 175.82 139.99"/><polygon class="cls-4" points="180.56 140.94 179.77 150.17 179.06 150.11 179.84 140.88 178.76 140.79 177.93 150.58 178.64 150.64 179.01 150.67 179.14 150.68 179.08 151.39 179.42 151.42 179.48 150.71 179.72 150.73 180 150.75 180.81 150.82 181.64 141.03 180.56 140.94"/><polygon class="cls-5" points="178.01 163.01 178.79 153.77 179.5 153.83 178.72 163.07 179.8 163.16 180.63 153.37 179.92 153.31 179.55 153.28 179.43 153.27 179.49 152.56 179.15 152.53 179.09 153.24 178.84 153.22 178.56 153.19 177.76 153.12 176.93 162.91 178.01 163.01"/><polygon class="cls-5" points="173.36 161.76 174.14 152.52 174.85 152.58 174.07 161.82 175.15 161.91 175.98 152.12 175.27 152.06 174.9 152.03 174.77 152.01 174.83 151.3 174.49 151.28 174.43 151.99 174.19 151.97 173.91 151.94 173.1 151.87 172.28 161.66 173.36 161.76"/><polygon class="cls-4" points="199.62 145.97 197.52 155 196.82 154.83 198.93 145.81 197.87 145.56 195.64 155.13 196.34 155.29 196.7 155.38 196.82 155.41 196.66 156.1 196.99 156.18 197.15 155.48 197.39 155.54 197.66 155.6 198.45 155.79 200.68 146.22 199.62 145.97"/><polygon class="cls-4" points="204.11 147.25 202 156.27 201.31 156.11 203.41 147.08 202.36 146.84 200.13 156.41 200.82 156.57 201.18 156.65 201.3 156.68 201.14 157.38 201.47 157.45 201.63 156.76 201.88 156.81 202.15 156.88 202.93 157.06 205.16 147.49 204.11 147.25"/><polygon class="cls-5" points="198.59 168.65 200.69 159.62 201.38 159.78 199.28 168.81 200.34 169.06 202.57 159.49 201.87 159.32 201.51 159.24 201.39 159.21 201.55 158.52 201.22 158.44 201.06 159.13 200.82 159.08 200.54 159.01 199.76 158.83 197.53 168.4 198.59 168.65"/><polygon class="cls-5" points="193.82 167.53 195.92 158.51 196.62 158.67 194.51 167.7 195.57 167.94 197.8 158.37 197.1 158.21 196.74 158.13 196.62 158.1 196.78 157.41 196.45 157.33 196.29 158.02 196.05 157.97 195.78 157.9 194.99 157.72 192.76 167.29 193.82 167.53"/><path class="cls-3" d="M193.85,155.33v-2.06l-1.85-.5-1.05-.28-4.43-1.21-.38-.1-2.31-.63-1,1.78-8.37-2.28-.34,1.23,28,7.63.33-1.23Zm-7.77-3.17,4.75,1.29-.12,1-5.09-1.39Z"/><rect class="cls-6" x="186.08" y="155.86" width="2.88" height="1.12" transform="translate(-12.64 296.31) rotate(-74.78)"/><rect class="cls-6" x="188.03" y="150.42" width="1.95" height="1.12" transform="translate(-6.3 293.72) rotate(-74.78)"/><rect class="cls-4" x="188.88" y="148.53" width="0.77" height="2.98" transform="translate(-5.18 293.27) rotate(-74.78)"/><path class="cls-3" d="M126.87,70.21a.7.7,0,0,1-.32.45.72.72,0,0,1-.55.09l-2.51-.59-.08.31a4.12,4.12,0,0,1,1.27,1.32,4.34,4.34,0,0,1,.65,2,.33.33,0,0,1-.42.33l-3.36-.79-.13.56a.74.74,0,0,1,.12.13.73.73,0,0,1-.23,1,.73.73,0,1,1-.77-1.23.35.35,0,0,1,.17-.06l.13-.56-3.36-.79a.33.33,0,0,1-.23-.48,4.39,4.39,0,0,1,1.46-1.51,4.51,4.51,0,0,1,1.73-.62l.07-.3L118,68.88a.75.75,0,0,1-.45-.33.7.7,0,0,1-.09-.54l.71-3a.7.7,0,0,1,.32-.45h0a.72.72,0,0,1,.55-.09l2.51.59.35-1.5a.79.79,0,0,1,.34-.48.75.75,0,0,1,.58-.09l1.49.35a.73.73,0,0,1,.47.34.77.77,0,0,1,.1.57l-.35,1.5,2.51.59a.75.75,0,0,1,.45.33.7.7,0,0,1,.09.54Zm-5.57-4.12-2.15-.5-.54,2.31,2.15.5Zm3,.7-.54,2.31,2.15.5.54-2.31Z"/><path class="cls-5" d="M126.87,70.21a.7.7,0,0,1-.32.45.72.72,0,0,1-.55.09l-2.51-.59-3-.69L118,68.88a.75.75,0,0,1-.45-.33.7.7,0,0,1-.09-.54l.71-3a.7.7,0,0,1,.32-.45h0a.72.72,0,0,1,.55-.09l2.51.59,3,.69,2.51.59a.75.75,0,0,1,.45.33.7.7,0,0,1,.09.54Zm-5.57-4.12-2.15-.5-.54,2.31,2.15.5Zm3,.7-.54,2.31,2.15.5.54-2.31Z"/><path class="cls-3" d="M85.43,159.49a.92.92,0,0,1,.09.71.94.94,0,0,1-.44.57l-2.92,1.67.2.36a5.67,5.67,0,0,1,2.38.13,5.56,5.56,0,0,1,2.4,1.34.43.43,0,0,1-.1.68l-3.91,2.24.37.65a.89.89,0,0,1,.23,0,.95.95,0,1,1-.49,1.83.94.94,0,0,1-.67-1.16.84.84,0,0,1,.11-.21l-.37-.65L78.4,169.9a.43.43,0,0,1-.64-.26,5.64,5.64,0,0,1,1.15-4.86l-.2-.36-2.93,1.67a.94.94,0,0,1-1.28-.35l-2-3.51a.94.94,0,0,1-.09-.72h0a.94.94,0,0,1,.44-.57l2.92-1.68-1-1.74a1,1,0,0,1-.1-.75.93.93,0,0,1,.47-.6l1.72-1a1,1,0,0,1,.76-.1,1,1,0,0,1,.6.47l1,1.74,2.92-1.67a.94.94,0,0,1,.72-.09.91.91,0,0,1,.57.44Zm-9,1L74,161.93l1.53,2.69L78,163.19Zm3.46-2,1.53,2.69L84,159.77l-1.54-2.68Z"/><path class="cls-5" d="M85.43,159.49a.92.92,0,0,1,.09.71.94.94,0,0,1-.44.57l-2.92,1.67-3.45,2-2.93,1.67a.94.94,0,0,1-1.28-.35l-2-3.51a.94.94,0,0,1-.09-.72h0a.94.94,0,0,1,.44-.57l2.92-1.68,3.46-2,2.92-1.67a.94.94,0,0,1,.72-.09.91.91,0,0,1,.57.44Zm-9,1L74,161.93l1.53,2.69L78,163.19Zm3.46-2,1.53,2.69L84,159.77l-1.54-2.68Z"/></svg>