<svg id="Layer_1" data-name="Layer 1" xmlns="http://www.w3.org/2000/svg" viewBox="0 0 820.33 820.33"><defs><style>.cls-1,.cls-4{fill:#405229;}.cls-2{fill:#e4e98b;}.cls-3{fill:#5a7936;}.cls-4{font-size:73px;}.cls-4,.cls-6,.cls-7{font-family:Delicious-Heavy, Delicious Heavy;}.cls-5{fill:#648561;}.cls-6{font-size:218.43px;fill:#fff;stroke:#415228;stroke-miterlimit:10;stroke-width:6px;}.cls-7{font-size:102.73px;fill:#415228;}</style></defs><title>Artboard 1 copy 87</title>
<path class="cls-1" d="M652.38,238.9a300.87,300.87,0,0,0-141-107.64c-57.87-21.25-122.76-23.4-182-6.62A296.87,296.87,0,0,0,156,563.3C186.69,614,232.79,655.55,286.85,680a300.62,300.62,0,0,0,183.07,20.78c58.65-11.83,113.3-42.29,154.6-85.53,41.45-43.39,69.61-99.37,78.64-158.78a313.57,313.57,0,0,0,3.67-46.3C706.68,349.18,687.87,288.61,652.38,238.9ZM612.62,312l-42.74,58.57L514.1,409,493,388.54,474.65,409l-15.54-14.4-27,21.65-76.8-63.58L302.18,265l-86.52,97.15L166,471,143.2,461a246.45,246.45,0,0,1-3.88-29.12,269.45,269.45,0,0,1,6.85-86.09,261.84,261.84,0,0,1,31.44-76.14,265.41,265.41,0,0,1,23.22-32.73A285.73,285.73,0,0,1,230,206.82a244.57,244.57,0,0,1,31.86-24.31,283.73,283.73,0,0,1,37-20.32c50.32-22.9,110.7-29.49,165.07-18.4a271.55,271.55,0,0,1,142.45,78.49q7.26,7.56,14,15.65c4.52,5.46,7.2,9,11.59,15.2a284.29,284.29,0,0,1,21.63,36.17A243.91,243.91,0,0,1,668.87,327a282.72,282.72,0,0,1,10,42.17c.27,1.71.52,3.5.75,5.34Z"/>
<polygon class="cls-2" points="668.33 633.81 649.14 648.2 668.33 648.2 668.33 633.81"/>
<polygon class="cls-3" points="299.33 289 231.33 370 208.33 454 243.95 469.57 281.33 427 315 459.7 336.53 363.4 299.33 289"/>
<polygon class="cls-3" points="457.67 406.33 416.33 450 453.33 466 494.67 438.33 457.67 406.33"/>
<polygon class="cls-3" points="493.33 397.67 481 410.17 494 422.33 510 410.17 493.33 397.67"/>
<text class="cls-4" transform="translate(215.18 165.76) rotate(-36.47)">5</text>
<text class="cls-4" transform="matrix(0.86, -0.51, 0.51, 0.86, 240.6, 146.89)">2</text>
<text class="cls-4" transform="translate(268.12 130.86) rotate(-25.61)"> </text>
<text class="cls-4" transform="translate(286.39 121.19) rotate(-19.19)">w</text>
<text class="cls-4" transform="translate(331.65 106.24) rotate(-13.18)">i</text>
<text class="cls-4" transform="translate(347.82 102.35) rotate(-9.58)">t</text>
<text class="cls-4" transform="translate(368.72 98.4) rotate(-4.16)">h</text>
<text class="cls-4" transform="matrix(1, 0.02, -0.02, 1, 405.43, 96.05)"> </text>
<text class="cls-4" transform="translate(426.36 96.16) rotate(6.14)">a</text>
<text class="cls-4" transform="matrix(0.98, 0.19, -0.19, 0.98, 459.13, 99.9)"> </text>
<text class="cls-4" transform="matrix(0.96, 0.28, -0.28, 0.96, 479.64, 103.54)">V</text>
<text class="cls-4" transform="translate(513.07 113.8) rotate(21.27)">i</text>
<text class="cls-4" transform="translate(528.52 119.4) rotate(25.96)">e</text>
<text class="cls-4" transform="translate(558.36 133.29) rotate(33.47)">w</text>
<path class="cls-5" d="M459.11,394.59,474.65,409,493,388.54,514.1,409l55.78-38.34L612.62,312l67,62.45c-.23-1.84-.48-3.63-.75-5.34a282.72,282.72,0,0,0-10-42.17,243.91,243.91,0,0,0-15.31-37.68,284.29,284.29,0,0,0-21.63-36.17c-4.39-6.24-7.07-9.74-11.59-15.2s-9.11-10.61-14-15.65a271.55,271.55,0,0,0-142.45-78.49c-54.37-11.09-114.75-4.5-165.07,18.4a283.73,283.73,0,0,0-37,20.32A244.57,244.57,0,0,0,230,206.82a285.73,285.73,0,0,0-29.15,30.1,265.41,265.41,0,0,0-23.22,32.73,261.84,261.84,0,0,0-31.44,76.14,269.45,269.45,0,0,0-6.85,86.09A246.45,246.45,0,0,0,143.2,461L166,471l49.65-108.84L302.18,265l53.11,87.66,76.8,63.58Z"/>
<path class="cls-3" d="M452.53,678.62c3.37-.54,6.73-1.15,10.08-1.81a283.45,283.45,0,0,0,41.51-11.62A252.39,252.39,0,0,0,541,648.33q11.09-6.12,21.59-13.2l-72.49-1.92,123.4-125.8V330.16L556.28,430.48,381.73,547.54l-61.08,119.2q7.58,2.64,15.35,4.84a264.45,264.45,0,0,0,85.42,10q10.77-.42,21.49-1.65l3.19-.38,1-.13C448.92,679.19,450.72,678.92,452.53,678.62Z"/>
<text class="cls-6" transform="translate(118.27 675.48)">52VIEW</text>
<text class="cls-7" transform="translate(316.73 787.36)">TYPE</text></svg>