<svg id="Layer_1" data-name="Layer 1" xmlns="http://www.w3.org/2000/svg" viewBox="0 0 820.33 820.33"><defs><style>.cls-1,.cls-3{fill:#405229;}.cls-2{fill:#5a7936;}.cls-3{font-size:73px;}.cls-3,.cls-4,.cls-6{font-family:Delicious-Heavy, Delicious Heavy;}.cls-4{font-size:218.43px;fill:#fff;stroke:#415228;stroke-miterlimit:10;stroke-width:6px;}.cls-5{fill:#648561;}.cls-6{font-size:102.73px;fill:#415228;}</style></defs><title>Artboard 1 copy 103</title>
<path class="cls-1" d="M652.84,238.44a300.8,300.8,0,0,0-141-107.65c-57.87-21.25-122.77-23.39-182-6.62A296.85,296.85,0,0,0,156.49,562.83c30.67,50.73,76.77,92.25,130.83,116.7a300.46,300.46,0,0,0,183.07,20.78C529,688.49,583.69,658,625,614.79c41.46-43.4,69.62-99.38,78.64-158.79a313.47,313.47,0,0,0,3.68-46.3C707.15,348.71,688.34,288.15,652.84,238.44ZM178.08,269.19a263.86,263.86,0,0,1,23.21-32.73,286.76,286.76,0,0,1,29.15-30.1A243.85,243.85,0,0,1,262.31,182a283.54,283.54,0,0,1,37-20.31c50.33-22.91,110.71-29.5,165.08-18.4a271.58,271.58,0,0,1,142.44,78.48q7.27,7.58,14,15.66c4.52,5.46,7.19,8.95,11.59,15.19A283.71,283.71,0,0,1,654,288.84a243.11,243.11,0,0,1,15.31,37.68,282.14,282.14,0,0,1,10,42.17c.65,4.19,1.22,8.83,1.67,13.68C669,373,657.53,364,647.22,355.86c-60.76,50.43-47.36-12.47-81.23-37.08S507.6,266,493.66,254.6s-94.2,8.64-115.12,2-99,2.76-99,2.76-101.44,85.92-123.36,91.32a41,41,0,0,1-11,1.13c.48-2.17,1-4.35,1.5-6.52A261.59,261.59,0,0,1,178.08,269.19Z"/>
<path class="cls-2" d="M396.66,284c23.45,5.1,79.12-19.93,84-1s57,41,57,57,42,52,42,52l-114-76-137,137L202,369s87.22-71.38,103.22-81.38S373.22,278.9,396.66,284Z"/>
<path class="cls-2" d="M404.2,429.55,472,352.92l84.71,63.41c-7.29.92-60-24-60-24L470,449l-16.67-43.34Z"/>
<path class="cls-2" d="M675.63,408.15c-6.84-15.91-34.3-35.15-34.3-35.15l-4.8,29.85c-3.91,13-28.35,17.08-41.07,15.63s-22.48,5-19.55,15,30.31,29.46,73.33,38.3c7.63,1.57,16,2.77,24.61,3.68a274.14,274.14,0,0,0,7.75-54.52C679.37,416.58,677.37,412.19,675.63,408.15Z"/>
<text class="cls-3" transform="translate(215.18 165.76) rotate(-36.47)">5</text>
<text class="cls-3" transform="matrix(0.86, -0.51, 0.51, 0.86, 240.6, 146.89)">2</text>
<text class="cls-3" transform="translate(268.12 130.86) rotate(-25.61)"> </text>
<text class="cls-3" transform="translate(286.39 121.19) rotate(-19.19)">w</text>
<text class="cls-3" transform="translate(331.65 106.24) rotate(-13.18)">i</text>
<text class="cls-3" transform="translate(347.82 102.35) rotate(-9.58)">t</text>
<text class="cls-3" transform="translate(368.72 98.4) rotate(-4.16)">h</text>
<text class="cls-3" transform="matrix(1, 0.02, -0.02, 1, 405.43, 96.05)"> </text>
<text class="cls-3" transform="translate(426.36 96.16) rotate(6.14)">a</text>
<text class="cls-3" transform="matrix(0.98, 0.19, -0.19, 0.98, 459.13, 99.9)"> </text>
<text class="cls-3" transform="matrix(0.96, 0.28, -0.28, 0.96, 479.64, 103.54)">V</text>
<text class="cls-3" transform="translate(513.07 113.8) rotate(21.27)">i</text>
<text class="cls-3" transform="translate(528.52 119.4) rotate(25.96)">e</text>
<text class="cls-3" transform="translate(558.36 133.29) rotate(33.47)">w</text>
<text class="cls-4" transform="translate(118.27 675.48)">52VIEW</text>
<path class="cls-2" d="M272.15,524.2c16.77-9,43.85-6.47,43.85-6.47l-74.8-84.12-27.08,16.15-73.51-74a275,275,0,0,0-1.29,56.16,250.51,250.51,0,0,0,6.53,41.34c.9,3.79,1.9,7.55,3,11.29,8.5,12.34,12.43,24.67,17.6,33.22C179.3,539.07,255.38,533.17,272.15,524.2Z"/>
<path class="cls-5" d="M279.52,259.4s78.1-9.37,99-2.76,101.17-13.45,115.12-2,38.47,39.57,72.33,64.18,20.47,87.51,81.23,37.08C657.53,364,669,373,681,382.37c-.45-4.85-1-9.49-1.67-13.68a282.14,282.14,0,0,0-10-42.17A243.11,243.11,0,0,0,654,288.84a283.71,283.71,0,0,0-21.63-36.18c-4.4-6.24-7.07-9.73-11.59-15.19s-9.11-10.61-14-15.66a271.58,271.58,0,0,0-142.44-78.48c-54.37-11.1-114.75-4.51-165.08,18.4a283.54,283.54,0,0,0-37,20.31,243.85,243.85,0,0,0-31.87,24.32,286.76,286.76,0,0,0-29.15,30.1,272.87,272.87,0,0,0-54.66,108.87c-.53,2.17-1,4.35-1.5,6.52a41,41,0,0,0,11-1.13C178.08,345.32,279.52,259.4,279.52,259.4Z"/>
<text class="cls-6" transform="translate(316.73 787.36)">TYPE</text></svg>