<svg id="Layer_1" data-name="Layer 1" xmlns="http://www.w3.org/2000/svg" viewBox="0 0 820.33 820.33"><defs><style>.cls-1,.cls-3{fill:#405229;}.cls-2{fill:#5a7936;}.cls-3{font-size:73px;}.cls-3,.cls-4,.cls-6{font-family:Delicious-Heavy, Delicious Heavy;}.cls-4{font-size:218.43px;fill:#fff;stroke:#415228;stroke-miterlimit:10;stroke-width:6px;}.cls-5{fill:#648561;}.cls-6{font-size:102.73px;fill:#415228;}</style></defs><title>Artboard 1 copy 99</title>
<path class="cls-1" d="M652.38,238.9a300.87,300.87,0,0,0-141-107.64c-57.87-21.25-122.76-23.4-182-6.62A296.87,296.87,0,0,0,156,563.3C186.69,614,232.79,655.55,286.85,680a300.62,300.62,0,0,0,183.07,20.78c58.65-11.83,113.3-42.29,154.6-85.53,41.45-43.39,69.61-99.37,78.64-158.78a313.57,313.57,0,0,0,3.67-46.3C706.68,349.18,687.87,288.61,652.38,238.9ZM446.56,679.52l.54-.07ZM619.79,288c-7.3,5.94-17.13,17.58-29,31.8C571.91,307.43,552.66,282,552.66,282S401.45,422.72,379.12,429.25,280,337.49,280,337.49l-13.75,15.43a291.8,291.8,0,0,1-24.52-18.2c-33.37,26.21-68.7,67.19-101.08,110.35-.55-4.31-1-8.66-1.33-13.19a269.45,269.45,0,0,1,6.85-86.09,261.84,261.84,0,0,1,31.44-76.14,265.41,265.41,0,0,1,23.22-32.73A285.73,285.73,0,0,1,230,206.82a244.57,244.57,0,0,1,31.86-24.31,283.73,283.73,0,0,1,37-20.32c50.32-22.9,110.7-29.49,165.07-18.4a271.55,271.55,0,0,1,142.45,78.49q7.26,7.56,14,15.65c4.52,5.46,7.2,9,11.59,15.2A285.34,285.34,0,0,1,651.36,285q-1.12-2.12-2.26-4.22C637.74,280.41,627.55,281.72,619.79,288Z"/>
<path class="cls-2" d="M579.29,495.3,478.66,567.66s-25.09-36.83-30-40C474.75,470.12,612,352.92,612,352.92S583.39,464.07,579.29,495.3Z"/>
<path class="cls-2" d="M447.12,412.57l105.54-99.35s8.27,15.34,22.36,25.45c-19.93,23.47-43.85,49.78-70.15,68.74-18.1,13.06-37.9,25.11-60,31.92A119.46,119.46,0,0,1,447.12,412.57Z"/>
<path class="cls-2" d="M265.82,400.69c5.89,26.5,42.75,34.92,61.91,32s33.9,10.19,29.48,30.66c-2.5,11.56-16.74,29.25-40.32,45.71-9.16-23.88-15.35-68.83-80-79l26.29-42.75C264,391.86,264.87,396.42,265.82,400.69Z"/>
<path class="cls-2" d="M183.69,478.29c10.71-3.22,20.57-11.34,29.5-22,15.09-3.71,28.56-7.08,29.45.64,1.39,12-62.2,47.85-90.53,35.51C164.63,485.91,176,480.61,183.69,478.29Z"/>
<path class="cls-2" d="M238.38,360.21c5.45-1.7,9.67.68,13.16,5.63-20.65,21-41.93,42.68-57.68,58.64a164.43,164.43,0,0,1-16.53.52C194.25,393.9,215.55,367.34,238.38,360.21Z"/>
<path class="cls-2" d="M613.75,327.71c-.24.72-.46,1.55-.69,2.46,8-.4,15.09.55,20.48,5.77,10,9.67,27,38.27,48.11,64.75a276,276,0,0,0-2.81-31.54,282.72,282.72,0,0,0-10-42.17c-1.39-4.34-2.76-8.36-4.18-12.22C640,314,619.15,310.91,613.75,327.71Z"/>
<text class="cls-3" transform="translate(215.18 165.76) rotate(-36.47)">5</text>
<text class="cls-3" transform="matrix(0.86, -0.51, 0.51, 0.86, 240.6, 146.89)">2</text>
<text class="cls-3" transform="translate(268.12 130.86) rotate(-25.61)"> </text>
<text class="cls-3" transform="translate(286.39 121.19) rotate(-19.19)">w</text>
<text class="cls-3" transform="translate(331.65 106.24) rotate(-13.18)">i</text>
<text class="cls-3" transform="translate(347.82 102.35) rotate(-9.58)">t</text>
<text class="cls-3" transform="translate(368.72 98.4) rotate(-4.16)">h</text>
<text class="cls-3" transform="matrix(1, 0.02, -0.02, 1, 405.43, 96.05)"> </text>
<text class="cls-3" transform="translate(426.36 96.16) rotate(6.14)">a</text>
<text class="cls-3" transform="matrix(0.98, 0.19, -0.19, 0.98, 459.13, 99.9)"> </text>
<text class="cls-3" transform="matrix(0.96, 0.28, -0.28, 0.96, 479.64, 103.54)">V</text>
<text class="cls-3" transform="translate(513.07 113.8) rotate(21.27)">i</text>
<text class="cls-3" transform="translate(528.52 119.4) rotate(25.96)">e</text>
<text class="cls-3" transform="translate(558.36 133.29) rotate(33.47)">w</text>
<text class="cls-4" transform="translate(118.27 675.48)">52VIEW</text>
<path class="cls-5" d="M280,337.49s76.8,98.29,99.12,91.76S552.66,282,552.66,282s19.25,25.39,38.15,37.77c11.85-14.22,21.68-25.86,29-31.8,7.76-6.29,18-7.6,29.31-7.23q1.14,2.1,2.26,4.22a285.34,285.34,0,0,0-19.43-31.87c-4.39-6.24-7.07-9.74-11.59-15.2s-9.11-10.61-14-15.65a271.55,271.55,0,0,0-142.45-78.49c-54.37-11.09-114.75-4.5-165.07,18.4a283.73,283.73,0,0,0-37,20.32A244.57,244.57,0,0,0,230,206.82a285.73,285.73,0,0,0-29.15,30.1,265.41,265.41,0,0,0-23.22,32.73,261.84,261.84,0,0,0-31.44,76.14,269.45,269.45,0,0,0-6.85,86.09c.34,4.53.78,8.88,1.33,13.19,32.38-43.16,67.71-84.14,101.08-110.35a291.8,291.8,0,0,0,24.52,18.2Z"/>
<text class="cls-6" transform="translate(316.73 787.36)">TYPE</text></svg>