<svg id="Layer_1" data-name="Layer 1" xmlns="http://www.w3.org/2000/svg" viewBox="0 0 820.33 820.33"><defs><style>.cls-1,.cls-3{fill:#405229;}.cls-2{fill:#5a7936;}.cls-3{font-size:73px;}.cls-3,.cls-5,.cls-6{font-family:Delicious-Heavy, Delicious Heavy;}.cls-4{fill:#648561;}.cls-5{font-size:218.43px;fill:#fff;stroke:#415228;stroke-miterlimit:10;stroke-width:6px;}.cls-6{font-size:102.73px;fill:#415228;}</style></defs><title>Artboard 1 copy 101</title>
<path class="cls-1" d="M652.38,238.9a300.87,300.87,0,0,0-141-107.64c-57.87-21.25-122.76-23.4-182-6.62A296.87,296.87,0,0,0,156,563.3C186.69,614,232.79,655.55,286.85,680a300.62,300.62,0,0,0,183.07,20.78c58.65-11.83,113.3-42.29,154.6-85.53,41.45-43.39,69.61-99.37,78.64-158.78a313.57,313.57,0,0,0,3.67-46.3C706.68,349.18,687.87,288.61,652.38,238.9Zm-451.55-2A285.73,285.73,0,0,1,230,206.82a244.57,244.57,0,0,1,31.86-24.31,283.73,283.73,0,0,1,37-20.32c50.32-22.9,110.7-29.49,165.07-18.4a271.55,271.55,0,0,1,142.45,78.49q7.26,7.56,14,15.65c4.52,5.46,7.2,9,11.59,15.2a284.61,284.61,0,0,1,20.71,34.37l-57.18-52.66L446.94,301s-165.4-77.86-215.79-58.21c-11.7,4.56-39,30.73-74.07,68.22a277.1,277.1,0,0,1,43.75-74Z"/>
<path class="cls-2" d="M181.33,321.66s46-54,68-57.33,123.33,34,123.33,34l-54,6-10.66,18-42-10.67-21.34,26.67L226,315.66Z"/>
<polygon class="cls-2" points="590.66 256.33 636 303 602 297 584.66 304.33 578 278.33 534.66 279.67 590.66 256.33"/>
<path class="cls-2" d="M558.12,638.06,356.33,575.5l96-90.19L278.33,391l259.46-25.69-55.38-62.66-21.75,9.68,51.63,40.59S258,371.67,247.33,385,417.8,486.81,417.8,486.81L299.33,574l199.49,93.06q2.65-.91,5.3-1.87A252.39,252.39,0,0,0,541,648.33Q549.71,643.5,558.12,638.06Z"/>
<text class="cls-3" transform="translate(215.18 165.76) rotate(-36.47)">5</text>
<text class="cls-3" transform="matrix(0.86, -0.51, 0.51, 0.86, 240.6, 146.89)">2</text>
<text class="cls-3" transform="translate(268.12 130.86) rotate(-25.61)"> </text>
<text class="cls-3" transform="translate(286.39 121.19) rotate(-19.19)">w</text>
<text class="cls-3" transform="translate(331.65 106.24) rotate(-13.18)">i</text>
<text class="cls-3" transform="translate(347.82 102.35) rotate(-9.58)">t</text>
<text class="cls-3" transform="translate(368.72 98.4) rotate(-4.16)">h</text>
<text class="cls-3" transform="matrix(1, 0.02, -0.02, 1, 405.43, 96.05)"> </text>
<text class="cls-3" transform="translate(426.36 96.16) rotate(6.14)">a</text>
<text class="cls-3" transform="matrix(0.98, 0.19, -0.19, 0.98, 459.13, 99.9)"> </text>
<text class="cls-3" transform="matrix(0.96, 0.28, -0.28, 0.96, 479.64, 103.54)">V</text>
<text class="cls-3" transform="translate(513.07 113.8) rotate(21.27)">i</text>
<text class="cls-3" transform="translate(528.52 119.4) rotate(25.96)">e</text>
<text class="cls-3" transform="translate(558.36 133.29) rotate(33.47)">w</text>
<path class="cls-4" d="M446.94,301l148.52-66.11,57.18,52.66a284.61,284.61,0,0,0-20.71-34.37c-4.39-6.24-7.07-9.74-11.59-15.2s-9.11-10.61-14-15.65a271.55,271.55,0,0,0-142.45-78.49c-54.37-11.09-114.75-4.5-165.07,18.4a283.73,283.73,0,0,0-37,20.32A244.57,244.57,0,0,0,230,206.82a285.73,285.73,0,0,0-29.15,30.1,277.1,277.1,0,0,0-43.75,74c35-37.49,62.37-63.66,74.07-68.22C281.54,223.09,446.94,301,446.94,301Z"/>
<text class="cls-5" transform="translate(118.27 675.48)">52VIEW</text>
<text class="cls-6" transform="translate(316.73 787.36)">TYPE</text></svg>