<svg id="Layer_1" data-name="Layer 1" xmlns="http://www.w3.org/2000/svg" xmlns:xlink="http://www.w3.org/1999/xlink" viewBox="0 0 820.33 820.33"><defs><style>.cls-1{fill:none;}.cls-2,.cls-5{fill:#405229;}.cls-3{clip-path:url(#clip-path);}.cls-4{fill:#5a7936;}.cls-5{font-size:73px;}.cls-5,.cls-6,.cls-8{font-family:Delicious-Heavy, Delicious Heavy;}.cls-6{font-size:218.43px;fill:#fff;stroke:#415228;stroke-miterlimit:10;stroke-width:6px;}.cls-7{fill:#648561;}.cls-8{font-size:102.73px;fill:#415228;}</style><clipPath id="clip-path"><circle class="cls-1" cx="410.17" cy="410.17" r="284.17"/></clipPath></defs><title>Artboard 1 copy 91</title>
<path class="cls-2" d="M652.38,238.9a300.87,300.87,0,0,0-141-107.64c-57.87-21.25-122.76-23.4-182-6.62A296.87,296.87,0,0,0,156,563.3C186.69,614,232.79,655.55,286.85,680a300.62,300.62,0,0,0,183.07,20.78c58.65-11.83,113.3-42.29,154.6-85.53,41.45-43.39,69.61-99.37,78.64-158.78a313.57,313.57,0,0,0,3.67-46.3C706.68,349.18,687.87,288.61,652.38,238.9ZM446.56,679.52l.54-.07Zm92.73-429.86s-39.32,49.55-71.07,60.9-71.07-11.35-92.24,8.26c-7.3,6.77-17.13,20.05-29,36.28C328.1,341,308.85,312,308.85,312s-122,129.49-163,161.27v0a250.51,250.51,0,0,1-6.53-41.34,269.45,269.45,0,0,1,6.85-86.09,261.84,261.84,0,0,1,31.44-76.14,265.41,265.41,0,0,1,23.22-32.73A285.73,285.73,0,0,1,230,206.82a244.57,244.57,0,0,1,31.86-24.31,283.73,283.73,0,0,1,37-20.32c50.32-22.9,110.7-29.49,165.07-18.4a271.55,271.55,0,0,1,142.45,78.49q7.26,7.56,14,15.65c4.52,5.46,7.2,9,11.59,15.2a284.29,284.29,0,0,1,21.63,36.17A243.91,243.91,0,0,1,668.87,327a282.72,282.72,0,0,1,10,42.17c.06.35.11.72.16,1.07C610.67,313.1,539.29,249.66,539.29,249.66Z"/><g class="cls-3">
<path class="cls-4" d="M458,533c-1-28.13-12.17-78.62-12.17-78.62a543.76,543.76,0,0,1,37.51,56L461.16,556A123,123,0,0,1,458,533Z"/>
<path class="cls-4" d="M400.27,578.55c-6.93-9.2-12.19-18.72-12.19-26.45,0-18,1.89-112.37,6.44-164.18,4.21,1.64,7.27,4.88,8.71,11,5.08,21.51,7.1,137.37,7.1,155.58C410.33,561.47,405.82,570.32,400.27,578.55Z"/>
<path class="cls-4" d="M318.13,511.77,249,571.46s-3.37-2-8.27-5.63c26.08-65.67,94.44-138.63,94.44-138.63S322.23,476.14,318.13,511.77Z"/>
<path class="cls-4" d="M203.31,461,308.85,347.58s8.27,17.51,22.36,29.05c-19.93,26.78-43.85,56.8-70.15,78.44-18.1,14.9-37.9,28.65-60,36.42A154.9,154.9,0,0,1,203.31,461Z"/></g>
<path class="cls-4" d="M539.29,294.05s-22.68,40.25-59,47.48-74.1-10.32-81.66,16.52c-.23.82-.46,1.76-.68,2.81,7.95-.46,15.09.62,20.47,6.58,14.21,15.73,42.63,75.31,77.13,109.24.94.92,1.89,1.84,2.84,2.74l0-.09,35.79,25.86c27.58,12.33,60.49,8.29,101.38-37.62,9.39,10.07,19.72,21.42,30.54,33.49A272.64,272.64,0,0,0,681.55,422Z"/>
<text class="cls-5" transform="translate(215.18 165.76) rotate(-36.47)">5</text>
<text class="cls-5" transform="matrix(0.86, -0.51, 0.51, 0.86, 240.6, 146.89)">2</text>
<text class="cls-5" transform="translate(268.12 130.86) rotate(-25.61)"> </text>
<text class="cls-5" transform="translate(286.39 121.19) rotate(-19.19)">w</text>
<text class="cls-5" transform="translate(331.65 106.24) rotate(-13.18)">i</text>
<text class="cls-5" transform="translate(347.82 102.35) rotate(-9.58)">t</text>
<text class="cls-5" transform="translate(368.72 98.4) rotate(-4.16)">h</text>
<text class="cls-5" transform="matrix(1, 0.02, -0.02, 1, 405.43, 96.05)"> </text>
<text class="cls-5" transform="translate(426.36 96.16) rotate(6.14)">a</text>
<text class="cls-5" transform="matrix(0.98, 0.19, -0.19, 0.98, 459.13, 99.9)"> </text>
<text class="cls-5" transform="matrix(0.96, 0.28, -0.28, 0.96, 479.64, 103.54)">V</text>
<text class="cls-5" transform="translate(513.07 113.8) rotate(21.27)">i</text>
<text class="cls-5" transform="translate(528.52 119.4) rotate(25.96)">e</text>
<text class="cls-5" transform="translate(558.36 133.29) rotate(33.47)">w</text>
<text class="cls-6" transform="translate(118.27 675.48)">52VIEW</text>
<path class="cls-7" d="M308.85,312S328.1,341,347,355.1c11.85-16.23,21.68-29.51,29-36.28,21.17-19.61,60.48,3.1,92.24-8.26s71.07-60.9,71.07-60.9S610.67,313.1,679,370.22c0-.35-.1-.72-.16-1.07a282.72,282.72,0,0,0-10-42.17,243.91,243.91,0,0,0-15.31-37.68,284.29,284.29,0,0,0-21.63-36.17c-4.39-6.24-7.07-9.74-11.59-15.2s-9.11-10.61-14-15.65a271.55,271.55,0,0,0-142.45-78.49c-54.37-11.09-114.75-4.5-165.07,18.4a283.73,283.73,0,0,0-37,20.32A244.57,244.57,0,0,0,230,206.82a285.73,285.73,0,0,0-29.15,30.1,265.41,265.41,0,0,0-23.22,32.73,261.84,261.84,0,0,0-31.44,76.14,269.45,269.45,0,0,0-6.85,86.09,250.51,250.51,0,0,0,6.53,41.34v0C186.89,441.49,308.85,312,308.85,312Z"/>
<text class="cls-8" transform="translate(316.73 787.36)">TYPE</text></svg>