<svg id="Layer_1" data-name="Layer 1" xmlns="http://www.w3.org/2000/svg" viewBox="0 0 820.33 820.33"><defs><style>.cls-1,.cls-3{fill:#405229;}.cls-2{fill:#5a7936;}.cls-3{font-size:73px;}.cls-3,.cls-4,.cls-6{font-family:Delicious-Heavy, Delicious Heavy;}.cls-4{font-size:218.43px;fill:#fff;stroke:#415228;stroke-miterlimit:10;stroke-width:6px;}.cls-5{fill:#648561;}.cls-6{font-size:102.73px;fill:#415228;}</style></defs><title>Artboard 1 copy 94</title>
<path class="cls-1" d="M652.38,238.9a300.87,300.87,0,0,0-141-107.64c-57.87-21.25-122.76-23.4-182-6.62A296.87,296.87,0,0,0,156,563.3C186.69,614,232.79,655.55,286.85,680a300.62,300.62,0,0,0,183.07,20.78c58.65-11.83,113.3-42.29,154.6-85.53,41.45-43.39,69.61-99.37,78.64-158.78a313.57,313.57,0,0,0,3.67-46.3C706.68,349.18,687.87,288.61,652.38,238.9ZM536.77,408.27s-14.35-15.16-29.57-32.91a118.51,118.51,0,0,1,.57-19.39c4.06-30.91,13.51-49.47,18.92-33.19,3.87,11.66,19.49,50.62,28.07,71.85C544.12,402.54,536.77,408.27,536.77,408.27Zm145,6c-24.67-33.13-39.37-64.77-51.3-65.76-7.57-.62-30.42,13.88-51.66,28.74-4.4-10.63-32.49-78.55-40-97.53-8.11-20.62-21.62-45.36-46-20.62-13.68,13.9-26.07,30.43-38.63,46.63-11.22-12.47-22.51-22.18-29.65-25.87-12.29-6.35-18.43-22.89-32.26-42s-23-31.78-56.83-6.34-24.58,68.65-43,81.36-53.76,63.57-76.81,77.55S178.83,437.51,160.4,454c-4.42,4-10,8.58-15.9,13.32l.3,1.34c.34,1.49.68,3,1,4.53a250.51,250.51,0,0,1-6.53-41.34,269.45,269.45,0,0,1,6.85-86.09,261.84,261.84,0,0,1,31.44-76.14,265.41,265.41,0,0,1,23.22-32.73A285.73,285.73,0,0,1,230,206.82a244.57,244.57,0,0,1,31.86-24.31,283.73,283.73,0,0,1,37-20.32c50.32-22.9,110.7-29.49,165.07-18.4a271.55,271.55,0,0,1,142.45,78.49q7.26,7.56,14,15.65c4.52,5.46,7.2,9,11.59,15.2a284.29,284.29,0,0,1,21.63,36.17A243.91,243.91,0,0,1,668.87,327a282.72,282.72,0,0,1,10,42.17,286.73,286.73,0,0,1,3,41C681.83,411.53,681.79,412.9,681.77,414.26Z"/>
<path class="cls-2" d="M282.56,426.18c-14.26-12.67,32.8-66.79,45.63-79.46s8.56-32.24,17.12-44.91,0-51.82,18.54-44.92,39.93,26.5,52.77,50.68,74.16,76,81.29,97.88c0,0-54.2,41.46-75.59,46.06s-48.48,3.46-62.75,18.43S311.08,511.4,294,509.09s-25.66-21.88-11.4-41.46,35.65-31.09,34.23-50.67S296.83,438.85,282.56,426.18Z"/>
<path class="cls-2" d="M613.61,387.86s-50.69,29.93-53.76,42.6,29.19,27.64,9.21,46.07-47.62,24.18-47.62,35.69,18.43,39.16,0,54.13-24.58,31.09-24.58,31.09,36.87-11.52,69.13-4.61a279.18,279.18,0,0,0,39.88,5.75,261,261,0,0,0,25.3-30.31,272.08,272.08,0,0,0,47-113.66C641.18,415,618.65,384.75,613.61,387.86Z"/>
<text class="cls-3" transform="translate(215.18 165.76) rotate(-36.47)">5</text>
<text class="cls-3" transform="matrix(0.86, -0.51, 0.51, 0.86, 240.6, 146.89)">2</text>
<text class="cls-3" transform="translate(268.12 130.86) rotate(-25.61)"> </text>
<text class="cls-3" transform="translate(286.39 121.19) rotate(-19.19)">w</text>
<text class="cls-3" transform="translate(331.65 106.24) rotate(-13.18)">i</text>
<text class="cls-3" transform="translate(347.82 102.35) rotate(-9.58)">t</text>
<text class="cls-3" transform="translate(368.72 98.4) rotate(-4.16)">h</text>
<text class="cls-3" transform="matrix(1, 0.02, -0.02, 1, 405.43, 96.05)"> </text>
<text class="cls-3" transform="translate(426.36 96.16) rotate(6.14)">a</text>
<text class="cls-3" transform="matrix(0.98, 0.19, -0.19, 0.98, 459.13, 99.9)"> </text>
<text class="cls-3" transform="matrix(0.96, 0.28, -0.28, 0.96, 479.64, 103.54)">V</text>
<text class="cls-3" transform="translate(513.07 113.8) rotate(21.27)">i</text>
<text class="cls-3" transform="translate(528.52 119.4) rotate(25.96)">e</text>
<text class="cls-3" transform="translate(558.36 133.29) rotate(33.47)">w</text>
<text class="cls-4" transform="translate(118.27 675.48)">52VIEW</text>
<path class="cls-2" d="M536.77,408.27s7.35-5.73,18-13.64c-8.58-21.23-24.2-60.19-28.07-71.85-5.41-16.28-14.86,2.28-18.92,33.19a118.51,118.51,0,0,0-.57,19.39C522.42,393.11,536.77,408.27,536.77,408.27Z"/>
<path class="cls-5" d="M630.47,348.5c11.93,1,26.63,32.63,51.3,65.76,0-1.36.06-2.73.06-4.09a286.73,286.73,0,0,0-3-41,282.72,282.72,0,0,0-10-42.17,243.91,243.91,0,0,0-15.31-37.68,284.29,284.29,0,0,0-21.63-36.17c-4.39-6.24-7.07-9.74-11.59-15.2s-9.11-10.61-14-15.65a271.55,271.55,0,0,0-142.45-78.49c-54.37-11.09-114.75-4.5-165.07,18.4a283.73,283.73,0,0,0-37,20.32A244.57,244.57,0,0,0,230,206.82a285.73,285.73,0,0,0-29.15,30.1,265.41,265.41,0,0,0-23.22,32.73,261.84,261.84,0,0,0-31.44,76.14,269.45,269.45,0,0,0-6.85,86.09,250.51,250.51,0,0,0,6.53,41.34c-.37-1.54-.71-3-1-4.53l-.3-1.34C150.41,462.61,156,458,160.4,454c18.43-16.52,32.26-49.58,55.3-63.57s58.38-64.85,76.81-77.55,9.21-56,43-81.36,43-12.73,56.83,6.34,20,35.61,32.26,42c7.14,3.69,18.43,13.4,29.65,25.87,12.56-16.2,25-32.73,38.63-46.63,24.33-24.74,37.84,0,46,20.62,7.47,19,35.56,86.9,40,97.53C600.05,362.38,622.9,347.88,630.47,348.5Z"/>
<text class="cls-6" transform="translate(316.73 787.36)">TYPE</text></svg>