<svg id="Layer_1" data-name="Layer 1" xmlns="http://www.w3.org/2000/svg" viewBox="0 0 820.33 820.33"><defs><style>.cls-1,.cls-3{fill:#405229;}.cls-2{fill:#5a7936;}.cls-3{font-size:73px;}.cls-3,.cls-5,.cls-6{font-family:Delicious-Heavy, Delicious Heavy;}.cls-4{fill:#648561;}.cls-5{font-size:218.43px;fill:#fff;stroke:#415228;stroke-miterlimit:10;stroke-width:6px;}.cls-6{font-size:102.73px;fill:#415228;}</style></defs><title>Artboard 1 copy 88</title>
<path class="cls-1" d="M652.38,238.9a300.87,300.87,0,0,0-141-107.64c-57.87-21.25-122.76-23.4-182-6.62A296.87,296.87,0,0,0,156,563.3C186.69,614,232.79,655.55,286.85,680a300.62,300.62,0,0,0,183.07,20.78c58.65-11.83,113.3-42.29,154.6-85.53,41.45-43.39,69.61-99.37,78.64-158.78a313.57,313.57,0,0,0,3.67-46.3C706.68,349.18,687.87,288.61,652.38,238.9ZM446.84,679.48l.26,0Zm188-387.28c-16.76,15.23-90,75.07-90,75.07S426.58,247.59,414.22,234.54s-29.11-29.38-49.41-12-79.42,64.19-79.42,64.19-23.83-16.32-37.07-25-30.88-18.49-50.3,9.8c-5.47,8-25.21,35.08-50.76,69.94a261.24,261.24,0,0,1,30.35-71.82,265.41,265.41,0,0,1,23.22-32.73A285.73,285.73,0,0,1,230,206.82a244.57,244.57,0,0,1,31.86-24.31,283.73,283.73,0,0,1,37-20.32c50.32-22.9,110.7-29.49,165.07-18.4a271.55,271.55,0,0,1,142.45,78.49q7.26,7.56,14,15.65c4.52,5.46,7.2,9,11.59,15.2a284.58,284.58,0,0,1,20.92,34.79C647.44,285.39,641.65,286,634.84,292.2Z"/>
<path class="cls-2" d="M306.6,301.91c23.28-22.06,47.34-44.76,63.06-58.25,20.3-17.4,37.65,7.62,50,20.67s102.07,94.81,68,85.33-30.73,8.7-62.49-4.66-21.25-28.18-64.84-9.34Z"/>
<path class="cls-2" d="M669.12,596.23a1.63,1.63,0,0,0-.1-.53,7.42,7.42,0,0,0-.63-1.42,28,28,0,0,0,2.83-1.35s-.85,1.34-2.08,3.32a17.82,17.82,0,0,0,1.39,1.14c7.25,5.29-3.77,3.12-3.77,3.12s4.25,5.49,7.3,10c5-6.51,17.21-19,17.69-21.1,0,0,.27.75.76,2,2.16.36,9.75,1.37,3.32-3.24-7.43-5.33-12.08-18.72-12.08-18.72-.48,2.05-12.67,14.59-17.69,21.1-1.95-2.91-4.4-6.21-5.91-8.2C661.83,586.22,665,592.44,669.12,596.23Z"/>
<path class="cls-2" d="M286.76,544.73s-1,2.41-2.45,5.73c2.55,3.83,4.35,6.87,4.25,7.88-.47,3.29-7.33-1.55-7.33-1.55s5.62,11.11,8.88,18.89c2.38-5.69,4.65-10.95,4.65-10.95s-5.62,2.44-4.76-.82,8.31-15.19,8.31-15.19-8.92,2.18-3.06-3.11S304.78,527,304.78,527a16.7,16.7,0,0,0,2,3.57l-.12-.25s5.38,3.8,5.74,1.22-15.15-22-15.64-24.54c0,0-3.66,13.29-9.53,18.58s3.06,3.11,3.06,3.11-7.58,12.07-8.31,15.19S286.76,544.73,286.76,544.73Z"/>
<path class="cls-2" d="M229.59,544.73s-2.36,5.46-4.79,11.28c4,5.67,8.06,11.49,7.94,12.82-.37,2.58-5.74-1.21-5.74-1.21s2.62,5.17,5,10.34c2.7-6.48,5.61-13.23,5.61-13.23s-5.62,2.44-4.77-.82,8.31-15.19,8.31-15.19-8.92,2.18-3-3.11S247.61,527,247.61,527c.35,1.84,8.31,12.27,12.74,19,5.17-7.82,8.25-19,8.25-19,.25,1.3,3.5,6,7.3,11.37,2,1,4.39,1.85,4.66-.06.31-3.28-19.33-28-20-31.31,0,0-3.08,11.19-8.25,19-4.43-6.74-12.39-17.17-12.74-19,0,0-3.67,13.29-9.53,18.58s3,3.11,3,3.11-7.57,12.07-8.31,15.19S229.59,544.73,229.59,544.73Z"/>
<path class="cls-2" d="M321.21,536.17s-2.56,3.61-5.2,7.63c2.55,3.72,4.5,6.84,4.41,7.77-.36,2.58-5.74-1.22-5.74-1.22s5.15,10.18,7.54,16.24c3.12-5,7-10.42,7-10.42s-11.6,2.5-4-3.59,12.39-21.38,12.39-21.38c.34,1.58,6.14,8.61,11.47,15.31a65.07,65.07,0,0,0,5.51-13.35c.17.89,2.12,3.79,4.59,7.31l.21-.17c7.43-6,12.08-21.22,12.08-21.22.18.89,2.11,3.54,4.68,6.88l-.14-.24s6.82,4.33,7.28,1.39-19.2-25.09-19.82-28c0,0-4.65,15.18-12.08,21.22l-.21.17c-2.47-3.52-4.42-6.42-4.59-7.31a65.07,65.07,0,0,1-5.51,13.35c-5.33-6.7-11.13-13.73-11.47-15.31,0,0-4.77,15.3-12.39,21.38S321.21,536.17,321.21,536.17Z"/>
<path class="cls-2" d="M506.62,554.79a9.37,9.37,0,0,1-4.49-2.47s4.07,11.29,7,20.47a69.36,69.36,0,0,0,7.3-15.71c.26,1.23,3.85,5.85,7.9,11,3.75-8.24,8.73-18.66,8.73-18.66s-7.12,2.78-6-.93,10.53-17.35,10.53-17.35-11.3,2.48-3.87-3.56,12.08-21.22,12.08-21.22c.19.89,2.11,3.54,4.68,6.88l-.13-.24s6.81,4.34,7.28,1.39c.31-2.94-19.21-25.09-19.83-28,0,0-4.64,15.18-12.08,21.22s3.87,3.56,3.87,3.56-9.6,13.78-10.53,17.35,6,.93,6,.93-5,10.42-8.73,18.66c-4.05-5.16-7.64-9.78-7.9-11a74.84,74.84,0,0,1-4.14,10.18C506.36,551.55,507.69,555,506.62,554.79Z"/>
<path class="cls-2" d="M389.46,522.42s-3,6.2-6,12.82c4.28,5.5,8,10.57,7.89,11.87-.46,2.94-7.28-1.39-7.28-1.39s3.32,5.91,6.33,11.82c3.41-7.41,7.1-15.12,7.1-15.12s-7.12,2.79-6-.93c.93-3.56,10.53-17.35,10.53-17.35s-11.3,2.48-3.87-3.56,12.08-21.22,12.08-21.22c.45,2.1,10.54,14,16.15,21.71,6.55-8.92,10.47-21.71,10.47-21.71.36,1.72,5.79,8.6,11.52,15.9a10.8,10.8,0,0,0,4.1,1.17c-.18.18-.35.34-.53.5a13.09,13.09,0,0,0-1.25,1.28l1.75,2.25a18.67,18.67,0,0,0,2.56-.41s-.51.81-1.28,2.07c4.27,5.55,7.81,10.46,8.35,12.46,4.61-6.09,7.41-16.23,7.41-16.23.14.77,1.61,3,3.59,5.89,6.44-6.75,10.39-19.63,10.39-19.63.18.89,2.1,3.54,4.68,6.89l-.14-.25s6.82,4.34,7.28,1.39-19.21-25.08-19.82-28c0,0-3.95,12.88-10.39,19.63-2-2.86-3.45-5.12-3.59-5.89,0,0-2.8,10.14-7.41,16.23-1.43-5.35-24.46-31.61-25.22-35.22,0,0-3.92,12.79-10.47,21.71-5.61-7.7-15.7-19.61-16.15-21.71,0,0-4.64,15.18-12.08,21.22s3.87,3.56,3.87,3.56-9.6,13.79-10.53,17.35C382.34,525.21,389.46,522.42,389.46,522.42Z"/>
<path class="cls-2" d="M459.87,536.93c.18-.16.35-.32.53-.5-2.69.05-7.62-3.08-7.62-3.08s3.29,5.86,6.69,12.4c1.83-3.1,3.46-5.7,3.46-5.7S454,542.22,459.87,536.93Z"/>
<text class="cls-3" transform="translate(215.18 165.76) rotate(-36.47)">5</text>
<text class="cls-3" transform="matrix(0.86, -0.51, 0.51, 0.86, 240.6, 146.89)">2</text>
<text class="cls-3" transform="translate(268.12 130.86) rotate(-25.61)"> </text>
<text class="cls-3" transform="translate(286.39 121.19) rotate(-19.19)">w</text>
<text class="cls-3" transform="translate(331.65 106.24) rotate(-13.18)">i</text>
<text class="cls-3" transform="translate(347.82 102.35) rotate(-9.58)">t</text>
<text class="cls-3" transform="translate(368.72 98.4) rotate(-4.16)">h</text>
<text class="cls-3" transform="matrix(1, 0.02, -0.02, 1, 405.43, 96.05)"> </text>
<text class="cls-3" transform="translate(426.36 96.16) rotate(6.14)">a</text>
<text class="cls-3" transform="matrix(0.98, 0.19, -0.19, 0.98, 459.13, 99.9)"> </text>
<text class="cls-3" transform="matrix(0.96, 0.28, -0.28, 0.96, 479.64, 103.54)">V</text>
<text class="cls-3" transform="translate(513.07 113.8) rotate(21.27)">i</text>
<text class="cls-3" transform="translate(528.52 119.4) rotate(25.96)">e</text>
<text class="cls-3" transform="translate(558.36 133.29) rotate(33.47)">w</text>
<path class="cls-2" d="M224.74,548.83c.24-2.57-15.15-22-15.64-24.54,0,0-3.67,13.29-9.53,18.58s3.05,3.12,3.05,3.12-3.44,5.48-5.91,10c-4.06-6.51-13.93-19-14.32-21.09a64.56,64.56,0,0,1-5.91,13.87l.45.77q4.62,7.73,9.74,15.14a70,70,0,0,0,3.72-9.78c.39,2,10.26,14.58,14.32,21.09,2.47-4.53,5.91-10,5.91-10s-8.92,2.17-3.05-3.12,9.53-18.58,9.53-18.58a15.8,15.8,0,0,0,2,3.57l-.12-.24S224.37,551.41,224.74,548.83Z"/>
<path class="cls-2" d="M625,563.69c2.23,0,3.84-.62-.18-3.56-7.25-5.29-11.78-18.58-11.78-18.58-.43,1.85-10.26,12.27-15.73,19-6.39-7.81-10.2-19-10.2-19-.17.71-1.44,2.43-3.32,4.72a13.54,13.54,0,0,1-1.6-3.07,70,70,0,0,1-2.83,8.28c-3.64,4.18-7.88,9-11.2,13,.8,2.34,1.66,4.86,2.48,7.33.53-.27.87-.47.87-.47l-.67,1.08c2.34,7.11,4.27,13.61,3.58,13.75-1.55.15-7-5.12-7-5.12s.78,1.91,1.91,4.75c.18-.53.27-.83.27-.83a19.62,19.62,0,0,0,2.74,4.32c3.18-4.42,9.72-11.72,15-17.78a70,70,0,0,0,2.83-8.28,13.54,13.54,0,0,0,1.6,3.07c1.88-2.29,3.15-4,3.32-4.72,0,0,3.81,11.2,10.2,19,5.47-6.74,15.3-17.16,15.73-19a60.25,60.25,0,0,0,6,12.24q1.43-1.89,2.8-3.79C628.4,568,626.7,565.82,625,563.69Z"/>
<path class="cls-4" d="M248.32,261.73c13.24,8.71,37.07,25,37.07,25s59.12-46.78,79.42-64.19,37.06-1.09,49.41,12S544.83,367.27,544.83,367.27s73.25-59.84,90-75.07c6.81-6.18,12.6-6.81,18-4.28a284.58,284.58,0,0,0-20.92-34.79c-4.39-6.24-7.07-9.74-11.59-15.2s-9.11-10.61-14-15.65a271.55,271.55,0,0,0-142.45-78.49c-54.37-11.09-114.75-4.5-165.07,18.4a283.73,283.73,0,0,0-37,20.32A244.57,244.57,0,0,0,230,206.82a285.73,285.73,0,0,0-29.15,30.1,265.41,265.41,0,0,0-23.22,32.73,261.24,261.24,0,0,0-30.35,71.82c25.55-34.86,45.29-62,50.76-69.94C217.44,243.24,235.08,253,248.32,261.73Z"/>
<text class="cls-5" transform="translate(118.27 675.48)">52VIEW</text>
<path class="cls-2" d="M639.67,313.67c-20.3,17.41-54.49,50.15-82.95,77.09s68-24.93,84.95-9.09c28.43,26.6,24.85,23,40.16,28.21a286.93,286.93,0,0,0-3-40.73,282.72,282.72,0,0,0-10-42.17c-2-6.23-4-11.8-6.07-17.18C655.66,306.52,647.91,306.6,639.67,313.67Z"/>
<path class="cls-2" d="M267.89,295.5c-14.26-10.94-35.34-32.91-52.64-12.51s-45.88,58.13-69.73,89.23a32.39,32.39,0,0,0-5.71,10.41v.05a13.72,13.72,0,0,0,10.39,14.75c13.76,3.22,38.23-2,60.15-15.93,40.07-25.48,42.25-15.39,75.72-7.21s6.86-39.38,42-35.41S282.15,306.44,267.89,295.5Z"/>
<text class="cls-6" transform="translate(316.73 787.36)">TYPE</text></svg>