<svg id="Layer_1" data-name="Layer 1" xmlns="http://www.w3.org/2000/svg" viewBox="0 0 820.33 820.33"><defs><style>.cls-1{fill:none;}.cls-2{font-size:73px;}.cls-2,.cls-5{fill:#405229;}.cls-2,.cls-6,.cls-7{font-family:Delicious-Heavy, Delicious Heavy;}.cls-3{fill:#648561;}.cls-4{fill:#5a7936;}.cls-6{font-size:218.43px;fill:#fff;stroke:#415228;stroke-miterlimit:10;stroke-width:6px;}.cls-7{font-size:102.73px;fill:#415228;}</style></defs><title>Artboard 1 copy 96</title>
<path class="cls-1" d="M694.33,410.17c0,156.94-127.22,284.16-284.16,284.16S126,567.11,126,410.17,253.22,126,410.17,126"/>
<text class="cls-2" transform="translate(127.49 282.89) rotate(-63.27)">N</text>
<text class="cls-2" transform="translate(145.16 248.03) rotate(-56.52)">e</text>
<text class="cls-2" transform="translate(162.85 220.25) rotate(-49.05)">w</text>
<text class="cls-2" transform="matrix(0.73, -0.68, 0.68, 0.73, 194.55, 184.75)"> </text>
<text class="cls-2" transform="matrix(0.79, -0.61, 0.61, 0.79, 209.74, 170.34)">E</text>
<text class="cls-2" transform="matrix(0.85, -0.52, 0.52, 0.85, 234.81, 150.66)">n</text>
<text class="cls-2" transform="matrix(0.91, -0.42, 0.42, 0.91, 266.09, 131.65)">g</text>
<text class="cls-2" transform="translate(295.05 118.07) rotate(-18.86)">a</text>
<text class="cls-2" transform="translate(326.43 107.67) rotate(-14.21)">l</text>
<text class="cls-2" transform="translate(342.06 103.21) rotate(-9.22)">n</text>
<text class="cls-2" transform="translate(378.1 97.3) rotate(-2.47)">d</text>
<text class="cls-2" transform="translate(414.4 96.04) rotate(2.79)"> </text>
<text class="cls-2" transform="translate(435.3 96.78) rotate(7.7)">1</text>
<text class="cls-2" transform="translate(466.69 100.96) rotate(13.65)">0</text>
<text class="cls-2" transform="translate(497.44 108.37) rotate(19.61)">0</text>
<text class="cls-2" transform="matrix(0.91, 0.42, -0.42, 0.91, 527.38, 119.24)"> </text>
<text class="cls-2" transform="translate(546.5 127.44) rotate(30.17)">H</text>
<text class="cls-2" transform="translate(579.92 147.4) rotate(35.33)">i</text>
<text class="cls-2" transform="translate(593.56 156.64) rotate(39.87)">g</text>
<text class="cls-2" transform="matrix(0.69, 0.72, -0.72, 0.69, 618.2, 176.96)">h</text>
<text class="cls-2" transform="matrix(0.61, 0.8, -0.8, 0.61, 643.49, 203.41)">e</text>
<text class="cls-2" transform="matrix(0.52, 0.85, -0.85, 0.52, 663.58, 229.86)">s</text>
<text class="cls-2" transform="translate(678.91 255.18) rotate(63.34)">t</text>
<path class="cls-3" d="M248.1,377,377.85,215l125.7,186.67,23-48.75,35.14,37.41,46.63-58L642.09,389l35.72-26A283,283,0,0,0,668.87,327a243.91,243.91,0,0,0-15.31-37.68,284.29,284.29,0,0,0-21.63-36.17c-4.39-6.24-7.07-9.74-11.59-15.2s-9.11-10.61-14-15.65a271.55,271.55,0,0,0-142.45-78.49c-54.37-11.09-114.75-4.5-165.07,18.4a283.73,283.73,0,0,0-37,20.32A244.57,244.57,0,0,0,230,206.82a285.73,285.73,0,0,0-29.15,30.1,265.41,265.41,0,0,0-23.22,32.73A268.38,268.38,0,0,0,157.85,309l10.5-8.69Z"/>
<path class="cls-4" d="M681.75,404.19c0-1.81-.1-3.64-.18-5.47,0-.12,0-.24,0-.36-.08-1.85-.17-3.7-.28-5.55,0-.08,0-.15,0-.23-.11-1.91-.25-3.81-.4-5.69h0l-34,23.29,31.76,40.16-46-32-55.41,35.34,48-56.67-23.65-39.33L564.38,413l-33.12-36.67-12.84,39.34L544.78,479,374.47,259,269.05,390.33l36.49,65.34L228.5,391l-64.88-60.67-17,13.82c-.13.55-.28,1.09-.41,1.64a269.45,269.45,0,0,0-6.85,86.09,250.51,250.51,0,0,0,6.53,41.34A287.91,287.91,0,0,0,159,514.07c.82,2,2,4.73,3.49,8,.63,1.36,1.27,2.72,1.91,4.08s1.24,2.56,1.88,3.83a1.42,1.42,0,0,0,.08.18l126.35-63.1,86.82,55.37h50.74l73.29,26,77.79-17.66,61,20.52c.72-1.19,1.43-2.39,2.13-3.58l.38-.65c.65-1.12,1.3-2.25,1.93-3.38.17-.29.33-.58.49-.87.62-1.11,1.23-2.21,1.83-3.33.16-.3.32-.6.49-.9.6-1.13,1.2-2.25,1.78-3.39l.39-.74c.61-1.2,1.23-2.4,1.82-3.61l.05-.09q3.93-7.95,7.32-16.1c.14-.32.27-.64.4-1,.45-1.08.88-2.16,1.31-3.24.18-.44.35-.87.52-1.31.4-1,.8-2.07,1.19-3.11.19-.49.37-1,.55-1.46q.57-1.53,1.11-3.06l.53-1.5c.36-1,.72-2,1.06-3.08.16-.48.32-.95.47-1.43.35-1.06.71-2.13,1-3.2l.24-.79q1.17-3.72,2.23-7.47c.06-.23.13-.45.19-.68.27-1,.52-1.93.78-2.9.17-.62.34-1.24.5-1.86.23-.9.46-1.8.68-2.7.17-.7.35-1.4.52-2.11.21-.86.41-1.73.61-2.59s.34-1.49.5-2.24.37-1.68.55-2.53l.48-2.34c.17-.82.33-1.64.49-2.46s.31-1.66.46-2.49.29-1.56.42-2.34c.17-.95.32-1.89.47-2.84.11-.67.23-1.34.33-2,.25-1.59.48-3.17.7-4.76.08-.56.14-1.13.22-1.69.14-1.08.28-2.16.41-3.25.08-.67.15-1.34.22-2,.11-1,.22-2,.32-2.95.07-.7.13-1.4.2-2.11.09-1,.17-1.92.25-2.88.06-.71.12-1.41.17-2.12.07-1,.14-1.95.2-2.93,0-.69.09-1.38.13-2.07l.15-3c0-.65.06-1.31.08-2,0-1.12.08-2.24.11-3.36,0-.55,0-1.1,0-1.65q.06-2.51.06-5c0-1.86,0-3.74-.07-5.64C681.76,404.42,681.75,404.31,681.75,404.19Z"/>
<path class="cls-4" d="M634.63,563.29h0l-52.17-16.8-53,17.18L543,594.09,433.53,546l-23.18,19.59L291.57,489.39,187.84,545l64.27,6.87,74.41,35.83L212.64,563.17,191.8,572c1.33,1.81,2.57,3.45,3.87,5.12h0c.31.4.63.81,1,1.21l.06.08,1,1.26h0l1,1.21.21.27L200,582.4c35.75,43.19,82.8,74.13,136,89.18a264.45,264.45,0,0,0,85.42,10q10.77-.42,21.49-1.65l3.19-.38,1-.13c1.82-.26,3.62-.53,5.43-.83,3.37-.54,6.73-1.15,10.08-1.81a283.45,283.45,0,0,0,41.51-11.62A252.39,252.39,0,0,0,541,648.33a280.32,280.32,0,0,0,35.23-23l.33-.25.77-.61,2.05-1.64c1.19-1,2.38-1.93,3.55-2.91q3.78-3.13,7.45-6.41,7.83-7,15.13-14.52a261.79,261.79,0,0,0,25.69-30.72Q632.93,565.8,634.63,563.29Z"/>
<path class="cls-5" d="M652.38,238.9a300.87,300.87,0,0,0-141-107.64c-57.87-21.25-122.76-23.4-182-6.62A296.87,296.87,0,0,0,156,563.3C186.69,614,232.79,655.55,286.85,680a300.62,300.62,0,0,0,183.07,20.78c58.65-11.83,113.3-42.29,154.6-85.53,41.45-43.39,69.61-99.37,78.64-158.78a313.57,313.57,0,0,0,3.67-46.3C706.68,349.18,687.87,288.61,652.38,238.9Zm-451.55-2A285.73,285.73,0,0,1,230,206.82a244.57,244.57,0,0,1,31.86-24.31,283.73,283.73,0,0,1,37-20.32c50.32-22.9,110.7-29.49,165.07-18.4a271.55,271.55,0,0,1,142.45,78.49q7.26,7.56,14,15.65c4.52,5.46,7.2,9,11.59,15.2a284.29,284.29,0,0,1,21.63,36.17A243.91,243.91,0,0,1,668.87,327,283,283,0,0,1,677.81,363l-35.72,26L608.3,332.33l-46.63,58-35.14-37.41-23,48.75L377.85,215,248.1,377l-79.75-76.67L157.85,309a268.38,268.38,0,0,1,19.76-39.37A265.41,265.41,0,0,1,200.83,236.92ZM605.48,599q-7.29,7.53-15.13,14.52-3.66,3.27-7.45,6.41c-1.17,1-2.36,2-3.55,2.91l-2.05,1.64-.77.61-.33.25a280.32,280.32,0,0,1-35.23,23,252.39,252.39,0,0,1-36.85,16.86,283.45,283.45,0,0,1-41.51,11.62c-3.35.66-6.71,1.27-10.08,1.81-1.81.3-3.61.57-5.43.83l-1,.13-3.19.38q-10.71,1.23-21.49,1.65a264.45,264.45,0,0,1-85.42-10c-53.21-15.05-100.26-46-136-89.18-3.24-3.92-5.53-6.82-8.19-10.45l20.84-8.78,113.88,24.54-74.41-35.83L187.84,545l103.73-55.62,118.78,76.23L433.53,546,543,594.09l-13.53-30.43,53-17.18,52.17,16.8q-1.71,2.52-3.46,5A261.79,261.79,0,0,1,605.48,599Zm36.84-47.69-61-20.52-77.79,17.66-73.29-26H379.51l-86.82-55.37-126.35,63.1c-1.33-2.68-2.62-5.37-3.87-8.09-1.5-3.27-2.67-6-3.49-8a287.91,287.91,0,0,1-13.13-40.85,250.51,250.51,0,0,1-6.53-41.34,269.45,269.45,0,0,1,6.85-86.09c.13-.55.28-1.09.41-1.64l17-13.82L228.5,391l77,64.67-36.49-65.34L374.47,259,544.78,479l-26.36-63.33,12.84-39.34L564.38,413l37.17-55.33L625.2,397l-48,56.67,55.41-35.34,46,32-31.76-40.16,34-23.29c.61,7.67.95,15.71,1,23.29A272,272,0,0,1,642.32,551.3Z"/>
<text class="cls-6" transform="translate(167.64 675.48)">NE100</text>
<text class="cls-7" transform="translate(316.73 787.36)">TYPE</text></svg>