<svg id="Layer_1" data-name="Layer 1" xmlns="http://www.w3.org/2000/svg" xmlns:xlink="http://www.w3.org/1999/xlink" viewBox="0 0 820.33 820.33"><defs><style>.cls-1{fill:none;}.cls-2,.cls-6{fill:#405229;}.cls-3{clip-path:url(#clip-path);}.cls-4{fill:#648561;}.cls-5{fill:#5a7936;}.cls-6{font-size:73px;}.cls-6,.cls-7,.cls-8{font-family:Delicious-Heavy, Delicious Heavy;}.cls-7{font-size:218.43px;fill:#fff;stroke:#415228;stroke-miterlimit:10;stroke-width:6px;}.cls-8{font-size:102.73px;fill:#415228;}</style><clipPath id="clip-path"><circle class="cls-1" cx="410.16" cy="410.17" r="284.17"/></clipPath></defs><title>Artboard 1 copy 100</title>
<path class="cls-2" d="M652.38,238.9a300.87,300.87,0,0,0-141-107.64c-57.87-21.25-122.76-23.4-182-6.62A296.87,296.87,0,0,0,156,563.3C186.69,614,232.79,655.55,286.85,680a300.62,300.62,0,0,0,183.07,20.78c58.65-11.83,113.3-42.29,154.6-85.53,41.45-43.39,69.61-99.37,78.64-158.78a313.57,313.57,0,0,0,3.67-46.3C706.68,349.18,687.87,288.61,652.38,238.9Zm-451.55-2A285.73,285.73,0,0,1,230,206.82a244.57,244.57,0,0,1,31.86-24.31,283.73,283.73,0,0,1,37-20.32c50.32-22.9,110.7-29.49,165.07-18.4a271.55,271.55,0,0,1,142.45,78.49q7.26,7.56,14,15.65c4.52,5.46,7.2,9,11.59,15.2a284.62,284.62,0,0,1,16.94,27.21l-95.7-64.63L487.53,340.89l-87-62.59L291.59,334.42l-83-70.46-46.84,35.8a274.84,274.84,0,0,1,15.83-30.11A265.41,265.41,0,0,1,200.83,236.92Z"/>
<g class="cls-3">
<path class="cls-4" d="M750.33,224.83c3.22,0,3.22-5,0-5s-3.22,5,0,5Z"/>
<path class="cls-4" d="M750.33,224.83c3.22,0,3.22-5,0-5s-3.22,5,0,5Z"/>
<path class="cls-5" d="M417.18,450.81l55.5-97.89c-24.86-14.89-70.53-48.69-70.53-48.69s-58.81,24.49-90.28,41.18Z"/>
</g>
<path class="cls-5" d="M678.84,369.15q-1.25-8-3-15.88a115.28,115.28,0,0,0-27.7-18.13c-29.06-13.66-75.65-71.36-82.51-89.82l-82.49,177,193.61,39.86a275.5,275.5,0,0,0,5-52A286.73,286.73,0,0,0,678.84,369.15Z"/>
<text class="cls-6" transform="translate(215.18 165.76) rotate(-36.47)">5</text>
<text class="cls-6" transform="matrix(0.86, -0.51, 0.51, 0.86, 240.6, 146.89)">2</text>
<text class="cls-6" transform="translate(268.12 130.86) rotate(-25.61)"> </text>
<text class="cls-6" transform="translate(286.39 121.19) rotate(-19.19)">w</text>
<text class="cls-6" transform="translate(331.65 106.24) rotate(-13.18)">i</text>
<text class="cls-6" transform="translate(347.82 102.35) rotate(-9.58)">t</text>
<text class="cls-6" transform="translate(368.72 98.4) rotate(-4.16)">h</text>
<text class="cls-6" transform="matrix(1, 0.02, -0.02, 1, 405.43, 96.05)"> </text>
<text class="cls-6" transform="translate(426.36 96.16) rotate(6.14)">a</text>
<text class="cls-6" transform="matrix(0.98, 0.19, -0.19, 0.98, 459.13, 99.9)"> </text>
<text class="cls-6" transform="matrix(0.96, 0.28, -0.28, 0.96, 479.64, 103.54)">V</text>
<text class="cls-6" transform="translate(513.07 113.8) rotate(21.27)">i</text>
<text class="cls-6" transform="translate(528.52 119.4) rotate(25.96)">e</text>
<text class="cls-6" transform="translate(558.36 133.29) rotate(33.47)">w</text>
<text class="cls-7" transform="translate(118.27 675.48)">52VIEW</text>
<path class="cls-5" d="M138.47,410.71a30.49,30.49,0,0,1,11.56.53c6.49,1.23,15.72-.91,27.09-6.46,50.91-24.87,43.41-130.41,35-126.41L150.81,329c-1.68,5.46-3.23,11.06-4.64,16.84A265.47,265.47,0,0,0,138.47,410.71Z"/>
<path class="cls-4" d="M400.51,278.3l87,62.59,65.64-125.18,95.7,64.63a284.62,284.62,0,0,0-16.94-27.21c-4.39-6.24-7.07-9.74-11.59-15.2s-9.11-10.61-14-15.65a271.55,271.55,0,0,0-142.45-78.49c-54.37-11.09-114.75-4.5-165.07,18.4a283.73,283.73,0,0,0-37,20.32A244.57,244.57,0,0,0,230,206.82a285.73,285.73,0,0,0-29.15,30.1,265.41,265.41,0,0,0-23.22,32.73,274.84,274.84,0,0,0-15.83,30.11L208.62,264l83,70.46Z"/>
<text class="cls-8" transform="translate(316.73 787.36)">TYPE</text></svg>