<svg id="Layer_1" data-name="Layer 1" xmlns="http://www.w3.org/2000/svg" xmlns:xlink="http://www.w3.org/1999/xlink" viewBox="0 0 820.33 820.33"><defs><style>.cls-1{fill:none;}.cls-2{clip-path:url(#clip-path);}.cls-3{fill:#5a7936;}.cls-4,.cls-5{fill:#405229;}.cls-5{font-size:73px;}.cls-5,.cls-6,.cls-8{font-family:Delicious-Heavy, Delicious Heavy;}.cls-6{font-size:218.43px;fill:#fff;stroke:#415228;stroke-miterlimit:10;stroke-width:6px;}.cls-7{fill:#648561;}.cls-8{font-size:102.73px;fill:#415228;}</style><clipPath id="clip-path"><circle class="cls-1" cx="410.16" cy="410.17" r="284.17"/></clipPath></defs><title>Artboard 1 copy 85</title><g class="cls-2">
<path class="cls-3" d="M532,396c7.32-.45,19.2-32.6,25-28,12,9.49,11.6,37.67,18.64,30.09,4.55-4.91,24.08-16.91,31.36-30.09,5.83-10.57,55.54,27.15,52,16a61.13,61.13,0,0,1-1.32-28.7c-9.13-12.33-16-21-19.94-24.86-31.92-31.36-44.2-40.76-58.94-21.95-11.47,14.64-43.26,54.6-56.8,71.6C524.07,388,527.35,396.28,532,396Z"/>
<path class="cls-3" d="M376.32,557.26c-7.57-.53-19.85-38.79-25.85-33.32-12.38,11.3-5.72,74.48-13,65.46-4.71-5.85-39.28-30.37-46.81-46-6-12.58-49.33,12.91-45.68-.37a83.28,83.28,0,0,0,1.37-34.15c9.44-14.68,16.59-25,20.62-29.59,33-37.32,45.71-48.51,60.95-26.12,11.86,17.42,44.75,65,58.74,85.22C384.53,547.77,381.14,557.6,376.32,557.26Z"/>
<path class="cls-3" d="M234.43,557.13c-7.69,7-32.48,21.79-37.15,12-3.75-7.81-30.65,8-28.38-.22a51.67,51.67,0,0,0,.85-21.22c5.86-9.12,10.31-15.55,12.81-18.38,20.5-23.18,28.39-30.13,37.86-16.23,7.37,10.83,27.79,40.37,36.49,52.94C255.58,571.93,238.15,553.73,234.43,557.13Z"/>
<path class="cls-3" d="M372.64,437.16c14.57-15.69,6,1.68,37.52,27.84,1.65,1.36,28.48-36.54,30.84-20,2,14,33.06,52.56,37,57,4.55-4.79-11.52-58.37-18-87.93-7.46-9.93-13.16-17-16.56-20.33C411.51,362.38,386.75,387.19,372,406c-9,11.53-26,25.9-37.74,35.31C345.17,444.54,363,447.57,372.64,437.16Z"/>
<path class="cls-4" d="M682.32,721.33c-4.91-6.31-10.43-13.39-16.45-21.1H678.6c-1.28-1.93-2.57-3.89-3.89-5.9H910.6s-235-359.54-266.88-390.89-44.2-40.76-58.94-21.95-63,79.43-63,79.43-16.37-19.86-37.66,5.23c-5.32,6.27-11.45,13.77-17.67,21.51-7.68-10.25-13.54-17.52-17-20.92C417.49,335.38,392.73,360.19,378,379s-50.56,45.22-50.56,45.22-16.36-19.85-37.65,5.23-55.67,70-55.67,70-23.74-23-45-2.09-46.66,77.05-82.69,93.92-75.3,16.86-92.5,47.17S-48.31,757.63-48.31,757.63h7.79l2.36-4.59H689.6l3,4.59h23.67s-9-13.83-23.81-36.3ZM234.43,557.13c-7.69,7-32.48,21.79-37.15,12-3.75-7.81-30.65,8-28.38-.22a51.67,51.67,0,0,0,.85-21.22c5.86-9.12,10.31-15.55,12.81-18.38,20.5-23.18,28.39-30.13,37.86-16.23,7.37,10.83,27.79,40.37,36.49,52.94C255.58,571.93,238.15,553.73,234.43,557.13Zm141.89.13c-7.57-.53-19.85-38.79-25.85-33.32-12.38,11.3-5.72,74.48-13,65.46-4.71-5.85-39.28-30.37-46.81-46-6-12.58-49.33,12.91-45.68-.37a83.28,83.28,0,0,0,1.37-34.15c9.44-14.68,16.59-25,20.62-29.59,33-37.32,45.71-48.51,60.95-26.12,11.86,17.42,44.75,65,58.74,85.22C384.53,547.77,381.14,557.6,376.32,557.26ZM478,502c-3.94-4.44-35-43-37-57-2.36-16.54-29.19,21.36-30.84,20-31.55-26.16-23-43.53-37.52-27.84-9.66,10.41-27.47,7.38-38.36,4.15C346.05,431.9,363,417.53,372,406c14.73-18.81,39.49-43.62,71.42-12.26,3.4,3.34,9.1,10.4,16.56,20.33C466.48,443.63,482.55,497.21,478,502ZM607,368c-7.28,13.18-26.81,25.18-31.36,30.09-7,7.58-6.67-20.6-18.64-30.09-5.8-4.6-17.68,27.55-25,28-4.65.28-7.93-8-10-15.91,13.54-17,45.33-57,56.8-71.6,14.74-18.81,27-9.41,58.94,21.95,3.9,3.82,10.81,12.53,19.94,24.86A61.13,61.13,0,0,0,659,384C662.54,395.15,612.83,357.43,607,368Z"/>
</g>
<text class="cls-5" transform="translate(215.18 165.76) rotate(-36.47)">5</text>
<text class="cls-5" transform="matrix(0.86, -0.51, 0.51, 0.86, 240.6, 146.89)">2</text>
<text class="cls-5" transform="translate(268.12 130.86) rotate(-25.61)"> </text>
<text class="cls-5" transform="translate(286.39 121.19) rotate(-19.19)">w</text>
<text class="cls-5" transform="translate(331.65 106.24) rotate(-13.18)">i</text>
<text class="cls-5" transform="translate(347.82 102.35) rotate(-9.58)">t</text>
<text class="cls-5" transform="translate(368.72 98.4) rotate(-4.16)">h</text>
<text class="cls-5" transform="matrix(1, 0.02, -0.02, 1, 405.43, 96.05)"> </text>
<text class="cls-5" transform="translate(426.36 96.16) rotate(6.14)">a</text>
<text class="cls-5" transform="matrix(0.98, 0.19, -0.19, 0.98, 459.13, 99.9)"> </text>
<text class="cls-5" transform="matrix(0.96, 0.28, -0.28, 0.96, 479.64, 103.54)">V</text>
<text class="cls-5" transform="translate(513.07 113.8) rotate(21.27)">i</text>
<text class="cls-5" transform="translate(528.52 119.4) rotate(25.96)">e</text>
<text class="cls-5" transform="translate(558.36 133.29) rotate(33.47)">w</text>
<path class="cls-3" d="M488,386.63c-14.87,29.69-5.48,32.36-27.35,27.66-11.49-2.47,15.83,104.71,18.41,108,1.51,1.92,20.21-22,29-14.86,6.94,5.63,6.7-43,10.8-42.73,11.17.62,8.3-1.06,33.71-2.51,23.29-1.32,71.69,28.76,72.72,28.8,10.33.47-90.94-61.35-98.92-74.66S502.86,356.93,488,386.63Z"/>
<path class="cls-4" d="M652.38,238.9a300.87,300.87,0,0,0-141-107.64c-57.87-21.25-122.76-23.4-182-6.62A296.87,296.87,0,0,0,156,563.3C186.69,614,232.79,655.55,286.85,680a300.62,300.62,0,0,0,183.07,20.78c58.65-11.83,113.3-42.29,154.6-85.53,41.45-43.39,69.61-99.37,78.64-158.78a313.57,313.57,0,0,0,3.67-46.3C706.68,349.18,687.87,288.61,652.38,238.9ZM234.43,557.13c-7.69,7-32.48,21.79-37.15,12-1.18-2.45-4.65-2.57-8.78-1.84l-.1-.14q-6.06-8.61-11.47-17.65c-1.34-2.25-2.65-4.53-3.93-6.81a139,139,0,0,1,9.56-13.38c20.5-23.18,28.39-30.13,37.86-16.23,7.37,10.83,27.79,40.37,36.49,52.94C255.58,571.93,238.15,553.73,234.43,557.13Zm141.89.13c-7.57-.53-19.85-38.79-25.85-33.32-12.38,11.3-5.72,74.48-13,65.46-4.71-5.85-39.28-30.37-46.81-46-6-12.58-49.33,12.91-45.68-.37a83.28,83.28,0,0,0,1.37-34.15c9.44-14.68,16.59-25,20.62-29.59,33-37.32,45.71-48.51,60.95-26.12,11.86,17.42,44.75,65,58.74,85.22C384.53,547.77,381.14,557.6,376.32,557.26ZM478,502c-3.94-4.44-35-43-37-57-2.36-16.54-29.19,21.36-30.84,20-31.55-26.16-23-43.53-37.52-27.84-9.66,10.41-27.47,7.38-38.36,4.15C346.05,431.9,363,417.53,372,406c14.73-18.81,39.49-43.62,71.42-12.26,3.4,3.34,9.1,10.4,16.56,20.33C466.48,443.63,482.55,497.21,478,502ZM607,368c-7.28,13.18-26.81,25.18-31.36,30.09-7,7.58-6.67-20.6-18.64-30.09-5.8-4.6-17.68,27.55-25,28-4.65.28-7.93-8-10-15.91,13.54-17,45.33-57,56.8-71.6,14.74-18.81,27-9.41,58.94,21.95,3.9,3.82,10.81,12.53,19.94,24.86A61.13,61.13,0,0,0,659,384C662.54,395.15,612.83,357.43,607,368Zm36.72-64.56c-31.92-31.36-44.2-40.76-58.94-21.95s-63,79.43-63,79.43-16.37-19.86-37.66,5.23c-5.32,6.27-11.45,13.77-17.67,21.51-7.68-10.25-13.54-17.52-17-20.92C417.49,335.38,392.73,360.19,378,379s-50.56,45.22-50.56,45.22-16.36-19.85-37.65,5.23-55.67,70-55.67,70-23.74-23-45-2.09c-7.31,7.17-15.1,18.5-23.64,31q-1.53-3.12-3-6.29c-1.5-3.27-2.67-6-3.49-8a287.91,287.91,0,0,1-13.13-40.85,250.51,250.51,0,0,1-6.53-41.34,269.45,269.45,0,0,1,6.85-86.09,261.84,261.84,0,0,1,31.44-76.14,265.41,265.41,0,0,1,23.22-32.73A285.73,285.73,0,0,1,230,206.82a244.57,244.57,0,0,1,31.86-24.31,283.73,283.73,0,0,1,37-20.32c50.32-22.9,110.7-29.49,165.07-18.4a271.55,271.55,0,0,1,142.45,78.49q7.26,7.56,14,15.65c4.52,5.46,7.2,9,11.59,15.2a284.29,284.29,0,0,1,21.63,36.17A243.91,243.91,0,0,1,668.87,327q2.22,7,4.07,14C659.19,321.94,648.84,308.46,643.72,303.44Z"/>
<text class="cls-6" transform="translate(118.27 675.48)">52VIEW</text>
<path class="cls-7" d="M653.56,289.3a284.29,284.29,0,0,0-21.63-36.17c-4.39-6.24-7.07-9.74-11.59-15.2s-9.11-10.61-14-15.65a271.55,271.55,0,0,0-142.45-78.49c-54.37-11.09-114.75-4.5-165.07,18.4a283.73,283.73,0,0,0-37,20.32A244.57,244.57,0,0,0,230,206.82a285.73,285.73,0,0,0-29.15,30.1,265.41,265.41,0,0,0-23.22,32.73,261.84,261.84,0,0,0-31.44,76.14,269.45,269.45,0,0,0-6.85,86.09,250.51,250.51,0,0,0,6.53,41.34A287.91,287.91,0,0,0,159,514.07c.82,2,2,4.73,3.49,8q1.46,3.16,3,6.29c8.54-12.47,16.33-23.8,23.64-31,21.28-20.91,45,2.09,45,2.09s34.38-45,55.67-70,37.65-5.23,37.65-5.23S363.26,397.81,378,379s39.49-43.62,71.42-12.26c3.46,3.4,9.32,10.67,17,20.92,6.22-7.74,12.35-15.24,17.67-21.51,21.29-25.09,37.66-5.23,37.66-5.23s48.3-60.62,63-79.43,27-9.41,58.94,21.95c5.12,5,15.47,18.5,29.22,37.57q-1.86-7.06-4.07-14A243.91,243.91,0,0,0,653.56,289.3Z"/>
<text class="cls-8" transform="translate(316.73 787.36)">TYPE</text></svg>