<svg id="Layer_1" data-name="Layer 1" xmlns="http://www.w3.org/2000/svg" viewBox="0 0 32 32"><defs><style>.cls-1{fill:#7caa41;}</style></defs><title>stats-iconsmountain-perc-75</title><path class="cls-1" d="M16,0A16,16,0,1,0,32,16,16,16,0,0,0,16,0Zm0,1.45A14.57,14.57,0,0,1,30.55,16a14.42,14.42,0,0,1-.6,4.13L17,3.38,2.78,22.05A14.39,14.39,0,0,1,1.45,16,14.57,14.57,0,0,1,16,1.45ZM9.42,15.58,17.16,4.91S25.82,17.8,28.39,20s-12-8.45-8.6-2l-2,3.24c-.3-17.63-12.28,10.94-9.48,2.9S6.53,19.57,9.42,15.58Z"/></svg>