<svg id="Layer_1" data-name="Layer 1" xmlns="http://www.w3.org/2000/svg" viewBox="0 0 32 32"><defs><style>.cls-1{fill:#7a3800;}</style></defs><title>stats-iconstrail-connector</title><path class="cls-1" fill='#7a3800' d="M16,32A16,16,0,1,1,32,16,16,16,0,0,1,16,32ZM16,1.44A14.56,14.56,0,1,0,30.56,16,14.57,14.57,0,0,0,16,1.44Z"/><path class="cls-1" fill='#7a3800' d="M20,15.7H11.15c-2.41,0-4.09-1.12-4.09-2.13v-.91c0-1,1.68-2.13,4.09-2.13h9.92c.54,1.38,1.28,2.89,1.49,3.32l.52,1.06.53-1.06c.35-.71,2.1-4.31,2.1-5.51a2.63,2.63,0,0,0-5.25,0,4.09,4.09,0,0,0,.2,1H11.15c-3,0-5.26,1.45-5.26,3.3v.91c0,1.85,2.31,3.3,5.26,3.3H20c2.41,0,4.09,1.12,4.09,2.13v.9c0,1-1.68,2.13-4.09,2.13h-9a3.76,3.76,0,0,0,.21-1,2.63,2.63,0,0,0-5.25,0c0,1.2,1.75,4.8,2.1,5.51l.52,1.06L9,26.52c.21-.43.94-1.93,1.48-3.32H20c2.95,0,5.26-1.45,5.26-3.3V19C25.24,17.15,22.93,15.7,20,15.7Zm1.65-7.36a1.46,1.46,0,0,1,2.91,0,17.11,17.11,0,0,1-1.46,3.9c-.44-1-.88-2-1.16-2.8V9.36h0A3.91,3.91,0,0,1,21.63,8.34ZM8.51,24.91A17.44,17.44,0,0,1,7.06,21,1.46,1.46,0,0,1,10,21,17.11,17.11,0,0,1,8.51,24.91Z"/></svg>