<svg xmlns="http://www.w3.org/2000/svg" viewBox="0 0 32 32"><circle fill="#006bab" cx="16" cy="16" r="11.21"/><path fill="#ffffff" d="M24,13.79l-.19.75a.38.38,0,0,1-.36.28H22.8a1.94,1.94,0,0,1,.68,1.48v1.49A2,2,0,0,1,23,19.08v1.67a1,1,0,0,1-1,1H21a1,1,0,0,1-1-1v-1H12.11v1a1,1,0,0,1-1,1h-1a1,1,0,0,1-1-1V19.08a2,2,0,0,1-.49-1.29V16.3a1.94,1.94,0,0,1,.68-1.48H8.71a.38.38,0,0,1-.36-.28l-.19-.75a.37.37,0,0,1,.36-.46h1.85l.52-1.28A3.45,3.45,0,0,1,14.1,9.87H18a3.45,3.45,0,0,1,3.21,2.18l.52,1.28h1.85A.37.37,0,0,1,24,13.79ZM12.6,17.29a1.89,1.89,0,0,0-1.48-1.48,1,1,0,1,0,0,2C11.71,17.78,12.6,17.88,12.6,17.29Zm-.49-3H20l-.61-1.54A1.5,1.5,0,0,0,18,11.85H14.1a1.49,1.49,0,0,0-1.38.93ZM22,16.79a.93.93,0,0,0-1-1,1.89,1.89,0,0,0-1.48,1.48c0,.59.89.49,1.48.49A.94.94,0,0,0,22,16.79Z"/></svg>