<svg xmlns="http://www.w3.org/2000/svg" viewBox="0 0 57 10"><path fill="#7c7c7c" d="M14,5.2v1.6c0,0.2-0.1,0.3-0.3,0.3h-1c0,1.1-0.9,2-2,2c-1.1,0-2-0.9-2-2H6.1c0,1.1-0.9,2-2,2s-2-0.9-2-2h-1
		C1,7.2,0.9,7,0.9,6.9V4.6c0-0.6,0.4-1.1,1-1.3l1-2.5C3,0.3,3.5,0,4.1,0h4.4c0.4,0,0.8,0.2,1,0.5l2.2,2.8H12C13.1,3.2,14,4.1,14,5.2
		z M5.1,7.2c0-0.5-0.4-1-1-1s-1,0.4-1,1s0.4,1,1,1S5.1,7.7,5.1,7.2z M5.6,1.3H4.1l-0.8,2h2.4V1.3z M10,3.2l-1.6-2H6.6v2H10z
		 M11.7,7.2c0-0.5-0.4-1-1-1c-0.5,0-1,0.4-1,1s0.4,1,1,1C11.3,8.2,11.7,7.7,11.7,7.2z"/><path fill="#7c7c7c" d="M53.5,3.4c0-0.5,0.7-0.8,1-0.4l2.2,2.2C57,5.3,57,5.7,56.7,6l-2.2,2.2c-0.4,0.4-1,0.1-1-0.4V6.5h-7.6
		c-0.2,0-0.3-0.1-0.3-0.3V4.8c0-0.2,0.1-0.3,0.3-0.3h7.6V3.4z"/><path fill="#7c7c7c" d="M17.3,5.6c0-0.5,0.4-1,1-1c0.6,0,1,0.4,1,1c0,0.5-0.4,1-1,1C17.7,6.6,17.3,6.2,17.3,5.6z"/><path fill="#7c7c7c" d="M21.8,5.6c0-0.5,0.4-1,1-1c0.6,0,1,0.4,1,1c0,0.5-0.4,1-1,1C22.2,6.6,21.8,6.2,21.8,5.6z"/><path fill="#7c7c7c" d="M26.3,5.6c0-0.5,0.4-1,1-1c0.6,0,1,0.4,1,1c0,0.5-0.4,1-1,1C26.7,6.6,26.3,6.2,26.3,5.6z"/><path fill="#7c7c7c" d="M30.8,5.6c0-0.5,0.4-1,1-1c0.6,0,1,0.4,1,1c0,0.5-0.4,1-1,1C31.2,6.6,30.8,6.2,30.8,5.6z"/><path fill="#7c7c7c" d="M35.3,5.6c0-0.5,0.4-1,1-1c0.6,0,1,0.4,1,1c0,0.5-0.4,1-1,1C35.7,6.6,35.3,6.2,35.3,5.6z"/><path fill="#7c7c7c" d="M39.8,5.6c0-0.5,0.4-1,1-1c0.6,0,1,0.4,1,1c0,0.5-0.4,1-1,1C40.2,6.6,39.8,6.2,39.8,5.6z"/></svg>
