<?xml version="1.0" encoding="utf-8"?>
<svg xmlns="http://www.w3.org/2000/svg" viewBox="0 0 32 32">
<g>
	<path fill="#cd932b" d="M15.2,28.8c-6.2,0-13.4-1.2-15.1-4.6l-0.3-0.6L16.3,2.6L32,22.7l-0.2,0.5C30.4,27.3,22,28.8,15.2,28.8
		C15.2,28.8,15.2,28.8,15.2,28.8z M16.2,9.4c-0.8,1-1.9,2.5-2.7,3.5c-0.2,0.3-0.2,0.4-0.2,0.4c0,0,0,0.1,0.1,0.2
		c1-1.5,1.8-2.4,2.7-2.4c0.4,0,0.7,0.1,1,0.4c0.2-0.1,0.4-0.2,0.7-0.2C17.2,10.6,16.6,9.9,16.2,9.4z"/>
	<path fill="#ffffff" d="M16.3,4.2l14.6,18.7c-1.2,3.3-8.5,5-15.7,5c-6.5,0-12.9-1.4-14.2-4L16.3,4.2 M12.8,16c0.3,0,2.2-3.9,3.3-3.9
		c0.4,0,0.7,0.6,0.7,2.2l0.9-1.2c-0.3-0.6-0.3-0.8,0.1-0.8c0.9,0,3.6,1.7,3.7,1.7c0,0,0,0-0.1-0.1c-1.1-0.8-5.2-6.1-5.2-6.1
		s-2.3,3-3.5,4.5c-1.2,1.5,0.4,1.7,0.1,3.2C12.7,15.8,12.7,16,12.8,16 M16.3,0.9l-1.6,2L-0.5,22.6l-0.8,1l0.5,1.1
		c2.3,4.8,12.8,5.1,16,5.1c3.9,0,7.7-0.5,10.6-1.3c3.8-1.1,6.2-2.8,6.9-5l0.4-1l-0.7-0.9L17.8,3L16.3,0.9L16.3,0.9z"/>
</g>
</svg>
