<svg xmlns="http://www.w3.org/2000/svg" viewBox="0 0 32 32"><path fill="#206ca6" d="M28.12,24.75h-9l-.47-4.48a.73.73,0,0,0-.73-.66H14.72a.74.74,0,0,0-.73.66l-.47,4.48h-9a1.47,1.47,0,0,1-1.27-2.08L9.63,8a1.39,1.39,0,0,1,1.27-.85h4.48l-.11,1.06a.35.35,0,0,0,.36.4H17a.37.37,0,0,0,.37-.4l-.12-1.06H21.7A1.38,1.38,0,0,1,23,8l6.42,14.69A1.46,1.46,0,0,1,28.12,24.75ZM18.3,17.33l-.23-2.2a.74.74,0,0,0-.73-.66H15.26a.74.74,0,0,0-.73.66l-.23,2.2a.74.74,0,0,0,.73.81h2.54A.73.73,0,0,0,18.3,17.33Zm-3.48-4.94a.55.55,0,0,0,.55.61h1.86a.55.55,0,0,0,.55-.61l-.21-2a.38.38,0,0,0-.37-.33H15.4a.38.38,0,0,0-.37.33Z"/></svg>