<?xml version="1.0" encoding="utf-8"?>
<svg xmlns="http://www.w3.org/2000/svg" viewBox="0 0 32 32">
<g>
	<path fill="#d17728" d="M20.7,29.4c-1.2,0-2.9-0.7-4.1-1.7l-0.1-0.1l-5.7-11.3l-5.1,7.6l-0.2,0C5.1,24,4.8,24,4.6,24c0,0,0,0,0,0
		c-1.1,0-2.2-0.5-2.9-1.4l-0.2-0.3l9.9-14.6L22,29l-0.5,0.2C21.3,29.3,21,29.4,20.7,29.4z"/>
	<path fill="#ffffff" d="M11.2,8.7l10.1,20c-0.2,0.1-0.4,0.1-0.6,0.1c-1.1,0-2.7-0.7-3.8-1.6l-6.1-12l-5.5,8.1
		c-0.2,0.1-0.5,0.1-0.7,0.1c-1,0-1.9-0.4-2.6-1.2L11.2,8.7 M11.3,6.8l-1,1.4L1.2,21.8l-0.4,0.6L1.2,23c0.8,1,2,1.5,3.3,1.5
		c0.3,0,0.6,0,1-0.1l0.4-0.1L6.1,24l4.6-6.7L16,27.7l0.1,0.2l0.2,0.1c1.1,0.9,3,1.8,4.4,1.8c0.4,0,0.8-0.1,1.1-0.2l0.9-0.4l-0.5-0.9
		l-10.1-20L11.3,6.8L11.3,6.8z"/>
</g>
<g>
	<path fill="#d17728" d="M12.1,7.4l0.7-0.1C14.9,7,17,6.5,19.1,5.8c1.6-0.6,3-1.4,4.3-2.5l0.5-0.4l7.7,14.3l-8.7,11.7L12.1,7.4z"/>
	<path fill="#ffffff" d="M23.7,3.6L31,17.1l-8,10.8l-10.2-20C15,7.5,17.2,7,19.3,6.3C20.9,5.7,22.4,4.8,23.7,3.6 M24,2l-0.9,0.8
		c-1.2,1.1-2.6,1.9-4.1,2.5c-2,0.7-4.1,1.2-6.2,1.5L11.3,7l0.6,1.3l10.2,20l0.7,1.4l1-1.3l8-10.8l0.4-0.5l-0.3-0.6L24.6,3.1L24,2
		L24,2z"/>
</g>
</svg>
