<svg id="Layer_1" data-name="Layer 1" xmlns="http://www.w3.org/2000/svg" viewBox="0 0 256 256"><defs><style>.cls-1{fill:#00aef2;}.cls-2{fill:#008e42;}.cls-3{fill:red;}.cls-4{fill:#1d1d1b;}</style></defs><path class="cls-1" d="M127.68,0A128,128,0,0,0,77.86,245.94,128,128,0,0,0,177.51,10.06,127.31,127.31,0,0,0,127.68,0Z"/><path class="cls-2" d="M158.81,252.19a128.07,128.07,0,0,0,18.7-242.13A128.53,128.53,0,0,0,90.17,5.59Z"/><path class="cls-3" d="M92.2,5a127.75,127.75,0,0,0-55,32.51A128,128,0,0,0,160.87,251.65Z"/><path class="cls-4" d="M127.61,7.65A120.74,120.74,0,1,1,6.88,128.39,120.73,120.73,0,0,1,127.61,7.65m0-7.26a128,128,0,0,0-90.5,218.5A128,128,0,1,0,177.44,10.45,127.13,127.13,0,0,0,127.61.39Z"/><path d="M187.34,158.4c0,1.88-.34,3.56.1,5s-.53,3.53,1.88,4.11c.33.08.65,1.07.62,1.62-.12,2.71-.75,5.46-.44,8.1a8,8,0,0,1-1.53,5.92c-1.43,2-3.07,3.73-5.78,4a4,4,0,0,0-2.13.89q-3.28,2.79-6.39,5.8a1.8,1.8,0,0,0-.44,1.62,12.9,12.9,0,0,1,.7,9.69,4.4,4.4,0,0,1-2.08,2.23,47.62,47.62,0,0,1-4.93,2.09c.83,2-1.13,7.09-2.81,8.47a18.08,18.08,0,0,0-3,3.39c-3.38,4.63-7.27,8.56-13.17,9.68-4.41.83-8.83,1.57-13.28,2.11-2.43.3-6.19-3.46-4.91-6.59a3.18,3.18,0,0,0-.07-2.17,58.76,58.76,0,0,0-2.7-6c-.57-1.06-1.74-1.82-2.23-2.9a43.15,43.15,0,0,1-2.9-7.56,53.54,53.54,0,0,1-.75-7.73,1.38,1.38,0,0,0,0-.46c-1.72-3.24-3.07-6.78-5.3-9.62-1.64-2.1-2.38-4.37-1.81-6.41,1.08-3.85.59-8.33,4.26-11.36.74-.61.6-2.83.22-4.11-.58-2-2.33-3.47-.89-6,.48-.85-1.12-2.86-1.77-4.34a13.43,13.43,0,0,1-1.13-2.74,11,11,0,0,0-4.91-6.92c-3.71-2.61-4.15-5.59-2.83-9.49a39.74,39.74,0,0,0,1.34-5.83,4.28,4.28,0,0,0-4.51-5,27.55,27.55,0,0,0-3.95.41,2.59,2.59,0,0,1-3.28-1.87c-1.19-3.23-3.41-4.3-6.76-3.3-4.11,1.22-8.21,2.49-12.34,3.68a2.61,2.61,0,0,1-1.75-.23c-3.22-1.67-6.51-1-9.48.24-2.75,1.15-5.09,1.45-7.46-.44-3.32-2.65-6.76-5.19-9.84-8.1-1.32-1.24-1.68-3.43-2.79-5-1.79-2.45-3.9-4.66-5.78-7-.58-.75-1.43-2-1.16-2.56,1.15-2.23-.17-3.7-.9-4.85,1.39-3.21,3.13-6,3.75-9s.88-6.21-1.15-9.43c1-3.9,3.86-7.16,6.55-10.52,1.72-2.14,3.37-4.37,5.26-6.36.88-.93,2.28-1.37,3.41-2.09,2.12-1.34,4.74-2,6.11-4.36a3.31,3.31,0,0,0,.53-1.49c.21-4.1,2.33-7.15,6.15-8.11,2.41-.6,3.35-2.41,4.45-4.21.87-1.42,1.7-2.84,3.1-.44.11.19.39.47.53.44,2.63-.65,5.09,1.21,8-.18A26.23,26.23,0,0,1,99.8,40.46a20.61,20.61,0,0,0,4.86-.38,41.57,41.57,0,0,1,5.16-.58,23.24,23.24,0,0,1,4.52,1l-1.67,2.24c1.53,2.65,1.53,2.65-1.51,5.44,2.47,1.22,3.92,3.64,7.3,3.47,1.91-.09,4.79-.05,5.74,2.89.14.44,1.09.68,1.71.91a27.26,27.26,0,0,1,4.78,1.8c1.81,1.12,3,1.11,3.4-1,.2-1.16,0-2.62.67-3.44,1.26-1.59,4.86-2,6.59-1.09a18.69,18.69,0,0,0,8.59,2.51,7,7,0,0,1,2.74.53c1.94,1,3.56,1.17,5.55-.22,1.12-.77,3-.77,4.49-.55a3.08,3.08,0,0,1,1.83,2.31,11.12,11.12,0,0,0,3.23,7.53,25.39,25.39,0,0,1,3.53,6c1,2.07,3.26,3.48,3.12,6.2,0,.6.94,1.37,1.61,1.85a6.73,6.73,0,0,1,3.05,5.14c.26,2.4.51,5,3.44,6.15.87.34,1.55,1.77,1.84,2.84a10.68,10.68,0,0,0,5.37,6.74c2.63,1.52,4.71,4,6.93,6.17.36.35.14,1.29.18,2l-.68.19a3.73,3.73,0,0,1,.67.49c3.29,3.72,6.78,1.74,10.28.44.75-.28,1.66-.11,2.44-.33,2.49-.68,5-1.45,7.56-2.22,2.06,3.15,0,6.17-1.06,9.23A79.12,79.12,0,0,1,213,122.3a18,18,0,0,1-2.85,4.77c-2.66,2.83-5.63,5.37-8.4,8.1-2.51,2.48-4.91,5.07-7.39,7.58a43.77,43.77,0,0,0-7.28,9.65C185.41,155.43,185.35,156.41,187.34,158.4Z"/></svg>