<svg id="Layer_1" data-name="Layer 1" xmlns="http://www.w3.org/2000/svg" viewBox="0 0 256 256"><defs><style>.cls-1{fill:#006032;}.cls-2{fill:#012312;}.cls-3{font-size:27.76px;font-family:Delicious-Heavy, Delicious Heavy;font-weight:800;}.cls-3,.cls-4{fill:#fff;}</style></defs><path class="cls-1" d="M127.68,0A128,128,0,0,0,77.86,245.94,128,128,0,0,0,177.51,10.06,127.31,127.31,0,0,0,127.68,0Z"/><path class="cls-2" d="M127.61,7.65A120.74,120.74,0,1,1,6.88,128.39,120.73,120.73,0,0,1,127.61,7.65m0-7.26a128,128,0,0,0-90.5,218.5A128,128,0,1,0,177.44,10.45,127.13,127.13,0,0,0,127.61.39Z"/><text class="cls-3" transform="translate(32.94 188.18) rotate(54.22)">A</text><text class="cls-3" transform="translate(42.02 200.59) rotate(46.55)">P</text><text class="cls-3" transform="matrix(0.78, 0.63, -0.63, 0.78, 52.24, 211.26)">P</text><text class="cls-3" transform="translate(62.75 219.82) rotate(31.98)">A</text><text class="cls-3" transform="matrix(0.91, 0.42, -0.42, 0.91, 75.79, 227.76)">L</text><text class="cls-3" transform="translate(86.37 232.75) rotate(18.14)">A</text><text class="cls-3" transform="matrix(0.98, 0.18, -0.18, 0.98, 101.07, 237.46)">C</text><text class="cls-3" transform="translate(115.94 240.12) rotate(2.24)">H</text><text class="cls-3" transform="translate(132.08 240.48) rotate(-3.72)">I</text><text class="cls-3" transform="matrix(0.99, -0.16, 0.16, 0.99, 139.62, 240.13)">A</text><text class="cls-3" transform="translate(154.89 237.53) rotate(-17.77)">N</text><text class="cls-3" transform="translate(170.46 232.26) rotate(-24.42)"> </text><text class="cls-3" transform="translate(178.84 228.48) rotate(-29.88)">T</text><text class="cls-3" transform="matrix(0.8, -0.6, 0.6, 0.8, 189.58, 222.33)">R</text><text class="cls-3" transform="translate(201.75 213.09) rotate(-44.7)">A</text><text class="cls-3" transform="matrix(0.64, -0.77, 0.77, 0.64, 212.3, 202.32)">I</text><text class="cls-3" transform="translate(217.03 196.67) rotate(-55.22)">L</text><path class="cls-4" d="M134.66,27H120.35L51,140.56H79.37l8.53-17.7h29.5v76.7h20.21v-76.7h29.5l8.53,17.7H204Zm-34.22,78.39L127.5,54.9l27.07,50.49Z"/></svg>