<svg id="Layer_1" data-name="Layer 1" xmlns="http://www.w3.org/2000/svg" viewBox="0 0 256 256"><defs><style>.cls-1{fill:#006032;}.cls-2{fill:#012312;}.cls-3{fill:#fff;}</style></defs><path class="cls-1" d="M127.68,0A128,128,0,0,0,77.86,245.94,128,128,0,0,0,177.51,10.06,127.31,127.31,0,0,0,127.68,0Z"/><path class="cls-2" d="M127.61,7.65A120.74,120.74,0,1,1,6.88,128.39,120.73,120.73,0,0,1,127.61,7.65m0-7.26a128,128,0,0,0-90.5,218.5A128,128,0,1,0,177.44,10.45,127.13,127.13,0,0,0,127.61.39Z"/><path class="cls-3" d="M33,188.31l17-6.26,2.39,3.32-11.32,14.2-2.51-3.49,2.4-2.83-2-2.84-3.44,1.4Zm8.86.56L43.43,191,47,186.81Z"/><path class="cls-3" d="M43,201.63l12.7-12L58.87,193a12.39,12.39,0,0,1,1.69,2.21,7.21,7.21,0,0,1,.89,2.27,4.27,4.27,0,0,1-.19,2.39,6.21,6.21,0,0,1-1.6,2.3,6.17,6.17,0,0,1-8.69-.24,2.92,2.92,0,0,1-.77-1.37l-4.35,4.12Zm9.62-3.41a3.5,3.5,0,0,0,.53,1,2.2,2.2,0,0,0,1.8.83,3.23,3.23,0,0,0,1.88-1,1.92,1.92,0,0,0,.77-1.79,4,4,0,0,0-1.14-1.89L56,195Z"/><path class="cls-3" d="M53.35,212.17l11-13.58,3.58,2.9a12.08,12.08,0,0,1,2,2,7.39,7.39,0,0,1,1.18,2.14,4.24,4.24,0,0,1,.12,2.4,6.18,6.18,0,0,1-1.28,2.49,6.2,6.2,0,0,1-8.65.9,3,3,0,0,1-.94-1.26l-3.78,4.65Zm9.09-4.64a3.68,3.68,0,0,0,.66,1,2.21,2.21,0,0,0,1.89.58,3.21,3.21,0,0,0,1.74-1.22,1.93,1.93,0,0,0,.53-1.87,4.1,4.1,0,0,0-1.38-1.73l-.47-.38Z"/><path class="cls-3" d="M62.89,219.9l13.42-12.24,3.46,2.17-5.1,17.43L71,225l1.15-3.53-3-1.85-2.66,2.59Zm8.42-2.83,2.22,1.39,1.7-5.22Z"/><path class="cls-3" d="M77.07,228.35l7.41-15.84,3.65,1.71-5.91,12.62,4.48,2.1-1.5,3.22Z"/><path class="cls-3" d="M86.53,232.8l10.09-15.09L100.5,219l-.78,18.14-4.09-1.33.28-3.71L92.58,231l-2,3.15ZM94,228l2.49.82.41-5.48Z"/><path class="cls-3" d="M103.51,229a12,12,0,0,1,.76-2.54,10.19,10.19,0,0,1,1.34-2.27,9,9,0,0,1,1.81-1.79,6.24,6.24,0,0,1,2.31-1,6.45,6.45,0,0,1,2.7,0,10.75,10.75,0,0,1,2.5.79,5.7,5.7,0,0,1,2,1.36l-2,2.47a7.08,7.08,0,0,0-3.08-1.24,2.13,2.13,0,0,0-1.6.36,4.32,4.32,0,0,0-1.3,1.38,12.06,12.06,0,0,0-.87,1.77,8.27,8.27,0,0,0-.49,1.64c-.07.4-.13.79-.16,1.17a9.48,9.48,0,0,0-.05,1.23,4.92,4.92,0,0,0,.15,1.25,5,5,0,0,0,.41,1.08,2.29,2.29,0,0,0,.75.86,2.92,2.92,0,0,0,1.17.48,6.11,6.11,0,0,0,1.72,0,6.43,6.43,0,0,0,1.69-.43l1.28,3a6.91,6.91,0,0,1-2.61.83,9.07,9.07,0,0,1-2.81,0,7.16,7.16,0,0,1-2.64-1,5.85,5.85,0,0,1-1.8-1.73,7.81,7.81,0,0,1-1-2.27,10.25,10.25,0,0,1-.37-2.59A13.49,13.49,0,0,1,103.51,229Z"/><path class="cls-3" d="M117.44,240.17l.69-17.47,4.13.16-.26,6.63,3.94.15.26-6.62,4.13.16-.69,17.47-4.13-.16.29-7.3-3.94-.15-.29,7.3Z"/><path class="cls-3" d="M133.32,240.39,132.19,223l4.12-.27,1.14,17.45Z"/><path class="cls-3" d="M139.78,240.1l1.94-18,4-.67,7.72,16.43-4.24.71-1.48-3.41-3.45.58-.27,3.7Zm4.43-7.69,2.58-.43-2.18-5Z"/><path class="cls-3" d="M156.32,237.07,151,220.41l4.24-1.36,5,5.63c.23.27.47.57.71.91s.43.62.55.82l.17.32-2.83-8.83,3.94-1.26,5.34,16.65-3.63,1.16-7.6-8.44a11.7,11.7,0,0,1,.91,2.08l2.47,7.71Z"/><path class="cls-3" d="M172.22,216.28l-1.8-3.13,9.22-5.29,1.79,3.12-2.84,1.64,6.91,12-3.58,2.06L175,214.66Z"/><path class="cls-3" d="M190.78,221.43l-10.5-14,3.66-2.75a12.13,12.13,0,0,1,2.38-1.42,7.55,7.55,0,0,1,2.38-.62,4.34,4.34,0,0,1,2.35.46,6,6,0,0,1,2.1,1.83,5.65,5.65,0,0,1,1.14,3.05,5.08,5.08,0,0,1-.76,3.1l5.78,1.61,1.12,1.48-2.78,2.09-7.24-2.22,3.67,4.89Zm-2.26-9.89a3.87,3.87,0,0,0,.94-.47,2.21,2.21,0,0,0,1-1.69,3,3,0,0,0-.66-1.95,2.25,2.25,0,0,0-1.5-1,2.71,2.71,0,0,0-1.76.67l-.87.65Z"/><path class="cls-3" d="M201.87,213,193,197.1l2.9-2.87,15.79,9-3,3-3.17-1.93L203,206.76l1.91,3.18Zm-.82-8.84,1.86-1.84-4.68-2.86Z"/><path class="cls-3" d="M213.09,201.36l-13.48-11.14,2.63-3.18,13.48,11.13Z"/><path class="cls-3" d="M217.83,195.51l-14.36-10,2.3-3.31,11.44,8,2.82-4.06,2.92,2Z"/><path class="cls-3" d="M134.66,27H120.35L51,140.56H79.37l8.53-17.7h29.5v76.7h20.21v-76.7h29.5l8.53,17.7H204Zm-34.22,78.39L127.5,54.9l27.07,50.49Z"/></svg>