<svg id="Layer_1" data-name="Layer 1" xmlns="http://www.w3.org/2000/svg" viewBox="0 0 256 256"><defs><style>.cls-1{fill:#004a3a;}.cls-2{fill:#fff;}.cls-3{fill:#032d1a;}</style></defs><path class="cls-1" d="M127.68,0A128,128,0,0,0,77.86,245.94,128,128,0,0,0,177.51,10.06,127.31,127.31,0,0,0,127.68,0Z"/><path class="cls-2" d="M42.47,193a12.7,12.7,0,0,1,.23-2.45,10.43,10.43,0,0,1,.75-2.4,8.78,8.78,0,0,1,1.28-2.08,5.74,5.74,0,0,1,1.87-1.44,5.52,5.52,0,0,1,2.47-.55,9.47,9.47,0,0,1,2.32.3,6.83,6.83,0,0,1,2,.88l-.78,1.41a7.36,7.36,0,0,0-3.59-.86,2.93,2.93,0,0,0-1.69.52,4.26,4.26,0,0,0-1.26,1.31,8.8,8.8,0,0,0-.84,1.8,10.57,10.57,0,0,0-.5,1.93,10,10,0,0,0-.16,1.74,13.83,13.83,0,0,0,.12,1.83,10.7,10.7,0,0,0,.44,1.87,7.28,7.28,0,0,0,.81,1.68,3.92,3.92,0,0,0,1.3,1.19,3.61,3.61,0,0,0,1.83.46,6.85,6.85,0,0,0,2-.29,5.22,5.22,0,0,0,1.71-.81l.92,1.34a6.46,6.46,0,0,1-2.18,1.09,8.46,8.46,0,0,1-2.51.4,6.12,6.12,0,0,1-2.57-.53,5.35,5.35,0,0,1-1.87-1.4,7.91,7.91,0,0,1-1.23-2,10.81,10.81,0,0,1-.68-2.39A14.67,14.67,0,0,1,42.47,193Z"/><path class="cls-2" d="M55.94,194.63a13.09,13.09,0,0,1,0-3.23,13.35,13.35,0,0,1,.3-1.71,12.21,12.21,0,0,1,.53-1.68,7.75,7.75,0,0,1,.79-1.51,6.21,6.21,0,0,1,1.08-1.24,4.47,4.47,0,0,1,1.39-.83,4.81,4.81,0,0,1,1.71-.31,4.62,4.62,0,0,1,2.31.59,5,5,0,0,1,1.68,1.51,9.42,9.42,0,0,1,1.1,2.12,11.9,11.9,0,0,1,.63,2.37,14.85,14.85,0,0,1,0,4.61,11.64,11.64,0,0,1-.63,2.36,9.29,9.29,0,0,1-1.1,2.13,5,5,0,0,1-1.68,1.51,4.62,4.62,0,0,1-2.31.59A4.81,4.81,0,0,1,60,201.6a4.47,4.47,0,0,1-1.39-.83,6.21,6.21,0,0,1-1.08-1.24,8,8,0,0,1-.79-1.51,12.21,12.21,0,0,1-.53-1.68A14,14,0,0,1,55.94,194.63Zm2.17-3.2a11.47,11.47,0,0,0,0,3.17,12.3,12.3,0,0,0,.38,1.86,9.24,9.24,0,0,0,.68,1.8,4,4,0,0,0,1.08,1.34,2.34,2.34,0,0,0,1.49.53,2.37,2.37,0,0,0,1.5-.53,4,4,0,0,0,1.08-1.34,9.24,9.24,0,0,0,.68-1.8,12.3,12.3,0,0,0,.38-1.86,11.47,11.47,0,0,0,0-3.17,12.06,12.06,0,0,0-.38-1.86,9.24,9.24,0,0,0-.68-1.8,4,4,0,0,0-1.08-1.34,2.37,2.37,0,0,0-1.5-.53,2.34,2.34,0,0,0-1.49.53,4,4,0,0,0-1.08,1.34,9.24,9.24,0,0,0-.68,1.8A12.06,12.06,0,0,0,58.11,191.43Z"/><path class="cls-2" d="M71.27,201.5v-17h2.06v15.19h5.84v1.78Z"/><path class="cls-2" d="M81,194.63a14.54,14.54,0,0,1,0-3.23,13.41,13.41,0,0,1,.31-1.71,12.2,12.2,0,0,1,.52-1.68,7.79,7.79,0,0,1,.8-1.51,6.51,6.51,0,0,1,1.07-1.24,4.71,4.71,0,0,1,1.39-.83,4.86,4.86,0,0,1,1.72-.31,4.62,4.62,0,0,1,2.31.59,5.19,5.19,0,0,1,1.68,1.51,9.85,9.85,0,0,1,1.1,2.12,13.43,13.43,0,0,1,.63,2.37,14.85,14.85,0,0,1,0,4.61,13.11,13.11,0,0,1-.63,2.36,9.7,9.7,0,0,1-1.1,2.13,5.19,5.19,0,0,1-1.68,1.51,4.62,4.62,0,0,1-2.31.59,4.86,4.86,0,0,1-1.72-.31,4.71,4.71,0,0,1-1.39-.83,6.51,6.51,0,0,1-1.07-1.24,8.09,8.09,0,0,1-.8-1.51,12.2,12.2,0,0,1-.52-1.68A14.07,14.07,0,0,1,81,194.63Zm2.17-3.2a12.61,12.61,0,0,0,0,3.17,13.68,13.68,0,0,0,.38,1.86,9.93,9.93,0,0,0,.69,1.8,4,4,0,0,0,1.07,1.34,2.39,2.39,0,0,0,3,0,4,4,0,0,0,1.07-1.34,9.25,9.25,0,0,0,.69-1.8,13.68,13.68,0,0,0,.38-1.86,12.61,12.61,0,0,0,0-3.17,13.38,13.38,0,0,0-.38-1.86,9.25,9.25,0,0,0-.69-1.8,4,4,0,0,0-1.07-1.34,2.39,2.39,0,0,0-3,0,4,4,0,0,0-1.07,1.34,9.93,9.93,0,0,0-.69,1.8A13.38,13.38,0,0,0,83.15,191.43Z"/><path class="cls-2" d="M96.32,201.5v-17H100a10.28,10.28,0,0,1,2,.18,6.78,6.78,0,0,1,1.73.58,4.71,4.71,0,0,1,1.38,1,4.46,4.46,0,0,1,.91,1.48,5.63,5.63,0,0,1,.33,2,6.09,6.09,0,0,1-1.1,3.62,4.78,4.78,0,0,1-3.11,1.93l5,5.55v.65H105l-5.58-6.2a6.47,6.47,0,0,1-.93-.4v6.6Zm2.16-8.38a5,5,0,0,0,2,.57,3.42,3.42,0,0,0,2.69-1.12,4.12,4.12,0,0,0,1-2.84,3.74,3.74,0,0,0-.32-1.58,2.77,2.77,0,0,0-.92-1.08,4.25,4.25,0,0,0-1.31-.61,5.79,5.79,0,0,0-1.6-.21h-1.5Z"/><path class="cls-2" d="M108.09,201.5l5.38-17h2.32l5.39,17H119l-1.8-5.47h-5.06l-1.81,5.47Zm4.53-7.25h4l-2-7.48Z"/><path class="cls-2" d="M123.66,201.5v-17h4.88a6,6,0,0,1,2.5.5,4.88,4.88,0,0,1,1.77,1.31,7.07,7.07,0,0,1,1.12,1.95,10.52,10.52,0,0,1,.62,2.29,17.39,17.39,0,0,1,.17,2.46,15.16,15.16,0,0,1-.2,2.47,10.09,10.09,0,0,1-.69,2.29,7.16,7.16,0,0,1-1.22,1.92,5.08,5.08,0,0,1-1.84,1.29,6.06,6.06,0,0,1-2.5.49Zm2.1-1.72h2.5a4.11,4.11,0,0,0,1.57-.29,3.17,3.17,0,0,0,1.16-.82,5.7,5.7,0,0,0,.77-1.16,5.4,5.4,0,0,0,.49-1.42,15,15,0,0,0,.24-1.5,14.51,14.51,0,0,0,.07-1.5c0-.51,0-1-.06-1.48s-.11-1-.21-1.52a6.1,6.1,0,0,0-.45-1.46,5.17,5.17,0,0,0-.74-1.21,2.74,2.74,0,0,0-1.12-.86,3.71,3.71,0,0,0-1.56-.31h-2.66Z"/><path class="cls-2" d="M137.81,194.63a14.54,14.54,0,0,1,0-3.23,13.35,13.35,0,0,1,.3-1.71,12.21,12.21,0,0,1,.53-1.68,7.79,7.79,0,0,1,.8-1.51,6.17,6.17,0,0,1,1.07-1.24,4.58,4.58,0,0,1,1.39-.83,4.82,4.82,0,0,1,1.72-.31,4.55,4.55,0,0,1,2.3.59,5.13,5.13,0,0,1,1.69,1.51,9.82,9.82,0,0,1,1.09,2.12,11.9,11.9,0,0,1,.63,2.37,14.08,14.08,0,0,1,0,4.61,11.64,11.64,0,0,1-.63,2.36,9.68,9.68,0,0,1-1.09,2.13,5.13,5.13,0,0,1-1.69,1.51,4.55,4.55,0,0,1-2.3.59,4.82,4.82,0,0,1-1.72-.31,4.58,4.58,0,0,1-1.39-.83,6.17,6.17,0,0,1-1.07-1.24,8.09,8.09,0,0,1-.8-1.51,12.21,12.21,0,0,1-.53-1.68A14,14,0,0,1,137.81,194.63Zm2.17-3.2a12.61,12.61,0,0,0,0,3.17,13.68,13.68,0,0,0,.38,1.86,9.24,9.24,0,0,0,.68,1.8,4.07,4.07,0,0,0,1.08,1.34,2.39,2.39,0,0,0,1.5.53,2.34,2.34,0,0,0,1.49-.53,4,4,0,0,0,1.08-1.34,9.24,9.24,0,0,0,.68-1.8,11.18,11.18,0,0,0,.38-1.86,11.47,11.47,0,0,0,0-3.17,11,11,0,0,0-.38-1.86,9.24,9.24,0,0,0-.68-1.8,4,4,0,0,0-1.08-1.34,2.34,2.34,0,0,0-1.49-.53,2.39,2.39,0,0,0-1.5.53,4.07,4.07,0,0,0-1.08,1.34,9.24,9.24,0,0,0-.68,1.8A13.38,13.38,0,0,0,140,191.43Z"/><path class="cls-2" d="M159.33,186.38v-1.85h10.38v1.85h-4.14V201.5h-2.11V186.38Z"/><path class="cls-2" d="M172.13,201.5v-17h3.66a10.28,10.28,0,0,1,2,.18,6.78,6.78,0,0,1,1.73.58,4.71,4.71,0,0,1,1.38,1,4.46,4.46,0,0,1,.91,1.48,5.63,5.63,0,0,1,.33,2,6.09,6.09,0,0,1-1.1,3.62,4.81,4.81,0,0,1-3.11,1.93l5,5.55v.65h-2.1l-5.58-6.2a6.47,6.47,0,0,1-.93-.4v6.6Zm2.16-8.38a4.92,4.92,0,0,0,2,.57,3.43,3.43,0,0,0,2.69-1.12,4.17,4.17,0,0,0,1-2.84,3.6,3.6,0,0,0-.33-1.58,2.67,2.67,0,0,0-.91-1.08,4.2,4.2,0,0,0-1.32-.61,5.67,5.67,0,0,0-1.59-.21h-1.5Z"/><path class="cls-2" d="M183.9,201.5l5.38-17h2.32l5.39,17h-2.21L193,196h-5.07l-1.8,5.47Zm4.53-7.25h4l-2-7.48Z"/><path class="cls-2" d="M199.46,201.5v-17h2.11v17Z"/><path class="cls-2" d="M205.87,201.5v-17h2v15.19h5.84v1.78Z"/><path class="cls-3" d="M127.61,7.65A120.74,120.74,0,1,1,6.88,128.39,120.73,120.73,0,0,1,127.61,7.65m0-7.26a128,128,0,0,0-90.5,218.5A128,128,0,1,0,177.44,10.45,127.13,127.13,0,0,0,127.61.39Z"/><polygon class="cls-2" points="115.71 36.19 68.17 163.81 196 163.81 146.37 59.34 130.1 103.13 140.11 126.9 148.87 108.13 167.64 145.67 96.32 145.67 119.47 83.73 123.22 91.24 131.98 71.22 115.71 36.19"/></svg>