<svg id="Layer_1" data-name="Layer 1" xmlns="http://www.w3.org/2000/svg" viewBox="0 0 256 256"><defs><style>.cls-1{fill:#004a3a;}.cls-2{font-size:26.94px;font-family:Delicious-Roman, Delicious;}.cls-2,.cls-4{fill:#fff;}.cls-3{fill:#032d1a;}</style></defs><path class="cls-1" d="M127.68,0A128,128,0,0,0,77.86,245.94,128,128,0,0,0,177.51,10.06,127.31,127.31,0,0,0,127.68,0Z"/><text class="cls-2" transform="translate(40.98 201.5)">COLORADO TRAIL</text><path class="cls-3" d="M127.61,7.65A120.74,120.74,0,1,1,6.88,128.39,120.73,120.73,0,0,1,127.61,7.65m0-7.26a128,128,0,0,0-90.5,218.5A128,128,0,1,0,177.44,10.45,127.13,127.13,0,0,0,127.61.39Z"/><polygon class="cls-4" points="115.71 36.19 68.17 163.81 196 163.81 146.37 59.34 130.1 103.13 140.11 126.9 148.87 108.13 167.64 145.67 96.32 145.67 119.47 83.73 123.22 91.24 131.98 71.22 115.71 36.19"/></svg>