<svg id="Layer_1" data-name="Layer 1" xmlns="http://www.w3.org/2000/svg" viewBox="0 0 256 256"><defs><style>.cls-1{fill:#00aef2;}.cls-2{fill:#1d1d1b;}</style></defs><path class="cls-1" d="M127.68,0A128,128,0,0,0,77.86,245.94,128,128,0,0,0,177.51,10.06,127.31,127.31,0,0,0,127.68,0Z"/><path class="cls-2" d="M127.61,7.65A120.74,120.74,0,1,1,6.88,128.39,120.73,120.73,0,0,1,127.61,7.65m0-7.26a128,128,0,0,0-90.5,218.5A128,128,0,1,0,177.44,10.45,127.13,127.13,0,0,0,127.61.39Z"/><path class="cls-2" d="M26.6,149a12.18,12.18,0,0,1,2.62-.38,9.66,9.66,0,0,1,2.63.24,9.23,9.23,0,0,1,2.39.9,6.32,6.32,0,0,1,1.92,1.64,6.57,6.57,0,0,1,1.19,2.43,10.63,10.63,0,0,1,.33,2.6,5.59,5.59,0,0,1-.39,2.36l-3.09-.77a7.08,7.08,0,0,0-.18-3.31,2.11,2.11,0,0,0-1-1.3,4.21,4.21,0,0,0-1.8-.59,11.92,11.92,0,0,0-2,0,9.07,9.07,0,0,0-1.7.26c-.39.1-.77.22-1.12.34s-.74.29-1.15.48a5,5,0,0,0-1.06.66,6.34,6.34,0,0,0-.81.83,2.5,2.5,0,0,0-.46,1,2.86,2.86,0,0,0,.07,1.26,5.8,5.8,0,0,0,.7,1.57,6,6,0,0,0,1.1,1.35L22.62,163a6.82,6.82,0,0,1-1.85-2,9,9,0,0,1-1.16-2.56,7.24,7.24,0,0,1-.21-2.82,6,6,0,0,1,.81-2.36,7.58,7.58,0,0,1,1.63-1.88A10.63,10.63,0,0,1,24,150,14.78,14.78,0,0,1,26.6,149Z"/><path class="cls-2" d="M28,163.48a14.09,14.09,0,0,1,2.17-1.15,15,15,0,0,1,2.32-.75,11.7,11.7,0,0,1,2.54-.29,8.67,8.67,0,0,1,2.49.32,5.82,5.82,0,0,1,2.15,1.19A5.91,5.91,0,0,1,41.25,165a6,6,0,0,1,.49,2.68,5.8,5.8,0,0,1-.65,2.38,8.37,8.37,0,0,1-1.5,2,11.75,11.75,0,0,1-2,1.61,14.56,14.56,0,0,1-2.17,1.15,15.08,15.08,0,0,1-2.33.75,11.55,11.55,0,0,1-2.54.29,8.55,8.55,0,0,1-2.48-.32,5.63,5.63,0,0,1-2.15-1.2,5.86,5.86,0,0,1-1.58-2.22,5.79,5.79,0,0,1-.48-2.67,5.71,5.71,0,0,1,.64-2.37,8.7,8.7,0,0,1,1.51-2A11,11,0,0,1,28,163.48Zm4.94,2.2c-.34.12-.73.28-1.17.46s-.82.36-1.15.52-.7.35-1.11.59a5.18,5.18,0,0,0-1,.7,5.34,5.34,0,0,0-.71.79,1.88,1.88,0,0,0-.36.95,2.39,2.39,0,0,0,.19,1.06,2.34,2.34,0,0,0,.63.88,1.85,1.85,0,0,0,.94.4,5.48,5.48,0,0,0,1.07.05,5,5,0,0,0,1.21-.22q.69-.2,1.2-.39c.34-.12.72-.27,1.16-.45s.82-.36,1.15-.52.69-.35,1.1-.58a5.13,5.13,0,0,0,1.72-1.52,1.85,1.85,0,0,0,.36-.94,2.45,2.45,0,0,0-.19-1.07,2.3,2.3,0,0,0-.63-.87,1.79,1.79,0,0,0-.93-.41,5.38,5.38,0,0,0-1.06-.05,5.8,5.8,0,0,0-1.22.24C33.68,165.43,33.28,165.56,33,165.68Z"/><path class="cls-2" d="M29.12,181.52l14.93-9.12,2.32,3.81-4.29,6.18a8.91,8.91,0,0,1-.72.91c-.27.32-.49.56-.66.73l-.27.24,7.91-4.83L50.5,183l-14.92,9.11-2-3.25L40,179.45a10.43,10.43,0,0,1-1.8,1.37l-6.92,4.23Z"/><path class="cls-2" d="M48.18,185.82,51,183.56l6.66,8.28-2.81,2.26-2.05-2.55L42,200.25,39.38,197l10.83-8.67Z"/><path class="cls-2" d="M45.65,204.44l12.64-12.09,2.85,3L48.51,207.43Z"/><path class="cls-2" d="M51.05,210.12l11.28-13.36,3.41,2.87-2.12,7.22a9.63,9.63,0,0,1-.39,1.09c-.16.39-.3.69-.41.9l-.17.32,6-7.09,3.16,2.67L60.51,218.1l-2.91-2.46,3.12-10.92a10.86,10.86,0,0,1-1.28,1.87l-5.23,6.19Z"/><path class="cls-2" d="M63.92,220.5l9.38-14.76,8.56,5.44-1.91,3L74.88,211l-1.63,2.58,3.9,2.48-1.93,3-3.9-2.48-2,3.1,5.33,3.39-1.94,3Z"/><path class="cls-2" d="M75.79,227.8l7.28-15.89,4.05,1.85-.1,7.53c0,.35,0,.74-.09,1.15s-.1.74-.15,1l-.08.35,3.86-8.43,3.76,1.72L87,233l-3.47-1.59L83.65,220a11.12,11.12,0,0,1-.73,2.15l-3.38,7.36Z"/><path class="cls-2" d="M94,220.72l1.06-3.44,10.16,3.13-1.07,3.44-3.13-1-4.09,13.26-4-1.22,4.11-13.25Z"/><path class="cls-2" d="M100.39,237.29l8-16.28,4,.76L114,239.86l-4.22-.8-.21-3.71-3.44-.64-1.53,3.38Zm6.81-5.7,2.57.49-.31-5.48Z"/><path class="cls-2" d="M116.66,240l1.14-17.45,4,.27-.91,13.9,4.93.33-.23,3.54Z"/><path class="cls-2" d="M137.5,240.27,135.09,223l5.74-.8a7.86,7.86,0,0,1,2.8.08,5.61,5.61,0,0,1,2.16,1,6.43,6.43,0,0,1,1.57,1.7,9.18,9.18,0,0,1,1.07,2.23,15.07,15.07,0,0,1,.6,2.64,11.69,11.69,0,0,1,0,3.29,9.74,9.74,0,0,1-.94,3,6.44,6.44,0,0,1-2,2.31,7,7,0,0,1-3.09,1.18Zm3.61-4,1.42-.2a2.48,2.48,0,0,0,1.51-.72,2.91,2.91,0,0,0,.79-1.45,8.24,8.24,0,0,0,.22-1.68,9.87,9.87,0,0,0-.1-1.7q-.09-.65-.18-1.14c-.07-.33-.16-.71-.28-1.14a4.73,4.73,0,0,0-.46-1.1,4.62,4.62,0,0,0-.64-.85,2,2,0,0,0-.93-.56,3,3,0,0,0-1.24-.07l-1.55.22Z"/><path class="cls-2" d="M153.2,237.67l-4.23-17,4-1,4.23,17Z"/><path class="cls-2" d="M153.56,219.79l4.18-1.51,5.22,8.15c.29.44.69,1.17,1.22,2.18-.23-1.07-.38-1.89-.44-2.47l-1.19-9.6,4.15-1.49L168,233.17l-3.84,1.39Z"/><path class="cls-2" d="M174.59,230.4,167,214.64l3.73-1.79,7.57,15.76Z"/><path class="cls-2" d="M181.63,227l-9.2-14.87,4.93-3a7.72,7.72,0,0,1,2.59-1.06,5.9,5.9,0,0,1,2.37,0,6.9,6.9,0,0,1,2.12.92,9,9,0,0,1,1.88,1.61,14.67,14.67,0,0,1,1.61,2.18,11.27,11.27,0,0,1,1.32,3,9.44,9.44,0,0,1,.34,3.1,6.35,6.35,0,0,1-.9,2.92,6.78,6.78,0,0,1-2.35,2.32Zm1.68-5.15,1.22-.75a2.56,2.56,0,0,0,1.09-1.27,3,3,0,0,0,.13-1.65,8.33,8.33,0,0,0-.47-1.63,10.32,10.32,0,0,0-.78-1.51c-.23-.37-.44-.69-.63-1s-.43-.58-.72-.93a4.34,4.34,0,0,0-.86-.82,4.65,4.65,0,0,0-.93-.52,2.06,2.06,0,0,0-1.08-.14,3,3,0,0,0-1.16.44l-1.33.83Z"/><path class="cls-2" d="M195.36,218.12l-11.11-13.5,7.83-6.45,2.26,2.75-4.64,3.81,1.94,2.36,3.57-2.94,2.29,2.78-3.57,2.94,2.33,2.84,4.88-4,2.29,2.79Z"/><path class="cls-2" d="M200.56,194.76l-2.79-2.28,6.74-8.22,2.79,2.29-2.08,2.53,10.73,8.8-2.62,3.2-10.72-8.82Z"/><path class="cls-2" d="M219.75,193,205,183.63l2.45-3.87a11.92,11.92,0,0,1,1.72-2.18,7.61,7.61,0,0,1,2-1.42,4.42,4.42,0,0,1,2.37-.4,5.88,5.88,0,0,1,2.6,1,5.62,5.62,0,0,1,2.15,2.45,5.09,5.09,0,0,1,.39,3.16l6-.55,1.58,1-1.86,2.93-7.56.49,5.17,3.28Zm-5.61-8.44a4.22,4.22,0,0,0,.71-.77,2.23,2.23,0,0,0,.31-1.93,2.88,2.88,0,0,0-1.3-1.59,2.24,2.24,0,0,0-1.77-.44,2.67,2.67,0,0,0-1.41,1.25l-.58.92Z"/><path class="cls-2" d="M227.12,181.15l-13.89-11.69,1.69-3.72,18,2.78-1.78,3.91-3.65-.68L226,174.94l2.91,2.29Zm-3.91-8,1.09-2.38-5.4-1Z"/><path class="cls-2" d="M233.49,166.29l-16.57-5.59,1.32-3.92,16.57,5.59Z"/><path class="cls-2" d="M235.83,159.13l-17-4.18,1-3.91,13.53,3.34,1.19-4.81,3.44.85Z"/><path d="M79.66,101.7c.47-1.12.71-1.88,1.09-2.56,11.16-20,25.36-37.4,44.43-50.4,5.65-3.86,3.61-3.8,9.14.18,18.61,13.39,32.39,30.89,43,51.07a12,12,0,0,1,.57,1.71c-4.79,0-9.33,0-13.87,0s-3.54.63-5.18-3.43C154.27,87,148,77.05,138.72,69.09c-.48-.41-1-.8-1.87-1.51-.06,1.39-.15,2.37-.15,3.35v103c0,4.33.24,3.71-3.85,3.75-3,0-6,0-9.06,0-1.32,0-1.9-.47-1.84-1.79,0-.81,0-1.62,0-2.43q0-51.6,0-103.19c0-.57-.1-1.13-.2-2.13-2.68,2.71-5.37,4.92-7.44,7.61C108.47,83.39,102.78,91.18,97.2,99c-1.38,1.94-2.72,2.87-5.18,2.73C88.06,101.53,84.08,101.7,79.66,101.7Z"/><path d="M143.61,183.58c-.05-.74-.15-1.51-.15-2.29,0-22,0-44-.05-66,0-2.14.65-2.72,2.75-2.71,12.15.09,24.3.07,36.45,0a2.42,2.42,0,0,1,2.77,1.81c4.59,12.72,9.18,25.44,11.41,38.85.63,3.76,1.09,7.57,1.37,11.37a3.72,3.72,0,0,1-1.5,2.59,66.07,66.07,0,0,1-25.73,11.67c-8.73,2-17.6,3.29-26.42,4.89A4.2,4.2,0,0,1,143.61,183.58Zm12.72-15.7c2.69-.51,5-.94,7.29-1.39,6.59-1.29,13-3,18.6-7a3.06,3.06,0,0,0,1.48-3.12c-.86-10.35-3.82-20.16-7.71-29.72a3.1,3.1,0,0,0-2.41-1.23c-4.85-.11-9.71,0-14.56-.1-2.21-.06-2.93.6-2.91,2.86.1,12.36,0,24.72,0,37.08C156.16,166,156.26,166.82,156.33,167.88Z"/><path d="M114,185c-5.54-1-10.74-1.91-15.91-3a283,283,0,0,1-37.65-11c-1.62-.58-2.14-1.35-1.94-3a158,158,0,0,1,7.71-34.13c2.31-6.66,5.3-13.07,7.94-19.61A2.63,2.63,0,0,1,77,112.54q17.91.09,35.8,0c1.78,0,2.51.45,2.43,2.34-.13,3.09-.11,6.19,0,9.28.07,1.79-.65,2.26-2.33,2.25q-13-.09-26.08,0a3.34,3.34,0,0,0-2.52,1.07c-5.44,10.53-8.56,21.83-11.1,33.65,4.69,1.36,9.22,2.86,13.83,4,8.35,2,16.75,3.88,25.15,5.72,1.31.29,1.86.74,1.83,2.16C113.92,176.89,114,180.77,114,185Z"/></svg>