<svg id="Layer_1" data-name="Layer 1" xmlns="http://www.w3.org/2000/svg" viewBox="0 0 256 256"><defs><style>.cls-1{fill:#00aef2;}.cls-2,.cls-3{fill:#1d1d1b;}.cls-3{font-size:27.76px;font-family:Delicious-Heavy, Delicious Heavy;font-weight:800;}</style></defs><path class="cls-1" d="M127.68,0A128,128,0,0,0,77.86,245.94,128,128,0,0,0,177.51,10.06,127.31,127.31,0,0,0,127.68,0Z"/><path class="cls-2" d="M127.61,7.65A120.74,120.74,0,1,1,6.88,128.39,120.73,120.73,0,0,1,127.61,7.65m0-7.26a128,128,0,0,0-90.5,218.5A128,128,0,1,0,177.44,10.45,127.13,127.13,0,0,0,127.61.39Z"/><text class="cls-3" transform="translate(17.92 150.39) rotate(75.27)">C</text><text class="cls-3" transform="translate(21.8 164.97) rotate(67.14)">O</text><text class="cls-3" transform="translate(28.34 180.23) rotate(58.59)">N</text><text class="cls-3" transform="matrix(0.63, 0.78, -0.78, 0.63, 37.15, 194.26)">T</text><text class="cls-3" transform="translate(44.79 203.54) rotate(46.26)">I</text><text class="cls-3" transform="matrix(0.76, 0.65, -0.65, 0.76, 49.9, 209.14)">N</text><text class="cls-3" transform="matrix(0.84, 0.54, -0.54, 0.84, 62.71, 219.73)">E</text><text class="cls-3" transform="translate(74.42 227.18) rotate(24.61)">N</text><text class="cls-3" transform="translate(89.57 233.88) rotate(17.14)">T</text><text class="cls-3" transform="matrix(0.98, 0.18, -0.18, 0.98, 100.23, 237.26)">A</text><text class="cls-3" transform="translate(115.25 239.91) rotate(3.76)">L</text><text class="cls-3" transform="translate(126.64 240.57) rotate(-1.41)"> </text><text class="cls-3" transform="translate(136.04 240.47) rotate(-7.91)">D</text><text class="cls-3" transform="translate(151.99 237.97) rotate(-14.01)">I</text><text class="cls-3" transform="translate(159.37 236.28) rotate(-19.84)">V</text><text class="cls-3" transform="translate(173.47 230.94) rotate(-25.66)">I</text><text class="cls-3" transform="matrix(0.85, -0.53, 0.53, 0.85, 180.38, 227.82)">D</text><text class="cls-3" transform="matrix(0.77, -0.64, 0.64, 0.77, 194.25, 219.03)">E</text><text class="cls-3" transform="translate(204.59 210.32) rotate(-45.24)"> </text><text class="cls-3" transform="matrix(0.63, -0.77, 0.77, 0.63, 211.07, 203.83)">T</text><text class="cls-3" transform="translate(218.95 194.25) rotate(-57.66)">R</text><text class="cls-3" transform="matrix(0.41, -0.91, 0.91, 0.41, 227.05, 181.3)">A</text><text class="cls-3" transform="translate(233.09 167.47) rotate(-71.35)">I</text><text class="cls-3" transform="translate(235.49 160.5) rotate(-76.17)">L</text><path d="M79.66,101.7c.47-1.12.71-1.88,1.09-2.56,11.16-20,25.36-37.4,44.43-50.4,5.65-3.86,3.61-3.8,9.14.18,18.61,13.39,32.39,30.89,43,51.07a12,12,0,0,1,.57,1.71c-4.79,0-9.33,0-13.87,0s-3.54.63-5.18-3.43C154.27,87,148,77.05,138.72,69.09c-.48-.41-1-.8-1.87-1.51-.06,1.39-.15,2.37-.15,3.35v103c0,4.33.24,3.71-3.85,3.75-3,0-6,0-9.06,0-1.32,0-1.9-.47-1.84-1.79,0-.81,0-1.62,0-2.43q0-51.6,0-103.19c0-.57-.1-1.13-.2-2.13-2.68,2.71-5.37,4.92-7.44,7.61C108.47,83.39,102.78,91.18,97.2,99c-1.38,1.94-2.72,2.87-5.18,2.73C88.06,101.53,84.08,101.7,79.66,101.7Z"/><path d="M143.61,183.58c-.05-.74-.15-1.51-.15-2.29,0-22,0-44-.05-66,0-2.14.65-2.72,2.75-2.71,12.15.09,24.3.07,36.45,0a2.42,2.42,0,0,1,2.77,1.81c4.59,12.72,9.18,25.44,11.41,38.85.63,3.76,1.09,7.57,1.37,11.37a3.72,3.72,0,0,1-1.5,2.59,66.07,66.07,0,0,1-25.73,11.67c-8.73,2-17.6,3.29-26.42,4.89A4.2,4.2,0,0,1,143.61,183.58Zm12.72-15.7c2.69-.51,5-.94,7.29-1.39,6.59-1.29,13-3,18.6-7a3.06,3.06,0,0,0,1.48-3.12c-.86-10.35-3.82-20.16-7.71-29.72a3.1,3.1,0,0,0-2.41-1.23c-4.85-.11-9.71,0-14.56-.1-2.21-.06-2.93.6-2.91,2.86.1,12.36,0,24.72,0,37.08C156.16,166,156.26,166.82,156.33,167.88Z"/><path d="M114,185c-5.54-1-10.74-1.91-15.91-3a283,283,0,0,1-37.65-11c-1.62-.58-2.14-1.35-1.94-3a158,158,0,0,1,7.71-34.13c2.31-6.66,5.3-13.07,7.94-19.61A2.63,2.63,0,0,1,77,112.54q17.91.09,35.8,0c1.78,0,2.51.45,2.43,2.34-.13,3.09-.11,6.19,0,9.28.07,1.79-.65,2.26-2.33,2.25q-13-.09-26.08,0a3.34,3.34,0,0,0-2.52,1.07c-5.44,10.53-8.56,21.83-11.1,33.65,4.69,1.36,9.22,2.86,13.83,4,8.35,2,16.75,3.88,25.15,5.72,1.31.29,1.86.74,1.83,2.16C113.92,176.89,114,180.77,114,185Z"/></svg>