<svg id="Layer_1" data-name="Layer 1" xmlns="http://www.w3.org/2000/svg" viewBox="0 0 256 256"><defs><style>.cls-1{fill:#232a2b;}.cls-2{fill:#30332b;}.cls-3{fill:#e5e2e7;}.cls-4{fill:#3d69b7;}.cls-5{fill:#2a51a3;}.cls-6{fill:#577a3b;}</style></defs><circle class="cls-1" cx="128.2" cy="128" r="120.74"/><path class="cls-2" d="M128.2,7.26A120.74,120.74,0,1,1,7.46,128,120.74,120.74,0,0,1,128.2,7.26m0-7.26A128,128,0,0,0,78.38,245.94,128,128,0,0,0,178,10.06,127.35,127.35,0,0,0,128.2,0Z"/><polygon class="cls-3" points="203.6 69.53 202.13 65.08 197.7 63.6 201.68 61.68 203.6 57.68 205.18 62.02 209.5 63.6 204.84 64.85 203.6 69.53"/><polygon class="cls-3" points="37.02 127.4 36.11 124.66 33.38 123.75 35.84 122.57 37.02 120.11 37.99 122.78 40.65 123.75 37.78 124.52 37.02 127.4"/><polygon class="cls-3" points="101.24 214.21 102.71 218.66 107.14 220.13 103.16 222.05 101.24 226.05 99.66 221.71 95.34 220.13 100 218.88 101.24 214.21"/><ellipse class="cls-4" cx="126.84" cy="126.12" rx="72.62" ry="72.91"/><polygon class="cls-3" points="195.2 202.36 196.67 206.81 201.1 208.28 197.12 210.21 195.2 214.21 193.62 209.87 189.3 208.28 193.96 207.04 195.2 202.36"/><polygon class="cls-3" points="37.7 188.23 38.6 190.97 41.33 191.88 38.88 193.06 37.7 195.52 36.73 192.85 34.07 191.88 36.93 191.11 37.7 188.23"/><polygon class="cls-3" points="222.72 127.42 221.56 123.89 218.03 122.72 221.2 121.19 222.72 118.01 223.97 121.46 227.41 122.72 223.71 123.71 222.72 127.42"/><polygon class="cls-3" points="145.72 19.63 147.19 24.08 151.63 25.56 147.64 27.48 145.72 31.48 144.15 27.14 139.82 25.56 144.49 24.31 145.72 19.63"/><polygon class="cls-3" points="31.8 78.41 32.7 81.15 35.43 82.06 32.98 83.24 31.8 85.7 30.82 83.03 28.16 82.06 31.03 81.29 31.8 78.41"/><path class="cls-5" d="M126.84,53.21A72.13,72.13,0,0,0,83.16,67.87a73,73,0,0,0,49.13,126.6A72.1,72.1,0,0,0,176,179.81a73,73,0,0,0-49.12-126.6Z"/><path class="cls-6" d="M183.25,111.37V109.1a5.09,5.09,0,0,1,5.07-5.09h6a65.6,65.6,0,0,0-53-49v7.13a5.07,5.07,0,0,1-5.07,5.09h-7.92a5.06,5.06,0,0,0-4.21,2.26l-2.64,4a5.11,5.11,0,0,1-3,2.12l-4.73,1.18A5.09,5.09,0,0,0,110,81.7v1.45A5.08,5.08,0,0,0,115,88.24H144.5a5,5,0,0,1,3.58,1.49L150.34,92a5.11,5.11,0,0,0,3.59,1.49h3.31a5.09,5.09,0,0,1,1.6,9.92l-15.48,5.17a5,5,0,0,1-3.87-.27l-4.82-2.42a17.69,17.69,0,0,0-8-1.89h-.29a17.86,17.86,0,0,0-10.73,3.58l-9,6.81a17.93,17.93,0,0,0-7.14,14.34v4.62a17.91,17.91,0,0,0,17.87,17.95h8.46a5.08,5.08,0,0,1,5.07,5.09v9.81a26,26,0,0,0,2.73,11.59,9.07,9.07,0,0,0,15.68,1l4.25-6.42a52.13,52.13,0,0,1,8.18-9.58,5.14,5.14,0,0,0,1.57-2.82l1.4-7.5a5.26,5.26,0,0,1,.93-2.11l6.13-8.2a5.11,5.11,0,0,0,1-3.06v-3.72a5.09,5.09,0,0,0-5.07-5.1H165a5.06,5.06,0,0,1-4.22-2.25l-4.33-6.53a5.09,5.09,0,0,1,2.62-7.65l.86-.29a4.71,4.71,0,0,1,1.6-.26,5.09,5.09,0,0,1,2.81.85l6,4a5.07,5.07,0,0,0,5.08.33l5-2.53A5.1,5.1,0,0,0,183.25,111.37Z"/></svg>