<svg id="Layer_1" data-name="Layer 1" xmlns="http://www.w3.org/2000/svg" viewBox="0 0 256 256"><defs><style>.cls-1{fill:#00aef2;}.cls-2{fill:#351d21;}.cls-3{fill:#404563;}.cls-4{fill:#1d1d1b;}.cls-5{fill:#fff;}.cls-6,.cls-7{fill:none;stroke:#351d21;stroke-linecap:round;stroke-miterlimit:10;stroke-width:3px;}.cls-7{stroke-dasharray:11.52 11.52;}</style></defs><path class="cls-1" d="M127.68,0A128,128,0,0,0,77.86,245.94,128,128,0,0,0,177.51,10.06,127.31,127.31,0,0,0,127.68,0Z"/><path class="cls-2" d="M61.88,237.82a127.88,127.88,0,0,0,156.31-19.31,128.1,128.1,0,0,0-30.48-203.6Z"/><path class="cls-3" d="M189.58,15.93a128,128,0,0,0-125.87,223Z"/><path class="cls-4" d="M127.61,7.65A120.74,120.74,0,1,1,6.88,128.39,120.73,120.73,0,0,1,127.61,7.65m0-7.26a128,128,0,0,0-90.5,218.5A128,128,0,1,0,177.44,10.45,127.13,127.13,0,0,0,127.61.39Z"/><path class="cls-5" d="M232.86,80.79,225,78.89l.53,1.39-1.56.14-.1.33,5.42,2.4c-.51.2-.77.4-1,.38a3.48,3.48,0,0,0-3.59,1.82c-.37.64-1,.66-1.66.32s-4.2.58-4.57,1.16a1,1,0,0,0,0,.9,3.34,3.34,0,0,0,1.2,1.27c1.78.8,2.6,2.31,3.26,4.09-1.13,1-.09,2.08-.11,3.17a8.49,8.49,0,0,1-.11,1c-.4-.05-.94,0-1.16-.17-2.09-2.08-4.16-4.18-6.15-6.35a2.12,2.12,0,0,1-.19-1.61,22.34,22.34,0,0,0,.92-3.38,3.45,3.45,0,0,0-1-2.23c-.44-.47-1.13-.06-1.11.63,0,1.3-.57,1-1.34.72a10.26,10.26,0,0,0-1.65-.61c-1.6-.41-2.08,0-2.16,1.62s-.52,2-2.09,1.44c-2.61-.87-5.18,0-7.77,0-1.16,0-1.62,1.1-2,2a24,24,0,0,1-.86,2.38c-.41.75-.28,1.26.48,1.45,1.2.29,2.43.44,3.65.63.41.07.82.1,1.22.18a.83.83,0,0,1,.44.24c1.48,1.64,3.41,3.07,4.33,5,1.31,2.73.76,5.71-.77,8.37-.7,1.21-1.79.82-2.84.37-.58,1.08-1.5,1.93-.94,3.29.08.22-.34.71-.61,1a9.12,9.12,0,0,1-1.15.84c1,.75,1.87,1.32,2.64,2a18.44,18.44,0,0,1,2.21,2.38c.48.63.42,1.25-.48,1.58a17,17,0,0,0-1.7.86c-.38-.77-.74-1.51-1.09-2.25a4.09,4.09,0,0,0-2.54-2.48,1.46,1.46,0,0,1-.78-.73c-.85-1.92-1.62-2.19-3.48-1.15-.14.08-.3.14-.61.28-.19-.42-.41-.81-.55-1.22-.47-1.37-.95-1.49-2-.47l-2.12,2a3.53,3.53,0,0,0,3.94,1.79,9,9,0,0,1,2.67.35c-.82.63-1.45,1-2,1.56-.95.9-.87,1.71.09,2.6a15,15,0,0,1,1.09,1.38,15.59,15.59,0,0,0,1.75,2c.73.63,1.34,1.15.26,2,1.66,1,1.66,1,1.14,3.06-.16.62-.36,1.22-.5,1.83-.79,3.5-3,5.42-6.47,6.09-2.48.47-2.46.55-4,2.06-.61-.45-1.23-1.29-1.76-1.23a5.35,5.35,0,0,0-2.65,1.21,1.91,1.91,0,0,0-.29,2.83,15.68,15.68,0,0,0,1.68,1.87,10.17,10.17,0,0,1,3.19,5.63c.33,1.69-.12,2.47-1.58,3.36a13,13,0,0,0-1.5,1.29l-1.55,1.31c-.08-1-.13-1.77-.2-2.66-1.12.59-1.64,0-2.23-.66a10.88,10.88,0,0,0-4.12-3.23,7.8,7.8,0,0,0,2.44,9.6c2.23,1.73,2.61,4.16,3.32,6.83a5.53,5.53,0,0,1-3.43-2.58c-.61-1.1-.9-2.37-1.48-3.48a10.24,10.24,0,0,0-1.82-2.62c-.69-.69-1.24-1.32-.94-2.29,1.05-3.35-.72-6.16-1.68-9.12-.35-1.06-1-.84-1.78-.25a6.37,6.37,0,0,1-1.24.66,6,6,0,0,1-.7-1.51,7.22,7.22,0,0,0-2.22-4.15,16.56,16.56,0,0,1-1.95-2.25c-.57-.86-1.14-1.25-2.19-.81-.77.32-1.64.39-2.45.64s-1.43.53-1.4,1.54a1.31,1.31,0,0,1-.48.8c-.71.7-1.46,1.36-2.19,2.05-1.26,1.17-2.47,2.4-3.79,3.5a2.53,2.53,0,0,0-.92,2.33c.13,2.39,0,4.76-1.44,6.8-.35.5-1.14,1.22-1.42,1.11a3.06,3.06,0,0,1-1.42-1.52c-1.33-2.92-2.58-5.87-3.82-8.82-.87-2.09-2-4.1-1.59-6.53.09-.52-.32-1.12-.48-1.6-.78.62-1.4,1.51-2,1.51s-1.48-.74-2.29-1.2l1.35-1.09a8.59,8.59,0,0,1-4.13-2.81,3.11,3.11,0,0,0-2.22-.8c-2.57-.08-5.14.11-7.7-.05a4.42,4.42,0,0,1-2.3-1.39,2,2,0,0,0-2.11-.63,5.57,5.57,0,0,1-5.62-2.52,6.31,6.31,0,0,0-1.52-1.8c-.93-.69-1.72-.25-1.81.92a2.17,2.17,0,0,0,.17,1.1c.66,1.36,1.38,2.69,2.09,4,.62,1.18,1.19.35,1.89-.24.35,1.51,1.27,2.61,2.69,2.14,1.14-.38,2-1.48,3.24-2.41-.27,1.59.6,2.31,1.71,2.88a3.78,3.78,0,0,1,.43.26c2.51,1.66,2.51,1.66.79,4.05-.66.92-1.23,1.92-1.95,2.79a5.36,5.36,0,0,1-3.29,2.19,3.31,3.31,0,0,0-1.6,1c-2.56,2.62-6,3.49-9.28,4.66a1.51,1.51,0,0,1-1.28-.63,5.62,5.62,0,0,1-.86-2.35c-.22-2.39-1.73-4.05-3-5.86-.63-.89-1.25-1.79-1.8-2.73-.92-1.54-1.76-3.13-2.67-4.69s-1.94-3.23-2.91-4.85l-.63-1-.6,1.57-1.92-2.13-.3.18a13.18,13.18,0,0,0,.62,1.55c1.62,2.92,3.26,5.82,4.89,8.72.1.19.27.38.27.57,0,2.93,2.5,4.71,3.38,7.24a4.33,4.33,0,0,0,1.43,1.57,11.57,11.57,0,0,1,3.78,4.82,2.18,2.18,0,0,0,2.7,1.36c2.18-.48,4.34-1,6.81-1.62a9.54,9.54,0,0,1-.36,2.87c-1.14,2.5-2.45,4.91-3.78,7.31a6,6,0,0,1-1.65,1.89c-2.77,2-4.86,4.67-7.06,7.23-2.36,2.76-2.93,5.83-1.24,9.05,1.12,2.1.9,4.35,1.12,6.53a3.6,3.6,0,0,1-2.34,3.5c-2.22.95-3.51,2.8-5,4.54a1.51,1.51,0,0,0-.23,1.83c1.24,2.73,1,3.61-1.69,4.94a2.21,2.21,0,0,0-1.29,2.6,2.14,2.14,0,0,1-.77,2.09c-1.86,1.88-3.56,3.94-5.42,5.82a11.11,11.11,0,0,1-2.52,1.66,2.06,2.06,0,0,1-1.34.24,9.77,9.77,0,0,0-4.86.38c-1.1.29-2.51-.62-2.39-1.73.22-2.25-1.07-3.89-2.14-5.53a14.19,14.19,0,0,1-1.92-5,32.81,32.81,0,0,0-2.46-7.78,8.4,8.4,0,0,1,0-8.54,5.73,5.73,0,0,0,.64-5.23,37.11,37.11,0,0,1-1-4,11.77,11.77,0,0,0-3.38-5.68c-1-.9-.88-2.1-.63-3.31a16.32,16.32,0,0,0,.46-3.24c0-2.23-1.35-3.35-3.55-3-.87.13-1.36.1-1.66-.93-.39-1.29-2.31-2-3.73-1.56-1.25.4-2.47.85-3.71,1.27a7.79,7.79,0,0,1-4,.45,7.88,7.88,0,0,0-3.21.48,5.05,5.05,0,0,1-4.56-.8,13.16,13.16,0,0,1-4.23-4.77,25.42,25.42,0,0,0-3.08-3.94,2.75,2.75,0,0,1-.71-1.34,5.39,5.39,0,0,0-.23-2A1.85,1.85,0,0,1,32,145a6.35,6.35,0,0,0,.42-5.84,3.35,3.35,0,0,1,.15-3c1.15-1.92,2.26-3.87,3.58-5.67A18.2,18.2,0,0,1,39,127.87c1-.88,2.06-1.7,2.24-3.22a5.2,5.2,0,0,1,2.23-3.4,18.76,18.76,0,0,0,2.43-2.37c.44-.51.77-.67,1.37-.31a4.36,4.36,0,0,0,4.79,0,12.41,12.41,0,0,1,7.67-1.6,10,10,0,0,0,3.25-.34c2.15-.56,2.87,0,2.56,2.32a2.32,2.32,0,0,0,1.92,2.94,8.32,8.32,0,0,1,4.38,2.24c.82.87,2.42,1.13,3.72,1.35.37.07,1.23-.89,1.34-1.48.35-1.77.8-2.17,2.54-1.61,1.92.62,3.8,1.42,5.76,1.87a24.54,24.54,0,0,0,4.13.2,20.89,20.89,0,0,1,2.37.23c1.57.26,2.35-.18,2.7-1.71.39-1.7.75-3.41,1-5.14,0-.28-.31-.74-.6-.92a1.2,1.2,0,0,0-1,0,4.16,4.16,0,0,1-4.19,0,1.75,1.75,0,0,0-1.2.08,2.81,2.81,0,0,1-3.66-1.75c-.31-.84-.68-1.65-1.08-2.62-.09.15-.06,0,0,0a55.46,55.46,0,0,1,7-2.46c1.33-.3,2.87.26,4.3.54.94.19,1.83.65,2.77.8a3.32,3.32,0,0,0,1.83-.32c1.29-.64,1.41-1.73.26-2.57-1.36-1-2.82-1.84-4.23-2.76l1-3.61-4.66,2,1.67,1c-.58.29-1.09.75-1.56.71s-1.43-.66-1.39-.83c.3-1.23-.87-1.22-1.38-1.63-.21-.18-1.1.22-1.49.57A8.49,8.49,0,0,0,85.09,109c-.11.6.4,1.3.68,2.13a25.25,25.25,0,0,0-2.88.19,19.18,19.18,0,0,0-3.36.92c-.15.06-.14,1,0,1.39.48,1,1,1.91.08,2.9a3.83,3.83,0,0,1-.56.4l-1.29-1.76,1.45-.73c-.71-.25-1.15-.42-1.59-.56a2.6,2.6,0,0,1-2-2.47,3.58,3.58,0,0,0-2.11-2.93c-1.69-1-3.31-2.11-5-3.12a3.15,3.15,0,0,0-1.18-.17c0,.44-.2,1.08,0,1.27,1.7,1.56,3.47,3.06,5.24,4.53a14,14,0,0,0,1.82,1h-2c-.22,1,.69,2.18-.83,2.7,0-2.27-1.27-3.36-3.36-4.15-1.22-.46-2.17-1.82-3-2.92-1.11-1.41-1.27-1.55-2.76-.66a5.49,5.49,0,0,1-3.73.87c-.95-.14-1.91,0-1.83,1.42,0,.23-.32.54-.57.7a7.11,7.11,0,0,0-3.58,4.17c-.45,1.62-2,2.41-3.72,2.6a13.71,13.71,0,0,0-2.3.67c-.93-.4-2.09-.84-3.18-1.4a1.36,1.36,0,0,1-.61-1,16.68,16.68,0,0,1,.13-2.64c.1-1,.33-2,.37-3,.05-1.54.55-2,2.09-1.85,1.34.14,2.68.31,4,.43s2.17-.14,2.48-1.55c.44-2,0-3.42-1.3-4.09-.51-.25-1-.53-1.8-.95,1.64-.49,3-.88,4.29-1.29a5.45,5.45,0,0,0,1.62-.62c1.41-1,2.72-2.23,4.16-3.24a13.8,13.8,0,0,1,3.18-1.67c1.41-.51,1.68-.81,1.22-2.16s-.17-2,1.47-2.8c0,.41-.08.76-.1,1.11s0,.65,0,1.14a9.5,9.5,0,0,1,1.53-.54c.28,0,.6.15.91.24-.22.31-.39.83-.66.9a6.08,6.08,0,0,1-1.68-.08c.49,1.18,1.17,1.79,2.45,1.22a.66.66,0,0,1,.49-.06c1.6.86,3.09.18,4.62-.27a2.39,2.39,0,0,1,1.12.07A2.26,2.26,0,0,0,76.38,91c0-1.46.12-1.56,1.48-1.29a4.46,4.46,0,0,0,1.39-.15c-.14-.42-.27-.86-.44-1.27a5.18,5.18,0,0,0-.48-.74c1.82-.89,4,.39,5.67-1.26-1.09-.75-2.19-.51-3.3-.46a9.6,9.6,0,0,1-3.31-.19c-1.51-.49-1.69-1.42-.85-2.77a17.42,17.42,0,0,0,1.34-2.15,3.7,3.7,0,0,0-.06-1.47c-.49.1-1.09,0-1.45.33-1.31,1-2.53,2.08-3.79,3.14s-1.29,2.27.22,3.24l.59.36c0,.16.07.27,0,.32-1,1.38-1.94,2.81-3.05,4.11C69,92.32,68,92.06,67.11,90.12a31.12,31.12,0,0,0-1.64-2.86c-.78.4-1.37.7-2,1a1.88,1.88,0,0,1-2.31-.41c-1.45-1.41-1.22-4,.65-4.58,3.69-1.22,5.85-4.16,8.31-6.79a2.37,2.37,0,0,1,.64-.59c4.67-2.12,9.37-3.46,14.3-.74a7.91,7.91,0,0,0,1.58.34c2.14.59,4.28,1.21,6.41,1.83.13,0,.22.23.59.63a8.18,8.18,0,0,1-2.24.57c-1.34-.08-2.67-.4-4-.57a15.41,15.41,0,0,0-1.83,0c1,1.1,1.82,2.06,2.74,2.88a2.54,2.54,0,0,0,3.38.39l-1.16-1A5.59,5.59,0,0,0,92,80.5,4.06,4.06,0,0,0,93.38,80c.52-.31.91-.91,1.46-1.09,1.67-.57,1.69-.51,1.29-2.49.61.28,1.22.36,1.42.69.61,1,1.34.84,2.18.46s1.6-.75,2.42-1.09a3.54,3.54,0,0,1,3-.13,3.48,3.48,0,0,0,1.6,0c1.13-.11,2.25-.25,3.43-.39.07-1.67-1.68-.42-2.1-1.51a10.73,10.73,0,0,1,1.64.16c2.41.61,4.8,1.28,7.22,1.86a4.77,4.77,0,0,0,1.44-.11l.11-.46c-.61-.38-1.24-.76-1.85-1.15-1.25-.81-1.59-1.7-1-2.45a2.1,2.1,0,0,1,3.13-.06,24.6,24.6,0,0,1,3,4c.31.56-.17,1.58-.31,2.51.93.34,1.65-.29,2.2-1.09a1.61,1.61,0,0,0-.43-2.26c-.46-.42-1.07-.69-1.5-1.14a9.26,9.26,0,0,1-.92-1.68c2.27.59,3.59-.53,5-1.4a8.74,8.74,0,0,1,2.37-.74c.6-.14,1.22-.19,1.92-.29l-.38-1.5a55.12,55.12,0,0,1,6.43-.6,3.92,3.92,0,0,0,3.3-1.56l-.06-.4-2.74.22a8.12,8.12,0,0,0-1.94-.87c-1.88-.25-3.78-.37-5.67-.56a9.14,9.14,0,0,1-1.26-.31,2.21,2.21,0,0,1,2.69-.85c2.58.56,5.16,1.11,7.72,1.73a18.3,18.3,0,0,1,3.3,1.11,12.51,12.51,0,0,0,5.57.85,4.12,4.12,0,0,1,3.59,1.32l-2.73,1.87.09.37c.57-.06,1.14-.16,1.71-.17,1.33,0,2.65,0,4,0,2.38.11,4.82.7,7.11.33A11.89,11.89,0,0,1,170,73a3,3,0,0,0,3.07.33c.87-.33,2,0,3,0s2.26.3,2.4-1.35c0-.14.37-.32.59-.35a4.75,4.75,0,0,1,1.5-.06c2.56.5,5.09,1.11,7.66,1.56,1.65.29,3.35.34,5,.56,2,.27,4,.67,6.08.91,1.67.19,3.36.19,5,.36s3.07.42,4.61.64l1.1.16-.63-1.42c2.5.34,4.82.48,7.05,1,3.69.85,7.32,1.94,11,2.92a2,2,0,0,0,1,.16c2.11-.75,3.29.65,4.57,1.85ZM113.33,105.51a2.52,2.52,0,0,0-3.68-2.15,16.43,16.43,0,0,0-3.29,2.5,1.1,1.1,0,0,0-.08,1.06c.92,1.29,2,2.48,2.87,3.79a3.16,3.16,0,0,1,.7,2.09c-.54,2.4.73,3.43,2.68,4.11a9.34,9.34,0,0,0,.91.43,2,2,0,0,0,1,0c1.44-.57,1.77-2.28.78-3.68-.41-.56-.76-1.15-1-1.56l1.48-.91c-.4-.57-1-1.67-1.19-1.61-1,.28-1.46-.46-2.09-.84-.88-.52-2.16-.92-1.77-2.26S112.27,105.36,113.33,105.51Z"/><path class="cls-6" d="M78.55,210a13.5,13.5,0,0,0,3-5.17"/><path class="cls-7" d="M85.49,194.11c2.48-4.72,5.29-9.78,4-13.61a107.52,107.52,0,0,1-5.31-27.86c-.69-12.14-2.32-12.23,0-17.18s10.31-13,15.31-13,29.56-.18,32.78-5.09S156.5,100.5,165.5,93.5s23-14,29-14h13.23"/><path class="cls-6" d="M213.5,79.5h6"/></svg>