<svg id="Layer_1" data-name="Layer 1" xmlns="http://www.w3.org/2000/svg" viewBox="0 0 256 256"><defs><style>.cls-1{fill:#4f6e00;}.cls-2{fill:#f2e3c0;}.cls-3{fill:#fff;}</style></defs><path class="cls-1" d="M127.68,0A128,128,0,0,0,77.86,245.94,128,128,0,0,0,177.51,10.06,127.31,127.31,0,0,0,127.68,0Z"/><circle class="cls-2" cx="127.68" cy="128" r="99"/><circle class="cls-3" cx="127.68" cy="128" r="57.94"/><path class="cls-1" d="M62.92,95.91a9.73,9.73,0,0,1-1.71-1.27A7.82,7.82,0,0,1,59.87,93a6.72,6.72,0,0,1-.82-1.85,4.86,4.86,0,0,1-.12-2,5.27,5.27,0,0,1,.73-2.06,7.88,7.88,0,0,1,1.5-1.84A5.56,5.56,0,0,1,63,84l1.24,2.19a7.31,7.31,0,0,0-1.26,1,6.06,6.06,0,0,0-1,1.26,1.65,1.65,0,0,0-.23,1,2.66,2.66,0,0,0,.36,1.08,5.65,5.65,0,0,0,.74,1,9.08,9.08,0,0,0,.9.87,7,7,0,0,0,.87.61c.27.16.55.31.83.44a6.67,6.67,0,0,0,.93.37,3.94,3.94,0,0,0,1,.22,4.13,4.13,0,0,0,.93,0,1.8,1.8,0,0,0,.85-.34,2.32,2.32,0,0,0,.68-.74,4.12,4.12,0,0,0,.45-1l-3.69-2.17,1.61-2.74,5.49,3.24a8.94,8.94,0,0,1-.52,2,12.73,12.73,0,0,1-1,2,5.91,5.91,0,0,1-1.48,1.71,4.92,4.92,0,0,1-1.8.9,6.28,6.28,0,0,1-2,.16,8.13,8.13,0,0,1-2-.42A10.59,10.59,0,0,1,62.92,95.91Z"/><path class="cls-1" d="M75,89.45l-10.68-9,2.36-2.8a9.11,9.11,0,0,1,1.6-1.53,5.87,5.87,0,0,1,1.73-.91A3.57,3.57,0,0,1,72,75.14a4.9,4.9,0,0,1,2,1,4.48,4.48,0,0,1,1.43,2.17,4,4,0,0,1,0,2.55l4.79.21,1.13,1L79.47,84.2l-6-.43,3.74,3.15Zm-3.53-7.29a3.3,3.3,0,0,0,.65-.53,1.77,1.77,0,0,0,.45-1.5,2.28,2.28,0,0,0-.86-1.39,1.75,1.75,0,0,0-1.35-.54,2.07,2.07,0,0,0-1.25.83l-.56.67Z"/><path class="cls-1" d="M82.08,81.39,72.92,70.84,79,65.53l1.86,2.14-3.62,3.15,1.6,1.84,2.79-2.42,1.89,2.17-2.79,2.42,1.92,2.22,3.81-3.31,1.89,2.17Z"/><path class="cls-1" d="M89.47,75.15,82,63.38,88.79,59l1.53,2.39-4,2.58,1.31,2.06,3.11-2,1.55,2.43-3.11,2L90.71,71,95,68.24l1.55,2.43Z"/><path class="cls-1" d="M97.67,70,92.2,57.16l3.27-1.4,4.39,4.12a7,7,0,0,1,.64.67,6.82,6.82,0,0,1,.49.61l.16.24-2.9-6.82,3-1.29,5.47,12.85L104,67.33,97.3,61.18a9.33,9.33,0,0,1,.87,1.58l2.54,6Z"/><path class="cls-1" d="M114.65,63.82l-1.28-13.91,3.57-.32,3.87,8.17a4.66,4.66,0,0,1,.24.6c.08.24.13.44.17.6l.06.22a8.16,8.16,0,0,1,.2-1.49L123.77,49l3.6-.33,1.28,13.91-3.29.3-.56-6.09,0-1.7-1.91,8-2.54.24L117,55.77l.36,1.66.56,6.09Z"/><path class="cls-1" d="M130.71,57.74a12.8,12.8,0,0,1,.06-2,11.59,11.59,0,0,1,.4-1.91A9,9,0,0,1,132,52a7.12,7.12,0,0,1,1.2-1.6,4.62,4.62,0,0,1,1.68-1,4.81,4.81,0,0,1,2.16-.22,4.74,4.74,0,0,1,3.45,2.1,7.24,7.24,0,0,1,.8,1.83,9.81,9.81,0,0,1,.34,2,12.63,12.63,0,0,1-.06,1.95,11.49,11.49,0,0,1-.4,1.92,9.18,9.18,0,0,1-.79,1.88,7.08,7.08,0,0,1-1.21,1.6,4.56,4.56,0,0,1-1.68,1,4.68,4.68,0,0,1-2.16.22,4.77,4.77,0,0,1-2-.71,4.6,4.6,0,0,1-1.39-1.39,6.94,6.94,0,0,1-.8-1.83A9.61,9.61,0,0,1,130.71,57.74Zm3.48-2.56c-.05.28-.09.61-.14,1s-.07.71-.09,1,0,.62,0,1a4.71,4.71,0,0,0,.09,1,4,4,0,0,0,.27.8,1.44,1.44,0,0,0,.52.62,1.78,1.78,0,0,0,.81.28,1.72,1.72,0,0,0,.86-.09,1.41,1.41,0,0,0,.65-.49,4.61,4.61,0,0,0,.46-.72,5.13,5.13,0,0,0,.32-.94c.08-.36.15-.69.2-1s.09-.62.14-1,.07-.72.09-1,0-.63,0-1a4.14,4.14,0,0,0-.1-1,4,4,0,0,0-.27-.8,1.44,1.44,0,0,0-.52-.62,1.79,1.79,0,0,0-.81-.29,1.72,1.72,0,0,0-.86.09,1.48,1.48,0,0,0-.65.49,4.37,4.37,0,0,0-.45.72,4.65,4.65,0,0,0-.32.94C134.31,54.57,134.24,54.89,134.19,55.18Z"/><path class="cls-1" d="M143.68,59l2.47-8,3.15,1-2.46,8a5.09,5.09,0,0,0-.31,2.35,1.53,1.53,0,0,0,2.49.77A5.15,5.15,0,0,0,150.1,61l2.46-8,3.16,1-2.47,8a8.46,8.46,0,0,1-.64,1.57,6.28,6.28,0,0,1-1,1.37,5.09,5.09,0,0,1-1.27,1,4.18,4.18,0,0,1-1.65.45,5.26,5.26,0,0,1-2-.25,5.35,5.35,0,0,1-1.8-.91,4.16,4.16,0,0,1-1.1-1.31,4.9,4.9,0,0,1-.48-1.56,6.61,6.61,0,0,1,0-1.66A10.41,10.41,0,0,1,143.68,59Z"/><path class="cls-1" d="M153.36,68l6.45-12.39L163,57.22l-.39,6a8.46,8.46,0,0,1-.11.92c-.06.32-.11.58-.16.77l-.08.27,3.42-6.56,2.93,1.52-6.46,12.39-2.69-1.41.52-9.06a8.79,8.79,0,0,1-.67,1.68l-3,5.74Z"/><path class="cls-1" d="M169.56,64.21l1.71-2.31,6.83,5-1.71,2.32-2.11-1.56-6.59,8.91-2.66-2,6.61-8.9Z"/><path class="cls-1" d="M169.17,77.53l12.55-7.27,2.33,2.28-6.94,12.73-2.46-2.39,1.5-2.56-2-1.95-2.51,1.57Zm7.05-.78,1.5,1.46,2.21-3.78Z"/><path class="cls-1" d="M177.43,86l10.89-8.75,2.06,2.57L179.5,88.55Z"/><path class="cls-1" d="M180.72,89.93l11.92-7.28,1.86,3-3.43,4.94a8.11,8.11,0,0,1-.57.72,6.84,6.84,0,0,1-.54.58l-.21.2,6.32-3.86,1.72,2.82-11.92,7.27-1.58-2.59,5.12-7.49A8.94,8.94,0,0,1,188,89.37l-5.53,3.38Z"/><circle class="cls-1" cx="127.68" cy="128" r="32.91"/><path class="cls-1" d="M105.77,90.15a9.47,9.47,0,0,1-.63-2A7.8,7.8,0,0,1,105,86a7.26,7.26,0,0,1,.41-2,5.08,5.08,0,0,1,1-1.72,5.23,5.23,0,0,1,1.77-1.24,8.5,8.5,0,0,1,2-.6,4.71,4.71,0,0,1,1.92,0L111.93,83a5.65,5.65,0,0,0-2.59.56,1.72,1.72,0,0,0-.9,1,3.34,3.34,0,0,0-.24,1.5,9.77,9.77,0,0,0,.21,1.56,7,7,0,0,0,.42,1.31c.13.29.27.57.41.84s.32.54.52.84a3.8,3.8,0,0,0,.66.76,5.38,5.38,0,0,0,.75.53,2.06,2.06,0,0,0,.89.23,2.42,2.42,0,0,0,1-.21,5.16,5.16,0,0,0,2.07-1.79l2.21,1.43A5.72,5.72,0,0,1,116,93.24a7.49,7.49,0,0,1-1.87,1.24,5.83,5.83,0,0,1-2.2.52,5,5,0,0,1-2-.34,6.53,6.53,0,0,1-1.68-1,8,8,0,0,1-1.41-1.55A11.35,11.35,0,0,1,105.77,90.15Z"/><path class="cls-1" d="M118.53,92.54l-2.32-13.78,3.17-.53,1.85,11,3.9-.66.47,2.8Z"/><path class="cls-1" d="M126.8,85.67l.81-8.37,3.29.32L130.09,86a5,5,0,0,0,.17,2.36,1.53,1.53,0,0,0,2.59.25,5,5,0,0,0,.63-2.29l.81-8.36,3.29.32-.81,8.36a8.67,8.67,0,0,1-.32,1.67,6.44,6.44,0,0,1-.66,1.53,4.64,4.64,0,0,1-1,1.26,4,4,0,0,1-1.52.77,5.77,5.77,0,0,1-3.95-.38,4,4,0,0,1-1.34-1,5,5,0,0,1-.79-1.43,6.82,6.82,0,0,1-.36-1.63A9.7,9.7,0,0,1,126.8,85.67Z"/><path class="cls-1" d="M137.87,92.33l5.27-12.57,4.12,1.73a7.1,7.1,0,0,1,1.52.86,4.44,4.44,0,0,1,1.05,1.12,2.81,2.81,0,0,1,.44,1.44,3.89,3.89,0,0,1-.34,1.71,3.06,3.06,0,0,1-1.13,1.3,2.22,2.22,0,0,1-1.58.47,2.84,2.84,0,0,1,1.24,1.77,3.4,3.4,0,0,1-.13,2.21,4.56,4.56,0,0,1-1.22,1.71,4,4,0,0,1-1.72.89,6.08,6.08,0,0,1-2,.11,7.62,7.62,0,0,1-2-.53,10.29,10.29,0,0,1-1.27-.68l-1.08-.69Zm3.87-.69a6.46,6.46,0,0,0,.65.43,2.59,2.59,0,0,0,1.74.18,1.84,1.84,0,0,0,1.15-1.16,1.66,1.66,0,0,0,.15-.72,1.32,1.32,0,0,0-.15-.56,1.41,1.41,0,0,0-.41-.45,3.69,3.69,0,0,0-.53-.33c-.16-.07-.36-.17-.61-.27l-.66-.28Zm2.31-5.52.67.28a2,2,0,0,0,1.24.16,1.44,1.44,0,0,0,.85-.93,1.24,1.24,0,0,0,.07-1,1.15,1.15,0,0,0-.68-.63l-1.08-.45Z"/><path class="cls-1" d="M109.26,171.5V169c.39,0,.77,0,1.12,0s.61-.07.79-.1l1.07-.19h2.38v10.87h-3.18v-8Z"/><path class="cls-1" d="M118,173.6a7.93,7.93,0,0,1,.23-2,5.77,5.77,0,0,1,.74-1.68,3.53,3.53,0,0,1,1.37-1.19,4.41,4.41,0,0,1,2-.43,4.12,4.12,0,0,1,1.75.36,3.65,3.65,0,0,1,1.3,1,5,5,0,0,1,.86,1.38,7.55,7.55,0,0,1,.5,1.64,9.71,9.71,0,0,1,.15,1.71,7.47,7.47,0,0,1-.42,2.51,7.72,7.72,0,0,1-1.08,2.08,10.48,10.48,0,0,1-1.64,1.71,15.66,15.66,0,0,1-2,1.39,24.23,24.23,0,0,1-2.17,1.12l-1-2.09a17.15,17.15,0,0,0,2.6-1.71,7.62,7.62,0,0,0,1.85-2.06,4,4,0,0,1-1.46.42,3.24,3.24,0,0,1-2.62-1.22A4.44,4.44,0,0,1,118,173.6Zm3.1-.06a2,2,0,0,0,.32,1.2,1.26,1.26,0,0,0,1.07.41,3.82,3.82,0,0,0,1.21-.31,6.43,6.43,0,0,0,.1-.89,4.75,4.75,0,0,0-.07-.81,7.85,7.85,0,0,0-.2-1,1.88,1.88,0,0,0-.45-.85,1,1,0,0,0-.73-.34,1.15,1.15,0,0,0-.46.1,1.08,1.08,0,0,0-.33.24,1.43,1.43,0,0,0-.23.39c-.06.17-.1.31-.13.43a3.74,3.74,0,0,0-.07.5c0,.21,0,.36,0,.46Z"/><path class="cls-1" d="M129.2,171.5V169c.4,0,.77,0,1.12,0s.62-.07.8-.1l1.07-.19h2.37v10.87h-3.17v-8Z"/><path class="cls-1" d="M138.21,176.22a9.31,9.31,0,0,1,0-4.37A6.17,6.17,0,0,1,139,170a3.71,3.71,0,0,1,1.41-1.28,4.21,4.21,0,0,1,2-.47,4.14,4.14,0,0,1,2,.47,3.71,3.71,0,0,1,1.41,1.28,5.91,5.91,0,0,1,.78,1.81,9,9,0,0,1,0,4.37,6.19,6.19,0,0,1-.78,1.84,3.81,3.81,0,0,1-1.41,1.29,4.25,4.25,0,0,1-2,.47,4.32,4.32,0,0,1-2-.47,3.81,3.81,0,0,1-1.41-1.29A6.48,6.48,0,0,1,138.21,176.22Zm3.08-4.45a5,5,0,0,0-.41,2.27,5.13,5.13,0,0,0,.41,2.28,1.24,1.24,0,0,0,2.31,0A5.15,5.15,0,0,0,144,174a5,5,0,0,0-.4-2.27,1.25,1.25,0,0,0-2.31,0Z"/><path class="cls-1" d="M82.2,177.32l2.8,2.19-3.29,7c-.18.38-.5,1-1,1.75.63-.61,1.12-1.06,1.48-1.34l6-4.89L91,184.19l-11.71,8.58-2.56-2Z"/><path class="cls-1" d="M88.47,198.81l6.18-12.53,7.27,3.59-1.26,2.54-4.3-2.12-1.08,2.18,3.31,1.64-1.27,2.58L94,195.06l-1.3,2.63,4.52,2.23L96,202.5Z"/><path class="cls-1" d="M103.17,205.17l3.49-13.52,3.54.91a10.5,10.5,0,0,1,2.08.78,6.13,6.13,0,0,1,1.57,1.17,3.52,3.52,0,0,1,.88,1.7,4.7,4.7,0,0,1-.09,2.22,4.54,4.54,0,0,1-1.34,2.23,4.07,4.07,0,0,1-2.31,1.08l1.88,4.4-.37,1.44-2.69-.69-2.22-5.63L106.36,206Zm5-6.33a3.19,3.19,0,0,0,.76.35,1.77,1.77,0,0,0,1.54-.24,2.33,2.33,0,0,0,.89-1.38,1.78,1.78,0,0,0-.1-1.45,2.13,2.13,0,0,0-1.29-.77l-.84-.21Z"/><path class="cls-1" d="M120.17,208.72l.23-14,3.58.06,3,8.54a3.52,3.52,0,0,1,.17.63c0,.25.09.45.11.61l0,.23a7.23,7.23,0,0,1,.36-1.46l3.22-8.44,3.61.06-.22,14-3.31-.06.1-6.11.2-1.69-2.75,7.76-2.56,0L123.4,201l.17,1.69-.09,6.12Z"/><path class="cls-1" d="M141.23,202.78a12.27,12.27,0,0,1-.64-1.85,11.26,11.26,0,0,1-.31-1.93,9.38,9.38,0,0,1,.07-2,7.15,7.15,0,0,1,.55-1.92,4.67,4.67,0,0,1,1.2-1.56,5.07,5.07,0,0,1,4.11-1,4.62,4.62,0,0,1,1.8.8,6.8,6.8,0,0,1,1.4,1.43,9.13,9.13,0,0,1,1,1.76,11.25,11.25,0,0,1,.64,1.85,12.34,12.34,0,0,1,.32,1.93,9.44,9.44,0,0,1-.08,2,6.81,6.81,0,0,1-.56,1.92,4.31,4.31,0,0,1-1.2,1.55,5,5,0,0,1-4.11,1,4.49,4.49,0,0,1-1.79-.79,7,7,0,0,1-1.4-1.43A9.67,9.67,0,0,1,141.23,202.78Zm2.34-3.64c.06.28.13.61.22,1s.19.69.27,1,.2.59.33.95a4.23,4.23,0,0,0,.44.88,3.72,3.72,0,0,0,.54.66,1.44,1.44,0,0,0,.7.39,1.68,1.68,0,0,0,.86,0,1.81,1.81,0,0,0,.77-.39,1.38,1.38,0,0,0,.43-.69,4.17,4.17,0,0,0,.17-.84,4.24,4.24,0,0,0,0-1c-.05-.37-.1-.7-.16-1s-.13-.61-.22-1-.18-.7-.27-1-.19-.59-.33-.94a4,4,0,0,0-.44-.88,4.32,4.32,0,0,0-.54-.66,1.47,1.47,0,0,0-.71-.39,1.68,1.68,0,0,0-.86,0,1.81,1.81,0,0,0-.77.39,1.4,1.4,0,0,0-.43.68,4,4,0,0,0-.17.84,5,5,0,0,0,0,1C143.46,198.54,143.51,198.86,143.57,199.14Z"/><path class="cls-1" d="M160.23,202.18l-6.39-12.42,3.17-1.63,4.67,3.78c.22.18.45.39.68.62a7.75,7.75,0,0,1,.54.58l.18.22-3.39-6.58,2.94-1.51L169,197.66l-2.71,1.39-7.09-5.65a8.31,8.31,0,0,1,1,1.51l3,5.76Z"/><path class="cls-1" d="M168.17,185l-1.8-2.24,6.6-5.33,1.81,2.24-2,1.65,7,8.62L177.14,192l-6.95-8.64Z"/><polygon class="cls-1" points="213.95 109.4 10.35 109.4 28.98 128 10.35 146.6 213.95 146.6 247.22 128 213.95 109.4"/><path class="cls-3" d="M214,109.4,247.22,128,214,146.6H10.35L29,128,10.35,109.4H214m1.1-4.29H0l7.36,7.34L22.93,128,7.36,143.55,0,150.89H215.05l1-.54,33.26-18.6L256,128l-6.72-3.75L216,105.65l-1-.54Z"/><path class="cls-3" d="M39.34,140.6V114.53h6V135.3h7.38v5.3Z"/><path class="cls-3" d="M54.59,131.2a20.81,20.81,0,0,1,0-7.27,16.84,16.84,0,0,1,1.06-3.66,12.8,12.8,0,0,1,1.88-3.22,8.6,8.6,0,0,1,2.88-2.27,9.33,9.33,0,0,1,7.91,0,8.44,8.44,0,0,1,2.89,2.27,12.51,12.51,0,0,1,1.88,3.22,16.92,16.92,0,0,1,1.08,3.66,21.47,21.47,0,0,1,0,7.27,17.25,17.25,0,0,1-1.08,3.66,12.68,12.68,0,0,1-1.88,3.22,8.42,8.42,0,0,1-2.89,2.26,9.33,9.33,0,0,1-7.91,0,8.57,8.57,0,0,1-2.88-2.26,13,13,0,0,1-1.88-3.22A17.17,17.17,0,0,1,54.59,131.2Zm5.89-5.51c0,.54,0,1.16,0,1.87s0,1.34,0,1.88.08,1.16.16,1.87a8.42,8.42,0,0,0,.38,1.8,7.71,7.71,0,0,0,.68,1.42,2.77,2.77,0,0,0,1.1,1.05,3.4,3.4,0,0,0,1.57.35,3.46,3.46,0,0,0,1.57-.35A2.77,2.77,0,0,0,67,134.52a7.93,7.93,0,0,0,.69-1.44,8.06,8.06,0,0,0,.39-1.8c.08-.7.14-1.32.17-1.86s0-1.16,0-1.86,0-1.34,0-1.88-.09-1.15-.17-1.86a7.84,7.84,0,0,0-.39-1.79,7.93,7.93,0,0,0-.69-1.44,2.79,2.79,0,0,0-1.09-1,3.46,3.46,0,0,0-1.57-.35,3.4,3.4,0,0,0-1.57.35,2.75,2.75,0,0,0-1.1,1A7.88,7.88,0,0,0,61,122a8.56,8.56,0,0,0-.38,1.8C60.56,124.54,60.5,125.16,60.48,125.69Z"/><path class="cls-3" d="M78,140.6V114.53H84.6l4.53,10.26a15.77,15.77,0,0,1,.61,1.62c.18.59.32,1.07.4,1.42l.1.52V114.53H96.4V140.6H90.73l-7-15.44a16.35,16.35,0,0,1,.35,3.35V140.6Z"/><path class="cls-3" d="M99.82,127.56a18.13,18.13,0,0,1,.43-4,15,15,0,0,1,1.36-3.7,13.14,13.14,0,0,1,2.21-3.08,9.47,9.47,0,0,1,3.13-2.1,10.12,10.12,0,0,1,4-.78,16,16,0,0,1,4.39.67,10.61,10.61,0,0,1,3.78,1.86l-2.37,4.06a13.21,13.21,0,0,0-2.85-1,12,12,0,0,0-3-.4,3.16,3.16,0,0,0-1.9.63,5.47,5.47,0,0,0-1.42,1.6,11.25,11.25,0,0,0-.94,2.16,14.51,14.51,0,0,0-.54,2.27,13.24,13.24,0,0,0-.17,2c0,.6,0,1.18.08,1.76a17,17,0,0,0,.29,1.84,7.9,7.9,0,0,0,.57,1.78,7.67,7.67,0,0,0,.92,1.48,3.61,3.61,0,0,0,1.35,1.06A4.38,4.38,0,0,0,111,136a7.27,7.27,0,0,0,2-.18v-8h5.93v11.88a16.54,16.54,0,0,1-3.81,1.11,24.55,24.55,0,0,1-4.16.38,11,11,0,0,1-4.15-.75,9.17,9.17,0,0,1-3.15-2.06,11.31,11.31,0,0,1-2.15-3,15.29,15.29,0,0,1-1.28-3.7A20.15,20.15,0,0,1,99.82,127.56Z"/><path class="cls-3" d="M133.22,119.9v-5.37h15.84v5.37h-4.89v20.7H138l0-20.7Z"/><path class="cls-3" d="M151.71,140.6V114.53h6.83a18,18,0,0,1,4.11.43,11.16,11.16,0,0,1,3.39,1.39,6.5,6.5,0,0,1,2.39,2.66,8.77,8.77,0,0,1,.86,4,8.46,8.46,0,0,1-1.37,4.66,7.55,7.55,0,0,1-3.68,3l5.46,7.08v2.78h-5.18l-6.64-9.13v9.13Zm6.17-13.81a5.54,5.54,0,0,0,1.53.28,3.31,3.31,0,0,0,2.68-1.14,4.36,4.36,0,0,0,1-2.91,3.35,3.35,0,0,0-.86-2.58,3.92,3.92,0,0,0-2.7-.78h-1.61Z"/><path class="cls-3" d="M170.61,140.6l7.29-26.07H184l7.32,26.07h-6.41l-1.33-5.38h-5.22L177,140.6Zm8.4-10.23h3.9l-2-7.94Z"/><path class="cls-3" d="M193.32,140.6V114.53h6.16V140.6Z"/><path class="cls-3" d="M203.4,140.6V114.53h6V135.3h7.38v5.3Z"/></svg>