<svg id="Layer_1" data-name="Layer 1" xmlns="http://www.w3.org/2000/svg" viewBox="0 0 256 256"><defs><style>.cls-1{fill:#232a2b;}.cls-2{fill:#30332b;}.cls-3{fill:#e5e2e7;}.cls-4,.cls-5{fill:#616b7c;}.cls-4{opacity:0.27;}</style></defs><circle class="cls-1" cx="128.2" cy="128" r="120.74"/><path class="cls-2" d="M128.2,7.26A120.74,120.74,0,1,1,7.46,128,120.74,120.74,0,0,1,128.2,7.26m0-7.26A128,128,0,0,0,78.38,245.94,128,128,0,0,0,178,10.06,127.35,127.35,0,0,0,128.2,0Z"/><polygon class="cls-3" points="203.6 69.53 202.13 65.08 197.7 63.6 201.68 61.68 203.6 57.68 205.18 62.02 209.5 63.6 204.84 64.85 203.6 69.53"/><polygon class="cls-3" points="37.02 127.4 36.11 124.66 33.38 123.75 35.84 122.57 37.02 120.11 37.99 122.78 40.65 123.75 37.78 124.52 37.02 127.4"/><polygon class="cls-3" points="101.24 214.21 102.71 218.66 107.14 220.13 103.16 222.05 101.24 226.05 99.66 221.71 95.34 220.13 100 218.88 101.24 214.21"/><ellipse class="cls-3" cx="126.84" cy="126.12" rx="72.62" ry="72.91"/><polygon class="cls-3" points="195.2 202.36 196.67 206.81 201.1 208.28 197.12 210.21 195.2 214.21 193.62 209.87 189.3 208.28 193.96 207.04 195.2 202.36"/><polygon class="cls-3" points="37.7 188.23 38.6 190.97 41.33 191.88 38.88 193.06 37.7 195.52 36.73 192.85 34.07 191.88 36.93 191.11 37.7 188.23"/><polygon class="cls-3" points="222.72 127.42 221.56 123.89 218.03 122.72 221.2 121.19 222.72 118.01 223.97 121.46 227.41 122.72 223.71 123.71 222.72 127.42"/><polygon class="cls-3" points="145.72 19.63 147.19 24.08 151.63 25.56 147.64 27.48 145.72 31.48 144.15 27.14 139.82 25.56 144.49 24.31 145.72 19.63"/><polygon class="cls-3" points="31.8 78.41 32.7 81.15 35.43 82.06 32.98 83.24 31.8 85.7 30.82 83.03 28.16 82.06 31.03 81.29 31.8 78.41"/><path class="cls-4" d="M126.84,53.21A72.13,72.13,0,0,0,83.16,67.87a73,73,0,0,0,49.13,126.6A72.1,72.1,0,0,0,176,179.81a73,73,0,0,0-49.12-126.6Z"/><ellipse class="cls-5" cx="95.55" cy="103.69" rx="15.64" ry="15.7"/><ellipse class="cls-5" cx="115.67" cy="141.82" rx="3.35" ry="3.36"/><ellipse class="cls-5" cx="152.12" cy="151.01" rx="7.82" ry="7.85"/><ellipse class="cls-5" cx="122.61" cy="173.83" rx="11.17" ry="11.22"/><ellipse class="cls-5" cx="81.8" cy="152.55" rx="4.47" ry="4.49"/><ellipse class="cls-5" cx="115.67" cy="63.31" rx="5.59" ry="5.61"/><ellipse class="cls-5" cx="149.18" cy="87.98" rx="7.82" ry="7.85"/><ellipse class="cls-5" cx="183.82" cy="126.12" rx="5.59" ry="5.61"/></svg>