<svg id="Layer_1" data-name="Layer 1" xmlns="http://www.w3.org/2000/svg" viewBox="0 0 256 256"><defs><style>.cls-1{fill:#00aef2;}.cls-2{fill:#774e0c;}.cls-3{fill:#134f4d;}.cls-4{fill:#1d1d1b;}.cls-5{fill:#fff;}</style></defs><path class="cls-1" d="M127.68,0A128,128,0,0,0,77.86,245.94,128,128,0,0,0,177.51,10.06,127.31,127.31,0,0,0,127.68,0Z"/><path class="cls-2" d="M158.81,252.19a128.07,128.07,0,0,0,18.7-242.13A128.53,128.53,0,0,0,90.17,5.59Z"/><path class="cls-3" d="M92.2,5a127.75,127.75,0,0,0-55,32.51A128,128,0,0,0,160.87,251.65Z"/><path class="cls-4" d="M127.61,7.65A120.74,120.74,0,1,1,6.88,128.39,120.73,120.73,0,0,1,127.61,7.65m0-7.26a128,128,0,0,0-90.5,218.5A128,128,0,1,0,177.44,10.45,127.13,127.13,0,0,0,127.61.39Z"/><g id="_6rCQyJ" data-name="6rCQyJ"><path class="cls-5" d="M121.09,68.92c-1.11-4.29-1.88-7.29-2.65-10.3l1.13-.32c2.39,4,4.77,8,7.57,12.67,2-3.85,4.12-6.26.39-9.73-2.33-2.18-3.6-5.74-.61-9.73l.92,3.77c2.16-1.27,4.28-2.61,6.49-3.77a2,2,0,0,1,1.85.29c3.3,4.5,6.49,9.09,9.76,13.63.82,1.15,1.82,2.18,2.69,3.29,1.07,1.37,2.09,2.78,3.13,4.17l-.93,1-3.71-1.44c.2,3.12.38,6,.65,10.09l-9.55-6.71c1.93-1.76,5.57-4.31,3.17-7.86-1.86-2.75-3.68-8.38-8.66-5.24L130.64,74l-1.12-.2,1.29,4.07c-1.1-.43-2.73-1.54-3.21-1.17-2.69,2-5.65,4.09-7.43,6.84-1.91,2.93-.72,6.5,2.2,8.32,4.08,2.54,9.35,3.47,10.7,9.21.08.34,1.8.76,2,.52a5.15,5.15,0,0,0,1-2.55c.66-5.35,1.22-10.71,1.85-16.33,3.43-1,5,1,6.05,3.94,1.3,3.55,3.12,4.92,5.92.51,3.53,6.62,6.94,13,10.4,19.54-3.62.36-3.62.36-3.34-6.27-3.27,2.82-5.75,4.86-8,7.12-.13.14,1.48,2,2.43,3.3-.17.13-.72.87-1.18.82-7.7-.77-9.44,5.47-12.33,10.36-.58,1-.92,2.28-1.76,2.9-3.22,2.38-4.39,5.23-1.82,10.24l-17.76,1.65c.48,1.61,1.21,4.07,2.24,7.58,4.06-4.47,6.68-6.11,8.67-.37a15.64,15.64,0,0,0,4.12,6c1.21,1.14,4.24,2.35,4.87,1.78,5-4.54,10.18-1.33,14.62.11,4.59,1.5,8.41,5.3,12.64,8,2.61,1.65,5.19,3.54,8.05,4.51,6.35,2.17,7.12,3.68,4,9.3-.69,1.25-.74,2.84-1.13,4.25-.82,3-1.4,5.93-5.3,7.05-1.8.51-3,3.1-4.46,4.8-2.25,2.66-4.86,5.11-6.57,8.09-3.51,6.07-12.93,8.5-11,18,.28,1.37-2.17,3.12-2.28,4.77-.13,1.95.9,4,1.32,5.58-9-5.85-6.55-8.27-5.05-15.78,1.83-9.17,2.27-18.63,3.14-28a5.83,5.83,0,0,0-1.3-3.57c-2.51-3.39-5.86-6.33-7.59-10-1.09-2.34-.66-6.13.5-8.61,2.22-4.77,1.94-6.13-3-7.31a7.83,7.83,0,0,1-3.77-2.23,16.73,16.73,0,0,0-11.94-5.64c-3.28-.22-6.5-1.42-9.7-2.37-.08,0,.5-2.27,1-4.67.15.2-.44-1.41-1.18-1.48-8.51-.81-10.61-8.49-14.87-13.78-.87-1.09-1.07-2.91-1.17-4.42-.37-5.33.71-10.83-3.2-15.54S81.06,92.49,76.57,88.31c-2.33-2.16-6.9-2.91-10.31-2.61-2.85.25-5.48,3-8.4,4.69-1.9-1.27-5-2.57-7-4.87-3.56-4.12,2.78-4.85,3.77-8l-6.3-2.11.07-1.49,5.73-1-4.25-5.58a40.69,40.69,0,0,1,2.86-3.87c2.48-2.73,5.17-4.27,9.18-2.64,4.85,2,9.95,3.36,14.94,5,.47.16,1.12.5,1.41.32,6.83-4.35,13.56-1.88,20.33.17a12.12,12.12,0,0,0,2.66,0l-2.58-3.21,2.23-1L95,55.15l-2.53,3c-2.46-2-2.46-2-.67-10.25,2.24,1.16,4.75,1.8,6.32,3.38,4.76,4.78,5.46,5,9.94.9,1.05,3,2.48,6.15,3.15,9.45.3,1.5-.9,3.32-1.76,6.1C111.93,72.25,116.45,66.87,121.09,68.92Z"/><path class="cls-5" d="M121.17,28.88h17.27c-1.41,3.65-2.73,7-4.2,10.81H126c.14-.78.06-1.36.31-1.64,3.66-4,4.2-6.64-2.6-6.6C123,31.46,122.27,30,121.17,28.88Z"/><path class="cls-5" d="M119.36,38.39c1.31.83,3.17,1.35,3.84,2.54,1.74,3.12,3.71,4.23,7.22,2.78.82-.34,2.32,1,3.5,1.5a11.13,11.13,0,0,1-3,1.58c-4.09.73-8.36,1.73-8.83-4.75-.07-1-2-1.87-3.1-2.8Z"/><path class="cls-5" d="M109.12,44.4l-7,3.18c1.81-3.73-6.22-1-2.91-5.46.33-.44,3.36,1.14,5.5,1.91l.79-2.64Z"/><path class="cls-5" d="M116.3,50.41l1,7.42c-5.36-2-2.78-4.83-2.6-7.2Z"/><path class="cls-5" d="M97.79,37.11c-.33,2.46.5,6-5,4.16l3.87-4.86Z"/></g></svg>