<svg id="Layer_1" data-name="Layer 1" xmlns="http://www.w3.org/2000/svg" viewBox="0 0 256 256"><defs><style>.cls-1{fill:#f1ee00;}.cls-2,.cls-3{fill:#2d2b00;}.cls-3{font-size:27.76px;font-family:Delicious-Heavy, Delicious Heavy;font-weight:800;}</style></defs><path class="cls-1" d="M127.68,0A128,128,0,0,0,77.86,245.94,128,128,0,0,0,177.51,10.06,127.31,127.31,0,0,0,127.68,0Z"/><path class="cls-2" d="M127.61,7.65A120.74,120.74,0,1,1,6.88,128.39,120.73,120.73,0,0,1,127.61,7.65m0-7.26a128,128,0,0,0-90.5,218.5A128,128,0,1,0,177.44,10.45,127.13,127.13,0,0,0,127.61.39Z"/><path class="cls-2" d="M73.16,113.68c-4.49,9.29-8.91,18.6-13.49,27.85a47.23,47.23,0,0,1-5.14,8.61c-1.13,1.41-3.56,2.9-5,2.59S46,150,45.85,148.41A42.7,42.7,0,0,1,46.42,136C50,119.3,58,104.34,65.64,89.29c4-7.83,8.32-15.48,12.92-23,3.37-5.49,7.91-6.3,13.11-2.5,4.23,3.09,8,6.79,10.68,9.08-.15-9.73-.82-20.86-.32-31.94.47-10.56,5.3-15.61,14.76-17.59,7.23-1.52,11.29.22,14,7.1,1.74,4.37,4.25,5.57,8.34,4a88.67,88.67,0,0,0,11.11-4.73c7-3.85,13.14-3.19,18.42,2.76A29,29,0,0,1,173.91,40c1.17,2.72,1.28,5.89,1.85,8.87l-1.75.71c-1.51-1.83-3-3.65-4.51-5.49-1.26-1.53-2.45-2.7-4.42-.77-10,9.89-20.11,19.71-30.16,29.58a2,2,0,0,0-.39,1.94,73,73,0,0,1,6.44-4.7c7.82-4.52,15.67-9,23.69-13.17,1.55-.81,3.88-.12,5.84.28-12.83,3.95-22.39,12.58-31.91,21.13-2.16,1.94-3.54,5-4.63,7.78-.58,1.49.24,3.52.51,6.09,1.42-1.15,2.14-1.45,2.41-2,7.21-13.92,20.33-19.7,34-24.78.26-.09.54-.14.81-.22,11.42-3.71,17.31-1.64,21.41,9.64,7.71,21.21,16.44,42.16,20.33,64.58a36.15,36.15,0,0,1,.29,9.58c-.58,6.09-3.59,9.26-9.51,10.74-3.63.91-6.93-1.41-8.49-6.2-3.37-10.34-6.48-20.78-10.05-31.06-2.23-6.45-5.06-12.69-7.71-19a6.74,6.74,0,0,0-2.46-2.72c.67,9.62,2,18.94,6.08,27.81a142.78,142.78,0,0,1,6.58,18.44c.73,2.43,2,5.64-1.67,7.32s-8,1.06-10.3-2.14A129.1,129.1,0,0,1,166,136c-3.08-6.07-5.23-12.61-7.84-18.92a8.19,8.19,0,0,0-1.89-2.72c1.56,4.39,3.41,8.7,4.6,13.19,1.29,4.87,0,6.57-4.69,8-2.84.88-5,.25-6.24-2.51-3.48-7.6-6.9-15.24-10.4-22.84a13,13,0,0,0-3.37-4.56c4.07,14,4.61,28.09,2,43.36,3.58-2.13,6.35-3.75,9.09-5.42,6.53-4,9.46-3.46,13.42,3a18.25,18.25,0,0,0,11.82,8.6c7.25,1.77,8.72,3.63,8.78,10.08.07,8.28-1.3,10.3-8.69,12.4-2.42.69-4.91,1.15-7.37,1.72l-.5-1.37L170.3,175c-2.68-.54-5-.58-6.92-1.54s-3.9-2.55-4.46-4.31c-.82-2.53-.47-5.47-.41-8.23.05-2.5,1-5.17.38-7.43-.52-1.82-3-4.52-4.32-4.39-3.92.37-8.34,1.14-11.37,3.37a10.52,10.52,0,0,1-6.59,2.31c-2.25.06-4.5,0-6.75,0v1.8c1.51,0,3,.07,4.52,0,2.21-.13,4.42-.55,6.62-.52,3.12,0,6,.85,6.34,4.64s-1.21,6.85-5,7.7a102.49,102.49,0,0,1-15.28,2.31c-5.14.37-10.33,0-15.5,0-2.91,0-5.63-.92-6.24-3.84a22.74,22.74,0,0,1,.16-8.85c.17-.88,2.72-1.72,4.24-1.82,3.87-.25,7.77-.08,11.67-1-3.84,0-7.72.38-11.5-.11-3.47-.45-6.8-2-10.25-2.71-1.22-.27-3.15-.09-3.84.69a5.61,5.61,0,0,0-1,4.26c.3,1.54,1.72,2.84,2.39,4.35,2.18,4.91.89,7.61-4.9,9.68,1.81-3.56,5-7.35-.61-9.58-1.3-.52-4.48.6-5,1.75-.92,2.12-1.29,5.2-.37,7.16.78,1.63,3.74,2.23,6.06,3.47-2.84,2.43-5.33,1.68-7.65,0-3.68-2.73-4.22-6.39-1.85-12.75-3,2.9-3,6.07-1.78,9,1.15,2.81,1.62,6.47,6.52,6,2-.19,4.17,2,6.27,3.06-2,1.23-3.85,3.1-6,3.58-7.26,1.59-11.94-2.68-11.58-10.09.07-1.39.17-2.78.22-4.18.37-9.12,1.4-10.71,10.07-13.52,3-1,4-3,4.74-5.7,2.36-8.12,7.82-9.34,13.83-3.26-.24-5.09-.58-10.24-.7-15.39s0-10.32-.19-15.51c-.36,4.1-.69,8.21-1.09,12.31-.16,1.52-.45,3-.73,4.53-.55,3-2.88,4-5.26,3.2-1.22-.42-2.57-2.86-2.5-4.32.36-6.8,1.19-13.58,1.83-20.12C90.68,122,84.94,133.45,78.64,144.55a16.14,16.14,0,0,1-7.39,6.12c-4.68,2-7.79-.24-6.92-5.22a225.61,225.61,0,0,1,5.55-22.23,95,95,0,0,1,3.66-9.28Zm62.41-52.24c1.86-4,3.67-7.93,5.65-12.22l-3.12-.68c-.91,3-1,6.08-2.56,7.9-2.3,2.68-5.54,4.65-8.56,6.63-3.68,2.41-6.53,1.1-6.47-3.22,0-3.55,1.14-7.09,1.76-10.64l1.13,0-2.7-2.34c-9.77,5.92-11.71,11.8-6.55,22.56,1.14-2.66,2.3-4.43,2.62-6.33.43-2.59-.06-5.33.39-7.92.29-1.67,1.54-3.19,2.35-4.77l.54.4c-.38,5-.76,10-1.18,15.54l16.54-4.23c-3.11,3.66-5.8,5.57-10,5.73-3.17.12-6.3,1.45-9.44,2.25,5,3.54,10.18,3,13.8-.3,3.81-3.45,7.64-6.88,11.33-10.45,2.68-2.59,5.3-5.33,4-11C142.32,53.87,141.64,59.77,135.57,61.44Zm-40,14.47C91.49,71.8,88,69,82.73,70.79c-3.62,1.28-4.66,3.85-2.66,7.13a63.68,63.68,0,0,0,5.16,7.62c4,4.8,7.81,9.79,12.37,14,3.62,3.33,5.84,2.47,8.88-1.82,2.23-3.14,1.76-5-1.19-7.26-1.14,2.08-1.89,5.42-3.68,6.14s-4.77-1-6.69-2.44a28.72,28.72,0,0,1-6-6.38,39.22,39.22,0,0,1-5-8.63,6.09,6.09,0,0,1,1-5.26c.85-.94,3.32-.81,5-.51S93.07,74.75,95.56,75.91ZM158,80.44l.58.84A26.74,26.74,0,0,1,162.49,79a78.84,78.84,0,0,1,11.77-4.08,6.31,6.31,0,0,1,5.31,2.1c.81,1.1.06,3.64-.53,5.36a6.79,6.79,0,0,1-2.7,3.1c-6.09,3.89-12.06,8-18.49,11.31s-10.74.22-11.28-7.29c-2.28,3.27-2.49,6.69-.31,9.15,1.25,1.41,4.39,1.32,6.71,1.55a6.4,6.4,0,0,0,3.6-.94c7.84-4.5,15.67-9,23.39-13.74,2.69-1.64,4.31-4.3,3-7.51s-4.08-4.75-7.7-4.69C168.44,73.38,163.27,77,158,80.44ZM178.9,95.13c2.44,1.77,5.26,3.57,7.78,5.72,2.17,1.86,4.74,3.64,6.85,1.38,1.07-1.16.4-4.57-.35-6.65a114.75,114.75,0,0,0-4.81-10.46Zm-68.19-7.79c.9.86,1.71,2.33,2.74,2.5,4.79.84,9.64,1.31,15.31,2,0-3.82.11-7.53-.09-11.22,0-.73-1.17-1.76-2-2-3.91-1.31-7.92-2.34-11.85-3.61-2.56-.84-3.71-.26-3.41,2,1.6.28,3.9.3,4,.76a25.94,25.94,0,0,1,.53,8C115.86,86.35,113.13,86.64,110.71,87.34ZM108.44,42.8l.8.64,19.58-10.87-.45-1.18L118.31,35c0-1.19-.53-3,.11-3.66,1.35-1.44,3.31-2.31,4.84-3.3-8.6-3.29-17.9,5.66-17.2,18.25.72-3.9.78-7,1.93-9.52.74-1.65,2.93-3,4.76-3.63.78-.29,2.3,1.45,3.49,2.27-.81.78-1.63,1.57-2.45,2.34ZM90.82,110.92l-7.66-6.32c-1.27,4.56-2.51,8.44-3.35,12.41a3.31,3.31,0,0,0,1.75,2.8,4.34,4.34,0,0,0,3.61-1C87.23,116.37,88.9,113.64,90.82,110.92ZM75,98.83l-7.11-4.49c-1.15,3.2-2.21,6.31-3.37,9.37-.84,2.22-.9,4.56,1.59,5.14,1.25.29,3.39-1.18,4.4-2.43C72.25,104.31,73.37,101.74,75,98.83Zm84.31,8.55c3.5,3.91,6.74,7.54,10.42,11.64,3.6-6.58-2.12-11-.3-16.59Zm29.32,11c6.88.83,10.56,4,11.35,9.28.34-5.28.69-10.83,1-16.27ZM126.36,43.12l17.28,2.16c-1.11-1.93-1.75-4.16-3.23-5.32s-4.1-2.14-5.64-1.58C131.49,39.56,128.6,41.8,126.36,43.12Zm-7.82,106.69,8.87-.49a43.14,43.14,0,0,0-2.09-5.81,16.68,16.68,0,0,0-2.89-3.14c-.91,1.12-2.15,2.11-2.64,3.39A35.93,35.93,0,0,0,118.54,149.81ZM155,33.76c.21,4.41,1.93,6.49,5.08,6.73.85.06,2.5-1.72,2.65-2.81.37-2.78-2.7-6.78-4.75-6.31C156.64,31.67,155.61,33.22,155,33.76Zm-30.44,89.69c-1.21,4,2.2,4.21,4.22,5.76s3.57,3.87,5.54,6.09C134.76,128.65,132.71,126.24,124.54,123.45Zm26.4-30.84c5,.2,22.61-10.24,23.52-13.41Zm53.56,60a45,45,0,0,0,3.91-5.56c.11-.22-2.29-2.4-2.86-2.15-1.79.8-3.27,2.31-4.87,3.54Zm-72.38-34.29c.8-5-2.28-8-8.78-9.64C123.2,115.05,129.72,114.23,132.12,118.35Zm37,8.84c2.64,3,5.24,6,7.75,8.9-.5-3.8-1-7.72-1.55-11.88ZM110.66,119a58.13,58.13,0,0,0,6.44-5.08c1.31-1.35,1.94-3.35,2.88-5.06l-1.23-.65C116,112,108.54,112.38,110.66,119Zm-.72-14.94,9.14-7.39C112,94.56,109.25,97,109.94,104.08Zm10.82,19.85c-2.6,4.06-9.37,5.14-8.09,11.84C113.53,130.44,121.64,130.43,120.76,123.93Zm-54.4-6.06-6.51-1.74V126Zm56.88-23c.57,5.51,6.59,4.33,8,8.08C131.25,98,129.57,96.32,123.24,94.85ZM170,170.67c2.87-1.59,1.71-4-.66-6.29a8.35,8.35,0,0,0-3.56-1.51c-.22-.06-1.17,1.19-1,1.42a20.51,20.51,0,0,0,2.33,3.17C167.94,168.47,168.87,169.4,170,170.67ZM77.46,124.42l-1.67,8.85.6.22,6-7.51Z"/><path class="cls-2" d="M142.11,177.68c0,2.54.13,5.6,0,8.65-.15,2.54.21,5.53-3.61,6-4.36.57-8.21-.84-9-4.2a46.66,46.66,0,0,1-1.25-11.54c0-1,2.27-2.52,3.73-2.88,5-1.2,10.23-1.38,14.18-5.44.4-.42,3.39.57,3.73,1.46a8.32,8.32,0,0,1-.06,5.42c-.34.93-2.29,1.28-4,2.12l5.4,4.56c.41-2.16.75-3.95,1.13-6,3.81,3.07,5.24,8.23,2.93,11.66-1.05,1.56-3.77,3.37-5.19,3-2.33-.62-4.48-2.68-6.21-4.59-.86-1-.61-2.92-.9-4.43S142.3,178.61,142.11,177.68Zm-10.52,1,5.34,7.66c.39-3.08.75-5.91,1.15-9.09Z"/><path class="cls-2" d="M126.17,178.74l-8,.36c1.18,2.38,2.19,4.4,3.33,6.71l4.33-6.44,1.63.43c-.31,3.87,0,7.94-1.23,11.52-.42,1.23-4.5,1.71-6.9,1.68-3,0-5.41-1.81-5.63-5.09a55.05,55.05,0,0,1,.19-10.82c.17-1.23,2.05-2.74,3.44-3.14,1.78-.52,3.85,0,5.8,0C126.27,173.94,127.44,175.35,126.17,178.74Z"/><path class="cls-2" d="M113.27,176.86c-.92,3.51-1.92,8-3.32,12.33-.9,2.82-3.39,3.48-6.12,3.07-3.11-.47-3.14-3-2.76-5.14a131.47,131.47,0,0,1,3.12-13.75c.23-.8,2.47-1.77,3.4-1.47C109.78,172.59,113.37,171.79,113.27,176.86Zm-7.46,8.72.82.11,3.48-7.28h-5.52C105,181,105.42,183.31,105.81,185.58Z"/><path class="cls-2" d="M117.9,79.06c4.83.2,5.66,1,4.83,5.45-.21,1.16-1.87,2.88-2.86,2.88C117.33,87.39,116.68,84.39,117.9,79.06Z"/><path class="cls-2" d="M122.67,84.64l3.39-3.52c.77,1,2.28,2.06,2.15,2.9-.27,1.81-1.39,3.5-2.16,5.24Z"/><text class="cls-3" transform="translate(18.59 153.52) rotate(73.68)">P</text><text class="cls-3" transform="translate(22.39 166.54) rotate(66.55)">A</text><text class="cls-3" transform="matrix(0.52, 0.85, -0.85, 0.52, 28.62, 180.65)">C</text><text class="cls-3" transform="matrix(0.6, 0.8, -0.8, 0.6, 36.42, 193.07)">I</text><text class="cls-3" transform="matrix(0.67, 0.74, -0.74, 0.67, 40.81, 199.04)">F</text><text class="cls-3" transform="translate(49.08 208.04) rotate(43.1)">I</text><text class="cls-3" transform="matrix(0.79, 0.61, -0.61, 0.79, 54.48, 213.27)">C</text><text class="cls-3" transform="translate(66.33 222.1) rotate(31.31)"> </text><text class="cls-3" transform="translate(74.29 227.11) rotate(24.69)">N</text><text class="cls-3" transform="translate(89.58 234.01) rotate(16.1)">O</text><text class="cls-3" transform="translate(105.48 238.46) rotate(7.92)">R</text><text class="cls-3" transform="translate(119.94 240.35) rotate(1.22)">T</text><text class="cls-3" transform="matrix(0.99, -0.11, 0.11, 0.99, 132.37, 240.67)">H</text><text class="cls-3" transform="matrix(0.96, -0.27, 0.27, 0.96, 149.09, 238.96)">W</text><text class="cls-3" transform="matrix(0.91, -0.42, 0.42, 0.91, 169.29, 232.84)">E</text><text class="cls-3" transform="translate(181.68 227.01) rotate(-31.72)">S</text><text class="cls-3" transform="matrix(0.79, -0.62, 0.62, 0.79, 192.76, 220.06)">T</text><text class="cls-3" transform="translate(202.2 212.5) rotate(-43.59)"> </text><text class="cls-3" transform="matrix(0.66, -0.75, 0.75, 0.66, 208.89, 206.16)">T</text><text class="cls-3" transform="matrix(0.56, -0.83, 0.83, 0.56, 217, 196.86)">R</text><text class="cls-3" transform="translate(225.49 184.13) rotate(-63.86)">A</text><text class="cls-3" transform="translate(231.92 170.49) rotate(-69.68)">I</text><text class="cls-3" transform="translate(234.52 163.6) rotate(-74.5)">L</text></svg>