<svg id="Layer_1" data-name="Layer 1" xmlns="http://www.w3.org/2000/svg" viewBox="0 0 256 256"><defs><style>.cls-1{fill:#077;}.cls-2{fill:#1d1d1b;}.cls-3{fill:#fff;}</style></defs><path class="cls-1" d="M127.68,0A128,128,0,0,0,77.86,245.94,128,128,0,0,0,177.51,10.06,127.31,127.31,0,0,0,127.68,0Z"/><path class="cls-2" d="M127.61,7.65A120.74,120.74,0,1,1,6.88,128.39,120.73,120.73,0,0,1,127.61,7.65m0-7.26a128,128,0,0,0-90.5,218.5A128,128,0,1,0,177.44,10.45,127.13,127.13,0,0,0,127.61.39Z"/><path class="cls-2" d="M31.87,186.26l14.54-9.73L49,180.36a12.26,12.26,0,0,1,1.3,2.46,7.49,7.49,0,0,1,.49,2.39,4.21,4.21,0,0,1-.59,2.32,6,6,0,0,1-2,2,6.18,6.18,0,0,1-8.53-1.69,3,3,0,0,1-.53-1.48l-5,3.33Zm10.05-1.75a3.85,3.85,0,0,0,.35,1.11,2.21,2.21,0,0,0,1.64,1.11,3.21,3.21,0,0,0,2-.65A1.94,1.94,0,0,0,47,184.45a4.08,4.08,0,0,0-.81-2.06l-.34-.51Z"/><path class="cls-2" d="M38.68,196.44l16.44-7.73,2.66,3.09-10,15.14L45,203.69l2.14-3L44.81,198,41.5,199.7Zm8.88-.22,1.71,2,3.17-4.48Z"/><path class="cls-2" d="M55.18,202a11.75,11.75,0,0,1,2-1.78,10.29,10.29,0,0,1,2.33-1.26,9.32,9.32,0,0,1,2.48-.59,6.44,6.44,0,0,1,2.51.3A6.62,6.62,0,0,1,66.79,200a10.44,10.44,0,0,1,1.72,2,5.87,5.87,0,0,1,1,2.18l-3,1.08a7.08,7.08,0,0,0-2-2.65A2.11,2.11,0,0,0,63,202a4.14,4.14,0,0,0-1.82.51,11.88,11.88,0,0,0-1.67,1,9.8,9.8,0,0,0-1.27,1.16c-.27.31-.51.61-.74.91s-.45.65-.68,1a4.44,4.44,0,0,0-.52,1.14,5.71,5.71,0,0,0-.21,1.14,2.44,2.44,0,0,0,.2,1.12,2.93,2.93,0,0,0,.76,1,5.6,5.6,0,0,0,1.46.91,6.29,6.29,0,0,0,1.66.51l-.47,3.25a6.88,6.88,0,0,1-2.66-.64,9,9,0,0,1-2.38-1.48,7.27,7.27,0,0,1-1.75-2.23,6.06,6.06,0,0,1-.64-2.41,7.9,7.9,0,0,1,.31-2.47,10.64,10.64,0,0,1,1-2.41A13.89,13.89,0,0,1,55.18,202Z"/><path class="cls-2" d="M60.88,218.19,71.11,204l3.36,2.42L64.24,220.61Z"/><path class="cls-2" d="M67.06,222.58l9-15,8.09,4.82-1.82,3.05-4.54-2.7-1.56,2.62,3.59,2.14-1.85,3.09-3.58-2.13-3.73,6.25Z"/><path class="cls-2" d="M77.56,228.54l7.59-15.75,3.73,1.8-7.6,15.75Z"/><path class="cls-2" d="M87,223.48a12.47,12.47,0,0,1,1.18-2.37,10.29,10.29,0,0,1,1.7-2,9.29,9.29,0,0,1,2.1-1.45,6.34,6.34,0,0,1,2.44-.64,6.59,6.59,0,0,1,2.68.41,10.93,10.93,0,0,1,2.32,1.2,5.64,5.64,0,0,1,1.72,1.68l-2.39,2.09a7,7,0,0,0-2.83-1.74,2.15,2.15,0,0,0-1.63.08,4.32,4.32,0,0,0-1.52,1.14,11.89,11.89,0,0,0-1.16,1.59,9.17,9.17,0,0,0-.76,1.55q-.21.57-.36,1.11c-.1.37-.18.77-.26,1.22a5.37,5.37,0,0,0-.06,1.25,5.26,5.26,0,0,0,.22,1.13,2.29,2.29,0,0,0,.6,1,2.8,2.8,0,0,0,1.08.67,6,6,0,0,0,1.68.32,6.47,6.47,0,0,0,1.74-.14l.75,3.2a7,7,0,0,1-2.71.38,9.15,9.15,0,0,1-2.77-.52,7.11,7.11,0,0,1-2.43-1.43,6.08,6.08,0,0,1-1.48-2,7.83,7.83,0,0,1-.61-2.41,10.44,10.44,0,0,1,.07-2.62A14.59,14.59,0,0,1,87,223.48Z"/><path class="cls-2" d="M108.17,230a11.43,11.43,0,0,1,.64-2.56,9.34,9.34,0,0,1,1.23-2.34,9.13,9.13,0,0,1,1.73-1.87,6.48,6.48,0,0,1,2.25-1.15,6.59,6.59,0,0,1,2.7-.17,10.49,10.49,0,0,1,2.53.68,5.74,5.74,0,0,1,2,1.26l-1.89,2.56a7,7,0,0,0-3.14-1.09,2.09,2.09,0,0,0-1.57.43,4.27,4.27,0,0,0-1.24,1.44,11.74,11.74,0,0,0-.79,1.8,9.4,9.4,0,0,0-.41,1.67c0,.4-.09.79-.11,1.17a10.36,10.36,0,0,0,0,1.24,5.27,5.27,0,0,0,.2,1.24,6.28,6.28,0,0,0,.46,1.06,2.41,2.41,0,0,0,.8.82,2.81,2.81,0,0,0,1.19.42,6.5,6.5,0,0,0,3.39-.56l1.42,3A7.12,7.12,0,0,1,117,240a9,9,0,0,1-2.81.09,7.17,7.17,0,0,1-2.69-.88,6.15,6.15,0,0,1-1.88-1.64,7.89,7.89,0,0,1-1.11-2.23,10.16,10.16,0,0,1-.49-2.57A13.38,13.38,0,0,1,108.17,230Z"/><path class="cls-2" d="M122.54,240.59l-.28-17.48,4.58-.08a11.9,11.9,0,0,1,2.76.25,7.48,7.48,0,0,1,2.29.89,4.34,4.34,0,0,1,1.63,1.76,5.8,5.8,0,0,1,.62,2.71,5.63,5.63,0,0,1-.87,3.14,5.08,5.08,0,0,1-2.43,2.06l3.74,4.69,0,1.86-3.47.06-4.56-6,.1,6.12Zm4-9.33a3.52,3.52,0,0,0,1,.17,2.19,2.19,0,0,0,1.78-.79,3,3,0,0,0,.62-2,2.26,2.26,0,0,0-.61-1.72,2.61,2.61,0,0,0-1.82-.5l-1.08,0Z"/><path class="cls-2" d="M137.66,240.19l-2.24-17.34,10.06-1.3.46,3.53-6,.76.39,3,4.58-.59.47,3.57-4.59.6.47,3.64,6.27-.81.46,3.58Z"/><path class="cls-2" d="M147.26,225.85a4.52,4.52,0,0,1,.62-3.9,5.74,5.74,0,0,1,3.44-2.26,6.42,6.42,0,0,1,3,0,6.76,6.76,0,0,1,2.75,1.26l-1.73,2.55a3.88,3.88,0,0,0-1.49-.59,3.79,3.79,0,0,0-1.58,0,1.61,1.61,0,0,0-1,.68,1.36,1.36,0,0,0-.2,1.12,1.54,1.54,0,0,0,.62.88,4.47,4.47,0,0,0,1.18.57c.46.14,1,.28,1.51.42s1.11.32,1.67.52a9,9,0,0,1,1.59.76,4.66,4.66,0,0,1,1.35,1.25,5.32,5.32,0,0,1,.88,1.89,4.75,4.75,0,0,1-.13,2.92,5.21,5.21,0,0,1-1.66,2.29,6.94,6.94,0,0,1-2.67,1.3,6.25,6.25,0,0,1-2.53.05,9.24,9.24,0,0,1-2.56-.8l1.05-3.24a5.55,5.55,0,0,0,3.21.59,1.82,1.82,0,0,0,1.15-.78A1.63,1.63,0,0,0,156,232a1.27,1.27,0,0,0-.57-.73,4.9,4.9,0,0,0-1.17-.54c-.47-.16-1-.31-1.52-.47a17.79,17.79,0,0,1-1.68-.59,10.79,10.79,0,0,1-1.59-.81,4.86,4.86,0,0,1-1.33-1.24A4.68,4.68,0,0,1,147.26,225.85Z"/><path class="cls-2" d="M157.87,222.14l-1.28-3.37,9.94-3.77,1.28,3.37-3.07,1.17,4.92,13L165.8,234l-4.9-13Z"/><path class="cls-2" d="M175,214.81l-1.9-3.07,9-5.58,1.9,3.06L181.26,211l7.29,11.81L185,224.93l-7.28-11.82Z"/><path class="cls-2" d="M193.74,219.35,182.8,205.71l3.58-2.87a12,12,0,0,1,2.33-1.5,7.72,7.72,0,0,1,2.35-.69,4.28,4.28,0,0,1,2.37.39,5.92,5.92,0,0,1,2.15,1.76,5.63,5.63,0,0,1,1.24,3,5.09,5.09,0,0,1-.66,3.12l5.83,1.42,1.16,1.45-2.7,2.17-7.31-2,3.83,4.77Zm-2.57-9.81a3.6,3.6,0,0,0,.92-.5,2.23,2.23,0,0,0,.93-1.72,3,3,0,0,0-.72-1.92,2.26,2.26,0,0,0-1.53-1,2.65,2.65,0,0,0-1.74.72l-.85.68Z"/><path class="cls-2" d="M204.55,210.55,195.22,195l2.81-3,16.07,8.47-3,3.12-3.23-1.83-2.41,2.54,2,3.12Zm-1.1-8.81,1.8-1.9-4.77-2.71Z"/><path class="cls-2" d="M215.37,198.61l-13.83-10.7,2.53-3.27,13.83,10.7Z"/><path class="cls-2" d="M219.94,192.59l-14.67-9.51,2.19-3.38,11.69,7.58,2.69-4.15,3,1.93Z"/><path class="cls-3" d="M213.14,122.82c-2.77-1.93-5.79-3.47-8.55-5.34-3.22-2.18-6.89-4-7.4-8.62,3.47.07,7.2-.9,9.58,3a3.06,3.06,0,0,0,2.83,1,3.56,3.56,0,0,0,1.87-2.64,72,72,0,0,0-.71-8.94c-1.67-8.87-10.48-12.09-13.89-19.36-4.06-.77-6.11-3.15-5.92-7.33,0-.19-.39-.32-.45-.52-2.06-6.24-6.82-10.42-11.9-14a6.37,6.37,0,0,1-3.15-4.76c-.39-1.81-1.87-3.54-3.16-5.09-2.18-2.57-2.5-2.63-4.88-.06-3,3.22-5.21,7.4-8.75,9.84-4.51,3.09-11.52,12.09-14.22,16.6,1.42,1.28-16.27,4.44-15.89,6-4.43.45-15-1.74-17.81-4.63s-3.35-2.9-6,.32c-.58.64-.64,1.67-1.22,2.31C99.29,85.19,95.3,90,89.19,92.46c-2.13.84-3.54.9-5-.71a5.78,5.78,0,0,0-7.72-1c-5.33,3.6-11.51,6.49-15.05,12.09-3.28,5.08-7.72,8.88-11.9,12.93a7.7,7.7,0,0,0-2.06,7.72c.58,2.51,3.09,4.44,2.83,7.46,0,.26,1,.84,1.61.9,2.25.32,5,.07,5.34-2.19.32-2,1.67-1.73,2.64-2.44,3.22-2.44,7.46-3.09,10.48-6,.84-.77,2.58-.71,3.93-.84.58-.06,1.54.26,1.73.71a2,2,0,0,1-.45,1.86c-5.53,5.6-11.06,11.2-16.72,16.73-1.09,1.09-2.77,1.54-3.86,2.64a3.08,3.08,0,0,0-.32,2.63,2.65,2.65,0,0,0,2,1.23c3.48.19,6.69-.07,9.84-2.26,3.41-2.31,7-4.18,9.91-7.2,2.32-2.44,4.7-4.82,7.14-7.08a2.45,2.45,0,0,1,2.38-.19,19.18,19.18,0,0,1,3.09,3c1,1,1.8,2.25,3.28,1.87s2.06-1.23,2.83-4a12,12,0,0,1,2.89-5.08c1.23-1.29,3.09-1.93,4.38-3.16a23.19,23.19,0,0,0,3.92-4.82c1-1.61,3-3.8.71-5.4-1.48-1.16-3.47,0-4.83,1.73a2.65,2.65,0,0,1-4.24.2c-.32-.26.58-2,1.22-2.83,1.55-2.06,2.45-6.37,6.43-2.38.26.25,1.55-.65,2.38-.78,1.35-.25,2.77-.38,4.12-.51,2.77-2.57,22.77-1.16,22.77-1.16s17.56-2.44,17.56-1.74c3.15,2.9,6.88,5.34,9.2,8.75,2.57,3.86,5.15,6.82,10,7.08.32.06.9.64.9.9A3,3,0,0,1,172,123c-.64.52-1.73.58-2.38,1.1-1.8,1.48-1.8,2.64.07,3.92,1.09.77,2.31,1.93,3.47,1.93,3.35-.06,5,2.19,7,4.18,1.61,1.74,4.11,2.38,5.14,5,.33.77,2.45,1.28,3.67,1.22,1.74-.13,1-1.87,1-2.9.19-2.18,0-4.11-2-5.66-1.48-1.15-1.29-2.83-.07-4.31,2.64-3.08,2.83-4.24.26-5.27a13.53,13.53,0,0,1-5.86-4.76,21.16,21.16,0,0,0-13.57-8.69c-1.93-.45-2.25-1.54-1-2.83,2.25-2.31,5.21-3.79,8.11-2.76,3.86,1.41,8.36,2.64,9.71,7.46.71,2.64,2.19,4.89,4.89,5.21,3.28.45,5.72,2.64,7.33,4.57,3.6,4.31,8.88,4.44,13.12,6.88,1.68,1,2.77-.71,3.35-1.8A2.62,2.62,0,0,0,213.14,122.82Z"/><path class="cls-2" d="M126.37,169.71a17,17,0,0,1,1.09,5.28c.06,3.6-.13,9.84-.64,11.06s-.45,4.06-1.29,5a3.4,3.4,0,0,0-.77,1.93h12.41s.77-.45-.77-2.89-2.57-7.14-2.89-9,.32-11.77.32-11.77.19.65,3.66,2.83,10.49,2.58,12.74,2.58,5.6-2.06,7.33-2.58,8.11.13,8.94-1.6-2.25-2.06-4.5-3.16-3.66-2.38-3.79-4,6.24.32,7.78.12-.77-2.57-2.38-3.79-3-8.3-4.63-12-4.12-1.09-4.31-2.38,4.31-1.73,4.31-4.31-7.78-5-8.62-6.24,6.56-3.08,6-4.82-8-5.6-8.94-10.1c-.39-2.06,6.69-.38,7.85-3.41,1-2.51-6.5-8.36-8-9.32s1.61-4.76,4.57-5.73c1.09-.32-5.34-4.63-6.3-5s.32-3,2.7-3.8,6.69-2,4-4.11c-6.69-5.41-9.26-9-9.26-9s5.72-.77,6-3-4.56-3.41-5.79-4.38a19.15,19.15,0,0,1-2.89-3c-1.29-1.42,2.7-2.7,3.67-5.28s-1.29-4-4.64-8.42-1.73-3.48-1.73-3.48,3.34.46,3.79-1S138.91,46,136.72,44s-2.38-4.44-2.38-6.5.45-2.06,1-4.11-3.48-9.27-3.48-9.27-4.24,6.89-3.66,9c1,3.54.45,3.28.58,5.47s-.45.64-2.06,1.28-.77.32-2.25,1.42,1.41,2.57,1.09,4.63.32.77,2.32,2.25.06,2.9-.52,5.08-3.67,1.61-5.72,2.58,1.28,1.73,3.79,3.34,0,0-.13,2.64-1.28,2.76-3,4.24a2.92,2.92,0,0,0,.32,4.63c1.29,1,1.93-.45,2.7,1.1s-1.61,2.57-5.27,4.31S118.26,79,119.55,79s1.61.13,2.25.77-.77,2.38-5.28,5.41-1.09,1-1.73,4.44,2.25,1.15,4,1.93c.38.12-.9,1-1.29,1.09-2,.64-6.56,4.44-3.73,5.47,2.44.9,1.67.25,3.41-.58s1.61.32-1.74,4.63a87,87,0,0,1-7.2,7.85c-1.42,2.44-.9,3.47.77,3.21a17.39,17.39,0,0,0,5.6-1.41s3.34-1.61,3.47-1.29-1.29,3.48-4.95,5.92-4.12,8-6.05,13.06-1.29,3-2.9,5.08,2.58.13,4.31.13,3.48-2.06,4.44-2.38,2.7-.65,1.29,1.93-11.13,9.71-14.47,12.73c-1.87,1.68.12,1.93.12,1.93a1.63,1.63,0,0,1,.78,1.48c0,1.48.19,1-.39,1.68-.84,1-.32,2.05-.13,3.34s2.7.64,4.31.77,3.35-2.38,3.35-2.38a1.93,1.93,0,0,1,.32,2.38c-.77,1.42-3.73,3.67-7.33,5.08-3.09,1.23-3.67,4.7-2.9,5.28,1.48,1.09,8-1,7.46,0s0,1.41-2.38,2.89-1.28,1.42-5.08,2.7-3.09,3.61-2.06,4.7c3.73,4.31,4.63-1,10.36-1.67s14.34-1.29,17.37-4S126.37,169.71,126.37,169.71Z"/></svg>