<svg id="Layer_1" data-name="Layer 1" xmlns="http://www.w3.org/2000/svg" viewBox="0 0 256 256"><defs><style>.cls-1{fill:#077;}.cls-2,.cls-3{fill:#1d1d1b;}.cls-3{font-size:27.76px;font-family:Delicious-Heavy, Delicious Heavy;font-weight:800;}.cls-4{fill:#fff;}</style></defs><path class="cls-1" d="M127.68,0A128,128,0,0,0,77.86,245.94,128,128,0,0,0,177.51,10.06,127.31,127.31,0,0,0,127.68,0Z"/><path class="cls-2" d="M127.61,7.65A120.74,120.74,0,1,1,6.88,128.39,120.73,120.73,0,0,1,127.61,7.65m0-7.26a128,128,0,0,0-90.5,218.5A128,128,0,1,0,177.44,10.45,127.13,127.13,0,0,0,127.61.39Z"/><text class="cls-3" transform="matrix(0.56, 0.83, -0.83, 0.56, 31.07, 185.06)">P</text><text class="cls-3" transform="translate(38.58 196.31) rotate(49.18)">A</text><text class="cls-3" transform="matrix(0.75, 0.66, -0.66, 0.75, 48.72, 207.91)">C</text><text class="cls-3" transform="translate(59.87 217.46) rotate(35.8)">I</text><text class="cls-3" transform="translate(65.85 221.86) rotate(30.79)">F</text><text class="cls-3" transform="matrix(0.9, 0.43, -0.43, 0.9, 76.43, 228)">I</text><text class="cls-3" transform="translate(83.14 231.38) rotate(20.04)">C</text><text class="cls-3" transform="translate(97.1 236.27) rotate(13.83)"> </text><text class="cls-3" transform="translate(106.12 238.58) rotate(7.65)">C</text><text class="cls-3" transform="translate(121.04 240.61) rotate(-0.93)">R</text><text class="cls-3" transform="translate(136.24 240.38) rotate(-7.36)">E</text><text class="cls-3" transform="translate(149.82 238.54) rotate(-14.25)">S</text><text class="cls-3" transform="matrix(0.93, -0.35, 0.35, 0.93, 162.48, 235.24)">T</text><text class="cls-3" transform="translate(173.76 230.84) rotate(-26.26)"> </text><text class="cls-3" transform="translate(182.02 226.8) rotate(-31.72)">T</text><text class="cls-3" transform="translate(192.57 220.29) rotate(-38.74)">R</text><text class="cls-3" transform="translate(204.44 210.66) rotate(-46.54)">A</text><text class="cls-3" transform="matrix(0.61, -0.79, 0.79, 0.61, 214.61, 199.59)">I</text><text class="cls-3" transform="translate(219.18 193.78) rotate(-57.06)">L</text><path class="cls-4" d="M213.14,122.82c-2.77-1.93-5.79-3.47-8.55-5.34-3.22-2.18-6.89-4-7.4-8.62,3.47.07,7.2-.9,9.58,3a3.06,3.06,0,0,0,2.83,1,3.56,3.56,0,0,0,1.87-2.64,72,72,0,0,0-.71-8.94c-1.67-8.87-10.48-12.09-13.89-19.36-4.06-.77-6.11-3.15-5.92-7.33,0-.19-.39-.32-.45-.52-2.06-6.24-6.82-10.42-11.9-14a6.37,6.37,0,0,1-3.15-4.76c-.39-1.81-1.87-3.54-3.16-5.09-2.18-2.57-2.5-2.63-4.88-.06-3,3.22-5.21,7.4-8.75,9.84-4.51,3.09-11.52,12.09-14.22,16.6,1.42,1.28-16.27,4.44-15.89,6-4.43.45-15-1.74-17.81-4.63s-3.35-2.9-6,.32c-.58.64-.64,1.67-1.22,2.31C99.29,85.19,95.3,90,89.19,92.46c-2.13.84-3.54.9-5-.71a5.78,5.78,0,0,0-7.72-1c-5.33,3.6-11.51,6.49-15.05,12.09-3.28,5.08-7.72,8.88-11.9,12.93a7.7,7.7,0,0,0-2.06,7.72c.58,2.51,3.09,4.44,2.83,7.46,0,.26,1,.84,1.61.9,2.25.32,5,.07,5.34-2.19.32-2,1.67-1.73,2.64-2.44,3.22-2.44,7.46-3.09,10.48-6,.84-.77,2.58-.71,3.93-.84.58-.06,1.54.26,1.73.71a2,2,0,0,1-.45,1.86c-5.53,5.6-11.06,11.2-16.72,16.73-1.09,1.09-2.77,1.54-3.86,2.64a3.08,3.08,0,0,0-.32,2.63,2.65,2.65,0,0,0,2,1.23c3.48.19,6.69-.07,9.84-2.26,3.41-2.31,7-4.18,9.91-7.2,2.32-2.44,4.7-4.82,7.14-7.08a2.45,2.45,0,0,1,2.38-.19,19.18,19.18,0,0,1,3.09,3c1,1,1.8,2.25,3.28,1.87s2.06-1.23,2.83-4a12,12,0,0,1,2.89-5.08c1.23-1.29,3.09-1.93,4.38-3.16a23.19,23.19,0,0,0,3.92-4.82c1-1.61,3-3.8.71-5.4-1.48-1.16-3.47,0-4.83,1.73a2.65,2.65,0,0,1-4.24.2c-.32-.26.58-2,1.22-2.83,1.55-2.06,2.45-6.37,6.43-2.38.26.25,1.55-.65,2.38-.78,1.35-.25,2.77-.38,4.12-.51,2.77-2.57,22.77-1.16,22.77-1.16s17.56-2.44,17.56-1.74c3.15,2.9,6.88,5.34,9.2,8.75,2.57,3.86,5.15,6.82,10,7.08.32.06.9.64.9.9A3,3,0,0,1,172,123c-.64.52-1.73.58-2.38,1.1-1.8,1.48-1.8,2.64.07,3.92,1.09.77,2.31,1.93,3.47,1.93,3.35-.06,5,2.19,7,4.18,1.61,1.74,4.11,2.38,5.14,5,.33.77,2.45,1.28,3.67,1.22,1.74-.13,1-1.87,1-2.9.19-2.18,0-4.11-2-5.66-1.48-1.15-1.29-2.83-.07-4.31,2.64-3.08,2.83-4.24.26-5.27a13.53,13.53,0,0,1-5.86-4.76,21.16,21.16,0,0,0-13.57-8.69c-1.93-.45-2.25-1.54-1-2.83,2.25-2.31,5.21-3.79,8.11-2.76,3.86,1.41,8.36,2.64,9.71,7.46.71,2.64,2.19,4.89,4.89,5.21,3.28.45,5.72,2.64,7.33,4.57,3.6,4.31,8.88,4.44,13.12,6.88,1.68,1,2.77-.71,3.35-1.8A2.62,2.62,0,0,0,213.14,122.82Z"/><path class="cls-2" d="M126.37,169.71a17,17,0,0,1,1.09,5.28c.06,3.6-.13,9.84-.64,11.06s-.45,4.06-1.29,5a3.4,3.4,0,0,0-.77,1.93h12.41s.77-.45-.77-2.89-2.57-7.14-2.89-9,.32-11.77.32-11.77.19.65,3.66,2.83,10.49,2.58,12.74,2.58,5.6-2.06,7.33-2.58,8.11.13,8.94-1.6-2.25-2.06-4.5-3.16-3.66-2.38-3.79-4,6.24.32,7.78.12-.77-2.57-2.38-3.79-3-8.3-4.63-12-4.12-1.09-4.31-2.38,4.31-1.73,4.31-4.31-7.78-5-8.62-6.24,6.56-3.08,6-4.82-8-5.6-8.94-10.1c-.39-2.06,6.69-.38,7.85-3.41,1-2.51-6.5-8.36-8-9.32s1.61-4.76,4.57-5.73c1.09-.32-5.34-4.63-6.3-5s.32-3,2.7-3.8,6.69-2,4-4.11c-6.69-5.41-9.26-9-9.26-9s5.72-.77,6-3-4.56-3.41-5.79-4.38a19.15,19.15,0,0,1-2.89-3c-1.29-1.42,2.7-2.7,3.67-5.28s-1.29-4-4.64-8.42-1.73-3.48-1.73-3.48,3.34.46,3.79-1S138.91,46,136.72,44s-2.38-4.44-2.38-6.5.45-2.06,1-4.11-3.48-9.27-3.48-9.27-4.24,6.89-3.66,9c1,3.54.45,3.28.58,5.47s-.45.64-2.06,1.28-.77.32-2.25,1.42,1.41,2.57,1.09,4.63.32.77,2.32,2.25.06,2.9-.52,5.08-3.67,1.61-5.72,2.58,1.28,1.73,3.79,3.34,0,0-.13,2.64-1.28,2.76-3,4.24a2.92,2.92,0,0,0,.32,4.63c1.29,1,1.93-.45,2.7,1.1s-1.61,2.57-5.27,4.31S118.26,79,119.55,79s1.61.13,2.25.77-.77,2.38-5.28,5.41-1.09,1-1.73,4.44,2.25,1.15,4,1.93c.38.12-.9,1-1.29,1.09-2,.64-6.56,4.44-3.73,5.47,2.44.9,1.67.25,3.41-.58s1.61.32-1.74,4.63a87,87,0,0,1-7.2,7.85c-1.42,2.44-.9,3.47.77,3.21a17.39,17.39,0,0,0,5.6-1.41s3.34-1.61,3.47-1.29-1.29,3.48-4.95,5.92-4.12,8-6.05,13.06-1.29,3-2.9,5.08,2.58.13,4.31.13,3.48-2.06,4.44-2.38,2.7-.65,1.29,1.93-11.13,9.71-14.47,12.73c-1.87,1.68.12,1.93.12,1.93a1.63,1.63,0,0,1,.78,1.48c0,1.48.19,1-.39,1.68-.84,1-.32,2.05-.13,3.34s2.7.64,4.31.77,3.35-2.38,3.35-2.38a1.93,1.93,0,0,1,.32,2.38c-.77,1.42-3.73,3.67-7.33,5.08-3.09,1.23-3.67,4.7-2.9,5.28,1.48,1.09,8-1,7.46,0s0,1.41-2.38,2.89-1.28,1.42-5.08,2.7-3.09,3.61-2.06,4.7c3.73,4.31,4.63-1,10.36-1.67s14.34-1.29,17.37-4S126.37,169.71,126.37,169.71Z"/></svg>