<svg id="Layer_1" data-name="Layer 1" xmlns="http://www.w3.org/2000/svg" viewBox="0 0 256 256"><defs><style>.cls-1{fill:#1e4c3a;}.cls-2{fill:#012312;}.cls-3{fill:#fff;}</style></defs><path class="cls-1" d="M127.68,0A128,128,0,0,0,77.86,245.94,128,128,0,0,0,177.51,10.06,127.31,127.31,0,0,0,127.68,0Z"/><path class="cls-2" d="M127.61,7.65A120.74,120.74,0,1,1,6.88,128.39,120.73,120.73,0,0,1,127.61,7.65m0-7.26a128,128,0,0,0-90.5,218.5A128,128,0,1,0,177.44,10.45,127.13,127.13,0,0,0,127.61.39Z"/><path class="cls-3" d="M68.2,97.72H60.81L25,156.37H39.64l4.41-9.14H59.28v39.61H69.72V147.23H85l4.4,9.14H104ZM50.52,138.2l14-26.07,14,26.07Z"/><path class="cls-3" d="M218.35,175.45c-1.6-1.11-3.34-2-4.94-3.08-1.86-1.27-4-2.34-4.27-5,2,0,4.16-.52,5.53,1.71a1.78,1.78,0,0,0,1.64.59,2.08,2.08,0,0,0,1.08-1.52A41.52,41.52,0,0,0,217,163c-1-5.13-6.06-7-8-11.19-2.34-.44-3.53-1.82-3.42-4.23,0-.11-.22-.19-.26-.3-1.19-3.61-3.94-6-6.88-8.07a3.69,3.69,0,0,1-1.82-2.75,7.58,7.58,0,0,0-1.82-2.93c-1.26-1.49-1.45-1.53-2.82,0-1.75,1.86-3,4.27-5.06,5.69-2.6,1.78-6.65,7-8.21,9.59.82.74-9.4,2.56-9.18,3.45-2.57.26-8.66-1-10.3-2.67s-1.93-1.68-3.45.18c-.34.37-.37,1-.71,1.34-2.45,2.64-4.76,5.39-8.29,6.84-1.22.48-2,.52-2.86-.41a3.34,3.34,0,0,0-4.46-.56c-3.08,2.08-6.65,3.76-8.7,7-1.89,2.94-4.46,5.13-6.87,7.47a4.45,4.45,0,0,0-1.19,4.46c.33,1.45,1.78,2.56,1.63,4.31,0,.15.6.48.93.52,1.3.19,2.87,0,3.09-1.26s1-1,1.52-1.41c1.86-1.42,4.31-1.79,6.06-3.46.48-.45,1.49-.41,2.27-.48.33,0,.89.14,1,.41a1.19,1.19,0,0,1-.26,1.07c-3.2,3.24-6.39,6.47-9.66,9.67-.63.63-1.6.89-2.23,1.52a1.77,1.77,0,0,0-.19,1.52A1.53,1.53,0,0,0,128,189a8.5,8.5,0,0,0,5.69-1.3c2-1.34,4-2.42,5.72-4.16,1.34-1.42,2.72-2.79,4.13-4.09a1.38,1.38,0,0,1,1.37-.11,10.69,10.69,0,0,1,1.79,1.71c.56.59,1,1.3,1.89,1.07s1.19-.7,1.64-2.3a7.09,7.09,0,0,1,1.67-2.94c.71-.74,1.79-1.11,2.53-1.82a14,14,0,0,0,2.27-2.78c.55-.93,1.71-2.2.41-3.13-.86-.67-2,0-2.79,1a1.54,1.54,0,0,1-2.45.11c-.19-.15.33-1.15.7-1.64.89-1.19,1.41-3.68,3.72-1.37.15.15.89-.37,1.37-.45.78-.15,1.6-.22,2.38-.3,1.6-1.48,13.16-.66,13.16-.66s10.15-1.42,10.15-1c1.82,1.67,4,3.09,5.31,5.06,1.49,2.23,3,3.94,5.8,4.08.18,0,.52.38.52.53a1.71,1.71,0,0,1-.37,1.07c-.38.3-1,.34-1.38.63-1,.86-1,1.53,0,2.27.63.45,1.34,1.12,2,1.12,1.93,0,2.89,1.26,4,2.41.93,1,2.38,1.38,3,2.86.19.45,1.42.75,2.12.71,1-.07.56-1.08.6-1.67a3.28,3.28,0,0,0-1.16-3.27,1.61,1.61,0,0,1,0-2.49c1.52-1.79,1.63-2.46.15-3a7.79,7.79,0,0,1-3.39-2.75,12.24,12.24,0,0,0-7.84-5c-1.11-.26-1.3-.89-.59-1.63,1.3-1.34,3-2.2,4.68-1.6,2.23.82,4.83,1.52,5.61,4.31.41,1.52,1.27,2.82,2.83,3a6.91,6.91,0,0,1,4.23,2.64c2.08,2.49,5.13,2.56,7.58,4,1,.55,1.6-.41,1.94-1A1.52,1.52,0,0,0,218.35,175.45Z"/><path class="cls-3" d="M168.22,202.55a9.7,9.7,0,0,1,.63,3,33.6,33.6,0,0,1-.37,6.4c-.26.63-.26,2.34-.75,2.9a2,2,0,0,0-.44,1.11h7.17s.45-.26-.45-1.67a16.43,16.43,0,0,1-1.67-5.17c-.18-1,.19-6.8.19-6.8s.11.37,2.12,1.64,6,1.48,7.35,1.48,3.24-1.19,4.24-1.48,4.68.07,5.17-.93-1.3-1.19-2.6-1.83-2.12-1.37-2.2-2.3,3.61.19,4.5.07-.45-1.48-1.38-2.19-1.74-4.79-2.67-6.91-2.38-.63-2.49-1.38,2.49-1,2.49-2.49-4.5-2.86-5-3.6,3.79-1.79,3.45-2.79-4.64-3.23-5.16-5.83c-.22-1.19,3.86-.23,4.53-2,.56-1.45-3.75-4.84-4.61-5.39s.93-2.75,2.64-3.31c.64-.19-3.08-2.68-3.64-2.86s.19-1.75,1.56-2.2,3.87-1.15,2.34-2.37a31.2,31.2,0,0,1-5.35-5.21s3.31-.44,3.5-1.74-2.64-2-3.35-2.53a10.86,10.86,0,0,1-1.67-1.75c-.75-.82,1.56-1.56,2.12-3.05s-.75-2.3-2.68-4.86-1-2-1-2,1.93.26,2.19-.56-1.49-2.94-2.75-4.12a4.58,4.58,0,0,1-1.38-3.76c0-1.19.26-1.19.56-2.38s-2-5.35-2-5.35-2.45,4-2.11,5.2a7.52,7.52,0,0,1,.33,3.16c.07,1.3-.26.38-1.19.75s-.44.18-1.3.81.82,1.49.63,2.68.19.45,1.34,1.3,0,1.67-.3,2.94-2.12.93-3.3,1.48.74,1,2.19,1.94,0,0-.08,1.52-.74,1.6-1.74,2.45a1.69,1.69,0,0,0,.18,2.68c.75.56,1.12-.26,1.56.63s-.93,1.49-3,2.49-1,1.67-.26,1.67a1.42,1.42,0,0,1,1.3.45c.37.37-.45,1.38-3.05,3.12s-.63.56-1,2.57,1.3.67,2.3,1.11c.22.08-.52.56-.74.63-1.16.37-3.79,2.57-2.16,3.16,1.41.52,1,.15,2-.33s.93.18-1,2.67a50.9,50.9,0,0,1-4.17,4.54c-.81,1.41-.52,2,.45,1.86a9.87,9.87,0,0,0,3.23-.82s1.94-.93,2-.74a6.44,6.44,0,0,1-2.86,3.41c-2.12,1.38-2.38,4.61-3.49,7.55s-.75,1.75-1.68,2.94,1.49.07,2.49.07,2-1.19,2.57-1.38,1.56-.37.74,1.12-6.43,5.61-8.36,7.36c-1.08,1,.07,1.11.07,1.11a1,1,0,0,1,.45.86c0,.85.11.59-.22,1-.49.56-.19,1.19-.08,1.94s1.56.37,2.49.44,1.93-1.37,1.93-1.37a1.1,1.1,0,0,1,.19,1.37,9.38,9.38,0,0,1-4.24,2.94c-1.78.71-2.12,2.71-1.67,3.05.86.63,4.61-.56,4.31,0s0,.82-1.37,1.67-.75.82-2.94,1.56-1.78,2.08-1.19,2.71c2.16,2.49,2.68-.59,6-1s8.28-.75,10-2.31S168.22,202.55,168.22,202.55Z"/><path class="cls-3" d="M107.6,62.49c.29-.69.44-1.15.67-1.57,6.82-12.23,15.49-22.85,27.14-30.79,3.46-2.35,2.21-2.32,5.59.11,11.37,8.19,19.79,18.88,26.25,31.2a7.91,7.91,0,0,1,.35,1.05c-2.93,0-5.7,0-8.48,0s-2.16.39-3.16-2.09a45.16,45.16,0,0,0-12.27-17.82c-.3-.26-.61-.49-1.15-.93,0,.85-.09,1.45-.09,2V106.6c0,2.64.15,2.26-2.35,2.29-1.84,0-3.69,0-5.53,0-.81,0-1.17-.29-1.13-1.1,0-.49,0-1,0-1.48q0-31.51,0-63c0-.35-.06-.69-.12-1.3a54.57,54.57,0,0,0-4.54,4.65c-3.59,4.67-7.06,9.43-10.47,14.23a3.24,3.24,0,0,1-3.16,1.66C112.74,62.38,110.31,62.49,107.6,62.49Z"/><path class="cls-3" d="M146.68,112.51c0-.45-.1-.92-.1-1.4,0-13.45,0-26.9,0-40.35,0-1.31.4-1.66,1.68-1.65,7.42,0,14.85,0,22.27,0a1.48,1.48,0,0,1,1.69,1.1C175,78,177.8,85.77,179.16,94c.39,2.3.67,4.62.84,6.94a2.29,2.29,0,0,1-.92,1.59,40.44,40.44,0,0,1-15.72,7.13c-5.33,1.2-10.75,2-16.14,3A2.22,2.22,0,0,1,146.68,112.51Zm7.76-9.59c1.65-.31,3.05-.57,4.46-.85,4-.79,7.95-1.86,11.36-4.29a1.85,1.85,0,0,0,.9-1.9,61.65,61.65,0,0,0-4.7-18.16A1.89,1.89,0,0,0,165,77c-3-.07-5.93,0-8.9-.06-1.34,0-1.78.36-1.77,1.74.06,7.56,0,15.11,0,22.66C154.34,101.79,154.4,102.27,154.44,102.92Z"/><path class="cls-3" d="M128.57,113.38c-3.38-.63-6.56-1.17-9.72-1.82a173.38,173.38,0,0,1-23-6.69A1.5,1.5,0,0,1,94.66,103a97.2,97.2,0,0,1,4.71-20.85c1.42-4.06,3.24-8,4.85-12A1.61,1.61,0,0,1,106,69.11q10.93.06,21.87,0c1.09,0,1.54.28,1.49,1.43-.08,1.89-.07,3.78,0,5.67,0,1.09-.4,1.38-1.43,1.37q-8,0-15.93,0a2,2,0,0,0-1.54.65c-3.32,6.43-5.23,13.34-6.78,20.56,2.86.83,5.63,1.74,8.45,2.43,5.1,1.24,10.23,2.37,15.36,3.5.81.17,1.14.45,1.12,1.31C128.53,108.42,128.57,110.8,128.57,113.38Z"/></svg>