<svg id="Layer_1" data-name="Layer 1" xmlns="http://www.w3.org/2000/svg" viewBox="0 0 100 100"><defs><style>.cls-1{fill:#c9c9c9;}.cls-2{fill:#ffde6a;}</style></defs><path class="cls-1" d="M98.77,45.69A11.31,11.31,0,0,0,87.46,34.38c-.28,0-.56,0-.83,0A16.15,16.15,0,0,0,61.52,15.5c-.08-.21-.17-.43-.26-.64A23.13,23.13,0,0,0,17,24.69h0a16.16,16.16,0,0,0,0,32.31H88v0A11.29,11.29,0,0,0,98.77,45.69Z"/><polygon class="cls-2" points="40.33 61 32.77 61 27.1 75.18 33.71 75.18 29.93 91.24 46 70.45 36.55 70.45 40.33 61"/><polygon class="cls-2" points="69.33 61 61.77 61 56.1 75.18 62.71 75.18 58.93 91.24 75 70.45 65.55 70.45 69.33 61"/></svg>