<?xml version="1.0" standalone="no"?>
<!DOCTYPE svg PUBLIC "-//W3C//DTD SVG 20010904//EN"
 "http://www.w3.org/TR/2001/REC-SVG-20010904/DTD/svg10.dtd">
<svg version="1.0" xmlns="http://www.w3.org/2000/svg"
 width="700.000000pt" height="700.000000pt" viewBox="0 0 700.000000 700.000000"
 preserveAspectRatio="xMidYMid meet">
<metadata>
Created by potrace 1.11, written by Peter Selinger 2001-2013
</metadata>
<g transform="translate(0.000000,700.000000) scale(0.100000,-0.100000)"
fill="#000000" stroke="none">
<path d="M540 6853 c-52 -19 -108 -41 -125 -48 -16 -6 -46 -18 -65 -25 -19 -7
-39 -17 -44 -21 -8 -7 27 -117 234 -754 82 -254 245 -755 387 -1195 57 -179
113 -350 123 -380 10 -30 41 -125 68 -210 164 -507 256 -792 272 -840 10 -30
57 -176 105 -325 48 -148 97 -301 110 -340 64 -192 195 -602 195 -611 0 -8
-323 -460 -385 -539 -15 -18 -14 -21 12 -40 276 -204 320 -233 334 -216 26 30
597 816 649 891 8 12 24 34 35 48 11 15 172 236 357 492 186 256 344 474 352
485 8 11 51 69 95 130 45 60 81 113 81 118 0 4 4 6 9 3 4 -3 8 -122 7 -265
l-1 -260 -410 -537 c-225 -295 -415 -542 -420 -548 -6 -6 -22 -27 -35 -46 -13
-19 -29 -40 -35 -46 -5 -7 -55 -71 -110 -144 -55 -72 -144 -189 -197 -258 -54
-70 -98 -130 -98 -134 0 -6 283 -221 328 -249 20 -12 24 -12 32 1 11 18 406
537 568 746 12 16 74 97 137 179 63 83 144 187 178 232 l64 82 0 -234 0 -233
-295 -382 c-162 -210 -290 -386 -286 -390 5 -5 63 -49 129 -99 112 -84 121
-89 136 -73 9 9 74 91 143 182 157 205 160 209 167 210 3 0 6 -242 7 -537 0
-296 1 -544 1 -550 1 -10 41 -13 164 -13 l162 0 0 555 c0 305 1 555 2 555 1 0
75 -94 163 -210 89 -116 166 -210 170 -210 5 0 10 4 12 8 2 5 56 48 121 96 64
48 117 91 117 94 0 4 -76 104 -168 223 -92 119 -176 228 -187 243 -11 16 -25
33 -30 40 -6 6 -47 58 -90 116 -44 57 -87 112 -95 122 -12 15 -15 60 -15 248
0 127 2 230 5 230 3 0 221 -282 484 -626 264 -344 484 -624 490 -622 7 2 86
59 178 128 l166 125 -21 30 c-12 16 -24 32 -27 35 -4 3 -82 104 -175 225 -94
121 -316 409 -495 641 -179 231 -336 436 -350 454 -14 18 -43 56 -65 84 -23
28 -77 98 -120 155 l-80 104 0 244 c-1 134 0 243 1 243 1 0 35 -44 76 -97 324
-431 473 -629 478 -633 3 -3 57 -75 120 -160 63 -85 120 -162 127 -170 36 -44
111 -140 130 -166 34 -46 382 -507 396 -524 7 -9 99 -131 205 -273 l193 -257
32 24 c18 13 96 72 175 130 l143 107 -27 37 c-16 20 -131 172 -257 337 -126
164 -234 307 -240 316 -7 12 0 48 31 140 22 68 84 259 137 424 53 165 110 341
127 390 16 50 31 97 33 105 2 8 38 121 80 250 128 392 179 552 280 865 53 165
105 325 115 355 10 30 55 170 100 310 45 140 95 293 110 340 15 47 68 211 118
365 50 154 133 413 186 575 52 162 112 346 132 408 20 63 32 118 28 122 -11
10 -346 131 -351 127 -1 -2 -38 -93 -82 -203 -231 -583 -833 -2092 -841 -2109
-5 -11 -41 -101 -80 -200 -39 -99 -75 -189 -80 -200 -5 -11 -48 -119 -95 -240
-47 -121 -92 -233 -99 -250 -8 -16 -17 -40 -21 -52 -3 -13 -10 -23 -14 -23 -7
0 -171 209 -965 1233 -183 236 -334 430 -344 442 -60 75 -57 55 -57 321 0 134
3 244 6 244 4 0 13 -10 21 -22 9 -13 144 -192 302 -398 157 -206 330 -432 383
-501 l96 -127 76 57 c159 118 181 135 181 142 0 3 -137 185 -305 405 -168 219
-326 427 -352 462 -27 34 -84 109 -128 166 -44 57 -145 190 -225 296 -80 105
-153 202 -164 213 -10 12 -25 32 -33 45 -9 12 -19 22 -23 22 -4 0 -43 -48 -87
-107 -44 -60 -154 -205 -244 -324 -90 -119 -308 -407 -484 -640 -175 -233
-336 -446 -357 -474 -21 -27 -37 -53 -35 -57 4 -12 248 -189 256 -186 7 2 219
275 306 394 11 15 26 33 33 40 6 7 12 17 12 22 0 6 4 12 8 14 4 2 78 95 163
208 85 113 159 210 164 216 6 6 31 38 55 72 25 34 48 62 51 62 3 0 6 -111 5
-247 l-1 -248 -70 -91 c-38 -50 -80 -104 -92 -120 -12 -16 -113 -148 -224
-294 -111 -146 -270 -355 -354 -465 -83 -110 -203 -268 -266 -350 -63 -83
-166 -218 -229 -302 -63 -83 -118 -149 -121 -147 -3 2 -14 25 -23 51 -10 26
-24 62 -31 78 -14 34 -257 631 -360 885 -36 91 -72 179 -80 195 -7 17 -41 100
-75 185 -132 329 -251 626 -260 645 -5 11 -68 166 -140 345 -72 179 -137 339
-145 355 -7 17 -21 50 -30 75 -10 25 -23 59 -30 75 -7 17 -43 104 -80 195 -84
210 -89 220 -95 219 -3 0 -48 -16 -100 -36z m2806 -2422 l-1 -199 -90 -126
c-49 -70 -106 -148 -125 -174 -19 -27 -77 -106 -128 -178 -51 -71 -173 -240
-270 -375 -97 -135 -231 -321 -297 -412 -66 -92 -122 -167 -125 -167 -4 0 -14
19 -24 43 -10 23 -24 56 -31 72 -7 17 -27 66 -45 111 l-33 81 44 59 c24 32 46
61 50 64 3 3 94 122 203 265 108 143 202 267 209 275 7 8 104 136 217 284 113
148 225 294 250 326 25 32 78 101 118 154 40 53 74 96 76 96 1 0 2 -90 2 -199z
m494 -21 c65 -85 134 -175 153 -200 19 -25 150 -196 292 -380 141 -184 261
-342 268 -350 7 -8 41 -53 77 -100 36 -47 67 -87 70 -90 3 -3 31 -40 64 -83
40 -53 56 -82 52 -95 -38 -101 -121 -292 -127 -290 -4 2 -166 212 -359 468
-194 256 -423 557 -509 670 l-156 205 0 234 -1 234 28 -34 c16 -19 82 -104
148 -189z"/>
</g>
</svg>
