<svg id="Layer_1" data-name="Layer 1" xmlns="http://www.w3.org/2000/svg" viewBox="0 0 820.33 820.33"><defs><style>.cls-1,.cls-3{fill:#405229;}.cls-2{fill:#5a7936;}.cls-3{font-size:73px;}.cls-3,.cls-4,.cls-6{font-family:Delicious-Heavy, Delicious Heavy;}.cls-4{font-size:218.43px;fill:#fff;stroke:#415228;stroke-miterlimit:10;stroke-width:6px;}.cls-5{fill:#648561;}.cls-6{font-size:102.73px;fill:#415228;}</style></defs><title>Artboard 1 copy 90</title>
<path class="cls-1" d="M652.38,238.9a300.87,300.87,0,0,0-141-107.64c-57.87-21.25-122.76-23.4-182-6.62A296.87,296.87,0,0,0,156,563.3C186.69,614,232.79,655.55,286.85,680a300.62,300.62,0,0,0,183.07,20.78c58.65-11.83,113.3-42.29,154.6-85.53,41.45-43.39,69.61-99.37,78.64-158.78a313.57,313.57,0,0,0,3.67-46.3C706.68,349.18,687.87,288.61,652.38,238.9Zm2.13,112.65-12.74,3.51c-25-36.79-52.4-72-71.81-82.4C524.77,248.46,448.31,254,448.31,254l-23.69,34.29,8.38,42-9.54,28.36a104.62,104.62,0,0,0-29.65,7.49L369,409.23c-9.59,2.64-24.44.16-35.63,9.83C315.67,434.33,293,488.33,293,488.33s-56.5-56.47-83.39-74.15-66.29,0-66.29,0l-4.58,7.93a267.13,267.13,0,0,1,7.43-76.32,261.84,261.84,0,0,1,31.44-76.14,265.41,265.41,0,0,1,23.22-32.73A285.73,285.73,0,0,1,230,206.82a244.57,244.57,0,0,1,31.86-24.31,283.73,283.73,0,0,1,37-20.32c50.32-22.9,110.7-29.49,165.07-18.4a271.55,271.55,0,0,1,142.45,78.49q7.26,7.56,14,15.65c4.52,5.46,7.2,9,11.59,15.2a284.29,284.29,0,0,1,21.63,36.17,239.52,239.52,0,0,1,14.22,34.34Z"/>
<path class="cls-2" d="M452,269.87l-12,18,10.5,31.5L397,486.33l59.92-39.14L537,517l10-120.67L642.33,457l-8.89-86.63s-43.5-81-78-88.5S452,269.87,452,269.87Z"/>
<path class="cls-2" d="M168.46,481.36c18,9,30,24,30,24s27-15,33-21S287,506.86,287,506.86s-78-75-88.49-85.5-45,3-45,3l-13.23,17.27a251.39,251.39,0,0,0,5.62,31.59q.69,2.88,1.44,5.74C155.53,478.28,163.21,478.73,168.46,481.36Z"/>
<text class="cls-3" transform="translate(215.18 165.76) rotate(-36.47)">5</text>
<text class="cls-3" transform="matrix(0.86, -0.51, 0.51, 0.86, 240.6, 146.89)">2</text>
<text class="cls-3" transform="translate(268.12 130.86) rotate(-25.61)"> </text>
<text class="cls-3" transform="translate(286.39 121.19) rotate(-19.19)">w</text>
<text class="cls-3" transform="translate(331.65 106.24) rotate(-13.18)">i</text>
<text class="cls-3" transform="translate(347.82 102.35) rotate(-9.58)">t</text>
<text class="cls-3" transform="translate(368.72 98.4) rotate(-4.16)">h</text>
<text class="cls-3" transform="matrix(1, 0.02, -0.02, 1, 405.43, 96.05)"> </text>
<text class="cls-3" transform="translate(426.36 96.16) rotate(6.14)">a</text>
<text class="cls-3" transform="matrix(0.98, 0.19, -0.19, 0.98, 459.13, 99.9)"> </text>
<text class="cls-3" transform="matrix(0.96, 0.28, -0.28, 0.96, 479.64, 103.54)">V</text>
<text class="cls-3" transform="translate(513.07 113.8) rotate(21.27)">i</text>
<text class="cls-3" transform="translate(528.52 119.4) rotate(25.96)">e</text>
<text class="cls-3" transform="translate(558.36 133.29) rotate(33.47)">w</text>
<text class="cls-4" transform="translate(118.27 675.48)">52VIEW</text>
<path class="cls-5" d="M570,272.66c19.41,10.4,46.84,45.61,71.81,82.4l12.74-3.51,13.27-27.91a239.52,239.52,0,0,0-14.22-34.34,284.29,284.29,0,0,0-21.63-36.17c-4.39-6.24-7.07-9.74-11.59-15.2s-9.11-10.61-14-15.65a271.55,271.55,0,0,0-142.45-78.49c-54.37-11.09-114.75-4.5-165.07,18.4a283.73,283.73,0,0,0-37,20.32A244.57,244.57,0,0,0,230,206.82a285.73,285.73,0,0,0-29.15,30.1,265.41,265.41,0,0,0-23.22,32.73,261.84,261.84,0,0,0-31.44,76.14,267.13,267.13,0,0,0-7.43,76.32l4.58-7.93s39.4-17.68,66.29,0S293,488.33,293,488.33s22.67-54,40.33-69.27c11.19-9.67,26-7.19,35.63-9.83l24.85-43.05a104.62,104.62,0,0,1,29.65-7.49L433,330.33l-8.38-42L448.31,254S524.77,248.46,570,272.66Z"/>
<text class="cls-6" transform="translate(316.73 787.36)">TYPE</text></svg>