<svg id="Layer_1" data-name="Layer 1" xmlns="http://www.w3.org/2000/svg" viewBox="0 0 820.33 820.33"><defs><style>.cls-1,.cls-3{fill:#405229;}.cls-2{fill:#5a7936;}.cls-3{font-size:73px;}.cls-3,.cls-4,.cls-6{font-family:Delicious-Heavy, Delicious Heavy;}.cls-4{font-size:218.43px;fill:#fff;stroke:#415228;stroke-miterlimit:10;stroke-width:6px;}.cls-5{fill:#648561;}.cls-6{font-size:102.73px;fill:#415228;}</style></defs><title>Artboard 1 copy 92</title>
<path class="cls-1" d="M652.38,238.9a300.87,300.87,0,0,0-141-107.64c-57.87-21.25-122.76-23.4-182-6.62A296.87,296.87,0,0,0,156,563.3C186.69,614,232.79,655.55,286.85,680a300.62,300.62,0,0,0,183.07,20.78c58.65-11.83,113.3-42.29,154.6-85.53,41.45-43.39,69.61-99.37,78.64-158.78a313.57,313.57,0,0,0,3.67-46.3C706.68,349.18,687.87,288.61,652.38,238.9Zm-86.21,14.22L532.6,270.55l-115-87.13-133.27,112-72.23-28.22-54.09,41.35a276.77,276.77,0,0,1,42.78-71.65A285.73,285.73,0,0,1,230,206.82a244.57,244.57,0,0,1,31.86-24.31,283.73,283.73,0,0,1,37-20.32c50.32-22.9,110.7-29.49,165.07-18.4a271.55,271.55,0,0,1,142.45,78.49q7.26,7.56,14,15.65c4.52,5.46,7.2,9,11.59,15.2a284.29,284.29,0,0,1,21.63,36.17,245.33,245.33,0,0,1,10.12,22.77Z"/>
<path class="cls-2" d="M421,200.33S571.66,343.66,616.33,367.66,408,273.66,466.66,345l-35,36c-5.33-196-256,194-207.33,104.66s11.79-122.42,62-166.66Z"/>
<path class="cls-2" d="M674.06,345.41c-11.85-10.15-27.55-20.62-48.38-30.42-29.06-13.67-54.93-32-61.79-50.46l-24.42,14.15,140.71,100.8c-.39-3.63-.84-7.11-1.34-10.33C677.59,361.17,676,353.25,674.06,345.41Z"/>
<text class="cls-3" transform="translate(215.18 165.76) rotate(-36.47)">5</text>
<text class="cls-3" transform="matrix(0.86, -0.51, 0.51, 0.86, 240.6, 146.89)">2</text>
<text class="cls-3" transform="translate(268.12 130.86) rotate(-25.61)"> </text>
<text class="cls-3" transform="translate(286.39 121.19) rotate(-19.19)">w</text>
<text class="cls-3" transform="translate(331.65 106.24) rotate(-13.18)">i</text>
<text class="cls-3" transform="translate(347.82 102.35) rotate(-9.58)">t</text>
<text class="cls-3" transform="translate(368.72 98.4) rotate(-4.16)">h</text>
<text class="cls-3" transform="matrix(1, 0.02, -0.02, 1, 405.43, 96.05)"> </text>
<text class="cls-3" transform="translate(426.36 96.16) rotate(6.14)">a</text>
<text class="cls-3" transform="matrix(0.98, 0.19, -0.19, 0.98, 459.13, 99.9)"> </text>
<text class="cls-3" transform="matrix(0.96, 0.28, -0.28, 0.96, 479.64, 103.54)">V</text>
<text class="cls-3" transform="translate(513.07 113.8) rotate(21.27)">i</text>
<text class="cls-3" transform="translate(528.52 119.4) rotate(25.96)">e</text>
<text class="cls-3" transform="translate(558.36 133.29) rotate(33.47)">w</text>
<text class="cls-4" transform="translate(118.27 675.48)">52VIEW</text>
<path class="cls-2" d="M141.89,366.79,143,367c6.49,1.23,15.71-.91,27.08-6.46,50.92-24.87,50.45-86.17,42.06-82.17L150.81,329c-1.68,5.46-3.23,11.06-4.64,16.84Q143.59,356.31,141.89,366.79Z"/>
<path class="cls-5" d="M417.64,183.42l115,87.13,33.57-17.43,97.51,58.95a245.33,245.33,0,0,0-10.12-22.77,284.29,284.29,0,0,0-21.63-36.17c-4.39-6.24-7.07-9.74-11.59-15.2s-9.11-10.61-14-15.65a271.55,271.55,0,0,0-142.45-78.49c-54.37-11.09-114.75-4.5-165.07,18.4a283.73,283.73,0,0,0-37,20.32A244.57,244.57,0,0,0,230,206.82a285.73,285.73,0,0,0-29.15,30.1,276.77,276.77,0,0,0-42.78,71.65l54.09-41.35,72.23,28.22Z"/>
<text class="cls-6" transform="translate(316.73 787.36)">TYPE</text></svg>