<svg id="Layer_1" data-name="Layer 1" xmlns="http://www.w3.org/2000/svg" viewBox="0 0 820.33 820.33"><defs><style>.cls-1,.cls-3{fill:#405229;}.cls-2{fill:#5a7936;}.cls-3{font-size:73px;}.cls-3,.cls-5,.cls-6{font-family:Delicious-Heavy, Delicious Heavy;}.cls-4{fill:#648561;}.cls-5{font-size:218.43px;fill:#fff;stroke:#415228;stroke-miterlimit:10;stroke-width:6px;}.cls-6{font-size:102.73px;fill:#415228;}</style></defs><title>Artboard 1 copy 98</title>
<path class="cls-1" d="M652.38,238.9a300.87,300.87,0,0,0-141-107.64c-57.87-21.25-122.76-23.4-182-6.62A296.87,296.87,0,0,0,156,563.3C186.69,614,232.79,655.55,286.85,680a300.62,300.62,0,0,0,183.07,20.78c58.65-11.83,113.3-42.29,154.6-85.53,41.45-43.39,69.61-99.37,78.64-158.78a313.57,313.57,0,0,0,3.67-46.3C706.68,349.18,687.87,288.61,652.38,238.9Zm-451.55-2A285.73,285.73,0,0,1,230,206.82a244.57,244.57,0,0,1,31.86-24.31,283.73,283.73,0,0,1,37-20.32c50.32-22.9,110.7-29.49,165.07-18.4a271.55,271.55,0,0,1,142.45,78.49q7.26,7.56,14,15.65c4.52,5.46,7.2,9,11.59,15.2a284.29,284.29,0,0,1,21.63,36.17A243.91,243.91,0,0,1,668.87,327a282.72,282.72,0,0,1,10,42.17,286.73,286.73,0,0,1,3,41,275.4,275.4,0,0,1-3.22,41.5l-37-9.53s-90.73-162.46-137-187.22-108,0-108,0L331.6,376s-63.39-61.32-83.25-72c-23.11-12.37-54.18-17.13-79.51-18.81,2.71-5.18,5.62-10.35,8.77-15.56A265.41,265.41,0,0,1,200.83,236.92Z"/>
<path class="cls-2" d="M424.46,270.42s30.15-2.91,45-3C513.19,267.17,585.33,384,585.33,384s-80-43-86-37-39,69-39,69-2.87-79.58-20.87-88.58-64.42,7.5-64.42,7.5Z"/>
<text class="cls-3" transform="translate(215.18 165.76) rotate(-36.47)">5</text>
<text class="cls-3" transform="matrix(0.86, -0.51, 0.51, 0.86, 240.6, 146.89)">2</text>
<text class="cls-3" transform="translate(268.12 130.86) rotate(-25.61)"> </text>
<text class="cls-3" transform="translate(286.39 121.19) rotate(-19.19)">w</text>
<text class="cls-3" transform="translate(331.65 106.24) rotate(-13.18)">i</text>
<text class="cls-3" transform="translate(347.82 102.35) rotate(-9.58)">t</text>
<text class="cls-3" transform="translate(368.72 98.4) rotate(-4.16)">h</text>
<text class="cls-3" transform="matrix(1, 0.02, -0.02, 1, 405.43, 96.05)"> </text>
<text class="cls-3" transform="translate(426.36 96.16) rotate(6.14)">a</text>
<text class="cls-3" transform="matrix(0.98, 0.19, -0.19, 0.98, 459.13, 99.9)"> </text>
<text class="cls-3" transform="matrix(0.96, 0.28, -0.28, 0.96, 479.64, 103.54)">V</text>
<text class="cls-3" transform="translate(513.07 113.8) rotate(21.27)">i</text>
<text class="cls-3" transform="translate(528.52 119.4) rotate(25.96)">e</text>
<text class="cls-3" transform="translate(558.36 133.29) rotate(33.47)">w</text>
<path class="cls-2" d="M548.12,469c-19.3,7.64-57.38,26-57.38,26l-38.25,92s64.76-61.19,91.84-61S579,573,579,573s34.87-27.35,40.25-36.62c1.76-3,16-4.66,34.32-5.47a269.6,269.6,0,0,0,15.69-39C626.66,473.45,576.71,457.69,548.12,469Z"/>
<path class="cls-2" d="M192.33,454l16-78,94,78,1.09-66.35S267.83,329.5,233.33,322c-21.94-4.77-56.43-5.09-78.63-4.69a278.58,278.58,0,0,0-8.53,28.48,269.45,269.45,0,0,0-6.85,86.09c.24,3.27.54,6.44.89,9.58l1.12-1.46Z"/>
<path class="cls-4" d="M504.62,254.92c46.24,24.76,137,187.22,137,187.22l37,9.53a275.4,275.4,0,0,0,3.22-41.5,286.73,286.73,0,0,0-3-41,282.72,282.72,0,0,0-10-42.17,243.91,243.91,0,0,0-15.31-37.68,284.29,284.29,0,0,0-21.63-36.17c-4.39-6.24-7.07-9.74-11.59-15.2s-9.11-10.61-14-15.65a271.55,271.55,0,0,0-142.45-78.49c-54.37-11.09-114.75-4.5-165.07,18.4a283.73,283.73,0,0,0-37,20.32A244.57,244.57,0,0,0,230,206.82a285.73,285.73,0,0,0-29.15,30.1,265.41,265.41,0,0,0-23.22,32.73c-3.15,5.21-6.06,10.38-8.77,15.56,25.33,1.68,56.4,6.44,79.51,18.81,19.86,10.64,83.25,72,83.25,72l65-121.06S458.38,230.15,504.62,254.92Z"/>
<text class="cls-5" transform="translate(118.27 675.48)">52VIEW</text>
<text class="cls-6" transform="translate(316.73 787.36)">TYPE</text></svg>