<svg id="Layer_1" data-name="Layer 1" xmlns="http://www.w3.org/2000/svg" viewBox="0 0 820.33 820.33"><defs><style>.cls-1{fill:none;}.cls-2{font-size:73px;}.cls-2,.cls-5{fill:#405229;}.cls-2,.cls-6,.cls-7{font-family:Delicious-Heavy, Delicious Heavy;}.cls-3{fill:#5a7936;}.cls-4{fill:#648561;}.cls-6{font-size:218.43px;fill:#fff;stroke:#415228;stroke-miterlimit:10;stroke-width:6px;}.cls-7{font-size:102.73px;fill:#415228;}</style></defs><title>Artboard 1 copy 104</title><circle class="cls-1" cx="410.16" cy="410.17" r="284.17"/><text class="cls-2" transform="translate(127.49 282.89) rotate(-63.27)">N</text><text class="cls-2" transform="translate(145.16 248.03) rotate(-56.52)">e</text><text class="cls-2" transform="translate(162.85 220.25) rotate(-49.05)">w</text><text class="cls-2" transform="matrix(0.73, -0.68, 0.68, 0.73, 194.55, 184.75)"> </text><text class="cls-2" transform="matrix(0.79, -0.61, 0.61, 0.79, 209.74, 170.34)">E</text><text class="cls-2" transform="matrix(0.85, -0.52, 0.52, 0.85, 234.81, 150.66)">n</text><text class="cls-2" transform="matrix(0.91, -0.42, 0.42, 0.91, 266.09, 131.65)">g</text><text class="cls-2" transform="translate(295.05 118.07) rotate(-18.86)">a</text><text class="cls-2" transform="translate(326.43 107.67) rotate(-14.21)">l</text><text class="cls-2" transform="translate(342.06 103.21) rotate(-9.22)">n</text><text class="cls-2" transform="translate(378.1 97.3) rotate(-2.47)">d</text><text class="cls-2" transform="translate(414.4 96.04) rotate(2.79)"> </text><text class="cls-2" transform="translate(435.3 96.78) rotate(7.7)">1</text><text class="cls-2" transform="translate(466.69 100.96) rotate(13.65)">0</text><text class="cls-2" transform="translate(497.44 108.37) rotate(19.61)">0</text><text class="cls-2" transform="matrix(0.91, 0.42, -0.42, 0.91, 527.38, 119.24)"> </text><text class="cls-2" transform="translate(546.5 127.44) rotate(30.17)">H</text><text class="cls-2" transform="translate(579.92 147.4) rotate(35.33)">i</text><text class="cls-2" transform="translate(593.56 156.64) rotate(39.87)">g</text><text class="cls-2" transform="matrix(0.69, 0.72, -0.72, 0.69, 618.2, 176.96)">h</text><text class="cls-2" transform="matrix(0.61, 0.8, -0.8, 0.61, 643.49, 203.41)">e</text><text class="cls-2" transform="matrix(0.52, 0.85, -0.85, 0.52, 663.58, 229.86)">s</text><text class="cls-2" transform="translate(678.91 255.18) rotate(63.34)">t</text>
<path class="cls-3" d="M681.69,418l-21.05-12.2-66.42,44.4-78.86,47.33,37.35-47.82S468.4,344.17,444.79,353.59s-174.34,161-174.34,161l27-46.36-13.14-28.78-33.9,26.83-38-40.49-24.22,28.78,49.12,41.48L180.51,470.2l-31.32,15.59A291.56,291.56,0,0,0,159,514.07c.82,2,2,4.73,3.49,8q2.07,4.51,4.3,9,4.72,9.45,10.16,18.52,3.12,5.21,6.46,10.27l75.68,24.75s93.19-87.79,124.25-86.44,81.71,48,118.85,48,106-60.78,106-60.78l53.39,27.83A272.31,272.31,0,0,0,681.69,418Z"/>
<path class="cls-3" d="M147.76,480.7,166,464.22l-24.33-11.9c1.06,6.73,2.43,13.54,4.19,20.9Q146.75,477,147.76,480.7Z"/>
<path class="cls-3" d="M577.3,624.47l2.05-1.64c1.19-1,2.38-1.93,3.55-2.91q3.78-3.13,7.45-6.41,7.83-7,15.13-14.52a261.79,261.79,0,0,0,25.69-30.72,278.41,278.41,0,0,0,18.91-30.63l-35.14-31.4s-91.84,66.85-110.75,63.47S400.2,511,383.32,513,251,605.5,251,605.5l-32-2.34a271.15,271.15,0,0,0,117,68.42,264.45,264.45,0,0,0,85.42,10q10.77-.42,21.49-1.65l3.19-.38,1-.13c1.82-.26,3.62-.53,5.43-.83,3.37-.54,6.73-1.15,10.08-1.81a283.45,283.45,0,0,0,41.51-11.62A252.39,252.39,0,0,0,541,648.33a280.32,280.32,0,0,0,35.23-23l.33-.25Z"/>
<path class="cls-4" d="M205.42,407.26l47.74,42.44,36-27.38L312.65,458S397.5,351.52,441.33,321.38,574.16,440,574.16,440l81.64-56.11,25.79,15.26a271.9,271.9,0,0,0-2.75-30,282.72,282.72,0,0,0-10-42.17,243.91,243.91,0,0,0-15.31-37.68,284.29,284.29,0,0,0-21.63-36.17c-4.39-6.24-7.07-9.74-11.59-15.2s-9.11-10.61-14-15.65a271.55,271.55,0,0,0-142.45-78.49c-54.37-11.09-114.75-4.5-165.07,18.4a283.73,283.73,0,0,0-37,20.32A244.57,244.57,0,0,0,230,206.82a285.73,285.73,0,0,0-29.15,30.1,265.41,265.41,0,0,0-23.22,32.73,261.84,261.84,0,0,0-31.44,76.14,269.45,269.45,0,0,0-6.85,86.09c0,.16,0,.33,0,.49l31.47,16.36Z"/>
<path class="cls-5" d="M652.38,238.9a300.87,300.87,0,0,0-141-107.64c-57.87-21.25-122.76-23.4-182-6.62A296.87,296.87,0,0,0,156,563.3C186.69,614,232.79,655.55,286.85,680a300.62,300.62,0,0,0,183.07,20.78c58.65-11.83,113.3-42.29,154.6-85.53,41.45-43.39,69.61-99.37,78.64-158.78a313.57,313.57,0,0,0,3.67-46.3C706.68,349.18,687.87,288.61,652.38,238.9ZM146.17,345.79a261.84,261.84,0,0,1,31.44-76.14,265.41,265.41,0,0,1,23.22-32.73A285.73,285.73,0,0,1,230,206.82a244.57,244.57,0,0,1,31.86-24.31,283.73,283.73,0,0,1,37-20.32c50.32-22.9,110.7-29.49,165.07-18.4a271.55,271.55,0,0,1,142.45,78.49q7.26,7.56,14,15.65c4.52,5.46,7.2,9,11.59,15.2a284.29,284.29,0,0,1,21.63,36.17A243.91,243.91,0,0,1,668.87,327a282.72,282.72,0,0,1,10,42.17,271.9,271.9,0,0,1,2.75,30L655.8,383.84,574.16,440s-89-148.7-132.83-118.57S312.65,458,312.65,458l-23.52-35.68-36,27.38-47.74-42.44-34.59,41.47-31.47-16.36c0-.16,0-.33,0-.49A269.45,269.45,0,0,1,146.17,345.79Zm-.32,127.43c-1.76-7.36-3.13-14.17-4.19-20.9L166,464.22,147.76,480.7Q146.76,477,145.85,473.22ZM166.77,531q-2.24-4.44-4.3-9c-1.5-3.27-2.67-6-3.49-8a291.56,291.56,0,0,1-9.79-28.28l31.32-15.59,56.73,25.86-49.12-41.48,24.22-28.78,38,40.49,33.9-26.83,13.14,28.78-27,46.36s150.73-151.6,174.34-161S552.71,449.7,552.71,449.7l-37.35,47.82,78.86-47.33,66.42-44.4L681.69,418a272.31,272.31,0,0,1-20.12,95.14L608.18,485.3s-68.87,60.78-106,60.78-87.79-46.6-118.85-48-124.25,86.44-124.25,86.44l-75.68-24.75q-3.33-5.07-6.46-10.27Q171.52,540.48,166.77,531Zm438.71,68q-7.29,7.53-15.13,14.52-3.66,3.27-7.45,6.41c-1.17,1-2.36,2-3.55,2.91l-2.05,1.64-.77.61-.33.25a280.32,280.32,0,0,1-35.23,23,252.39,252.39,0,0,1-36.85,16.86,283.45,283.45,0,0,1-41.51,11.62c-3.35.66-6.71,1.27-10.08,1.81-1.81.3-3.61.57-5.43.83l-1,.13-3.19.38q-10.71,1.23-21.49,1.65a264.45,264.45,0,0,1-85.42-10,271.15,271.15,0,0,1-117-68.42l32,2.34S366.44,515,383.32,513s102,53.35,120.87,56.72,110.75-63.47,110.75-63.47l35.14,31.4a278.41,278.41,0,0,1-18.91,30.63A261.79,261.79,0,0,1,605.48,599Z"/>
<text class="cls-6" transform="translate(167.64 675.48)">NE100</text><text class="cls-7" transform="translate(316.73 787.36)">TYPE</text></svg>