<svg id="Layer_1" data-name="Layer 1" xmlns="http://www.w3.org/2000/svg" viewBox="0 0 820.33 820.33"><defs><style>.cls-1,.cls-3{fill:#405229;}.cls-2{fill:#5a7936;}.cls-3{font-size:73px;}.cls-3,.cls-4,.cls-6{font-family:Delicious-Heavy, Delicious Heavy;}.cls-4{font-size:218.43px;fill:#fff;stroke:#415228;stroke-miterlimit:10;stroke-width:6px;}.cls-5{fill:#648561;}.cls-6{font-size:102.73px;fill:#415228;}</style></defs><title>Artboard 1 copy 95</title>
<path class="cls-1" d="M652.38,238.9a300.87,300.87,0,0,0-141-107.64c-57.87-21.25-122.76-23.4-182-6.62A296.87,296.87,0,0,0,156,563.3C186.69,614,232.79,655.55,286.85,680a300.62,300.62,0,0,0,183.07,20.78c58.64-11.83,113.3-42.29,154.6-85.53,41.45-43.39,69.61-99.37,78.64-158.78a313.57,313.57,0,0,0,3.67-46.3C706.68,349.18,687.87,288.61,652.38,238.9ZM446.53,679.52l.57-.07Zm-13.36-406.3c-13.69-11.19-39.11,1.77-59.64-4.71s-92-30.14-92-30.14-99.6,109.68-121.11,115a42.9,42.9,0,0,1-16.09.68c.58-2.74,1.19-5.49,1.87-8.24a261.84,261.84,0,0,1,31.44-76.14,265.41,265.41,0,0,1,23.22-32.73A285.73,285.73,0,0,1,230,206.82a244.57,244.57,0,0,1,31.86-24.31,283.73,283.73,0,0,1,37-20.32c50.32-22.9,110.7-29.49,165.07-18.4a271.55,271.55,0,0,1,142.45,78.49q7.26,7.56,14,15.65c4.52,5.46,7.2,9,11.59,15.2a284.29,284.29,0,0,1,21.63,36.17A243.91,243.91,0,0,1,668.87,327a282.72,282.72,0,0,1,10,42.17c.92,5.86,1.65,12.58,2.16,19.53-13.76-10.72-26.93-21-38.61-30.28-59.64,49.49-101.68,16.75-134.92-7.4S446.86,284.42,433.17,273.22ZM673.85,475.46c-8.61-.91-17-2.11-24.61-3.68-43-8.84-70.4-28.28-73.33-38.3s6.85-16.46,19.55-15,37.16-2.67,41.07-15.63,5.46-17.5,12.71-15c10.17,3.52,19.55,4.38,26.39,20.29,1.74,4,3.74,8.43,6,12.79A274.14,274.14,0,0,1,673.85,475.46Z"/>
<path class="cls-2" d="M365.58,291.47c23.45,5.1,47.87-7.27,52.75,11.65S425.17,424,425.17,440s-29.3,42.95-29.3,42.95l-52.75,25.4-38.66-91.77L206,365l75.47-101.29S342.14,286.38,365.58,291.47Z"/>
<path class="cls-2" d="M538.5,485.52c32.22-27.49.77-69.36-21-88.3s-55-59.84-55-59.84S492,450.11,538.5,485.52Z"/>
<path class="cls-2" d="M675.63,408.15c-6.84-15.91-16.22-16.77-26.39-20.29-7.25-2.51-8.8,2-12.71,15s-28.35,17.08-41.07,15.63-22.48,5-19.55,15,30.31,29.46,73.33,38.3c7.63,1.57,16,2.77,24.61,3.68a274.14,274.14,0,0,0,7.75-54.52C679.37,416.58,677.37,412.19,675.63,408.15Z"/>
<text class="cls-3" transform="translate(215.18 165.76) rotate(-36.47)">5</text>
<text class="cls-3" transform="matrix(0.86, -0.51, 0.51, 0.86, 240.6, 146.89)">2</text>
<text class="cls-3" transform="translate(268.12 130.86) rotate(-25.61)"> </text>
<text class="cls-3" transform="translate(286.39 121.19) rotate(-19.19)">w</text>
<text class="cls-3" transform="translate(331.65 106.24) rotate(-13.18)">i</text>
<text class="cls-3" transform="translate(347.82 102.35) rotate(-9.58)">t</text>
<text class="cls-3" transform="translate(368.72 98.4) rotate(-4.16)">h</text>
<text class="cls-3" transform="matrix(1, 0.02, -0.02, 1, 405.43, 96.05)"> </text>
<text class="cls-3" transform="translate(426.36 96.16) rotate(6.14)">a</text>
<text class="cls-3" transform="matrix(0.98, 0.19, -0.19, 0.98, 459.13, 99.9)"> </text>
<text class="cls-3" transform="matrix(0.96, 0.28, -0.28, 0.96, 479.64, 103.54)">V</text>
<text class="cls-3" transform="translate(513.07 113.8) rotate(21.27)">i</text>
<text class="cls-3" transform="translate(528.52 119.4) rotate(25.96)">e</text>
<text class="cls-3" transform="translate(558.36 133.29) rotate(33.47)">w</text>
<text class="cls-4" transform="translate(118.27 675.48)">52VIEW</text>
<path class="cls-2" d="M272.15,524.2c16.77-9,43.85-6.47,43.85-6.47l-74.8-84.12-27.08,16.15-73.51-74a275,275,0,0,0-1.29,56.16,250.51,250.51,0,0,0,6.53,41.34c.9,3.79,1.9,7.55,3,11.29,8.5,12.34,12.43,24.67,17.6,33.22C179.3,539.07,255.38,533.17,272.15,524.2Z"/>
<path class="cls-5" d="M668.87,327a243.91,243.91,0,0,0-15.31-37.68,284.29,284.29,0,0,0-21.63-36.17c-4.39-6.24-7.07-9.74-11.59-15.2s-9.11-10.61-14-15.65a271.55,271.55,0,0,0-142.45-78.49c-54.37-11.09-114.75-4.5-165.07,18.4a283.73,283.73,0,0,0-37,20.32A244.57,244.57,0,0,0,230,206.82a285.73,285.73,0,0,0-29.15,30.1,265.41,265.41,0,0,0-23.22,32.73,261.84,261.84,0,0,0-31.44,76.14c-.68,2.75-1.29,5.5-1.87,8.24a42.9,42.9,0,0,0,16.09-.68c21.51-5.3,121.11-115,121.11-115s71.49,23.66,92,30.14,46-6.48,59.64,4.71,41.06,53.62,74.3,77.78,75.28,56.89,134.92,7.4c11.68,9.24,24.85,19.56,38.61,30.28-.51-6.95-1.24-13.67-2.16-19.53A282.72,282.72,0,0,0,668.87,327Z"/>
<text class="cls-6" transform="translate(316.73 787.36)">TYPE</text></svg>