<svg id="Layer_1" data-name="Layer 1" xmlns="http://www.w3.org/2000/svg" xmlns:xlink="http://www.w3.org/1999/xlink" viewBox="0 0 820.33 820.33"><defs><style>.cls-1{fill:none;}.cls-2,.cls-5{fill:#405229;}.cls-3{clip-path:url(#clip-path);}.cls-4{fill:#5a7936;}.cls-5{font-size:73px;}.cls-5,.cls-6,.cls-8{font-family:Delicious-Heavy, Delicious Heavy;}.cls-6{font-size:218.43px;fill:#fff;stroke:#415228;stroke-miterlimit:10;stroke-width:6px;}.cls-7{fill:#648561;}.cls-8{font-size:102.73px;fill:#415228;}</style><clipPath id="clip-path"><circle class="cls-1" cx="410.17" cy="410.17" r="284.17"/></clipPath></defs><title>Artboard 1 copy 97</title>
<path class="cls-2" d="M652.38,238.9a300.87,300.87,0,0,0-141-107.64c-57.87-21.25-122.76-23.4-182-6.62A296.87,296.87,0,0,0,156,563.3C186.69,614,232.79,655.55,286.85,680a300.62,300.62,0,0,0,183.07,20.78c58.65-11.83,113.3-42.29,154.6-85.53,41.45-43.39,69.61-99.37,78.64-158.78a313.57,313.57,0,0,0,3.67-46.3C706.68,349.18,687.87,288.61,652.38,238.9ZM177.61,269.65a265.41,265.41,0,0,1,23.22-32.73A285.73,285.73,0,0,1,230,206.82a244.57,244.57,0,0,1,31.86-24.31,283.73,283.73,0,0,1,37-20.32c50.32-22.9,110.7-29.49,165.07-18.4a271.55,271.55,0,0,1,142.45,78.49q7.26,7.56,14,15.65c4.52,5.46,7.2,9,11.59,15.2a284.29,284.29,0,0,1,21.63,36.17A243.91,243.91,0,0,1,668.87,327q3.33,10.41,5.83,21.06L624.9,371.9l-35.09,5.89L475.13,304l-27,11.32-75.76-52.17L251.9,379.64l-32.77-12.76-73.79-17.56c.27-1.17.54-2.35.83-3.53A261.84,261.84,0,0,1,177.61,269.65Z"/>
<g class="cls-3">
  <polygon class="cls-4" points="379.89 296.83 433.69 328.62 388.07 370.4 369.36 429.44 337.78 481.21 164.66 479.39 379.89 296.83"/>
<polygon class="cls-4" points="475.79 328.62 549.47 384.02 536.66 423.08 514.38 469.4 570.52 516.63 360.75 486.15 410.3 374.03 475.79 328.62"/>
</g>
<path class="cls-4" d="M642.65,550.76a272,272,0,0,0,39.18-140.59,286.73,286.73,0,0,0-3-41c-.14-.92-.31-1.84-.46-2.76l-65.72,41.4Z"/>
<text class="cls-5" transform="translate(215.18 165.76) rotate(-36.47)">5</text>
<text class="cls-5" transform="matrix(0.86, -0.51, 0.51, 0.86, 240.6, 146.89)">2</text>
<text class="cls-5" transform="translate(268.12 130.86) rotate(-25.61)"> </text>
<text class="cls-5" transform="translate(286.39 121.19) rotate(-19.19)">w</text>
<text class="cls-5" transform="translate(331.65 106.24) rotate(-13.18)">i</text>
<text class="cls-5" transform="translate(347.82 102.35) rotate(-9.58)">t</text>
<text class="cls-5" transform="translate(368.72 98.4) rotate(-4.16)">h</text>
<text class="cls-5" transform="matrix(1, 0.02, -0.02, 1, 405.43, 96.05)"> </text>
<text class="cls-5" transform="translate(426.36 96.16) rotate(6.14)">a</text>
<text class="cls-5" transform="matrix(0.98, 0.19, -0.19, 0.98, 459.13, 99.9)"> </text>
<text class="cls-5" transform="matrix(0.96, 0.28, -0.28, 0.96, 479.64, 103.54)">V</text>
<text class="cls-5" transform="translate(513.07 113.8) rotate(21.27)">i</text>
<text class="cls-5" transform="translate(528.52 119.4) rotate(25.96)">e</text>
<text class="cls-5" transform="translate(558.36 133.29) rotate(33.47)">w</text>
<text class="cls-6" transform="translate(118.27 675.48)">52VIEW</text>
<path class="cls-4" d="M154.66,371l-15.28,16.3a281,281,0,0,0-.06,44.58,250.51,250.51,0,0,0,6.53,41.34l.12.48L220.66,393Z"/>
<path class="cls-7" d="M589.81,377.79l35.09-5.89L674.7,348q-2.51-10.64-5.83-21.06a243.91,243.91,0,0,0-15.31-37.68,284.29,284.29,0,0,0-21.63-36.17c-4.39-6.24-7.07-9.74-11.59-15.2s-9.11-10.61-14-15.65a271.55,271.55,0,0,0-142.45-78.49c-54.37-11.09-114.75-4.5-165.07,18.4a283.73,283.73,0,0,0-37,20.32A244.57,244.57,0,0,0,230,206.82a285.73,285.73,0,0,0-29.15,30.1,265.41,265.41,0,0,0-23.22,32.73,261.84,261.84,0,0,0-31.44,76.14c-.29,1.18-.56,2.36-.83,3.53l73.79,17.56,32.77,12.76L372.37,263.17l75.76,52.17,27-11.32Z"/>
<text class="cls-8" transform="translate(316.73 787.36)">TYPE</text></svg>