<svg id="Layer_1" data-name="Layer 1" xmlns="http://www.w3.org/2000/svg" viewBox="0 0 820.33 820.33"><defs><style>.cls-1,.cls-3{fill:#405229;}.cls-2{fill:#5a7936;}.cls-3{font-size:73px;}.cls-3,.cls-4,.cls-6{font-family:Delicious-Heavy, Delicious Heavy;}.cls-4{font-size:218.43px;fill:#fff;stroke:#415228;stroke-miterlimit:10;stroke-width:6px;}.cls-5{fill:#648561;}.cls-6{font-size:102.73px;fill:#415228;}</style></defs><title>Artboard 1 copy 93</title>
<path class="cls-1" d="M652.38,238.9a300.87,300.87,0,0,0-141-107.64c-57.87-21.25-122.76-23.4-182-6.62A296.87,296.87,0,0,0,156,563.3C186.69,614,232.79,655.55,286.85,680a300.62,300.62,0,0,0,183.07,20.78c58.65-11.83,113.3-42.29,154.6-85.53,41.45-43.39,69.61-99.37,78.64-158.78a313.57,313.57,0,0,0,3.67-46.3C706.68,349.18,687.87,288.61,652.38,238.9Zm-395.32,85L139,427.19a268.37,268.37,0,0,1,7.17-81.4,261.84,261.84,0,0,1,31.44-76.14,265.41,265.41,0,0,1,23.22-32.73A285.73,285.73,0,0,1,230,206.82a244.57,244.57,0,0,1,31.86-24.31,283.73,283.73,0,0,1,37-20.32c50.32-22.9,110.7-29.49,165.07-18.4a271.55,271.55,0,0,1,142.45,78.49q7.26,7.56,14,15.65c4.52,5.46,7.2,9,11.59,15.2a284.29,284.29,0,0,1,21.63,36.17,238.7,238.7,0,0,1,13.22,31.35L566.3,233.4,446.21,304.11s-55.71-32.72-87.9-9.49c-8.73,6.29-33.2,25.93-64.23,51.21Zm87.35,51.83L337,371.28c16.67-19.56,38-45.43,38.27-49.92.41-7.39-13.2-12.67-7.84-17.25s46.22-4.57,61.49,14.78Zm336.72,53.41c-10.85-1.08-22.23-2.51-34.36-4.67-53.24-9.5-80.47-74.94-99-80.22S445,335.78,445,335.78l117.61-77,113.54,95.7c1,4.88,2,9.79,2.72,14.72a286.73,286.73,0,0,1,3,41C681.82,416.51,681.57,422.82,681.13,429.11Z"/>
<path class="cls-2" d="M337,371.28l7.45,4.42,84.47-56.81c-15.27-19.35-56.13-19.35-61.49-14.78s8.25,9.86,7.84,17.25C375,325.85,353.63,351.72,337,371.28Z"/>
<path class="cls-2" d="M447.33,390.5c-5.11-4.39-44-4.39-58.57,14.18L530.33,497s-90.07-82.86-90.47-89.95S452.44,394.89,447.33,390.5Z"/>
<path class="cls-2" d="M678.84,369.15c-.77-4.93-1.69-9.84-2.72-14.72l-113.54-95.7L445,335.78s84.19,3.17,102.76,8.44,45.8,70.72,99,80.22c12.13,2.16,23.51,3.59,34.36,4.67.44-6.29.69-12.6.7-18.94A286.73,286.73,0,0,0,678.84,369.15Z"/>
<text class="cls-3" transform="translate(215.18 165.76) rotate(-36.47)">5</text>
<text class="cls-3" transform="matrix(0.86, -0.51, 0.51, 0.86, 240.6, 146.89)">2</text>
<text class="cls-3" transform="translate(268.12 130.86) rotate(-25.61)"> </text>
<text class="cls-3" transform="translate(286.39 121.19) rotate(-19.19)">w</text>
<text class="cls-3" transform="translate(331.65 106.24) rotate(-13.18)">i</text>
<text class="cls-3" transform="translate(347.82 102.35) rotate(-9.58)">t</text>
<text class="cls-3" transform="translate(368.72 98.4) rotate(-4.16)">h</text>
<text class="cls-3" transform="matrix(1, 0.02, -0.02, 1, 405.43, 96.05)"> </text>
<text class="cls-3" transform="translate(426.36 96.16) rotate(6.14)">a</text>
<text class="cls-3" transform="matrix(0.98, 0.19, -0.19, 0.98, 459.13, 99.9)"> </text>
<text class="cls-3" transform="matrix(0.96, 0.28, -0.28, 0.96, 479.64, 103.54)">V</text>
<text class="cls-3" transform="translate(513.07 113.8) rotate(21.27)">i</text>
<text class="cls-3" transform="translate(528.52 119.4) rotate(25.96)">e</text>
<text class="cls-3" transform="translate(558.36 133.29) rotate(33.47)">w</text>
<text class="cls-4" transform="translate(118.27 675.48)">52VIEW</text>
<path class="cls-2" d="M257.33,421.5c17.69-5.07,105.3-.36,105.3-.36l-112-74L140.16,441a252.37,252.37,0,0,0,5.69,32.22q2.07,8.65,4.7,17.13c6.87-1.57,13.94-3,21.28-4.35C222.54,476.88,239.64,426.56,257.33,421.5Z"/>
<path class="cls-5" d="M631.93,253.13c-4.39-6.24-7.07-9.74-11.59-15.2s-9.11-10.61-14-15.65a271.55,271.55,0,0,0-142.45-78.49c-54.37-11.09-114.75-4.5-165.07,18.4a283.73,283.73,0,0,0-37,20.32A244.57,244.57,0,0,0,230,206.82a285.73,285.73,0,0,0-29.15,30.1,265.41,265.41,0,0,0-23.22,32.73,261.84,261.84,0,0,0-31.44,76.14,268.37,268.37,0,0,0-7.17,81.4L257.06,323.87l37,22c31-25.28,55.5-44.92,64.23-51.21,32.19-23.23,87.9,9.49,87.9,9.49L566.3,233.4l100.48,87.25a238.7,238.7,0,0,0-13.22-31.35A284.29,284.29,0,0,0,631.93,253.13Z"/>
<text class="cls-6" transform="translate(316.73 787.36)">TYPE</text></svg>