<svg id="Layer_1" data-name="Layer 1" xmlns="http://www.w3.org/2000/svg" viewBox="0 0 820.33 820.33"><defs><style>.cls-1,.cls-3{fill:#405229;}.cls-2{fill:#5a7936;}.cls-3{font-size:73px;}.cls-3,.cls-4,.cls-6{font-family:Delicious-Heavy, Delicious Heavy;}.cls-4{font-size:218.43px;fill:#fff;stroke:#415228;stroke-miterlimit:10;stroke-width:6px;}.cls-5{fill:#648561;}.cls-6{font-size:102.73px;fill:#415228;}</style></defs><title>Artboard 1 copy 102</title>
<path class="cls-1" d="M652.38,238.9a300.87,300.87,0,0,0-141-107.64c-57.87-21.25-122.76-23.4-182-6.62A296.87,296.87,0,0,0,156,563.3C186.69,614,232.79,655.55,286.85,680a300.62,300.62,0,0,0,183.07,20.78c58.65-11.83,113.3-42.29,154.6-85.53,41.45-43.39,69.61-99.37,78.64-158.78a313.57,313.57,0,0,0,3.67-46.3C706.68,349.18,687.87,288.61,652.38,238.9Zm-513.06,193a269.45,269.45,0,0,1,6.85-86.09,261.84,261.84,0,0,1,31.44-76.14,265.41,265.41,0,0,1,23.22-32.73A285.73,285.73,0,0,1,230,206.82a244.57,244.57,0,0,1,31.86-24.31,283.73,283.73,0,0,1,37-20.32c50.32-22.9,110.7-29.49,165.07-18.4a271.55,271.55,0,0,1,142.45,78.49q7.26,7.56,14,15.65c4.52,5.46,7.2,9,11.59,15.2a284.29,284.29,0,0,1,21.63,36.17A243.91,243.91,0,0,1,668.87,327a282.72,282.72,0,0,1,10,42.17,286.73,286.73,0,0,1,3,41,275.43,275.43,0,0,1-3.16,41.1c-2.84-2.79-5.49-5.47-7.77-7.9-15.75-16.76-27.58-50.3-47.27-64.5S573.72,313.08,558,300.19s-9.14-36.52-38-62.3-36.77-12.91-48.58,6.43S455.53,260.21,445,266.65s-12.83-.79-26,25-33.81,25.89-33.81,25.89-28.28-16-41.42-14.73-105,87.67-139.12,129c-15.22,18.4-34.35,40.37-53.79,59.78-1.89-6.05-3.6-12.16-5.07-18.33A250.51,250.51,0,0,1,139.32,431.88Z"/>
<path class="cls-2" d="M535.21,345.2c6.8-6.45-15.65-34-21.77-40.46s-4.08-16.42-8.16-22.87,0-26.39-8.85-22.87-19.05,13.49-25.17,25.8-35.38,38.71-38.78,49.85c0,0,25.86,21.11,36.06,23.45s23.13,1.77,29.93,9.39,23.14,21.11,31.3,19.94,12.24-11.14,5.44-21.12-17-15.83-16.33-25.8S528.4,351.66,535.21,345.2Z"/>
<path class="cls-2" d="M354.07,382.31c-1.9-8.33-20.49-39.76-20.49-39.76-6.37-4.18-70.65,95.06-151.35,139.74,26.58-6.06,85.44-23.15,105.38-11.79s32.25,10.54,52.19,6S393,492.14,393,492.14s-3.8-10.6-15.19-20.45-9.62-20.28-9.62-27.85-7.47-19.11-19.81-31.22S356,390.65,354.07,382.31Z"/>
<text class="cls-3" transform="translate(215.18 165.76) rotate(-36.47)">5</text>
<text class="cls-3" transform="matrix(0.86, -0.51, 0.51, 0.86, 240.6, 146.89)">2</text>
<text class="cls-3" transform="translate(268.12 130.86) rotate(-25.61)"> </text>
<text class="cls-3" transform="translate(286.39 121.19) rotate(-19.19)">w</text>
<text class="cls-3" transform="translate(331.65 106.24) rotate(-13.18)">i</text>
<text class="cls-3" transform="translate(347.82 102.35) rotate(-9.58)">t</text>
<text class="cls-3" transform="translate(368.72 98.4) rotate(-4.16)">h</text>
<text class="cls-3" transform="matrix(1, 0.02, -0.02, 1, 405.43, 96.05)"> </text>
<text class="cls-3" transform="translate(426.36 96.16) rotate(6.14)">a</text>
<text class="cls-3" transform="matrix(0.98, 0.19, -0.19, 0.98, 459.13, 99.9)"> </text>
<text class="cls-3" transform="matrix(0.96, 0.28, -0.28, 0.96, 479.64, 103.54)">V</text>
<text class="cls-3" transform="translate(513.07 113.8) rotate(21.27)">i</text>
<text class="cls-3" transform="translate(528.52 119.4) rotate(25.96)">e</text>
<text class="cls-3" transform="translate(558.36 133.29) rotate(33.47)">w</text>
<text class="cls-4" transform="translate(118.27 675.48)">52VIEW</text>
<path class="cls-5" d="M343.83,302.82c13.14-1.28,41.42,14.73,41.42,14.73s20.68-.08,33.81-25.89,15.46-18.56,26-25,14.5-3,26.32-22.33,19.69-32.24,48.58-6.43,22.28,49.41,38,62.3,46,64.5,65.66,78.68,31.52,47.74,47.27,64.5c2.28,2.43,4.93,5.11,7.77,7.9a275.43,275.43,0,0,0,3.16-41.1,286.73,286.73,0,0,0-3-41,282.72,282.72,0,0,0-10-42.17,243.91,243.91,0,0,0-15.31-37.68,284.29,284.29,0,0,0-21.63-36.17c-4.39-6.24-7.07-9.74-11.59-15.2s-9.11-10.61-14-15.65a271.55,271.55,0,0,0-142.45-78.49c-54.37-11.09-114.75-4.5-165.07,18.4a283.73,283.73,0,0,0-37,20.32A244.57,244.57,0,0,0,230,206.82a285.73,285.73,0,0,0-29.15,30.1,265.41,265.41,0,0,0-23.22,32.73,261.84,261.84,0,0,0-31.44,76.14,269.45,269.45,0,0,0-6.85,86.09,250.51,250.51,0,0,0,6.53,41.34c1.47,6.17,3.18,12.28,5.07,18.33,19.44-19.41,38.57-41.38,53.79-59.78C238.85,390.49,330.7,304.11,343.83,302.82Z"/>
<text class="cls-6" transform="translate(316.73 787.36)">TYPE</text></svg>