<svg id="Layer_1" data-name="Layer 1" xmlns="http://www.w3.org/2000/svg" viewBox="0 0 55.67 64"><defs><style>.cls-1{fill:#5a7936;}</style></defs><title>stats-iconsArtboard 2 copy 5</title><path class="cls-1" d="M25.52,11.55l-3.21,2.53L17.64,8.7,5.19,24.61H36.34Z"/><path class="cls-1" d="M41.77,47.75h4.81v2.07H41.77v5.44h-2.2V49.82h-4.8V47.75h4.8v-5h2.2Z"/><rect class="cls-1" x="8.43" y="31.92" width="24.55" height="1.45"/><path class="cls-1" d="M41.07,34.9V11.76A10.86,10.86,0,0,0,30.22.91H11.35A10.86,10.86,0,0,0,.49,11.76V44.27A10.87,10.87,0,0,0,11.35,55.13H28A14.1,14.1,0,1,0,41.07,34.9ZM11.35,53.68a9.42,9.42,0,0,1-9.41-9.41V11.76a9.42,9.42,0,0,1,9.41-9.41H30.22a9.43,9.43,0,0,1,9.41,9.41V34.93a14,14,0,0,0-8,3.27H8.46v1.45H30.13a13.94,13.94,0,0,0-2.82,4.83H8.46v1.44H26.9A14.16,14.16,0,0,0,26.56,49a14,14,0,0,0,.82,4.69Zm29.32,8A12.67,12.67,0,1,1,53.34,49,12.68,12.68,0,0,1,40.67,61.66Z"/></svg>