<svg id="Layer_1" data-name="Layer 1" xmlns="http://www.w3.org/2000/svg" viewBox="0 0 64 44.56"><defs><style>.cls-1{fill:#5a7936;}</style></defs><title>stats-iconsArtboard 2 copy 4</title><path class="cls-1" d="M49.91,44.37A14.1,14.1,0,1,1,64,30.28,14.11,14.11,0,0,1,49.91,44.37Zm0-26.74A12.65,12.65,0,1,0,62.55,30.28,12.66,12.66,0,0,0,49.91,17.63Z"/><path class="cls-1" d="M51,29H55.8V31.1H51v5.44h-2.2V31.1H44V29h4.8V24H51Z"/><path class="cls-1" d="M49.91,16.18A14,14,0,0,0,42,18.6L28,.44,0,37.21H37.65a14.09,14.09,0,1,0,12.26-21ZM32.42,23.51l-3.19,5.14C28.74.66,9.73,46,14.17,33.25S11.39,26.12,16,19.8L28.26,2.85S34.92,12.77,40.34,20a13.69,13.69,0,0,0-2.06,2.37C33.87,20,29.84,18.6,32.42,23.51ZM49.91,42.92A12.65,12.65,0,1,1,62.55,30.28,12.66,12.66,0,0,1,49.91,42.92Z"/></svg>