<svg id="Layer_1" data-name="Layer 1" xmlns="http://www.w3.org/2000/svg" viewBox="0 0 48.75 64"><defs><style>.cls-1{fill:#206ca6;}</style></defs><title>stats-iconsArtboard 2 copy 7</title><polygon class="cls-1" points="24.08 22.73 27.54 29.74 35.27 30.86 29.68 36.31 31 44.01 24.08 40.38 17.17 44.01 18.49 36.31 12.89 30.86 20.63 29.74 24.08 22.73"/><path class="cls-1" d="M35.13,63.71H13.06A12.71,12.71,0,0,1,.36,51V13A12.71,12.71,0,0,1,13.06.28H35.13A12.71,12.71,0,0,1,47.83,13V51A12.71,12.71,0,0,1,35.13,63.71ZM13.06,2a11,11,0,0,0-11,11V51a11,11,0,0,0,11,11H35.13a11,11,0,0,0,11-11V13a11,11,0,0,0-11-11Z"/><path class="cls-1" d="M10.32,27c0,.44,0,.88,0,1.31,0,.78-.08,1.55-.18,2.31A6.72,6.72,0,0,1,9,33.69,3.45,3.45,0,0,1,7.5,34.85c-.11,0-.15,0-.18-.17a6.78,6.78,0,0,1,.57-4.6,8.4,8.4,0,0,1,1.33-1.94c.35-.38.69-.79,1-1.18Z"/><path class="cls-1" d="M10.31,33.37c0,.51.06,1,.08,1.39a14.17,14.17,0,0,1-.1,3.32,5.23,5.23,0,0,1-1.68,3.27,4.71,4.71,0,0,1-.45.33c-.12.08-.2,0-.25-.15a7.81,7.81,0,0,1-.23-3,8,8,0,0,1,1.18-3.11c.36-.55.73-1.07,1.1-1.6A4.4,4.4,0,0,1,10.31,33.37Z"/><path class="cls-1" d="M10.37,46.65a7.23,7.23,0,0,1-.56-4.51,12.14,12.14,0,0,1,.95-2.78c.21-.45.45-.87.68-1.31l.15-.26a18.3,18.3,0,0,1,.57,4.36A5.78,5.78,0,0,1,11,46Z"/><path class="cls-1" d="M9.5,53c.22-.16.42-.31.62-.43a13.46,13.46,0,0,1,1.32-.75,3,3,0,0,1,2.1-.24,3.37,3.37,0,0,1,1.82,1.63.71.71,0,0,1,.12.18.61.61,0,0,1,0,.31A2.74,2.74,0,0,1,12,54.79a9.32,9.32,0,0,1-2.33-1.62A1.15,1.15,0,0,1,9.5,53Z"/><path class="cls-1" d="M4,41.4a6.69,6.69,0,0,1,2.64.43,4,4,0,0,1,2.25,2.48c.18.51.29,1.09.46,1.74-.42.08-.78.16-1.13.19a2.38,2.38,0,0,1-1.91-.9A7.46,7.46,0,0,1,4.86,43.2C4.59,42.61,4.31,42,4,41.4Z"/><path class="cls-1" d="M12.18,50.35a2.93,2.93,0,0,1-1.82.67,3.52,3.52,0,0,1-2.23-1.27,15.42,15.42,0,0,1-1.69-2.29,1.11,1.11,0,0,1,0-.13,13.26,13.26,0,0,1,1.37-.27,4.22,4.22,0,0,1,2,.18,3.14,3.14,0,0,1,1.78,1.69C11.76,49.38,12,49.84,12.18,50.35Z"/><path class="cls-1" d="M2.55,35c.51.19,1,.33,1.39.53A5.09,5.09,0,0,1,6.4,37.65a6.3,6.3,0,0,1,.79,3.13c0,.08,0,.15,0,.25a2.54,2.54,0,0,1-2.37-.87,7.32,7.32,0,0,1-1.39-2.38C3.13,36.9,2.87,36,2.55,35"/><path class="cls-1" d="M10.52,9.13c.13.82.26,1.55.37,2.29a11,11,0,0,1,0,3.34,5.33,5.33,0,0,1-1.08,2.51c-.2.25-.43.47-.65.72a6.54,6.54,0,0,1-.68-3,9.33,9.33,0,0,1,1-4c.26-.54.54-1.05.81-1.57Z"/><path class="cls-1" d="M13.86,51a6.36,6.36,0,0,1-1-1.79,8.66,8.66,0,0,1-.3-4.14c.15-1,.37-2,.55-3h.09l.63,1.45c.15.34.3.68.43,1A9.23,9.23,0,0,1,14.8,48,6.92,6.92,0,0,1,14,50.86S13.91,50.9,13.86,51Z"/><path class="cls-1" d="M11.35,21.12c-.13.71-.22,1.38-.36,2s-.33,1.22-.52,1.82a6,6,0,0,1-.93,1.75,3,3,0,0,1-2.28,1.22c0-.27,0-.51,0-.76a6.23,6.23,0,0,1,.76-3A5.14,5.14,0,0,1,9.5,22.36c.5-.34,1-.71,1.49-1.07C11.09,21.23,11.2,21.19,11.35,21.12Z"/><path class="cls-1" d="M4.24,22.11c.47.72.93,1.35,1.34,2.05a8.16,8.16,0,0,1,1.18,3.62,7.59,7.59,0,0,1-.43,2.84l-.08.12a4.79,4.79,0,0,1-1.39-1.63,7.57,7.57,0,0,1-.76-3.35c0-1.06,0-2.13.07-3.19C4.18,22.45,4.21,22.33,4.24,22.11Z"/><path class="cls-1" d="M7.1,15.35a8.84,8.84,0,0,1,.37,1c.23.8.45,1.6.62,2.43a7.68,7.68,0,0,1,0,3.06,6.06,6.06,0,0,1-1.08,2.38s-.11,0-.14,0a6.18,6.18,0,0,1-.85-2,8,8,0,0,1,0-3.6c.25-1.12.6-2.19.91-3.28Z"/><path class="cls-1" d="M2.67,29.15c.31.17.59.31.86.47a7.25,7.25,0,0,1,2,1.63,6.12,6.12,0,0,1,1.29,4.18c0,.09,0,.2,0,.26s-.12.24-.18.24a3,3,0,0,1-2.33-1.59,10.06,10.06,0,0,1-1.19-3.11c-.13-.57-.23-1.16-.35-1.74C2.71,29.4,2.7,29.3,2.67,29.15Z"/><path class="cls-1" d="M11.44,15a6.26,6.26,0,0,1,.65-2.78,5,5,0,0,1,1.83-2,7.4,7.4,0,0,1,2-.91l.28,0c-.11.41-.19.8-.32,1.15a25.79,25.79,0,0,1-1.07,2.63,3.19,3.19,0,0,1-2.56,2A5.63,5.63,0,0,1,11.44,15Z"/><path class="cls-1" d="M14.56,15.51a14.64,14.64,0,0,1-1.76,3.73,2.79,2.79,0,0,1-2.54,1.44c-.27,0-.55-.1-.83-.16A4.92,4.92,0,0,1,10,18.36,5.92,5.92,0,0,1,10.94,17a4.93,4.93,0,0,1,2.34-1.23C13.69,15.65,14.11,15.6,14.56,15.51Z"/><path class="cls-1" d="M37.45,27c0,.44,0,.88,0,1.31,0,.78.09,1.55.19,2.31a6.61,6.61,0,0,0,1.12,3.06,3.48,3.48,0,0,0,1.5,1.16c.12,0,.15,0,.18-.17a6.83,6.83,0,0,0-.56-4.6,8.13,8.13,0,0,0-1.34-1.94c-.35-.38-.69-.79-1-1.18Z"/><path class="cls-1" d="M37.47,33.37c0,.51-.06,1-.09,1.39a14.73,14.73,0,0,0,.11,3.32,5.18,5.18,0,0,0,1.67,3.27c.15.13.3.22.45.33s.21,0,.25-.15a7.44,7.44,0,0,0,.23-3,7.85,7.85,0,0,0-1.18-3.11c-.35-.55-.72-1.07-1.09-1.6C37.73,33.67,37.62,33.56,37.47,33.37Z"/><path class="cls-1" d="M37.41,46.65A7.15,7.15,0,0,0,38,42.14a11.25,11.25,0,0,0-1-2.78c-.21-.45-.45-.87-.68-1.31l-.14-.26a18.83,18.83,0,0,0-.58,4.36A5.84,5.84,0,0,0,36.78,46C37,46.19,37.19,46.41,37.41,46.65Z"/><path class="cls-1" d="M38.28,53c-.23-.16-.42-.31-.63-.43a12.39,12.39,0,0,0-1.32-.75,3,3,0,0,0-2.1-.24,3.32,3.32,0,0,0-1.81,1.63c0,.06-.11.11-.12.18a.53.53,0,0,0,0,.31,2.75,2.75,0,0,0,3.51,1.09,9.51,9.51,0,0,0,2.33-1.62Z"/><path class="cls-1" d="M43.77,41.4a6.69,6.69,0,0,0-2.64.43,4,4,0,0,0-2.24,2.48c-.19.51-.29,1.09-.46,1.74a11.11,11.11,0,0,0,1.13.19,2.39,2.39,0,0,0,1.91-.9,7.44,7.44,0,0,0,1.44-2.14Z"/><path class="cls-1" d="M35.59,50.35a3,3,0,0,0,1.83.67,3.5,3.5,0,0,0,2.22-1.27,14.74,14.74,0,0,0,1.69-2.29s0-.06,0-.13A13.61,13.61,0,0,0,40,47.06a4.27,4.27,0,0,0-2,.18,3.15,3.15,0,0,0-1.77,1.69C36,49.38,35.82,49.84,35.59,50.35Z"/><path class="cls-1" d="M40.56,41a2.55,2.55,0,0,0,2.37-.87,7.32,7.32,0,0,0,1.39-2.38c.33-.88.59-1.82.9-2.8-.51.19-.95.33-1.38.53a5.11,5.11,0,0,0-2.47,2.14,6.51,6.51,0,0,0-.79,3.13A2.5,2.5,0,0,1,40.56,41Z"/><path class="cls-1" d="M37.26,9.13c-.13.82-.27,1.55-.37,2.29a11,11,0,0,0,0,3.34,5.34,5.34,0,0,0,1.09,2.51c.2.25.42.47.65.72a6.66,6.66,0,0,0,.67-3,9.19,9.19,0,0,0-1-4c-.26-.54-.54-1.05-.81-1.57Z"/><path class="cls-1" d="M33.91,51A6.36,6.36,0,0,0,35,49.16,8.66,8.66,0,0,0,35.27,45c-.15-1-.37-2-.56-3h-.09L34,43.43c-.14.34-.3.68-.42,1A9.43,9.43,0,0,0,33,48a7.07,7.07,0,0,0,.85,2.91S33.87,50.9,33.91,51Z"/><path class="cls-1" d="M36.43,21.12c.12.71.21,1.38.36,2s.33,1.22.52,1.82a5.94,5.94,0,0,0,.92,1.75,3,3,0,0,0,2.29,1.22c0-.27,0-.51,0-.76a6.34,6.34,0,0,0-.76-3,5.37,5.37,0,0,0-1.51-1.76c-.51-.34-1-.71-1.5-1.07A2.9,2.9,0,0,0,36.43,21.12Z"/><path class="cls-1" d="M43.54,22.11c-.48.72-.94,1.35-1.34,2.05A8,8,0,0,0,41,27.78a7.39,7.39,0,0,0,.43,2.84.42.42,0,0,0,.08.12,4.88,4.88,0,0,0,1.38-1.63,7.3,7.3,0,0,0,.76-3.35c0-1.06,0-2.13-.07-3.19A4.15,4.15,0,0,0,43.54,22.11Z"/><path class="cls-1" d="M40.67,15.35c-.12.34-.27.66-.37,1-.22.8-.45,1.6-.62,2.43a7.68,7.68,0,0,0,0,3.06,6,6,0,0,0,1.07,2.38s.12,0,.15,0a6,6,0,0,0,.84-2,8,8,0,0,0,0-3.6c-.26-1.12-.61-2.19-.91-3.28Z"/><path class="cls-1" d="M45.1,29.15c-.31.17-.59.31-.86.47a7.25,7.25,0,0,0-2,1.63A6.12,6.12,0,0,0,41,35.43a1.12,1.12,0,0,0,0,.26c0,.1.12.24.18.24a3,3,0,0,0,2.33-1.59,10.06,10.06,0,0,0,1.19-3.11c.14-.57.24-1.16.36-1.74C45.06,29.4,45.08,29.3,45.1,29.15Z"/><path class="cls-1" d="M36.33,15a6.26,6.26,0,0,0-.65-2.78,5,5,0,0,0-1.83-2,7.4,7.4,0,0,0-2-.91l-.27,0a10.56,10.56,0,0,0,.32,1.15A23.66,23.66,0,0,0,33,13.08a3.19,3.19,0,0,0,2.56,2A5.54,5.54,0,0,0,36.33,15Z"/><path class="cls-1" d="M33.21,15.51A14.65,14.65,0,0,0,35,19.24a2.79,2.79,0,0,0,2.54,1.44c.27,0,.54-.1.83-.16a5.06,5.06,0,0,0-.57-2.16,5.63,5.63,0,0,0-1-1.37,4.89,4.89,0,0,0-2.34-1.23C34.08,15.65,33.67,15.6,33.21,15.51Z"/><path class="cls-1" d="M33.89,57.24c-.41-.37-1.35-.37-2.21-.58a7.87,7.87,0,0,1-2-1.16,1.33,1.33,0,0,0-1.07,0s-.82-.55-1.33-.86a.88.88,0,0,0-.9-.07l-1.51-1c-.35-.23-.64-.11-1.4.27-.34.17-1.6,1.12-2.91,2.12l-.53-.36a.62.62,0,0,0-.65,0l-1.07-.73c-.25-.18-.46-.09-1,.2s-4.55,3.64-4.55,3.64H35.38S34.3,57.61,33.89,57.24Z"/></svg>