<svg id="Layer_1" data-name="Layer 1" xmlns="http://www.w3.org/2000/svg" viewBox="0 0 54 64"><defs><style>.cls-1{fill:#206ca6;}</style></defs><title>stats-iconsArtboard 2 copy 6</title><path class="cls-1" d="M27.87,12.05l-3.53,2.78L19.21,8.92,5.53,26.4H39.76Z"/><rect class="cls-1" x="9.09" y="34.43" width="26.98" height="1.59"/><path class="cls-1" d="M42.85,40.86a5.47,5.47,0,0,1,4,2.39l1.27,1.34,2.45-.05V42.72l2.75,0V63.5H50.45V47.64H47.28L44.82,46l-.7,5.34,3.3,4s.71,7.32,0,8.16-2.81.48-3.51,0,0-6.75,0-6.75-5.24-3.86-5.63-5.7S40.25,40.72,42.85,40.86Z"/><path class="cls-1" d="M38.77,39.73c.78.54-1.79,8.34-2.39,10.83C36,52.1,30.55,48.8,30.55,48.8s-.21-8.46,4.11-9.35C35.81,39.22,38,39.2,38.77,39.73Z"/><path class="cls-1" d="M29,49.71l0-.87c0-.11,0-.33,0-.61H9.12v1.59h20Z"/><circle class="cls-1" cx="44.29" cy="36.2" r="3.09"/><path class="cls-1" d="M37.93,53l2.67,3.09s-1,6.76-1.68,7.39-3.26.75-3.42-.49S37.93,53,37.93,53Z"/><path class="cls-1" d="M33,.35H12.29A11.94,11.94,0,0,0,.37,12.28V48A11.94,11.94,0,0,0,12.29,59.93H33a13.36,13.36,0,0,0,1.42-.09c.12-.53.26-1.09.41-1.67a10.13,10.13,0,0,1-1.83.17H12.29A10.35,10.35,0,0,1,2,48V12.28A10.35,10.35,0,0,1,12.29,1.94H33A10.35,10.35,0,0,1,43.37,12.28V31.61a4.63,4.63,0,0,1,.92-.09,3.71,3.71,0,0,1,.67.07V12.28A11.94,11.94,0,0,0,33,.35Z"/><path class="cls-1" d="M30.36,41.33H9.12v1.59H29.74A11.38,11.38,0,0,1,30.36,41.33Z"/></svg>