<svg id="Layer_1" data-name="Layer 1" xmlns="http://www.w3.org/2000/svg" viewBox="0 0 64 64"><defs><style>.cls-1{fill:#5a7936;}</style></defs><title>stats-iconsArtboard 2 copy 3</title><rect class="cls-1" x="21.68" y="41.62" width="17.24" height="1.67"/><rect class="cls-1" x="21.68" y="49.88" width="17.24" height="1.67"/><rect class="cls-1" x="10.6" y="11.62" width="28.32" height="1.67"/><path class="cls-1" d="M12.71,56.2a7.35,7.35,0,1,1,7.35-7.35A7.36,7.36,0,0,1,12.71,56.2Zm0-13a5.68,5.68,0,1,0,5.68,5.68A5.69,5.69,0,0,0,12.71,43.17Z"/><path class="cls-1" d="M62.83,57.82,47,26.08,37.09,18.7,37,31.07,52.8,62.81a1.7,1.7,0,0,0,2.27.76l7-3.49A1.69,1.69,0,0,0,62.83,57.82ZM40.53,31.56,38,30.87l0,0L38,22.3l1.64-.47,6.58,4.89,0,.06-.62.66-2,0-1.15,2.2-1.35-.55Zm2.52,2.06L54.1,55.83l-1.63.81-11-22.21ZM61.63,59.21l-7,3.49a.73.73,0,0,1-1-.32l-1.24-2.51,8.28-4.12L62,58.25A.72.72,0,0,1,61.63,59.21Z"/><path class="cls-1" d="M45.88,52.65a10.87,10.87,0,0,1-10.59,8.49H13.52A10.87,10.87,0,0,1,2.67,50.28V12.78A10.87,10.87,0,0,1,13.52,1.92H35.29A10.87,10.87,0,0,1,46.15,12.78V23.34l1.67,1.25V12.78A12.54,12.54,0,0,0,35.29.25H13.52A12.53,12.53,0,0,0,1,12.78v37.5A12.53,12.53,0,0,0,13.52,62.81H35.29a12.55,12.55,0,0,0,11.67-8Z"/><polygon class="cls-1" points="35.42 18.86 10.63 18.86 10.63 20.53 35.41 20.53 35.42 18.86"/><polygon class="cls-1" points="35.36 26.11 10.63 26.11 10.63 27.78 35.35 27.78 35.36 26.11"/><polygon class="cls-1" points="36.4 33.35 10.63 33.35 10.63 35.02 37.23 35.02 36.4 33.35"/></svg>